<svg xmlns="http://www.w3.org/2000/svg" width="52" height="52" viewBox="0 0 52 52">
  <g id="Group_4700" data-name="Group 4700" transform="translate(-73 -530)">
    <circle id="Ellipse_28" data-name="Ellipse 28" cx="26" cy="26" r="26" transform="translate(73 530)" fill="#1f3b64" opacity="0.1"/>
    <g id="Iconly_Bold_Wallet" data-name="Iconly/Bold/Wallet" transform="translate(82 539)">
      <g id="Wallet" transform="translate(2.833 4.25)">
        <path id="Wallet-2" data-name="Wallet" d="M20.563,25.5H7.77a7.99,7.99,0,0,1-5.717-2A7.54,7.54,0,0,1,0,17.937V7.563A7.54,7.54,0,0,1,2.053,2,7.99,7.99,0,0,1,7.77,0H20.563A7.959,7.959,0,0,1,26.28,2.007a7.639,7.639,0,0,1,2.053,5.618H22.339v.048a5.075,5.075,0,0,0-3.561,1.441,4.816,4.816,0,0,0-1.477,3.47A4.981,4.981,0,0,0,22.339,17.5h5.994v.441A7.54,7.54,0,0,1,26.28,23.5,7.99,7.99,0,0,1,20.563,25.5ZM6.712,5.513A1.073,1.073,0,0,0,5.629,6.556,1.085,1.085,0,0,0,6.712,7.624h8a1.056,1.056,0,1,0,0-2.111Zm20.563,9.87H22.411a2.968,2.968,0,0,1-2.917-2.258,2.8,2.8,0,0,1,.613-2.341,2.96,2.96,0,0,1,2.233-1.048h4.936a1.046,1.046,0,0,1,1.058,1.031v3.585A1.063,1.063,0,0,1,27.275,15.383Zm-4.735-3.989a1.073,1.073,0,0,0-.751.3,1.036,1.036,0,0,0-.319.742A1.086,1.086,0,0,0,22.553,13.5h.465a1.056,1.056,0,1,0,0-2.111h-.479Z" transform="translate(0 0)" fill="#1f3b64"/>
      </g>
    </g>
  </g>
</svg>
