<svg xmlns="http://www.w3.org/2000/svg" xmlns:xlink="http://www.w3.org/1999/xlink" width="332" height="131" viewBox="0 0 332 131">
  <defs>
    <clipPath id="clip-path">
      <path id="Frame_10592_Background_Mask_" data-name="Frame 10592 (Background/Mask)" d="M0,0H332a0,0,0,0,1,0,0V103a28,28,0,0,1-28,28H0a0,0,0,0,1,0,0V0A0,0,0,0,1,0,0Z" fill="none"/>
    </clipPath>
  </defs>
  <g id="Group_10621" data-name="Group 10621" opacity="0.4">
    <g id="Frame_10592" data-name="Frame 10592">
      <path id="Frame_10592_Background_Mask_2" data-name="Frame 10592 (Background/Mask)" d="M0,0H332a0,0,0,0,1,0,0V103a28,28,0,0,1-28,28H0a0,0,0,0,1,0,0V0A0,0,0,0,1,0,0Z" fill="none"/>
      <g id="Frame_10592-2" data-name="Frame 10592" clip-path="url(#clip-path)">
        <path id="Vector_3" data-name="Vector 3" d="M1.759,267.842c-6.188-38.895.53-114.827,76.905-107.4,95.468,9.282,121.987-74.253,217.456-22.541S463.189,80.883,402.2,0" transform="translate(0 -90.165)" fill="none" stroke="#fff" stroke-linecap="round" stroke-linejoin="round" stroke-width="0.5" stroke-dasharray="0 0"/>
        <path id="Vector_4" data-name="Vector 4" d="M1.759,267.842c-6.188-38.895.53-114.827,76.905-107.4,95.468,9.282,121.987-74.253,217.456-22.541S463.189,80.883,402.2,0" transform="translate(5.304 -74.253)" fill="none" stroke="#fff" stroke-linecap="round" stroke-linejoin="round" stroke-width="0.5" stroke-dasharray="0 0"/>
        <path id="Vector_5" data-name="Vector 5" d="M1.759,267.842c-6.188-38.895.53-114.827,76.905-107.4,95.468,9.282,121.987-74.253,217.456-22.541S463.189,80.883,402.2,0" transform="translate(10.607 -58.342)" fill="none" stroke="#fff" stroke-linecap="round" stroke-linejoin="round" stroke-width="0.5" stroke-dasharray="0 0"/>
        <path id="Vector_6" data-name="Vector 6" d="M1.759,267.842c-6.188-38.895.53-114.827,76.905-107.4,95.468,9.282,121.987-74.253,217.456-22.541S463.189,80.883,402.2,0" transform="translate(15.912 -42.43)" fill="none" stroke="#fff" stroke-linecap="round" stroke-linejoin="round" stroke-width="0.5" stroke-dasharray="0 0"/>
        <path id="Vector_7" data-name="Vector 7" d="M1.759,267.842c-6.188-38.895.53-114.827,76.905-107.4,95.468,9.282,121.987-74.253,217.456-22.541S463.189,80.883,402.2,0" transform="translate(21.215 -26.519)" fill="none" stroke="#fff" stroke-linecap="round" stroke-linejoin="round" stroke-width="0.5" stroke-dasharray="0 0"/>
        <path id="Vector_8" data-name="Vector 8" d="M1.759,267.842c-6.188-38.895.53-114.827,76.905-107.4,95.468,9.282,121.987-74.253,217.456-22.541S463.189,80.883,402.2,0" transform="translate(26.519 -10.608)" fill="none" stroke="#fff" stroke-linecap="round" stroke-linejoin="round" stroke-width="0.5" stroke-dasharray="0 0"/>
        <path id="Vector_9" data-name="Vector 9" d="M1.759,267.842c-6.188-38.895.53-114.827,76.905-107.4,95.468,9.282,121.987-74.253,217.456-22.541S463.189,80.883,402.2,0" transform="translate(31.823 5.304)" fill="none" stroke="#fff" stroke-linecap="round" stroke-linejoin="round" stroke-width="0.5" stroke-dasharray="0 0"/>
        <path id="Vector_10" data-name="Vector 10" d="M1.759,267.842c-6.188-38.895.53-114.827,76.905-107.4,95.468,9.282,121.987-74.253,217.456-22.541S463.189,80.883,402.2,0" transform="translate(37.126 21.215)" fill="none" stroke="#fff" stroke-linecap="round" stroke-linejoin="round" stroke-width="0.5" stroke-dasharray="0 0"/>
        <path id="Vector_11" data-name="Vector 11" d="M1.759,267.842c-6.188-38.895.53-114.827,76.905-107.4,95.468,9.282,121.987-74.253,217.456-22.541S463.189,80.883,402.2,0" transform="translate(42.43 37.127)" fill="none" stroke="#fff" stroke-linecap="round" stroke-linejoin="round" stroke-width="0.5" stroke-dasharray="0 0"/>
        <path id="Vector_12" data-name="Vector 12" d="M1.759,267.842c-6.188-38.895.53-114.827,76.905-107.4,95.468,9.282,121.987-74.253,217.456-22.541S463.189,80.883,402.2,0" transform="translate(47.734 53.038)" fill="none" stroke="#fff" stroke-linecap="round" stroke-linejoin="round" stroke-width="0.5" stroke-dasharray="0 0"/>
        <path id="Vector_13" data-name="Vector 13" d="M1.759,267.842c-6.188-38.895.53-114.827,76.905-107.4,95.468,9.282,121.987-74.253,217.456-22.541S463.189,80.883,402.2,0" transform="translate(53.038 68.949)" fill="none" stroke="#fff" stroke-linecap="round" stroke-linejoin="round" stroke-width="0.5" stroke-dasharray="0 0"/>
        <path id="Vector_14" data-name="Vector 14" d="M1.759,267.842c-6.188-38.895.53-114.827,76.905-107.4,95.468,9.282,121.987-74.253,217.456-22.541S463.189,80.883,402.2,0" transform="translate(58.342 84.861)" fill="none" stroke="#fff" stroke-linecap="round" stroke-linejoin="round" stroke-width="0.5" stroke-dasharray="0 0"/>
        <path id="Vector_15" data-name="Vector 15" d="M1.759,267.842c-6.188-38.895.53-114.827,76.905-107.4,95.468,9.282,121.987-74.253,217.456-22.541S463.189,80.883,402.2,0" transform="translate(63.646 100.772)" fill="none" stroke="#fff" stroke-linecap="round" stroke-linejoin="round" stroke-width="0.5" stroke-dasharray="0 0"/>
        <path id="Vector_16" data-name="Vector 16" d="M1.759,267.842c-6.188-38.895.53-114.827,76.905-107.4,95.468,9.282,121.987-74.253,217.456-22.541S463.189,80.883,402.2,0" transform="translate(68.949 116.684)" fill="none" stroke="#fff" stroke-linecap="round" stroke-linejoin="round" stroke-width="0.5" stroke-dasharray="0 0"/>
        <path id="Vector_17" data-name="Vector 17" d="M1.759,267.842c-6.188-38.895.53-114.827,76.905-107.4,95.468,9.282,121.987-74.253,217.456-22.541S463.189,80.883,402.2,0" transform="translate(74.253 132.595)" fill="none" stroke="#fff" stroke-linecap="round" stroke-linejoin="round" stroke-width="0.5" stroke-dasharray="0 0"/>
        <path id="Vector_18" data-name="Vector 18" d="M1.759,267.842c-6.188-38.895.53-114.827,76.905-107.4,95.468,9.282,121.987-74.253,217.456-22.541S463.189,80.883,402.2,0" transform="translate(79.557 148.506)" fill="none" stroke="#fff" stroke-linecap="round" stroke-linejoin="round" stroke-width="0.5" stroke-dasharray="0 0"/>
        <path id="Vector_19" data-name="Vector 19" d="M1.759,267.842c-6.188-38.895.53-114.827,76.905-107.4,95.468,9.282,121.987-74.253,217.456-22.541S463.189,80.883,402.2,0" transform="translate(84.861 164.418)" fill="none" stroke="#fff" stroke-linecap="round" stroke-linejoin="round" stroke-width="0.5" stroke-dasharray="0 0"/>
        <path id="Vector_20" data-name="Vector 20" d="M1.759,267.842c-6.188-38.895.53-114.827,76.905-107.4,95.468,9.282,121.987-74.253,217.456-22.541S463.189,80.883,402.2,0" transform="translate(90.165 180.329)" fill="none" stroke="#fff" stroke-linecap="round" stroke-linejoin="round" stroke-width="0.5" stroke-dasharray="0 0"/>
      </g>
    </g>
  </g>
</svg>
