<svg xmlns="http://www.w3.org/2000/svg" width="145.783" height="125.743" viewBox="0 0 145.783 125.743">
  <g id="Group_4515" data-name="Group 4515" transform="translate(-129.357 -383.313)">
    <path id="Path_7162" data-name="Path 7162" d="M275.087,1897.109a5.074,5.074,0,1,0-5.074-5.074A5.07,5.07,0,0,0,275.087,1897.109Z" transform="translate(-35.122 -1503.646)" fill="#eaeef9"/>
    <path id="Path_7163" data-name="Path 7163" d="M266.9,1907.931a3.465,3.465,0,1,0-3.465-3.465A3.462,3.462,0,0,0,266.9,1907.931Z" transform="translate(-19.507 -1413.305)" fill="#eaeef9"/>
    <path id="Path_7164" data-name="Path 7164" d="M176.178,1839.491a3.465,3.465,0,1,0-3.465-3.465A3.463,3.463,0,0,0,176.178,1839.491Z" transform="translate(-41.066 -1429.568)" fill="#43d477"/>
    <path id="Path_7165" data-name="Path 7165" d="M159.649,1894.631a6.436,6.436,0,1,0-6.436-6.436A6.437,6.437,0,0,0,159.649,1894.631Z" transform="translate(-23.855 -1391.416)" fill="#eaeef9"/>
    <path id="Path_7166" data-name="Path 7166" d="M233.611,1942.4a62.872,62.872,0,1,0-62.748-62.872A62.776,62.776,0,0,0,233.611,1942.4Z" transform="translate(-41.506 -1433.347)" fill="#eaeef9"/>
    <path id="Path_7167" data-name="Path 7167" d="M266.031,1824.3a3.389,3.389,0,0,1,3.446,3.428V1928.88a3.392,3.392,0,0,1-3.446,3.428h-74.8a3.4,3.4,0,0,1-3.447-3.428V1827.728a3.393,3.393,0,0,1,3.447-3.428Z" transform="translate(-37.485 -1431.531)" fill="#ced7e2"/>
    <path id="Path_7168" data-name="Path 7168" d="M268.732,1833.581v93.862a3.393,3.393,0,0,1-3.446,3.428h-68.34l-6.03-6,67.909-93,5.886-2.154Z" transform="translate(-36.74 -1430.243)" fill="#bcc4cf"/>
    <path id="Path_7169" data-name="Path 7169" d="M265,1830.871a1.137,1.137,0,0,0-1.148-1.151H192.066a1.134,1.134,0,0,0-1.149,1.151v92.859a1.127,1.127,0,0,0,1.149,1.139h71.642a1.124,1.124,0,0,0,1.148-1.139Z" transform="translate(-36.74 -1430.243)" fill="#d9dfee"/>
    <path id="Path_7170" data-name="Path 7170" d="M265.551,1830.871a1.137,1.137,0,0,0-1.148-1.151H192.617a1.134,1.134,0,0,0-1.149,1.151c.861,36.993,1.149,78.862-2.873,89.716l68.77-1C261.531,1900.723,264.689,1866.874,265.551,1830.871Z" transform="translate(-37.292 -1430.243)" fill="#eff3fb"/>
    <g id="Group_4444" data-name="Group 4444" transform="translate(141.594 399.625)">
      <path id="Path_7171" data-name="Path 7171" d="M267.27,1829.84s-.144,5.569-1.866,41.139v.718c-2.153,34.864-33.165,42.141-36.9,42.575-1.723.148-5.025.433-10.911.433-7.323.285-18.521.421-36.036.569a.785.785,0,0,1-.718-1.151c12.059-24.134,12.2-84.146,12.2-84.146Z" transform="translate(-180.75 -1829.84)" fill="#fff"/>
    </g>
    <path id="Path_7172" data-name="Path 7172" d="M258.215,1863.55c-2.01,34.852-33.165,42.141-36.9,42.562-1.723.149-5.026.433-10.912.433,15.506-7.141,23.833-20,23.69-30C241.56,1877.115,254.482,1876.545,258.215,1863.55Z" transform="translate(-32.109 -1422.204)" fill="#eaeef9"/>
    <path id="Path_7173" data-name="Path 7173" d="M241.36,1825.545h0l-.718-.718a1.148,1.148,0,0,0-.574.433h-11.2v-.718a4.308,4.308,0,0,0-8.615,0c0,.285,0,.433.144.569H208.77a1.174,1.174,0,0,0-1.149,1.287v3.713a4.4,4.4,0,0,0,4.738,4.579h23.833c2.871,0,5.312-1.72,5.312-4.579v-3.849A.629.629,0,0,0,241.36,1825.545Z" transform="translate(-32.771 -1432.491)" fill="#1c3754"/>
    <path id="Path_7174" data-name="Path 7174" d="M241.067,1825.709v4.431a5.22,5.22,0,0,1-5.025,4.431H212.066a5.22,5.22,0,0,1-5.025-4.431v-4.431a1.256,1.256,0,0,1,1.149-1.287h11.772v-.569a4.308,4.308,0,0,1,8.615,0v.569h11.772A1.431,1.431,0,0,1,241.067,1825.709Z" transform="translate(-32.909 -1432.655)" fill="#fff"/>
    <path id="Path_7175" data-name="Path 7175" d="M221.116,1825.408a2,2,0,1,0-2.011-1.993A2.046,2.046,0,0,0,221.116,1825.408Z" transform="translate(-30.042 -1432.218)" fill="#eaeef9"/>
    <path id="Path_7176" data-name="Path 7176" d="M240.924,1828.11a5.22,5.22,0,0,1-5.025,4.431H212.066a5.22,5.22,0,0,1-5.025-4.431Z" transform="translate(-32.909 -1430.626)" fill="#9aa1b2"/>
    <path id="Path_7177" data-name="Path 7177" d="M205.958,1864.735a4,4,0,1,0-4.02-4A3.913,3.913,0,0,0,205.958,1864.735Z" transform="translate(-34.123 -1423.823)" fill="#43d477"/>
    <path id="Path_7178" data-name="Path 7178" d="M231.71,1864.615a4,4,0,1,0,0-7.995,4.1,4.1,0,0,0-4.02,4A4,4,0,0,0,231.71,1864.615Z" transform="translate(-28.002 -1423.851)" fill="#43d477"/>
    <path id="Path_7179" data-name="Path 7179" d="M222.683,1866.66h-7.754v1.856h7.754Z" transform="translate(-31.034 -1421.465)" fill="#43d477"/>
    <path id="Path_7180" data-name="Path 7180" d="M295.491,1830.19a92.413,92.413,0,0,1-1.579,45.136c-1,3.007-2.01,6.287-4.163,8.577a13.325,13.325,0,0,1-12.922,4,12.67,12.67,0,0,1-9.188-10,8.221,8.221,0,0,1,2.871-8.428,7.589,7.589,0,0,1,8.9.854,10.348,10.348,0,0,1,3.446,8.577,20.109,20.109,0,0,1-2.871,9,39.9,39.9,0,0,1-45.8,19.282" transform="translate(-26.458 -1430.132)" fill="none" stroke="#c9d4e2" stroke-miterlimit="10" stroke-width="2" stroke-dasharray="4 4"/>
    <path id="Path_7181" data-name="Path 7181" d="M289.9,1827.409c-.431,1.572-2.153,2.141-3.876,1.151-1.866-.866-3.158-1.572-2.871-3.008.431-1.423,2.153-1.572,4.163-1.708C289.752,1823.56,290.182,1825.837,289.9,1827.409Z" transform="translate(-14.833 -1431.645)" fill="#dae2eb"/>
    <path id="Path_7182" data-name="Path 7182" d="M277.4,1828.626a2.757,2.757,0,0,0,4.163.854c1.579-1.423,2.871-2.426,2.153-3.861-.718-1.287-1.866-.854-4.307-.569C277.4,1825.482,276.543,1827.19,277.4,1828.626Z" transform="translate(-16.267 -1431.426)" fill="#dae2eb"/>
    <path id="Path_7183" data-name="Path 7183" d="M282.775,1823.615a2.106,2.106,0,0,1,2.3,1.275,2.714,2.714,0,0,1,.287,1c.287,2.005-.431,3.713-1.579,3.862-1.292.285-2.584-1.138-2.728-3v-1.287a1.98,1.98,0,0,1,1.723-1.857Z" transform="translate(-15.322 -1431.7)" fill="#989fb0"/>
  </g>
</svg>
