<svg xmlns="http://www.w3.org/2000/svg" width="150" height="150" viewBox="0 0 150 150">
  <g id="Group_4504" data-name="Group 4504" transform="translate(-113 -339)">
    <rect id="Rectangle_1723" data-name="Rectangle 1723" width="150" height="150" transform="translate(113 339)" fill="none"/>
    <g id="Group_4507" data-name="Group 4507" transform="translate(-17.257 -37.749)">
      <circle id="Ellipse_593" data-name="Ellipse 593" cx="70.576" cy="70.576" r="70.576" transform="translate(139.106 381.174)" fill="#eaeef9"/>
      <path id="Path_7579" data-name="Path 7579" d="M454.38,995.1a6.046,6.046,0,1,0-6.046-6.046A6.046,6.046,0,0,0,454.38,995.1Z" transform="translate(-190.284 -477.437)" fill="#eaeef9"/>
      <path id="Path_7580" data-name="Path 7580" d="M459.763,977.866a4.129,4.129,0,1,0-4.129-4.129A4.129,4.129,0,0,0,459.763,977.866Z" transform="translate(-190.106 -584.955)" fill="#43d477"/>
      <path id="Path_7581" data-name="Path 7581" d="M358.952,975.6a7.668,7.668,0,1,0-7.668-7.668A7.669,7.669,0,0,0,358.952,975.6Z" transform="translate(-213.731 -575.016)" fill="#eaeef9"/>
      <path id="Path_7582" data-name="Path 7582" d="M429.232,989.477h-37.6V975.208H441.19a14.337,14.337,0,0,1,13.951,14.268H438.835" transform="translate(-192.259 -576.179)" fill="#ccd4e2"/>
      <g id="Group_4472" data-name="Group 4472" transform="translate(155.532 399.029)">
        <path id="Path_7583" data-name="Path 7583" d="M456.389,975.208a11.334,11.334,0,0,0-7.519,3.364,3.841,3.841,0,0,0-.543.635,11.649,11.649,0,0,0-2.99,7.451v84.875a14.218,14.218,0,0,1-14.223,14.274H361.9V986.023a11.432,11.432,0,0,1,3.17-7.451,11.272,11.272,0,0,1,8.063-3.364h83.252Z" transform="translate(-361.903 -975.208)" fill="#fff"/>
      </g>
      <path id="Path_7584" data-name="Path 7584" d="M416.2,989.275H395.637a1.363,1.363,0,0,1,0-2.727H416.2a1.4,1.4,0,0,1,1.36,1.363A1.338,1.338,0,0,1,416.2,989.275Z" transform="translate(-191.005 -570.797)" fill="#b3bfd3"/>
      <path id="Path_7585" data-name="Path 7585" d="M397.7,989.275H370.879a1.363,1.363,0,0,1,0-2.727h26.906a1.4,1.4,0,0,1,1.358,1.363A1.416,1.416,0,0,1,397.7,989.275Z" transform="translate(-202.755 -570.797)" fill="#b3bfd3"/>
      <path id="Path_7586" data-name="Path 7586" d="M409.338,998.4H382.613a1.363,1.363,0,0,1,0-2.726h26.725a1.4,1.4,0,0,1,1.36,1.362A1.286,1.286,0,0,1,409.338,998.4Z" transform="translate(-197.186 -566.468)" fill="#b3bfd3"/>
      <path id="Path_7587" data-name="Path 7587" d="M379.577,998.4h-8.7a1.363,1.363,0,0,1,0-2.726h8.7a1.363,1.363,0,0,1,0,2.726Z" transform="translate(-202.755 -566.468)" fill="#d4dbec"/>
      <path id="Path_7588" data-name="Path 7588" d="M414.86,1007.518h-16.4a1.364,1.364,0,0,1,0-2.728h16.4a1.393,1.393,0,0,1,1.36,1.357A1.338,1.338,0,0,1,414.86,1007.518Z" transform="translate(-189.664 -562.139)" fill="#d4dbec"/>
      <path id="Path_7589" data-name="Path 7589" d="M403.673,1007.518H370.879a1.364,1.364,0,0,1,0-2.728h32.794a1.393,1.393,0,0,1,1.36,1.357A1.338,1.338,0,0,1,403.673,1007.518Z" transform="translate(-202.755 -562.139)" fill="#b3bfd3"/>
      <path id="Path_7590" data-name="Path 7590" d="M406.539,1016.638H388.512a1.364,1.364,0,0,1,0-2.728h18.027a1.393,1.393,0,0,1,1.36,1.357A1.286,1.286,0,0,1,406.539,1016.638Z" transform="translate(-194.387 -557.81)" fill="#b3bfd3"/>
      <path id="Path_7591" data-name="Path 7591" d="M389,1016.638H370.879a1.364,1.364,0,0,1,0-2.728h18.209a1.393,1.393,0,0,1,1.36,1.357A1.416,1.416,0,0,1,389,1016.638Z" transform="translate(-202.755 -557.81)" fill="#d4dbec"/>
      <path id="Path_7592" data-name="Path 7592" d="M413.635,1025.758H401.043a1.364,1.364,0,0,1,0-2.728h12.592a1.4,1.4,0,0,1,1.36,1.371A1.334,1.334,0,0,1,413.635,1025.758Z" transform="translate(-188.439 -553.482)" fill="#b3bfd3"/>
      <path id="Path_7593" data-name="Path 7593" d="M402.308,1025.758H381.2a1.364,1.364,0,0,1,0-2.728h21.108a1.364,1.364,0,0,1,0,2.728Z" transform="translate(-197.857 -553.482)" fill="#d4dbec"/>
      <path id="Path_7594" data-name="Path 7594" d="M378.217,1025.758h-7.338a1.364,1.364,0,0,1,0-2.728h7.338a1.364,1.364,0,0,1,0,2.728Z" transform="translate(-202.755 -553.482)" fill="#b3bfd3"/>
      <path id="Path_7595" data-name="Path 7595" d="M404.76,1034.878h-12.5a1.364,1.364,0,0,1,0-2.728h12.5a1.4,1.4,0,0,1,1.358,1.371A1.28,1.28,0,0,1,404.76,1034.878Z" transform="translate(-192.608 -549.154)" fill="#b3bfd3"/>
      <path id="Path_7596" data-name="Path 7596" d="M394.162,1034.878H370.879a1.364,1.364,0,0,1,0-2.728h23.283a1.364,1.364,0,0,1,0,2.728Z" transform="translate(-202.755 -549.154)" fill="#d4dbec"/>
      <path id="Path_7597" data-name="Path 7597" d="M408.812,1042.57h18.3a11.234,11.234,0,0,0,3.262,7.9,10.765,10.765,0,0,0,7.88,3.273H355.905a11.157,11.157,0,0,1-11.142-11.178h54.173S408.992,1042.659,408.812,1042.57Z" transform="translate(-214.506 -544.208)" fill="#ccd4e2"/>
      <path id="Path_7598" data-name="Path 7598" d="M445.153,1041.179l-11.439-11.428,2.623-2.61,11.428,11.428Z" transform="translate(-172.288 -551.531)" fill="#f8f8f8"/>
      <path id="Path_7599" data-name="Path 7599" d="M447.167,1043.246l-8.77-8.774a1.878,1.878,0,0,1,2.657-2.654l8.771,8.774a1.878,1.878,0,1,1-2.659,2.654Z" transform="translate(-170.326 -549.573)" fill="#cfcfcf"/>
      <path id="Path_7600" data-name="Path 7600" d="M447.439,1044.7l-11.284-11.281a.682.682,0,0,1,0-.959l2.884-2.89a.7.7,0,0,1,.959,0l11.284,11.3a.681.681,0,0,1,0,.958L448.4,1044.7A.677.677,0,0,1,447.439,1044.7Z" transform="translate(-171.223 -550.467)" fill="#43d477"/>
      <path id="Path_7601" data-name="Path 7601" d="M431.91,1003.94a21.67,21.67,0,1,0,21.664,21.677A21.673,21.673,0,0,0,431.91,1003.94Zm0,39.328a17.661,17.661,0,1,1,17.4-17.651A17.528,17.528,0,0,1,431.91,1043.268Z" transform="translate(-183.431 -562.542)" fill="#43d477"/>
    </g>
  </g>
</svg>
