<svg xmlns="http://www.w3.org/2000/svg" width="12" height="15" viewBox="0 0 12 15">
  <g id="Bookmark" transform="translate(0 0)">
    <path id="Bookmark-2" data-name="Bookmark" d="M11.239,15a.769.769,0,0,1-.387-.105l-4.86-2.43-4.867,2.43a.8.8,0,0,1-.368.1A.762.762,0,0,1,0,14.227V2.842A2.487,2.487,0,0,1,1.078.656,4.616,4.616,0,0,1,3.675,0H8.3a4.635,4.635,0,0,1,2.6.656A2.521,2.521,0,0,1,12,2.842V14.227a.766.766,0,0,1-.555.742A.7.7,0,0,1,11.239,15ZM3.165,4.53a.593.593,0,0,0,0,1.185H8.813a.593.593,0,0,0,0-1.185Z" transform="translate(0 0)" fill="#fff"/>
  </g>
</svg>
