<svg xmlns="http://www.w3.org/2000/svg" width="9" height="10" viewBox="0 0 9 10">
  <g id="Calendar" transform="translate(0 0)">
    <path id="Calendar-2" data-name="Calendar" d="M2.576,10h0A2.38,2.38,0,0,1,.005,7.439L0,3.276A2.353,2.353,0,0,1,2.253.765V.391A.385.385,0,0,1,2.362.114.384.384,0,0,1,3.013.39V.739l2.932,0V.385A.374.374,0,0,1,6.325,0a.378.378,0,0,1,.38.384V.759A2.339,2.339,0,0,1,8.995,3.245L9,7.457A2.368,2.368,0,0,1,6.436,10ZM6.521,7.095h0a.416.416,0,0,0-.4.426A.415.415,0,1,0,6.526,7.1Zm-4.063,0h0a.426.426,0,0,0-.405.43.413.413,0,0,0,.408.4H2.48a.4.4,0,0,0,.282-.133.41.41,0,0,0,.107-.3.405.405,0,0,0-.408-.4Zm2.033,0h0a.427.427,0,0,0-.4.43.412.412,0,0,0,.407.4h.017a.412.412,0,0,0,.39-.431.405.405,0,0,0-.409-.4ZM2.456,5.3h0a.426.426,0,0,0-.4.43.411.411,0,0,0,.406.4h.02a.4.4,0,0,0,.281-.132.411.411,0,0,0,.107-.3.4.4,0,0,0-.408-.4ZM4.49,5.279a.426.426,0,0,0-.4.43.413.413,0,0,0,.408.4h.017a.412.412,0,0,0,.39-.43A.408.408,0,0,0,4.49,5.279Zm2.034,0h0a.414.414,0,0,0-.4.419v.006a.406.406,0,0,0,.41.4h.01a.412.412,0,0,0-.015-.824ZM2.254,1.529h0A1.535,1.535,0,0,0,.76,3.275v.156l7.475-.01V3.245A1.545,1.545,0,0,0,6.707,1.524v.384a.382.382,0,0,1-.651.274.387.387,0,0,1-.108-.273V1.5l-2.933,0v.4a.383.383,0,0,1-.652.274.387.387,0,0,1-.108-.273V1.529Z" transform="translate(0 0)" fill="#a9aeb2"/>
  </g>
</svg>
