<svg xmlns="http://www.w3.org/2000/svg" width="19.5" height="21.5" viewBox="0 0 19.5 21.5">
  <g id="Calendar" transform="translate(0.75 0.75)">
    <path id="Line_200" d="M0,.473H17.824" transform="translate(0.093 6.931)" fill="none" stroke="#1d2d3a" stroke-linecap="round" stroke-linejoin="round" stroke-miterlimit="10" stroke-width="1.5"/>
    <path id="Line_201" d="M.459.473H.468" transform="translate(12.984 10.837)" fill="none" stroke="#1d2d3a" stroke-linecap="round" stroke-linejoin="round" stroke-miterlimit="10" stroke-width="1.5"/>
    <path id="Line_202" d="M.459.473H.468" transform="translate(8.546 10.837)" fill="none" stroke="#1d2d3a" stroke-linecap="round" stroke-linejoin="round" stroke-miterlimit="10" stroke-width="1.5"/>
    <path id="Line_203" d="M.459.473H.468" transform="translate(4.099 10.837)" fill="none" stroke="#1d2d3a" stroke-linecap="round" stroke-linejoin="round" stroke-miterlimit="10" stroke-width="1.5"/>
    <path id="Line_204" d="M.459.473H.468" transform="translate(12.984 14.723)" fill="none" stroke="#1d2d3a" stroke-linecap="round" stroke-linejoin="round" stroke-miterlimit="10" stroke-width="1.5"/>
    <path id="Line_205" d="M.459.473H.468" transform="translate(8.546 14.723)" fill="none" stroke="#1d2d3a" stroke-linecap="round" stroke-linejoin="round" stroke-miterlimit="10" stroke-width="1.5"/>
    <path id="Line_206" d="M.459.473H.468" transform="translate(4.099 14.723)" fill="none" stroke="#1d2d3a" stroke-linecap="round" stroke-linejoin="round" stroke-miterlimit="10" stroke-width="1.5"/>
    <path id="Line_207" d="M.463,0V3.291" transform="translate(12.581 0)" fill="none" stroke="#1d2d3a" stroke-linecap="round" stroke-linejoin="round" stroke-miterlimit="10" stroke-width="1.5"/>
    <path id="Line_208" d="M.463,0V3.291" transform="translate(4.502 0)" fill="none" stroke="#1d2d3a" stroke-linecap="round" stroke-linejoin="round" stroke-miterlimit="10" stroke-width="1.5"/>
    <path id="Path" d="M13.238,0H4.771C1.834,0,0,1.636,0,4.643v9.05c0,3.054,1.834,4.728,4.771,4.728h8.458c2.946,0,4.771-1.645,4.771-4.652V4.643C18.009,1.636,16.184,0,13.238,0Z" transform="translate(0 1.579)" fill="none" stroke="#1d2d3a" stroke-linecap="round" stroke-linejoin="round" stroke-miterlimit="10" stroke-width="1.5"/>
  </g>
</svg>
