<svg id="Camera" xmlns="http://www.w3.org/2000/svg" width="16.667" height="15" viewBox="0 0 16.667 15">
  <path id="Camera-2" data-name="Camera" d="M13.033,15h-9.4A3.635,3.635,0,0,1,0,11.371V6.426A3.635,3.635,0,0,1,3.633,2.8a.165.165,0,0,0,.159-.1l.049-.1.069-.146c.218-.459.464-.977.614-1.278A2.027,2.027,0,0,1,6.367,0h3.925a2.034,2.034,0,0,1,1.85,1.174c.131.262.33.683.523,1.09l.118.25.084.183a.188.188,0,0,0,.167.1,3.635,3.635,0,0,1,3.633,3.629v4.945A3.635,3.635,0,0,1,13.033,15Zm-4.7-9.665A3.268,3.268,0,0,0,6.008,6.3a3.223,3.223,0,0,0-.95,2.305,3.27,3.27,0,0,0,3.275,3.272,3.246,3.246,0,0,0,2.308-.957,3.263,3.263,0,0,0,.008-4.628A3.254,3.254,0,0,0,8.333,5.335Zm4.675-.2a.753.753,0,1,0,.759.758A.755.755,0,0,0,13.008,5.136ZM8.333,10.63A2.019,2.019,0,0,1,6.308,8.607V8.6a1.947,1.947,0,0,1,.583-1.415A2.025,2.025,0,1,1,8.333,10.63Z" fill="#a9aeb2"/>
</svg>
