<svg id="Iconly_Bold_Discount" data-name="Iconly/Bold/Discount" xmlns="http://www.w3.org/2000/svg" xmlns:xlink="http://www.w3.org/1999/xlink" width="20" height="19.995" viewBox="0 0 20 19.995">
  <defs>
    <linearGradient id="linear-gradient" x1="0.5" x2="0.5" y2="1" gradientUnits="objectBoundingBox">
      <stop offset="0" stop-color="#fff" stop-opacity="0.6"/>
      <stop offset="1" stop-color="#fff"/>
    </linearGradient>
  </defs>
  <g id="Discount" transform="translate(0.5 0.479)">
    <path id="Discount-2" data-name="Discount" d="M9.507,19.517a3.024,3.024,0,0,1-2.131-.868l-.73-.732a1.493,1.493,0,0,0-1.061-.438H4.555a3.015,3.015,0,0,1-3.011-3.011V13.438a1.538,1.538,0,0,0-.44-1.071l-.72-.71A3.021,3.021,0,0,1,.373,7.4L1.1,6.666A1.5,1.5,0,0,0,1.544,5.6V4.577A3.013,3.013,0,0,1,4.555,1.568h1.03a1.5,1.5,0,0,0,1.061-.441l.72-.72A2.981,2.981,0,0,1,9.5-.479,3.008,3.008,0,0,1,11.627.4l.73.729a1.5,1.5,0,0,0,1.061.441h1.03a3.013,3.013,0,0,1,3.011,3.009V5.608a1.488,1.488,0,0,0,.44,1.058l.72.72a3.029,3.029,0,0,1,.021,4.251l-.018.018-.012.012-.71.71a1.491,1.491,0,0,0-.44,1.061v1.029a3.015,3.015,0,0,1-3.011,3.011h-1.03a1.493,1.493,0,0,0-1.061.438l-.72.72A2.989,2.989,0,0,1,9.507,19.517Zm-.352-14h0a.737.737,0,0,0-.662.412L7.763,7.411l-1.626.237a.739.739,0,0,0-.413,1.262L6.9,10.058,6.625,11.68a.736.736,0,0,0,1.072.78l1.458-.766,1.455.765a.742.742,0,0,0,.347.087.744.744,0,0,0,.729-.867l-.279-1.623,1.179-1.148a.739.739,0,0,0-.41-1.261l-1.629-.238L9.819,5.935a.736.736,0,0,0-.661-.413Z" transform="translate(0 0)" fill="url(#linear-gradient)"/>
  </g>
</svg>
