<svg xmlns="http://www.w3.org/2000/svg" xmlns:xlink="http://www.w3.org/1999/xlink" width="24" height="24" viewBox="0 0 24 24">
  <defs>
    <clipPath id="clip-path">
      <rect id="Rectangle_317" data-name="Rectangle 317" width="24" height="24" transform="translate(1216 1261)" fill="#fff" stroke="#707070" stroke-width="1"/>
    </clipPath>
  </defs>
  <g id="Mask_Group_66" data-name="Mask Group 66" transform="translate(-1216 -1261)" clip-path="url(#clip-path)">
    <g id="reward_1_" data-name="reward (1)" transform="translate(1216 1261)">
      <g id="Group_614" data-name="Group 614">
        <g id="Group_613" data-name="Group 613">
          <path id="Path_884" data-name="Path 884" d="M12,0A9.459,9.459,0,0,0,6.692,17.29v6.017a.692.692,0,0,0,.976.631L12,21.99l4.331,1.949a.692.692,0,0,0,.976-.631V17.29A9.459,9.459,0,0,0,12,0Zm3.923,22.237L12.284,20.6a.692.692,0,0,0-.568,0L8.077,22.237V18.073a9.414,9.414,0,0,0,1.069.41l.062.02.14.042.1.03.113.031.133.034.094.023.153.035.08.017.169.034.069.013.18.032.062.01.187.028.058.008.191.023L11,18.87l.191.018.058.005.19.013.061,0,.193.008.058,0q.125,0,.251,0t.251,0l.058,0,.193-.008.061,0,.19-.013.058-.005L13,18.87l.057-.007.191-.023.058-.008L13.5,18.8l.062-.01.18-.032.069-.013.169-.034.08-.017.153-.035.094-.023.133-.034.113-.031.1-.03.14-.042.062-.02a9.414,9.414,0,0,0,1.069-.41v4.164ZM14.636,17.1l-.083.028-.127.041-.148.045-.105.03-.2.052-.074.018-.195.045-.049.011q-.126.026-.253.049l-.026,0q-.114.02-.23.036l-.052.007c-.082.011-.164.021-.246.03h-.009q-.129.013-.259.022l-.056,0-.2.01-.069,0c-.085,0-.169,0-.254,0s-.17,0-.254,0l-.069,0-.2-.01-.056,0q-.13-.009-.259-.022H11.15c-.082-.009-.164-.019-.246-.03l-.052-.007q-.115-.016-.23-.036l-.026,0q-.127-.022-.253-.049l-.049-.011-.195-.045-.074-.018-.2-.052-.105-.03-.149-.045-.127-.041L9.364,17.1a8.077,8.077,0,1,1,5.272,0Z" fill="#fff"/>
        </g>
      </g>
      <g id="Group_616" data-name="Group 616">
        <g id="Group_615" data-name="Group 615">
          <path id="Path_885" data-name="Path 885" d="M16.107,9.462l1.3-2.444A.692.692,0,0,0,16.82,6l-2.767-.1L12.587,3.556a.692.692,0,0,0-1.174,0L9.946,5.9,7.18,6a.692.692,0,0,0-.587,1.017l1.3,2.444-1.3,2.444a.692.692,0,0,0,.587,1.017l2.767.1,1.466,2.348a.692.692,0,0,0,1.174,0l1.466-2.348,2.767-.1a.692.692,0,0,0,.587-1.017Zm-2.47,2.186a.692.692,0,0,0-.563.325L12,13.693l-1.074-1.72a.692.692,0,0,0-.563-.325l-2.027-.07.953-1.791a.692.692,0,0,0,0-.65L8.335,7.346l2.027-.07a.692.692,0,0,0,.563-.325L12,5.23l1.074,1.72a.692.692,0,0,0,.563.325l2.027.07-.953,1.791a.692.692,0,0,0,0,.65l.953,1.791Z" fill="#fff"/>
        </g>
      </g>
    </g>
  </g>
</svg>
