<svg xmlns="http://www.w3.org/2000/svg" width="19.999" height="19.999" viewBox="0 0 19.999 19.999">
  <g id="Iconly_Bulk_Discount" data-name="Iconly/Bulk/Discount" transform="translate(0)">
    <path id="Exclusion_1" data-name="Exclusion 1" d="M-1016.5-3619a2.993,2.993,0,0,1-2.124-.875l-.731-.73a1.5,1.5,0,0,0-1.064-.438h-1.027a3.015,3.015,0,0,1-3.011-3.011v-1.029a1.51,1.51,0,0,0-.44-1.065l-.718-.717a2.985,2.985,0,0,1-.885-2.125,2.991,2.991,0,0,1,.874-2.131l.731-.731a1.505,1.505,0,0,0,.438-1.064v-1.026a3.015,3.015,0,0,1,3.011-3.012h1.028a1.5,1.5,0,0,0,1.064-.441l.72-.717a2.986,2.986,0,0,1,2.133-.885,2.991,2.991,0,0,1,2.123.874l.731.731a1.5,1.5,0,0,0,1.063.438h1.027a3.015,3.015,0,0,1,3.011,3.012v1.027a1.511,1.511,0,0,0,.44,1.066l.718.718a2.989,2.989,0,0,1,.887,2.125,2.991,2.991,0,0,1-.867,2.122l-.011.011-.018.019-.711.71a1.505,1.505,0,0,0-.438,1.064v1.027a3.015,3.015,0,0,1-3.011,3.011h-1.027a1.506,1.506,0,0,0-1.064.439l-.72.719A2.982,2.982,0,0,1-1016.5-3619Zm0-13.514h0a.738.738,0,0,0-.663.413l-.729,1.477-1.626.237a.736.736,0,0,0-.6.5.735.735,0,0,0,.187.76l1.178,1.148-.278,1.623a.739.739,0,0,0,.3.725.74.74,0,0,0,.434.141.744.744,0,0,0,.343-.087l1.458-.766,1.455.765a.746.746,0,0,0,.348.087.73.73,0,0,0,.432-.142.733.733,0,0,0,.3-.724l-.279-1.623,1.179-1.148a.731.731,0,0,0,.186-.76.73.73,0,0,0-.6-.5l-1.629-.237-.729-1.476a.736.736,0,0,0-.662-.414Z" transform="translate(1026.5 3639)" fill="#fff"/>
  </g>
</svg>
