<svg id="Chart" xmlns="http://www.w3.org/2000/svg" width="15" height="15" viewBox="0 0 15 15">
  <path id="Chart-2" data-name="Chart" d="M11,15H4a4.014,4.014,0,0,1-2.955-1.042A4.015,4.015,0,0,1,0,11V4A4.015,4.015,0,0,1,1.042,1.042,4.015,4.015,0,0,1,4,0h7a4.009,4.009,0,0,1,2.953,1.042A4.035,4.035,0,0,1,15,4V11a4.014,4.014,0,0,1-1.042,2.955A4.015,4.015,0,0,1,11,15Zm-.015-6.815a.649.649,0,0,0-.336.1.6.6,0,0,0-.285.592v2.46a.619.619,0,0,0,.622.562.632.632,0,0,0,.622-.562V8.872a.629.629,0,0,0-.293-.592A.618.618,0,0,0,10.987,8.185ZM7.538,3a.617.617,0,0,0-.33.1.635.635,0,0,0-.294.593v7.642a.632.632,0,0,0,.623.562.62.62,0,0,0,.622-.562V3.69A.612.612,0,0,0,7.875,3.1.654.654,0,0,0,7.538,3Zm-3.5,2.46a.617.617,0,0,0-.33.1.632.632,0,0,0-.292.593v5.183a.625.625,0,0,0,1.244,0V6.15a.634.634,0,0,0-.292-.593A.619.619,0,0,0,4.042,5.462Z" transform="translate(0 0)" fill="#a9aeb2"/>
</svg>
