<svg id="Close_Square" data-name="Close Square" xmlns="http://www.w3.org/2000/svg" width="15" height="15" viewBox="0 0 15 15">
  <path id="Close_Square-2" data-name="Close Square" d="M10.755,15h-6.5A4.113,4.113,0,0,1,0,10.568V4.44A4.117,4.117,0,0,1,4.253,0h6.5A4.114,4.114,0,0,1,15,4.44v6.128A4.11,4.11,0,0,1,10.755,15ZM7.5,8.423h0L8.835,9.75a.611.611,0,0,0,.458.2.655.655,0,0,0,.465-.2.651.651,0,0,0,0-.921L8.423,7.493,9.758,6.157A.656.656,0,0,0,9.3,5.037a.668.668,0,0,0-.468.192L7.5,6.562,6.165,5.229A.668.668,0,0,0,5.7,5.037a.657.657,0,0,0-.462,1.121L6.57,7.493,5.235,8.821A.66.66,0,0,0,5.7,9.945a.655.655,0,0,0,.465-.2L7.5,8.424Z" fill="#a9aeb2"/>
</svg>
