<svg id="Chat" xmlns="http://www.w3.org/2000/svg" width="9.167" height="9.167" viewBox="0 0 9.167 9.167">
  <path id="Chat-2" data-name="Chat" d="M4.583,9.167a4.563,4.563,0,0,1-2.255-.6,1.008,1.008,0,0,0-.507-.194.556.556,0,0,0-.175.029L.719,8.68a.345.345,0,0,1-.1.016.284.284,0,0,1-.229-.11.3.3,0,0,1-.043-.265L.651,7.294a.479.479,0,0,0-.032-.413A4.843,4.843,0,0,1,0,4.59a4.656,4.656,0,0,1,1.3-3.2A4.533,4.533,0,0,1,4.592,0,4.522,4.522,0,0,1,7.856,1.372a4.61,4.61,0,0,1,.962,1.459,4.533,4.533,0,0,1,.349,1.745,4.647,4.647,0,0,1-.4,1.912A4.4,4.4,0,0,1,7.727,7.934,4.7,4.7,0,0,1,4.583,9.167Zm2.1-5.159a.587.587,0,1,0,.587.587A.588.588,0,0,0,6.687,4.007Zm-2.122,0a.581.581,0,0,0-.578.583.587.587,0,1,0,.587-.583H4.565Zm-2.1,0a.587.587,0,1,0,.587.587A.588.588,0,0,0,2.461,4.007Z" transform="translate(0 0)" fill="#a9aeb2"/>
</svg>
