<svg xmlns="http://www.w3.org/2000/svg" width="150" height="150" viewBox="0 0 150 150">
  <g id="Group_4504" data-name="Group 4504" transform="translate(-113 -339)">
    <rect id="Rectangle_1723" data-name="Rectangle 1723" width="150" height="150" transform="translate(113 339)" fill="none"/>
    <path id="Path_7280" data-name="Path 7280" d="M1000.317,1539.487a72.514,72.514,0,1,0-72.37-72.514A72.4,72.4,0,0,0,1000.317,1539.487Z" transform="translate(-813.132 -1053.309)" fill="#eaeef9"/>
    <path id="Path_7281" data-name="Path 7281" d="M1036.9,1432.865a5.852,5.852,0,1,0-5.853-5.853A5.861,5.861,0,0,0,1036.9,1432.865Z" transform="translate(-795.37 -944.865)" fill="#eaeef9"/>
    <path id="Path_7282" data-name="Path 7282" d="M1042.347,1415.654a4,4,0,1,0-4-4A4.009,4.009,0,0,0,1042.347,1415.654Z" transform="translate(-796.319 -1057.787)" fill="#43d477" opacity="0.5"/>
    <path id="Path_7283" data-name="Path 7283" d="M925.644,1434.654a4,4,0,1,0-4-4A4,4,0,0,0,925.644,1434.654Z" transform="translate(-798.145 -1083.749)" fill="#eaeef9"/>
    <path id="Path_7284" data-name="Path 7284" d="M1009.328,1415.9c24.642,0,44.511,17.914,44.511,39.954,0,12.661-6.566,24-16.915,31.4v16.6a2.66,2.66,0,0,1-4.268,2.141l-14.132-11.02a55.079,55.079,0,0,1-9.033.828c-24.641,0-44.518-17.929-44.518-39.954S984.851,1415.9,1009.328,1415.9Z" transform="translate(-797.306 -1044.145)" fill="#cbd4e0"/>
    <g id="Group_4452" data-name="Group 4452" transform="translate(118.879 369.785)">
      <path id="Path_7285" data-name="Path 7285" d="M980.405,1414.52c-27.435,0-49.611,19.884-49.611,44.379,0,14.146,7.393,26.807,18.892,34.858v18.414a2.9,2.9,0,0,0,4.763,2.3l15.77-12.162a50.606,50.606,0,0,0,10.021.985c27.435,0,49.611-19.884,49.611-44.393S1007.674,1414.52,980.405,1414.52Z" transform="translate(-930.794 -1414.52)" fill="#fff"/>
    </g>
    <path id="Path_7286" data-name="Path 7286" d="M955.837,1450.128a5.424,5.424,0,1,0-5.421-5.424A5.422,5.422,0,0,0,955.837,1450.128Z" transform="translate(-803.528 -1034.152)" fill="#43d477"/>
    <path id="Path_7287" data-name="Path 7287" d="M977.358,1450.128a5.424,5.424,0,1,0-5.421-5.424A5.421,5.421,0,0,0,977.358,1450.128Z" transform="translate(-794.33 -1034.152)" fill="#43d477"/>
    <path id="Path_7288" data-name="Path 7288" d="M974.348,1461.049a1.5,1.5,0,0,1-1.315-.671,6.715,6.715,0,0,0-5.584-2.783,6.42,6.42,0,0,0-5.421,2.783,1.643,1.643,0,0,1-2.629-1.97,10.047,10.047,0,0,1,8.215-4.268,10.277,10.277,0,0,1,8.213,4.268,1.666,1.666,0,0,1-1.479,2.641Z" transform="translate(-799.862 -1027.8)" fill="#43d477"/>
    <path id="Path_7289" data-name="Path 7289" d="M957.594,1415.991H957a2.138,2.138,0,0,1-1.386-2.369l3.367-10.906a1.945,1.945,0,0,1,3.763.985l-3.169,10.906A1.958,1.958,0,0,1,957.594,1415.991Z" transform="translate(-801.323 -1050.39)" fill="#b5bcce"/>
    <path id="Path_7290" data-name="Path 7290" d="M953.333,1419.175a2.4,2.4,0,0,1-1.981-1.385l-5.15-15.659a2.008,2.008,0,0,1,3.764-1.4l5.149,15.673a2.057,2.057,0,0,1-1.188,2.569A.723.723,0,0,1,953.333,1419.175Z" transform="translate(-805.381 -1051.188)" fill="#b5bcce"/>
    <path id="Path_7291" data-name="Path 7291" d="M948.24,1418.927a1.8,1.8,0,0,1-1.388-.6l-6.338-6.138a1.965,1.965,0,0,1,2.773-2.783l6.338,6.152a1.91,1.91,0,0,1,0,2.769A2.13,2.13,0,0,1,948.24,1418.927Z" transform="translate(-808.014 -1047.172)" fill="#b5bcce"/>
  </g>
</svg>
