<svg xmlns="http://www.w3.org/2000/svg" width="19.578" height="21.285" viewBox="0 0 19.578 21.285">
  <g id="copy" transform="translate(0.4 0.4)">
    <path id="Path_2711" data-name="Path 2711" d="M13.017,122.885H2.347A2.349,2.349,0,0,1,0,120.538V109.015a2.349,2.349,0,0,1,2.347-2.347h.427a.64.64,0,1,1,0,1.28H2.347a1.068,1.068,0,0,0-1.067,1.067v11.523a1.068,1.068,0,0,0,1.067,1.067H13.017a1.068,1.068,0,0,0,1.067-1.067v-.427a.64.64,0,1,1,1.28,0v.427A2.349,2.349,0,0,1,13.017,122.885Zm0,0" transform="translate(0 -102.4)" fill="#e7e7e7" stroke="#e7e7e7" stroke-width="0.8"/>
    <path id="Path_2712" data-name="Path 2712" d="M139.31,15.364h-8.962A2.349,2.349,0,0,1,128,13.017V2.347A2.349,2.349,0,0,1,130.347,0h8.962a2.349,2.349,0,0,1,2.347,2.347V13.017A2.349,2.349,0,0,1,139.31,15.364ZM130.347,1.28a1.068,1.068,0,0,0-1.067,1.067V13.017a1.068,1.068,0,0,0,1.067,1.067h8.962a1.068,1.068,0,0,0,1.067-1.067V2.347A1.068,1.068,0,0,0,139.31,1.28Zm0,0" transform="translate(-122.879)" fill="#e7e7e7" stroke="#e7e7e7" stroke-width="0.8"/>
  </g>
</svg>
