<svg id="Iconly_Bold_Danger" data-name="Iconly/Bold/Danger" xmlns="http://www.w3.org/2000/svg" width="20.001" height="18" viewBox="0 0 20.001 18">
  <g id="Danger" transform="translate(0.001 0)">
    <path id="Danger-2" data-name="Danger" d="M17.316,18H2.679a3.129,3.129,0,0,1-.91-.2A2.809,2.809,0,0,1,.218,16.275,2.747,2.747,0,0,1,.21,14.146L7.529,1.433a2.746,2.746,0,0,1,1.1-1.08A2.819,2.819,0,0,1,9.993,0a2.853,2.853,0,0,1,2.484,1.442l7.268,12.615a2.936,2.936,0,0,1,.25,1,2.753,2.753,0,0,1-.73,2.021A2.841,2.841,0,0,1,17.316,18ZM10,12.272a.873.873,0,1,0,0,1.745.877.877,0,0,0,.869-.883A.867.867,0,0,0,10,12.272ZM10,6.09a.872.872,0,0,0-.88.862v2.8a.888.888,0,0,0,.88.873.872.872,0,0,0,.869-.873v-2.8A.867.867,0,0,0,10,6.09Z" transform="translate(0 0)" fill="#fff"/>
  </g>
</svg>
