<svg id="Activity" xmlns="http://www.w3.org/2000/svg" xmlns:xlink="http://www.w3.org/1999/xlink" width="20" height="20" viewBox="0 0 20 20">
  <defs>
    <linearGradient id="linear-gradient" x1="0.5" x2="0.5" y2="1" gradientUnits="objectBoundingBox">
      <stop offset="0" stop-color="#fff" stop-opacity="0.6"/>
      <stop offset="1" stop-color="#fff"/>
    </linearGradient>
  </defs>
  <path id="Activity-2" data-name="Activity" d="M5.4,20a5.469,5.469,0,0,1-3.976-1.428A5.474,5.474,0,0,1,0,14.6V7.2A5.5,5.5,0,0,1,1.425,3.215,5.455,5.455,0,0,1,5.4,1.78H13.45a4.858,4.858,0,0,0-.059.75A4.069,4.069,0,0,0,17.45,6.6a4.668,4.668,0,0,0,.74-.068V14.6a5.47,5.47,0,0,1-1.425,3.973A5.466,5.466,0,0,1,12.79,20ZM7.19,8.96a.781.781,0,0,0-.5.3L3.731,13.11l-.061.09a.747.747,0,0,0,.21.95.832.832,0,0,0,.46.15h.026A.715.715,0,0,0,4.93,14l2.51-3.231,2.849,2.141.09.058a.749.749,0,0,0,.95-.21l2.89-3.729-.04.02A.75.75,0,0,0,14.26,8.3a.736.736,0,0,0-.608-.439c-.028,0-.056,0-.084,0a.768.768,0,0,0-.617.314L10.531,11.3,7.76,9.121a.783.783,0,0,0-.481-.165C7.25,8.956,7.22,8.958,7.19,8.96Zm7.99-6.55a2.41,2.41,0,1,1,2.41,2.41A2.411,2.411,0,0,1,15.18,2.41Z" transform="translate(0 0)" fill="url(#linear-gradient)"/>
</svg>
