<svg xmlns="http://www.w3.org/2000/svg" xmlns:xlink="http://www.w3.org/1999/xlink" width="19.167" height="19.162" viewBox="0 0 19.167 19.162">
  <defs>
    <linearGradient id="linear-gradient" x1="0.5" x2="0.5" y2="1" gradientUnits="objectBoundingBox">
      <stop offset="0" stop-color="#fff" stop-opacity="0.6"/>
      <stop offset="1" stop-color="#fff"/>
    </linearGradient>
  </defs>
  <g id="Discount" transform="translate(0 0)">
    <path id="Discount-2" data-name="Discount" d="M9.59,19.162a2.9,2.9,0,0,1-2.042-.832l-.7-.7a1.427,1.427,0,0,0-1.016-.42H4.844a2.889,2.889,0,0,1-2.886-2.886v-.986a1.474,1.474,0,0,0-.422-1.026l-.69-.681A2.9,2.9,0,0,1,.837,7.548l.7-.7a1.439,1.439,0,0,0,.422-1.026V4.844A2.888,2.888,0,0,1,4.844,1.961h.988a1.448,1.448,0,0,0,1.016-.423l.69-.69A2.892,2.892,0,0,1,11.622.84l.7.7a1.428,1.428,0,0,0,1.016.423h.988a2.887,2.887,0,0,1,2.885,2.883v.988a1.423,1.423,0,0,0,.423,1.014l.69.69a2.9,2.9,0,0,1,.019,4.074l-.019.019-.009.009-.681.681a1.426,1.426,0,0,0-.423,1.017v.986a2.889,2.889,0,0,1-2.885,2.886h-.988a1.427,1.427,0,0,0-1.016.42l-.691.69A2.862,2.862,0,0,1,9.59,19.162Zm2.464-7.954a.838.838,0,1,0,.834.834A.84.84,0,0,0,12.054,11.208Zm-.005-4.93a.83.83,0,0,0-.59.244L6.531,11.448a.843.843,0,0,0,0,1.188.794.794,0,0,0,.585.249.8.8,0,0,0,.594-.249l4.928-4.925a.838.838,0,0,0-.59-1.432Zm-4.923,0a.838.838,0,1,0,.834.833A.839.839,0,0,0,7.125,6.282Z" transform="translate(0 0)" fill="url(#linear-gradient)"/>
  </g>
</svg>
