<svg xmlns="http://www.w3.org/2000/svg" width="20" height="20" viewBox="0 0 20 20">
  <g id="Arrow_-_Down_Square" data-name="Arrow - Down Square" transform="translate(0 0)">
    <path id="Arrow_-_Down_Square-2" data-name="Arrow - Down Square" d="M14.33,20H5.66C2.275,20,0,17.621,0,14.08V5.91C0,2.375,2.275,0,5.66,0h8.67C17.721,0,20,2.375,20,5.91V14.08C20,17.621,17.721,20,14.33,20ZM6.25,9.57a.787.787,0,0,0-.529.22.753.753,0,0,0,0,1.06L9.47,14.62a.772.772,0,0,0,1.06,0l3.75-3.769a.751.751,0,0,0,0-1.06.767.767,0,0,0-1.07,0L10.75,12.27V5.92A.751.751,0,0,0,10,5.17a.742.742,0,0,0-.75.751v6.35L6.78,9.79A.763.763,0,0,0,6.25,9.57Z" fill="#a9aeb2"/>
  </g>
</svg>
