<svg xmlns="http://www.w3.org/2000/svg" xmlns:xlink="http://www.w3.org/1999/xlink" width="24" height="24" viewBox="0 0 24 24">
  <defs>
    <clipPath id="clip-path">
      <rect id="Rectangle_316" data-name="Rectangle 316" width="24" height="24" transform="translate(1216 1218)" fill="#fff" stroke="#707070" stroke-width="1"/>
    </clipPath>
  </defs>
  <g id="Mask_Group_65" data-name="Mask Group 65" transform="translate(-1216 -1218)" clip-path="url(#clip-path)">
    <g id="cloud-computing" transform="translate(1216 1218)">
      <path id="Path_882" data-name="Path 882" d="M13.5,17.777a.862.862,0,0,0-1.2.185l-1.406,1.916L10.881,13.4a.862.862,0,0,0-.862-.861h0a.862.862,0,0,0-.861.863l.006,6.5-1.454-1.93A.862.862,0,1,0,6.332,19l2.184,2.9a1.876,1.876,0,0,0,1.511.754h.012a1.876,1.876,0,0,0,1.514-.773l2.128-2.9A.862.862,0,0,0,13.5,17.777Z" fill="#fff"/>
      <path id="Path_883" data-name="Path 883" d="M18.6,5.88h-3.32a5.459,5.459,0,0,0-1.516-2.952,5.327,5.327,0,0,0-3.8-1.583,5.407,5.407,0,0,0-5.337,4.6,5.461,5.461,0,0,0-3.044,1.53A5.327,5.327,0,0,0,0,11.277a5.406,5.406,0,0,0,5.4,5.4H7.473a.862.862,0,1,0,0-1.724H5.4A3.673,3.673,0,1,1,5.4,7.6H5.43a.862.862,0,0,0,.86-.861,3.673,3.673,0,1,1,7.346.013A.862.862,0,0,0,14.5,7.6H18.6a3.673,3.673,0,0,1,0,7.346h-6.19a.862.862,0,1,0,0,1.724H18.6a5.4,5.4,0,0,0,0-10.793Z" fill="#fff"/>
    </g>
  </g>
</svg>
