<svg xmlns="http://www.w3.org/2000/svg" width="150" height="150" viewBox="0 0 150 150">
  <g id="Group_4504" data-name="Group 4504" transform="translate(-113 -339)">
    <rect id="Rectangle_1723" data-name="Rectangle 1723" width="150" height="150" transform="translate(113 339)" fill="none"/>
    <g id="Group_4510" data-name="Group 4510" transform="translate(-47.453 -23.683)">
      <path id="Path_6662" data-name="Path 6662" d="M248.912,3061.031a75,75,0,1,0-74.853-75A74.886,74.886,0,0,0,248.912,3061.031Z" transform="translate(-13.458 -2548.347)" fill="#eaeef9"/>
      <path id="Path_6663" data-name="Path 6663" d="M280.562,2998.516a6.053,6.053,0,1,0-6.053-6.053A6.058,6.058,0,0,0,280.562,2998.516Z" transform="translate(6.769 -2485.833)" fill="#eaeef9"/>
      <path id="Path_6664" data-name="Path 6664" d="M285.943,2981.278a4.134,4.134,0,1,0-4.134-4.134A4.131,4.131,0,0,0,285.943,2981.278Z" transform="translate(20.229 -2605.307)" fill="#43d477"/>
      <path id="Path_6665" data-name="Path 6665" d="M178.093,2931.1a4.134,4.134,0,1,0-4.134-4.134A4.131,4.131,0,0,0,178.093,2931.1Z" transform="translate(-13.506 -2542.725)" fill="#eaeef9"/>
      <path id="Path_6666" data-name="Path 6666" d="M162.136,2987.384a7.677,7.677,0,1,0-7.677-7.677A7.669,7.669,0,0,0,162.136,2987.384Z" transform="translate(11.388 -2477.047)" fill="#eaeef9"/>
      <path id="Path_6667" data-name="Path 6667" d="M238.778,2980.25H222.144c-3.855,0-7.1,3.558-7.1,7.781v9.109c0,9.332,6.9,16.89,15.418,16.89s15.416-7.559,15.416-16.89v-9.109C245.878,2983.587,242.633,2980.25,238.778,2980.25Z" transform="translate(6.066 -2515.371)" fill="#fff"/>
      <g id="Group_4405" data-name="Group 4405" transform="translate(168.513 367.703)">
        <path id="Path_6668" data-name="Path 6668" d="M254.274,2924.307a36.706,36.706,0,0,1,28.4,35.758v4.665c0,39.345,29.618,65.094,29.618,65.094H179.418s29.82-25.749,29.82-65.094v-4.665a36.706,36.706,0,0,1,28.4-35.758v-1.55a8.317,8.317,0,1,1,16.634,0Z" transform="translate(-179.418 -2914.43)" fill="#fff" fill-rule="evenodd"/>
      </g>
      <path id="Path_6669" data-name="Path 6669" d="M217.62,2962.727a11.582,11.582,0,0,1-10.955-7.914,1.923,1.923,0,0,1,3.651-1.211,7.877,7.877,0,0,0,7.3,5.271,7.6,7.6,0,0,0,7.3-5.271,1.923,1.923,0,0,1,3.651,1.211A11.318,11.318,0,0,1,217.62,2962.727Z" transform="translate(2.014 -2528.705)" fill="#43d477"/>
      <path id="Path_6670" data-name="Path 6670" d="M238.368,2962.727a11.582,11.582,0,0,1-10.955-7.914,1.923,1.923,0,0,1,3.651-1.211,7.878,7.878,0,0,0,7.3,5.271,7.6,7.6,0,0,0,7.3-5.271,1.923,1.923,0,0,1,3.651,1.211A11.318,11.318,0,0,1,238.368,2962.727Z" transform="translate(11.898 -2528.705)" fill="#43d477"/>
      <path id="Path_6671" data-name="Path 6671" d="M225.993,2979.181a4.665,4.665,0,1,0-4.667-4.666A4.671,4.671,0,0,0,225.993,2979.181Z" transform="translate(9.059 -2520.326)" fill="#43d477"/>
      <path id="Path_6672" data-name="Path 6672" d="M241.125,2896.487v-2.477H250.7v2.477l-6.532,7.885h6.645v2.477H240.787v-2.477l6.532-7.885Z" transform="translate(30.467 -2525.554)" fill="#a9aeb2"/>
      <path id="Path_6673" data-name="Path 6673" d="M256.422,2934.936v-4.356h17.166v4.356l-11.548,14.055H273.9v4.355H255.8v-4.355l11.548-14.055Z" transform="translate(25.481 -2539.033)" fill="#fff"/>
    </g>
  </g>
</svg>
