<svg xmlns="http://www.w3.org/2000/svg" width="150" height="150" viewBox="0 0 150 150">
  <g id="Group_4504" data-name="Group 4504" transform="translate(-113 -339)">
    <rect id="Rectangle_1723" data-name="Rectangle 1723" width="150" height="150" transform="translate(113 339)" fill="none"/>
    <g id="Group_4512" data-name="Group 4512" transform="translate(-47.76 -162.434)">
      <path id="Path_7796" data-name="Path 7796" d="M233.956,646.939A57.755,57.755,0,1,0,176.2,589.184,57.8,57.8,0,0,0,233.956,646.939Z" transform="translate(3.625 1.975)" fill="#eaeef9"/>
      <path id="Path_7797" data-name="Path 7797" d="M194.488,565.417H264.3a5.052,5.052,0,0,1,4.967,4.969v44.059a5.051,5.051,0,0,1-4.967,4.967H194.488a5.051,5.051,0,0,1-4.967-4.967V570.386A5.052,5.052,0,0,1,194.488,565.417Z" transform="translate(6.752 9.954)" fill="#fff"/>
      <path id="Path_7798" data-name="Path 7798" d="M278.788,567.96a4.391,4.391,0,1,0-6.2-.24A4.466,4.466,0,0,0,278.788,567.96Z" transform="translate(25.975 8.761)" fill="#eaeef9"/>
      <path id="Path_7799" data-name="Path 7799" d="M278.168,551.177a1.858,1.858,0,1,0-2.625-.12A1.775,1.775,0,0,0,278.168,551.177Z" transform="translate(26.834 5.854)" fill="#eaeef9"/>
      <path id="Path_7800" data-name="Path 7800" d="M240,529.048a1.269,1.269,0,1,0-1.79-.12A1.305,1.305,0,0,0,240,529.048Z" transform="translate(18.11 0.896)" fill="#eaeef9"/>
      <g id="Group_4494" data-name="Group 4494" transform="translate(250.209 523.018)">
        <path id="Path_7801" data-name="Path 7801" d="M284.379,552.1l-17.388,30.985a2.052,2.052,0,0,1-2.877.784l-29.807-17.388a2.051,2.051,0,0,1-.785-2.876L256.4,524.122a2.053,2.053,0,0,1,2.877-.785l21.571,12.551Z" transform="translate(-233.202 -523.018)" fill="#f2f6fa"/>
      </g>
      <path id="Path_7802" data-name="Path 7802" d="M272.794,533.441l-4.967,8.367a2.526,2.526,0,0,0,.915,3.4l7.452,4.314" transform="translate(25.062 2.447)" fill="#d5dae6"/>
      <g id="Group_4495" data-name="Group 4495" transform="translate(160.76 537.849)">
        <path id="Path_7804" data-name="Path 7804" d="M189.605,535.814,209.478,556.6a1.7,1.7,0,0,1-.131,2.483L189.082,578.3a1.7,1.7,0,0,1-2.484-.131l-25.363-26.8a1.7,1.7,0,0,1,.131-2.483l14.774-13.859Z" transform="translate(-160.76 -535.029)" fill="#f2f6fa"/>
      </g>
      <path id="Path_7805" data-name="Path 7805" d="M173.109,534.817l5.491,5.753a2.053,2.053,0,0,0,2.877,0l5.1-4.837" transform="translate(2.899 2.77)" fill="#d5dae6"/>
      <g id="Group_4496" data-name="Group 4496" transform="translate(203.478 553.16)">
        <path id="Path_7807" data-name="Path 7807" d="M233.387,565.587l-7.714,27.586a1.718,1.718,0,0,1-2.223,1.177l-26.8-7.844a1.717,1.717,0,0,1-1.177-2.223l10.458-35.561a1.718,1.718,0,0,1,2.223-1.177l19.481,5.753Z" transform="translate(-195.356 -547.429)" fill="#f2f6fa"/>
      </g>
      <path id="Path_7808" data-name="Path 7808" d="M221.983,552.221l-2.487,7.8a2.088,2.088,0,0,0,1.438,2.484l6.895,1.948" transform="translate(13.776 6.856)" fill="#d5dae6"/>
      <g id="Group_4497" data-name="Group 4497" transform="translate(263.949 586.83)">
        <path id="Path_7810" data-name="Path 7810" d="M284.9,606.382l-25.363,13.727a1.759,1.759,0,0,1-2.353-.784l-12.681-24.709a1.758,1.758,0,0,1,.784-2.353l32.946-17.389a1.76,1.76,0,0,1,2.353.785l9.152,17.91Z" transform="translate(-244.33 -574.698)" fill="#f2f6fa"/>
      </g>
      <g id="Iconly_Bold_Heart" data-name="Iconly/Bold/Heart" transform="matrix(0.454, 0.891, -0.891, 0.454, 292.105, 597.846)" opacity="0.24">
        <g id="Heart" transform="translate(1.648 2.064)">
          <path id="Heart-2" data-name="Heart" d="M8.283,15.685h0l-.214-.132a31.506,31.506,0,0,1-5.258-4.1A10.726,10.726,0,0,1,.324,7.5,6.393,6.393,0,0,1,.443,3.141,5.022,5.022,0,0,1,3.57.222,3.719,3.719,0,0,1,4.3.05h.1A4.709,4.709,0,0,1,5.1,0h.091A5.173,5.173,0,0,1,6.7.273h.049a.273.273,0,0,1,.074.049,2.786,2.786,0,0,1,.52.215l.314.14a2.169,2.169,0,0,1,.236.157c.047.034.088.064.12.083l.034.02a2.01,2.01,0,0,1,.214.136A5.138,5.138,0,0,1,11.4,0h.036a4.81,4.81,0,0,1,1.536.24,4.969,4.969,0,0,1,3.1,2.9A6.534,6.534,0,0,1,16.2,7.5a10.552,10.552,0,0,1-2.484,3.971,31.867,31.867,0,0,1-5.227,4.095l-.206.124ZM12.334,2.574a.668.668,0,0,0-.625.448.677.677,0,0,0,.412.849A1.384,1.384,0,0,1,13,5.168v.025a.71.71,0,0,0,.157.512.694.694,0,0,0,.47.239.679.679,0,0,0,.652-.628v-.1a2.725,2.725,0,0,0-1.742-2.609A.644.644,0,0,0,12.334,2.574Z" transform="translate(0 0)" fill="#d5dae6"/>
        </g>
      </g>
      <path id="Path_7811" data-name="Path 7811" d="M282.547,590.193l-7.06,3.661a2.3,2.3,0,0,0-.915,2.746l3.138,6.275" transform="translate(26.684 15.77)" fill="#d5dae6"/>
      <path id="Path_7813" data-name="Path 7813" d="M270.752,588.741v21.7a5.192,5.192,0,0,1-5.1,5.1H193.878a5.191,5.191,0,0,1-5.1-5.1V586.911" transform="translate(6.578 15)" fill="none" stroke="#1676ee" stroke-linecap="round" stroke-linejoin="round" stroke-width="3"/>
      <path id="Path_7814" data-name="Path 7814" d="M267.633,577.064H243.055a10.038,10.038,0,0,0-6.537,2.353l-6.537,5.229A10.8,10.8,0,0,1,223.445,587H195.466a5.105,5.105,0,0,0-5.1,5.1,1.66,1.66,0,0,0,.131.785l5.1,26.8a5.306,5.306,0,0,0,5.1,4.445h59.748a5.086,5.086,0,0,0,5.1-4.314l7.191-36.868a5.035,5.035,0,0,0-4.314-5.753A1.66,1.66,0,0,0,267.633,577.064Z" transform="translate(6.951 12.688)" fill="#fff"/>
      <g id="Group_4498" data-name="Group 4498" transform="translate(189.082 584.914)">
        <path id="Path_7815" data-name="Path 7815" d="M276,573.146H246.713A12.619,12.619,0,0,0,239,575.892l-7.844,6.406a12.112,12.112,0,0,1-7.714,2.746h-33.6a6.137,6.137,0,0,0-6.145,6.144,2.222,2.222,0,0,0,.131.915l6.145,32.555a6.308,6.308,0,0,0,6.144,5.36H267.37a6.3,6.3,0,0,0,6.145-5.229l8.5-44.582a6.18,6.18,0,0,0-5.1-7.06Z" transform="translate(-183.697 -573.146)" fill="#fff"/>
      </g>
      <path id="Path_7816" data-name="Path 7816" d="M213.306,602.08a3.138,3.138,0,1,0-3.139-3.138A3.181,3.181,0,0,0,213.306,602.08Z" transform="translate(11.599 17.088)" fill="#43d477"/>
      <path id="Path_7817" data-name="Path 7817" d="M233.1,601.657a3.138,3.138,0,1,0-3.138-3.138A3.182,3.182,0,0,0,233.1,601.657Z" transform="translate(16.247 16.989)" fill="#43d477"/>
      <path id="Path_7818" data-name="Path 7818" d="M230.54,605.609h-1.7a5.6,5.6,0,0,0-7.714-2.484,5.09,5.09,0,0,0-2.484,2.484h-1.7a7.356,7.356,0,0,1,9.413-4.314A7.543,7.543,0,0,1,230.54,605.609Z" transform="translate(13.19 18.266)" fill="#43d477"/>
      <path id="Path_7820" data-name="Path 7820" d="M206.462,594.726l7.059-3.791" transform="translate(10.729 15.945)" fill="none" stroke="#989fb0" stroke-miterlimit="10" stroke-width="1.5"/>
      <path id="Path_7821" data-name="Path 7821" d="M238.827,593.269l-7.06-3.923" transform="translate(16.67 15.572)" fill="none" stroke="#989fb0" stroke-miterlimit="10" stroke-width="1.5"/>
      <g id="Iconly_Bold_Heart-2" data-name="Iconly/Bold/Heart" transform="translate(169.557 557.819) rotate(-43)">
        <g id="Heart-3" data-name="Heart" transform="translate(2 2.501)">
          <path id="Heart-4" data-name="Heart" d="M10.03,19h0l-.259-.16A38.164,38.164,0,0,1,3.4,13.879,12.993,12.993,0,0,1,.39,9.08,7.744,7.744,0,0,1,.533,3.805,6.084,6.084,0,0,1,4.321.269,4.5,4.5,0,0,1,5.21.06h.12A5.7,5.7,0,0,1,6.17,0h.11A6.266,6.266,0,0,1,8.111.33H8.17A.331.331,0,0,1,8.26.39a3.375,3.375,0,0,1,.63.261L9.27.82a2.627,2.627,0,0,1,.285.19c.057.042.106.077.145.1l.041.024A2.435,2.435,0,0,1,10,1.3,6.224,6.224,0,0,1,13.806,0h.044a5.826,5.826,0,0,1,1.86.291,6.019,6.019,0,0,1,3.755,3.517A7.915,7.915,0,0,1,19.62,9.08a12.781,12.781,0,0,1-3.009,4.81,38.6,38.6,0,0,1-6.332,4.96l-.25.15ZM14.937,3.118a.809.809,0,0,0-.757.543.82.82,0,0,0,.5,1.029,1.676,1.676,0,0,1,1.07,1.57V6.29a.86.86,0,0,0,.19.62.841.841,0,0,0,.57.29.823.823,0,0,0,.79-.76V6.321A3.3,3.3,0,0,0,15.19,3.16.78.78,0,0,0,14.937,3.118Z" transform="translate(0 0)" fill="#d5dae6"/>
        </g>
      </g>
      <g id="Iconly_Bold_Heart-3" data-name="Iconly/Bold/Heart" transform="matrix(0.966, 0.259, -0.259, 0.966, 216.323, 566.71)" opacity="0.69">
        <g id="Heart-5" data-name="Heart" transform="translate(1.621 2.03)">
          <path id="Heart-6" data-name="Heart" d="M8.144,15.423h0l-.21-.13a30.979,30.979,0,0,1-5.17-4.027,10.547,10.547,0,0,1-2.445-3.9A6.286,6.286,0,0,1,.435,3.089,4.939,4.939,0,0,1,3.51.219,3.657,3.657,0,0,1,4.232.049h.1A4.63,4.63,0,0,1,5.011,0H5.1A5.086,5.086,0,0,1,6.587.268h.048a.268.268,0,0,1,.073.048,2.74,2.74,0,0,1,.511.212l.308.137A2.132,2.132,0,0,1,7.759.82c.046.034.086.063.118.082L7.91.921a1.976,1.976,0,0,1,.21.134A5.052,5.052,0,0,1,11.21,0h.036a4.73,4.73,0,0,1,1.51.236A4.886,4.886,0,0,1,15.8,3.091a6.425,6.425,0,0,1,.125,4.28,10.375,10.375,0,0,1-2.442,3.9A31.334,31.334,0,0,1,8.347,15.3l-.2.122ZM12.128,2.531a.657.657,0,0,0-.614.44.665.665,0,0,0,.405.835,1.361,1.361,0,0,1,.869,1.275v.025a.7.7,0,0,0,.154.5.682.682,0,0,0,.462.235.668.668,0,0,0,.641-.617v-.1a2.679,2.679,0,0,0-1.712-2.566A.633.633,0,0,0,12.128,2.531Z" transform="translate(0 0)" fill="#d5dae6"/>
        </g>
      </g>
      <g id="Iconly_Bold_Heart-4" data-name="Iconly/Bold/Heart" transform="translate(271.726 536.648) rotate(29)" opacity="0.46">
        <g id="Heart-7" data-name="Heart" transform="translate(2.329 2.917)">
          <path id="Heart-8" data-name="Heart" d="M11.7,22.167h0l-.3-.187a44.524,44.524,0,0,1-7.431-5.788,15.158,15.158,0,0,1-3.513-5.6A9.035,9.035,0,0,1,.625,4.44,7.1,7.1,0,0,1,5.045.314,5.255,5.255,0,0,1,6.082.071h.14A6.655,6.655,0,0,1,7.2,0h.128A7.31,7.31,0,0,1,9.466.386h.069a.386.386,0,0,1,.1.069,3.938,3.938,0,0,1,.735.3l.443.2a3.065,3.065,0,0,1,.333.221c.067.048.124.09.169.118l.048.028a2.84,2.84,0,0,1,.3.193A7.261,7.261,0,0,1,16.111,0h.051a6.8,6.8,0,0,1,2.17.339,7.022,7.022,0,0,1,4.381,4.1,9.234,9.234,0,0,1,.18,6.151,14.912,14.912,0,0,1-3.51,5.611A45.034,45.034,0,0,1,12,21.991l-.291.175ZM17.431,3.637a.944.944,0,0,0-.883.633.956.956,0,0,0,.583,1.2A1.955,1.955,0,0,1,18.379,7.3v.036a1,1,0,0,0,.222.723.981.981,0,0,0,.665.338.96.96,0,0,0,.922-.887V7.374a3.851,3.851,0,0,0-2.461-3.688A.91.91,0,0,0,17.431,3.637Z" transform="translate(0 0)" fill="#d5dae6"/>
        </g>
      </g>
    </g>
  </g>
</svg>
