<svg xmlns="http://www.w3.org/2000/svg" width="150" height="154.267" viewBox="0 0 150 154.267">
  <g id="Group_4504" data-name="Group 4504" transform="translate(-113 -335.268)">
    <rect id="Rectangle_1723" data-name="Rectangle 1723" width="150" height="150" transform="translate(113 339)" fill="none"/>
    <g id="Group_4520" data-name="Group 4520" transform="translate(-53.102 -1685.347)">
      <path id="Path_7070" data-name="Path 7070" d="M239.506,2173.27c40.533,0,73.4-32.624,73.4-72.91s-32.871-72.91-73.4-72.91-73.4,32.624-73.4,72.91S198.973,2173.27,239.506,2173.27Z" transform="translate(0 1.612)" fill="#eaeef9"/>
      <path id="Path_7071" data-name="Path 7071" d="M292.409,2087.261v44.611a16.85,16.85,0,0,1-16.93,16.806H197.132A16.9,16.9,0,0,1,180.2,2132v-44.982a1.566,1.566,0,0,1,.124-.741c.124-.371.247-.618.371-.989l21.008-40.162a4.372,4.372,0,0,1,4.078-2.472h60.923a4.5,4.5,0,0,1,4.078,2.472l21.008,40.162a8.526,8.526,0,0,1,.371.989A1.331,1.331,0,0,1,292.409,2087.261Z" transform="translate(3.324 5.195)" fill="#d5ddea"/>
      <g id="Group_4438" data-name="Group 4438" transform="translate(183.526 2091.468)">
        <path id="Path_7072" data-name="Path 7072" d="M292.409,2078.939v49.183a12.211,12.211,0,0,1-12.358,12.234H192.56a12.289,12.289,0,0,1-12.358-12.234v-49.43a1.567,1.567,0,0,1,.124-.741H208.5a7.621,7.621,0,0,1,7.662,7.661,7.761,7.761,0,0,0,2.224,5.438,7.267,7.267,0,0,0,5.437,2.224h25.086a7.621,7.621,0,0,0,7.662-7.662,7.761,7.761,0,0,1,2.224-5.437,7.187,7.187,0,0,1,5.314-2.224h28.052A1.331,1.331,0,0,1,292.409,2078.939Z" transform="translate(-180.202 -2077.95)" fill="#fff"/>
      </g>
      <path id="Path_7073" data-name="Path 7073" d="M284.351,2060.184a5.067,5.067,0,1,0-5.067-5.067A5.071,5.071,0,0,0,284.351,2060.184Z" transform="translate(26.684 6.94)" fill="#eaeef9"/>
      <path id="Path_7074" data-name="Path 7074" d="M279.944,2046.27a3.46,3.46,0,1,0-3.46-3.46A3.458,3.458,0,0,0,279.944,2046.27Z" transform="translate(26.024 4.417)" fill="#eaeef9"/>
      <path id="Path_7075" data-name="Path 7075" d="M166.544,2055.47a3.46,3.46,0,1,0-3.46-3.46A3.458,3.458,0,0,0,166.544,2055.47Z" transform="translate(13.522 -17.756)" fill="#43d477"/>
      <path id="Path_7076" data-name="Path 7076" d="M160.81,2118.2a6.426,6.426,0,1,0-6.426-6.426A6.428,6.428,0,0,0,160.81,2118.2Z" transform="translate(13.326 48.524)" fill="#eaeef9"/>
      <path id="Path_7077" data-name="Path 7077" d="M256.831,2030.62c1.613,17.61,2.418,21.638-1.233,37.58-1.188,3.546-2.374,7.427-4.92,10.133a15.731,15.731,0,0,1-15.267,4.72,14.97,14.97,0,0,1-10.857-11.814,9.716,9.716,0,0,1,3.393-9.96,8.972,8.972,0,0,1,10.518,1.013,12.22,12.22,0,0,1,4.071,10.133,23.765,23.765,0,0,1-3.392,10.628c-4.219,7.884-5.955,7.859-14.589,20.81" transform="translate(13.718 2.359)" fill="none" stroke="#abb5cc" stroke-miterlimit="10" stroke-width="2" stroke-dasharray="4 4"/>
      <path id="Path_7078" data-name="Path 7078" d="M260.214,2026.336c-.645,2.36-3.224,3.213-5.8,1.718-2.794-1.285-4.728-2.36-4.3-4.5.645-2.138,3.224-2.348,6.233-2.558C260,2020.565,260.644,2023.988,260.214,2026.336Z" transform="translate(19.792 0.081)" fill="#dae2eb"/>
      <path id="Path_7079" data-name="Path 7079" d="M241.5,2028.146c1.075,1.928,4.084,3.213,6.233,1.285,2.364-2.138,4.3-3.633,3.224-5.771-1.075-1.928-2.794-1.285-6.448-.853C241.5,2023.451,240.209,2026.009,241.5,2028.146Z" transform="translate(17.658 0.408)" fill="#dae2eb"/>
      <path id="Path_7080" data-name="Path 7080" d="M249.549,2020.646a3.172,3.172,0,0,1,3.439,1.927,3.881,3.881,0,0,1,.43,1.5c.429,2.99-.645,5.561-2.365,5.771-1.934.433-3.868-1.705-4.083-4.486v-1.928a2.975,2.975,0,0,1,2.579-2.781Z" transform="translate(19.066 0)" fill="#989fb0"/>
      <path id="Path_7081" data-name="Path 7081" d="M214.733,2105.792a2.836,2.836,0,1,0-2.835-2.842A2.839,2.839,0,0,0,214.733,2105.792Z" transform="translate(10.797 18.745)" fill="#43d477"/>
      <path id="Path_7082" data-name="Path 7082" d="M237.552,2105.792a2.836,2.836,0,1,0-2.835-2.842A2.839,2.839,0,0,0,237.552,2105.792Z" transform="translate(16.177 18.745)" fill="#43d477"/>
      <path id="Path_7083" data-name="Path 7083" d="M231.5,2120.747h-8.889a2.533,2.533,0,0,1,0-5.067h8.812a2.552,2.552,0,0,1,2.528,2.533A2.439,2.439,0,0,1,231.5,2120.747Z" transform="translate(12.727 22.413)" fill="#43d477"/>
    </g>
  </g>
</svg>
