<svg xmlns="http://www.w3.org/2000/svg" width="36.652" height="39.129" viewBox="0 0 36.652 39.129">
  <g id="w3c_2_" data-name="w3c (2)" transform="translate(-16.2 -0.002)">
    <path id="Path_8044" data-name="Path 8044" d="M300.782,1.6a2.511,2.511,0,0,1,2.92.029.959.959,0,0,1,.26,1.23,3.6,3.6,0,0,1-3.22,2.028h-3.9a4.232,4.232,0,0,1,.057,2.9h9.17a4.2,4.2,0,0,0,.111-3.717l-1.117-2.508a2.324,2.324,0,0,0-.6-.8,3.661,3.661,0,0,0-4.319-.118L295.93,3.466a4.277,4.277,0,0,1,.683.929Z" transform="translate(-258.352 0)" fill="#fff"/>
    <path id="Path_8045" data-name="Path 8045" d="M86.64,7.787a4.232,4.232,0,0,1,.057-2.9H82.8a3.606,3.606,0,0,1-3.224-2.028.957.957,0,0,1,.261-1.229,2.214,2.214,0,0,1,1.434-.48,2.666,2.666,0,0,1,1.485.451l4.168,2.79a4.264,4.264,0,0,1,.683-.929L83.4.647A3.658,3.658,0,0,0,79.08.765a2.279,2.279,0,0,0-.646.9L77.359,4.07a4.194,4.194,0,0,0,.111,3.717Z" transform="translate(-56.133 0)" fill="#fff"/>
    <path id="Path_8046" data-name="Path 8046" d="M215.782,47.878h5.552a3.1,3.1,0,1,0-5.552,0Z" transform="translate(-184.032 -40.09)" fill="#fff" opacity="0.5"/>
    <path id="Path_8047" data-name="Path 8047" d="M16.2,119.354v3.787a2.428,2.428,0,0,0,1.847,2.354H32.391V116.93H18.623A2.427,2.427,0,0,0,16.2,119.354Z" transform="translate(0 -107.992)" fill="#fff"/>
    <path id="Path_8048" data-name="Path 8048" d="M40.38,261.311a3.22,3.22,0,0,0,3.217,3.217H54.724V244.05H40.38Z" transform="translate(-22.332 -225.397)" fill="#fff"/>
    <path id="Path_8049" data-name="Path 8049" d="M297.726,116.93H283.96v8.564H298.3a2.427,2.427,0,0,0,1.847-2.354v-3.787A2.425,2.425,0,0,0,297.726,116.93Z" transform="translate(-247.297 -107.992)" fill="#fff"/>
    <path id="Path_8050" data-name="Path 8050" d="M283.96,264.528h11.125a3.22,3.22,0,0,0,3.217-3.217V244.05H283.96Z" transform="translate(-247.297 -225.397)" fill="#fff"/>
  </g>
</svg>
