<svg id="Iconly_Bold_Category" data-name="Iconly/Bold/Category" xmlns="http://www.w3.org/2000/svg" width="13.333" height="13.333" viewBox="0 0 13.333 13.333">
  <g id="Category">
    <path id="Category-2" data-name="Category" d="M9.387,13.333a1.7,1.7,0,0,1-1.694-1.707V9.354A1.7,1.7,0,0,1,9.387,7.646H11.64a1.7,1.7,0,0,1,1.694,1.707v2.273a1.7,1.7,0,0,1-1.694,1.707Zm-7.694,0A1.7,1.7,0,0,1,0,11.626V9.354A1.7,1.7,0,0,1,1.693,7.646H3.947A1.7,1.7,0,0,1,5.64,9.354v2.273a1.7,1.7,0,0,1-1.694,1.707ZM9.387,5.687A1.7,1.7,0,0,1,7.693,3.98V1.707A1.7,1.7,0,0,1,9.387,0H11.64a1.7,1.7,0,0,1,1.694,1.707V3.98A1.7,1.7,0,0,1,11.64,5.687Zm-7.694,0A1.7,1.7,0,0,1,0,3.98V1.707A1.7,1.7,0,0,1,1.693,0H3.947A1.7,1.7,0,0,1,5.64,1.707V3.98A1.7,1.7,0,0,1,3.947,5.687Z" transform="translate(0)" fill="#43d477"/>
  </g>
</svg>
