<svg id="Info_Square" data-name="Info Square" xmlns="http://www.w3.org/2000/svg" width="15" height="15" viewBox="0 0 15 15">
  <path id="Info_Square-2" data-name="Info Square" d="M10.755,15h-6.5A4.113,4.113,0,0,1,0,10.568V4.44A4.117,4.117,0,0,1,4.253,0h6.5A4.114,4.114,0,0,1,15,4.44v6.128A4.11,4.11,0,0,1,10.755,15ZM7.492,6.361a.657.657,0,0,0-.653.66v3.315a.656.656,0,0,0,1.313,0V7.021A.661.661,0,0,0,7.492,6.361Zm.015-2.377a.656.656,0,1,0,.653.66A.653.653,0,0,0,7.507,3.983Z" fill="#a9aeb2"/>
</svg>
