<svg xmlns="http://www.w3.org/2000/svg" width="250" height="250.197" viewBox="0 0 250 250.197">
  <g id="Group_4534" data-name="Group 4534" transform="translate(-56.224 -61.298)">
    <rect id="Rectangle_1724" data-name="Rectangle 1724" width="250" height="250" transform="translate(56.224 61.298)" fill="#fff" opacity="0"/>
    <path id="Path_7823" data-name="Path 7823" d="M333.7,242.178c.062.354.123.711.18,1.074.08.841.148,1.706.205,2.572s.1,1.739.139,2.594c-.028.858-.055,1.7-.082,2.514-.044.809-.085,1.586-.124,2.316-.034.552-.115,1.063-.19,1.549a81.607,81.607,0,0,0-3.944-26.971c-6.943-21.648-15.469-41.47-25.949-58q2.62,3.656,5.088,7.435c.987.051-4.555-9.555-.725-4.412,1.678,2.577,1.189,2.56,1.358,3.188.846,1.279,1.6,2.609,2.4,3.914s1.6,2.619,2.333,3.962l-.3,3.13c2.581,7.178,5.518,12.438,8.6,18.334a111.671,111.671,0,0,1,9.2,21.8,7.469,7.469,0,0,0,.767,1.025,11.376,11.376,0,0,0,0,2.74c.166,1.28.335,2.986.722,5.224.1.558.214,1.151.331,1.782q.139.953.294,2.022c.2,1.427.552,3,.725,4.784C334.29,242.609,334.088,243.87,333.7,242.178Zm-34.022-78.719q-2.609-3.706-5.369-7.145l.6.592c.589.6,1.144,1.258,1.72,1.935a27.783,27.783,0,0,1,3.306,4.7C299.983,163.7,299.864,163.626,299.673,163.459Zm-63.134-41.684c.28-.5.45-.989,2.761-1.068a38.369,38.369,0,0,1,3.763.869,37.049,37.049,0,0,1,3.989,1.168c2.425.891,4.144,1.645,3.492,1.8.471.221.951.439,1.431.656A77.739,77.739,0,0,0,236.539,121.775ZM184.432,336.9c-2.654-.314-4.934-.471-6.263-.51-1.783-.679-2.355-1.093-2.332-1.369q4.387,1.067,8.945,1.914C184.668,336.925,184.544,336.919,184.432,336.9Zm-40.5-188.514c-1.563,1.081-3.029,2.109-4.4,3.117-12.38,8.108-21.74,16.969-28.768,26.819.515-.772,1.016-1.558,1.58-2.3l2.006-2.7c1.42-1.739,2.817-3.523,4.38-5.17,1.5-1.708,3.145-3.291,4.774-4.9.832-.787,1.7-1.543,2.548-2.316l1.288-1.15,1.335-1.1A128.6,128.6,0,0,1,152,143.485C149.053,145.091,146.385,146.795,143.929,148.39Zm195.016,99.231c-.109-1.359-.236-2.565-.377-3.663a21.847,21.847,0,0,0-.565-2.994c-.222-.915-.45-1.765-.686-2.594-.938-3.037-2.054-5.79-3.736-10.357a10.7,10.7,0,0,0-.095-2.434c-.338-2.753-1.13-6.7-1.317-8.678l.158,1.983A29.484,29.484,0,0,1,328.857,211c-1.43-4.813,1.637,2.274.825-1.115a81.825,81.825,0,0,0-6.543-15.675c-2.105-3.842-4.262-7.324-7.495-13.351-1.294-2.784-2.522-5.436-3.949-7.868-.7-1.224-1.383-2.421-2.094-3.58q-1.11-1.715-2.225-3.353l-1.117-1.625c-.382-.531-.785-1.046-1.177-1.563l-2.373-3.047c-.792-1-1.662-1.946-2.492-2.911-.854-.948-1.655-1.93-2.56-2.84a160.654,160.654,0,0,0-26.024-22.017,103.107,103.107,0,0,1,11.221,9.85l1.439,1.422,1.4,1.523c.938,1.037,1.94,2.06,2.907,3.169l2.951,3.45c1.016,1.179,1.973,2.467,3.02,3.746-2.519-2.647-5.174-5.15-7.9-7.541a93.609,93.609,0,0,0-20.494-16.109c.3.156.591.316.885.465l2.866,1.488c1.814.971,3.364,1.975,4.668,2.775-.794-.768-1.741-1.627-2.777-2.536a19.511,19.511,0,0,0-1.649-1.334l-1.766-1.324-1.8-1.33-1.845-1.194-1.768-1.155c-.568-.381-1.116-.745-1.657-1.044-4.254-2.506-6.525-4.182-1.47-3.251-.733-.346-1.426-.684-2.095-.978l-1.949-.737c-1.238-.458-2.355-.856-3.384-1.2-2.1-.555-3.829-.943-5.439-1.261-1.628-.238-3.146-.369-4.8-.545l-1.27-.13-1.359-.056-3.048-.161c-.553-.087-1.157-.213-1.8-.265l-2.012-.143c-1.383-.078-2.822-.2-4.152-.239-2.66-.013-4.9-.093-5.439-.466-2.038.3-3.509.592-4.776.787-.633.1-1.214.19-1.786.266l-1.719.29c-1.186.179-2.508.326-4.313.484-1.8.189-4.046.538-7.136.924-2.056.542-4.06,1.17-5.834,1.732l-1.282.419-1.152.46c-.729.3-1.375.573-1.915.817-2.157.98-2.6,1.464.177.87a119.039,119.039,0,0,1,22.786-5.008c2.81.121,3.547.445,3.147.781a4.321,4.321,0,0,1-1.336.558c-.654.188-1.476.39-2.346.667-1.746.514-3.718,1.038-5.045,1.46-.2.076-.386.148-.556.217a125.681,125.681,0,0,0-19.553,5.105,296.008,296.008,0,0,0-27.676,11c2.6-1.47,5.241-2.9,7.889-4.309-4.962,2.122-9.917,4.277-14.735,6.73,1.05-1.168,3.3-3.054,3.824-3.95s-.772-1-6.766,1.693c-4.54,2.813-8.93,5.665-13.115,8.76-1.057.753-2.105,1.515-3.123,2.321l-3.075,2.37c-2,1.645-4.023,3.25-5.96,4.979A144.577,144.577,0,0,0,105.936,180.8a93.081,93.081,0,0,0-9.9,20.464,124.863,124.863,0,0,0-5.325,22.373c-.28,1.907-.512,3.824-.745,5.743-.18,1.923-.414,3.848-.542,5.781s-.308,3.856-.335,5.854L89,243.994c.011.993.061,1.989.091,2.984a75.737,75.737,0,0,0,4.564,23.555c-.421-2.7.283-1.053.765.032.243.545.431.953.4.622a10.778,10.778,0,0,0-.23-1.126c-.075-.3-.166-.673-.275-1.117-.087-.451-.189-.977-.307-1.589.241.56.453,1.112.7,1.651s.5,1.066.755,1.6c.115.24.224.484.333.73a79.5,79.5,0,0,0,5.034,11.46c-.371-.434-.7-.823-.941-1.132a8.607,8.607,0,0,0-.772-.839c-.384-.346-.516-.281-.467.087a10.151,10.151,0,0,0,.621,1.891c.379.835.895,1.842,1.443,2.921l.848,1.654L102.5,289c.619,1.062,1.177,2.1,1.647,2.96.983,1.689,1.428,2.824.571,2.556l1.63,2.17c.534.659,1.027,1.282,1.483,1.877.91,1.193,1.676,2.273,2.425,3.215.729.96,1.363,1.854,1.953,2.72s1.2,1.641,1.785,2.464,1.185,1.654,1.868,2.509c.7.835,1.467,1.717,2.355,2.679a35.61,35.61,0,0,0,3.173,3.05c.619.545,1.284,1.115,2,1.716.735.575,1.538,1.159,2.4,1.783,4.456,2.428,2.668.485-.686-2.483-.853-.725-1.727-1.627-2.672-2.487-.928-.881-1.916-1.74-2.785-2.664l-2.487-2.534c-.755-.763-1.345-1.5-1.817-2.043l4.322,4.132c-.585-.664-1.153-1.329-1.7-1.986l-.793-.978-.709-1a41.448,41.448,0,0,1-2.28-3.624,10.843,10.843,0,0,1-1.09-2.944,104.893,104.893,0,0,0,23.27,18.965c-.362.987-.391,1.993,3.093,4.011a16.7,16.7,0,0,0,4.122,2.763c.986.566,2.143,1.046,3.33,1.6,1.2.52,2.428,1.125,3.71,1.6l3.756,1.475c1.205.5,2.395.878,3.442,1.3,1.054.409,1.989.8,2.75,1.173a8.161,8.161,0,0,1,1.719.969c8.549,2.394,16.124,4.591,22.77,6.044a72.26,72.26,0,0,0,9.209,1.4,37.913,37.913,0,0,0,4,.107,23.736,23.736,0,0,0,3.567-.467l3.194.813,3.217.706,3.236.707,3.252.592c1.317.094,2.581.165,3.8.217s2.39.087,3.526.038c2.27-.063,4.382-.184,6.394-.338,2.012-.178,3.922-.495,5.793-.759l2.784-.42c.923-.148,1.84-.354,2.764-.523,1.632-.629-.421-.715-1.767-.916s-1.987-.516,2.36-1.586l2.74-.47c1.007-.158,2.083-.316,3.148-.528a39.858,39.858,0,0,1,5.849-.707c.93.368-3.144,1.4-4.052,1.708l3.092-.573,1.507-.256,1.47-.309c1.946-.4,3.831-.75,5.671-1.061,3.635-.814,7.125-1.354,10.44-2.167,3.359-.666,6.541-1.555,9.748-2.4,1.591-.453,3.147-1,4.73-1.522.787-.27,1.585-.522,2.37-.821l2.335-.974c7.9-4.324,17.065-10.277,24.1-17.368l2.576-2.634c.858-.852,1.58-1.809,2.346-2.686.742-.9,1.5-1.751,2.164-2.641l1.875-2.634a44.9,44.9,0,0,0,3.022-4.922,27.193,27.193,0,0,0,1.944-4.23L326.1,294.64c-.484.737-.994,1.457-1.489,2.186l-1.5,2.175c-.5.721-1.077,1.39-1.613,2.086.565-.779,1.081-1.446,1.472-2.075s.706-1.184.973-1.664a14.952,14.952,0,0,0,1.021-2.128c.354-.978.128-1.228-.047-1.514s-.3-.609.158-1.758a24.444,24.444,0,0,1,1.192-2.442c.6-1.081,1.249-2.556,2.232-4.418q.285-.519.544-.991l.44-.923.776-1.572c.472-.932.857-1.64,1.173-2.168.558-1.084.888-1.433,1.112-1.424.448.016.464,1.483,1.058,1.244.291-.86.591-1.8.9-2.785l.46-1.519c.12-.527.241-1.065.365-1.61l.734-3.342c.212-1.137.356-2.3.538-3.434.41-2.272.526-4.529.777-6.552.144-1.011.167-1.975.251-2.861s.165-1.7.273-2.413c-.066,4.133.259,2.558.584.4.076-.539.172-1.115.225-1.643s.084-1.012.113-1.366c.068-.71.118-.9.147.08C338.989,250.5,339.038,248.98,338.945,247.621Z" transform="translate(-32.776 -32.626)" fill="#e7e7e7" fill-rule="evenodd" opacity="0.52"/>
    <path id="Path_7947" data-name="Path 7947" d="M613.6,419.482l12.355,7.132L613.6,433.747Zm-.926-1.6v17.473l15.132-8.736Z" transform="translate(-370.534 -231.511)" fill="#1f3b64" fill-rule="evenodd" opacity="0.1"/>
    <path id="Path_7948" data-name="Path 7948" d="M350.053,238.591l7.3,4.216-7.3,4.216Zm-.637,9.534,9.212-5.318-9.212-5.318Z" transform="matrix(0.899, -0.438, 0.438, 0.899, -287.198, 73.297)" fill="#1f3b64" fill-rule="evenodd" opacity="0.3"/>
    <path id="Path_7949" data-name="Path 7949" d="M425.075,325.251a6.091,6.091,0,1,1,6.092-6.091A6.1,6.1,0,0,1,425.075,325.251Zm0-13.108a7.017,7.017,0,1,0,7.018,7.017A7.025,7.025,0,0,0,425.075,312.143Z" transform="translate(-245.81 -163.75)" fill="#43d477" fill-rule="evenodd" opacity="0.5"/>
    <path id="Path_7951" data-name="Path 7951" d="M412.134,226.345a1.917,1.917,0,1,1,1.917-1.916A1.919,1.919,0,0,1,412.134,226.345Zm2.843-1.916a2.842,2.842,0,1,0-2.843,2.842A2.845,2.845,0,0,0,414.977,224.429Z" transform="translate(-240.192 -105.716)" fill="#1f3b64" fill-rule="evenodd" opacity="0.5"/>
    <path id="Path_7952" data-name="Path 7952" d="M213.035,400.15a5.351,5.351,0,1,1,5.352-5.351A5.358,5.358,0,0,1,213.035,400.15Zm0-11.629a6.277,6.277,0,1,0,6.278,6.277A6.285,6.285,0,0,0,213.035,388.521Z" transform="translate(-110.396 -212.698)" fill="#43d477" fill-rule="evenodd" opacity="0.6"/>
    <path id="Path_7953" data-name="Path 7953" d="M592.407,230H501.813a7.847,7.847,0,0,0-7.854,7.838v37.769a7.846,7.846,0,0,0,7.854,7.838h10.666a19.762,19.762,0,0,1,2.115,7.11c.377,2.718.574,7.18.574,7.18a76.934,76.934,0,0,0,19.338-14.29h57.9a7.847,7.847,0,0,0,7.855-7.838V237.838A7.847,7.847,0,0,0,592.407,230Z" transform="translate(-294.452 -111.108)" fill="#fff" fill-rule="evenodd"/>
    <path id="Path_7954" data-name="Path 7954" d="M568.23,265.782a20.015,20.015,0,1,1-20.009-20.525A20.272,20.272,0,0,1,568.23,265.782Z" transform="translate(-316.404 -120.886)" fill="#fff" fill-rule="evenodd"/>
    <path id="Path_7955" data-name="Path 7955" d="M569.929,238.253a3.523,3.523,0,0,0-1.88.724,13.8,13.8,0,0,0-2.291-6.273c-2.07-2.972-9.9-2.746-12.247.873a51.471,51.471,0,0,0,.209,10.586c.625,3.5,2.676,4.912,4.256,5.388-.039.541-.087,1.082-.14,1.567a4.2,4.2,0,0,1-.745,1.7s-.631,3.792,6.363,4.008c5.6.172,5.983-3.451,5.983-3.451s-.011-2.174-.155-4.4c-.07-1.084-.127-3.164-.166-5.012a3.484,3.484,0,0,0,2.982-1.7A2.684,2.684,0,0,0,569.929,238.253Z" transform="translate(-332.496 -111.526)" fill="#fff" fill-rule="evenodd"/>
    <path id="Path_7956" data-name="Path 7956" d="M494.409,272.877c-1.04-4.551-3.284-5.485-3.284-5.485s-1.077.166-2.41-3.1c-1.22-2.991-3.148-7.389-3.464-8.109a5.461,5.461,0,0,0,1.163-1.845c.408-1.191.66-4.262,1.1-5.3s1.7-3.071.974-3.573-1.633.6-2.606,2.037c-.711,1.053-1.285,1.866-1.544,2.231-.284-.728-.434-.673-.434-.673s-.113-4.452-.245-6.105-1.208-1.141-1.307-.514-.2,6.355-.2,6.355-1.022-6.572-1.16-6.844c-.412-.813-1.34-.7-1.267.781.053,1.057.671,6.624.671,6.624h-.331s-2.485-6.611-3.512-5.918c-.755.51,2.1,6.446,2.1,6.446l-.374.2s-3.015-3.107-3.545-2.513,2.419,3.967,2.419,3.967.1.331.728,1.951a13.5,13.5,0,0,0,1.515,2.818s.726,2.9,1.574,7.133,2.787,12.936,5.936,16.321a6.327,6.327,0,0,0,7.269,1.33S495.64,278.264,494.409,272.877Z" transform="translate(-282.085 -118.449)" fill="#fff" fill-rule="evenodd"/>
    <path id="Path_7957" data-name="Path 7957" d="M380.022,400.48c.315,4.861,1.916,10.738,6.546,9.472,4.265-1.168,6.933-4.6,6.933-9.472s-2.6-8.446-7.139-9.476C382.473,390.122,379.483,392.171,380.022,400.48Z" transform="translate(-221.394 -214.168)" fill="#fff" fill-rule="evenodd"/>
    <path id="Path_7958" data-name="Path 7958" d="M370,399.972c0,5.494,3.4,9.948,7.6,9.948s7.6-4.454,7.6-9.948-3.4-9.949-7.6-9.949S370,394.477,370,399.972Z" transform="translate(-215.012 -213.66)" fill="#fff" fill-rule="evenodd"/>
    <path id="Path_7959" data-name="Path 7959" d="M177,524.415s10.811-19.186,25.495-31.249C217.571,480.78,232.279,481,232.279,481l17.632,1.193s9.744-1.33,28.461,17.124c1.582,1.56-4.426,49.24-4.426,49.24s-62.333.721-62.217,0l.232-13S187.291,538.31,177,524.415Z" transform="translate(-91.326 -271.964)" fill="#ffcb57" fill-rule="evenodd"/>
    <g id="mask1_0_971" data-name="mask1 0 971" transform="translate(85.674 209.036)">
      <path id="Path_7960" data-name="Path 7960" d="M177,524.415s10.811-19.186,25.495-31.249C217.571,480.78,232.279,481,232.279,481l17.632,1.193s9.744-1.33,28.461,17.124c1.582,1.56-4.426,49.24-4.426,49.24s-62.333.721-62.217,0l.232-13S187.291,538.31,177,524.415Z" transform="translate(-177 -481)" fill="#ffcd4c" fill-rule="evenodd"/>
    </g>
    <path id="Path_7961" data-name="Path 7961" d="M338.977,370.045a36.5,36.5,0,0,0-3.531-4.464s-6.962,5.213-13.7,10.667c-7.292,5.9-10.058,2.51-10.058,2.51a18.138,18.138,0,0,1-3.488.138,5.242,5.242,0,0,0-4.3,7.993c1.8,3.253,5.439,3.491,7.264,3.386.112,3.189.3,9.073.226,11.453-.131,4.288-1.734,6.89-1.924,6.968.085.726,1.1,6.828,11.17,7.636,10.713.859,11.889-5.882,11.889-5.882a10.056,10.056,0,0,1-2.743-5.274,26.784,26.784,0,0,1-.1-4.572c4.092-.692,8.525-4.362,9.946-12.359C341.09,379.937,338.977,370.045,338.977,370.045Z" transform="translate(-172.14 -197.996)" fill="#fff" fill-rule="evenodd"/>
    <path id="Path_7962" data-name="Path 7962" d="M346.084,618.832s6.889,3.521,8.943,4.341c.31.124-1.021,2.458-3.709,1.936l-3.763-.731Z" transform="translate(-199.685 -360.294)" fill="#fff" fill-rule="evenodd"/>
    <path id="Path_7963" data-name="Path 7963" d="M307.678,405.61c0,5.5-3.406,9.958-7.607,9.958s-7.607-4.459-7.607-9.958,3.406-9.957,7.607-9.957S307.678,400.11,307.678,405.61Z" transform="translate(-165.322 -217.268)" fill="#fff" fill-rule="evenodd"/>
    <path id="Path_7964" data-name="Path 7964" d="M303.2,407.624c0,4.876-3.019,8.829-6.745,8.829s-6.744-3.953-6.744-8.829,3.019-8.828,6.744-8.828S303.2,402.748,303.2,407.624Z" transform="translate(-163.555 -219.282)" fill="#fff" fill-rule="evenodd"/>
    <path id="Path_7965" data-name="Path 7965" d="M335.166,338.587s-10.164-7.785-19.91-.9c-7.621,5.387-6.188,17.369-6.188,17.369a3.576,3.576,0,0,1-2.685.549,10.692,10.692,0,0,0-2.529-.392s-.48-12.156,6.412-18.54C320.432,327.262,333.9,334.261,335.166,338.587Z" transform="translate(-172.617 -176.475)" fill="#fff" fill-rule="evenodd"/>
    <path id="Path_7966" data-name="Path 7966" d="M314.122,590.653a2.276,2.276,0,0,1,.952-2.849,2.518,2.518,0,0,1,2.941,0l16.921,22.09,2.846,6.58-6.966-3.813Z" transform="translate(-179.09 -340.114)" fill="#fff" fill-rule="evenodd"/>
    <path id="Path_7967" data-name="Path 7967" d="M178.76,611.847a25.666,25.666,0,0,0-3.412,10.074c-.587,5.659.978,8.587,3.324,9.562a11.8,11.8,0,0,0,4.107.977h59.831a3.064,3.064,0,0,0,1.153-2.2c-.04-1.27-.386-1.462-.386-1.462a2.194,2.194,0,0,0,1.85-1.308,2.233,2.233,0,0,0-.578-2.231,1.7,1.7,0,0,0,1.578-1.331c.375-1.271-.942-2.223-4.122-3.709a36,36,0,0,0-8.345-2.547s-1.439-2.172-1.809-2.1c-4.408.881-11.349,4.238-11.349,4.238s-6.5,0-14.046-.147-13.164-.789-18.259-2.657A35.906,35.906,0,0,1,178.76,611.847Z" transform="translate(-90.188 -355.818)" fill="#fff" fill-rule="evenodd"/>
    <path id="Path_7968" data-name="Path 7968" d="M491.478,454.329l1.933-6.269a19.98,19.98,0,0,0,3.785-7.234c1.207-4.34,1.083-5.2,1.083-5.2s3.587-7.1,4.312-9.031-.322-3.054-1.53-1.366-5.333,7.542-5.333,7.542l-.773-.617s1.52-8.766,2.164-11.5-.327-4.269-1.454-3.545c-1.536.985-4.216,13.692-4.216,13.692l-.636-.147s2.081-11.934,2.2-13.464c.161-2.171-2.273-2.164-2.769-.085-.355,1.483-2.706,14.044-2.706,14.044s0-10.342-.484-12.271-2.094-1.286-2.335.643-.724,11.252-.724,11.252l-.967,5.064a33.062,33.062,0,0,0-3.151-6.2c-1.53-2.01-2.888-.956-2.888-.956s.469,2.234,1.038,4.436c.518,2,1.458,3.923,1.458,6.335s2.335,6.591,2.335,6.591l-.8,7.716Z" transform="translate(-283.573 -230.026)" fill="#fff" fill-rule="evenodd"/>
    <path id="Path_7969" data-name="Path 7969" d="M500.325,566.1h-65.2a3.947,3.947,0,0,1-3.879-4.7l8.659-44.533a3.95,3.95,0,0,1,3.879-3.193h65.2a3.946,3.946,0,0,1,3.879,4.7L504.206,562.9A3.952,3.952,0,0,1,500.325,566.1Z" transform="translate(-254.216 -292.904)" fill="#fff" fill-rule="evenodd"/>
    <path id="Path_7970" data-name="Path 7970" d="M475.52,663.632H391.051a1.328,1.328,0,0,1-1.329-1.326V661.1a1.328,1.328,0,0,1,1.329-1.326H475.52a1.328,1.328,0,0,1,1.328,1.326v1.205A1.327,1.327,0,0,1,475.52,663.632Z" transform="translate(-227.651 -386.533)" fill="#fff" fill-rule="evenodd"/>
    <path id="Path_7971" data-name="Path 7971" d="M544.572,582.974c-1.555,2.369-4.474,3.206-6.518,1.869s-2.442-4.342-.887-6.711,4.474-3.206,6.518-1.869S546.127,580.6,544.572,582.974Z" transform="translate(-321.534 -332.606)" fill="#fff" fill-rule="evenodd"/>
    <path id="Path_7972" data-name="Path 7972" d="M137.308,677.666H348.324a6.3,6.3,0,0,0,6.308-6.3v-1.878H131v1.878A6.3,6.3,0,0,0,137.308,677.666Z" transform="translate(-61.847 -392.76)" fill="#fff" fill-rule="evenodd"/>
    <path id="Path_7973" data-name="Path 7973" d="M556.776,294.082c-5.644-4.644-9.638-5.8-11.508-6.082.034,1.126.039,1.932.039,1.932s-.384,3.623-5.992,3.45c-7.006-.216-6.374-4.007-6.374-4.007a4.641,4.641,0,0,0,.68-1.368,17.122,17.122,0,0,0-8.042,2.926c-2.42,1.563-7.53,4.408-8.848,5.369a2.654,2.654,0,0,1-.007.45.968.968,0,0,0,.633.27s2.249.934,3.291,5.484c1.233,5.387-.243,8.22-.243,8.22a6.969,6.969,0,0,1-4.407.419,4.871,4.871,0,0,0,4.959.861c1.485-.455,5.886-3.7,6.242-3.39a19.681,19.681,0,0,0,12.975,4.882,20.174,20.174,0,0,0,19.639-16.41A25.061,25.061,0,0,0,556.776,294.082Z" transform="translate(-308.577 -148.278)" fill="#5ae2e2" fill-rule="evenodd"/>
    <g id="mask2_0_971" data-name="mask2 0 971" transform="translate(207.423 139.722)">
      <path id="Path_7974" data-name="Path 7974" d="M556.776,294.082c-5.644-4.644-9.638-5.8-11.508-6.082.034,1.126.039,1.932.039,1.932s-.384,3.623-5.992,3.45c-7.006-.216-6.374-4.007-6.374-4.007a4.641,4.641,0,0,0,.68-1.368,17.122,17.122,0,0,0-8.042,2.926c-2.42,1.563-7.53,4.408-8.848,5.369a2.654,2.654,0,0,1-.007.45.968.968,0,0,0,.633.27s2.249.934,3.291,5.484c1.233,5.387-.243,8.22-.243,8.22a6.969,6.969,0,0,1-4.407.419,4.871,4.871,0,0,0,4.959.861c1.485-.455,5.886-3.7,6.242-3.39a19.681,19.681,0,0,0,12.975,4.882,20.174,20.174,0,0,0,19.639-16.41A25.061,25.061,0,0,0,556.776,294.082Z" transform="translate(-516 -288)" fill="#43d477" fill-rule="evenodd"/>
    </g>
    <g id="mask3_0_971" data-name="mask3 0 971" transform="translate(68.682 111.492)">
      <path id="Path_7975" data-name="Path 7975" d="M345.355,459.81H138.329a7.724,7.724,0,0,1-7.7-7.249H353.059A7.726,7.726,0,0,1,345.355,459.81ZM149.636,450.6c-2.459-1.024-3.538-4.253-3.038-9.088a25.564,25.564,0,0,1,3.079-9.436,37.345,37.345,0,0,0,9.236,4.913c4.755,1.743,10.084,2.521,18.388,2.684,7.451.146,13.974.148,14.04.148a.469.469,0,0,0,.2-.046c.069-.034,6.8-3.278,11.1-4.176a11.962,11.962,0,0,1,1.458,1.874.464.464,0,0,0,.313.2,35.7,35.7,0,0,1,8.213,2.509c.191.089.692.32,1.028.5,2.309,1.158,3.069,1.892,2.843,2.663a1.249,1.249,0,0,1-1.048.992c-3.918-1.879-11.465-2.676-11.789-2.709a.471.471,0,0,0-.507.413.462.462,0,0,0,.413.506c.078.009,7.766.818,11.524,2.643a1.711,1.711,0,0,1,.418,1.685,1.672,1.672,0,0,1-1.364,1,37.657,37.657,0,0,0-10.1-1.745.5.5,0,0,0-.333.593.429.429,0,0,0,.546.3,41.482,41.482,0,0,1,9.567,1.719,2.59,2.59,0,0,1,.189,1.076,2.477,2.477,0,0,1-.862,1.72H153.561A11.478,11.478,0,0,1,149.636,450.6Zm46.726-24.93a1.776,1.776,0,0,1,.781-2.225,2.1,2.1,0,0,1,2.369-.069l11.61,15.175a37.833,37.833,0,0,0-6.326-1.749l-.377-.5c-.235-.332-.44-.6-.618-.816Zm19.358,12.853a2.652,2.652,0,0,1-.758.766,2.988,2.988,0,0,1-1.143.441c-.26-.126-.527-.254-.8-.383-.06-.028-.122-.054-.183-.083l-2.566-3.355C212.171,436.864,214.457,437.985,215.721,438.527Zm-.789,11.174,3.533,1.936H214.3a2.98,2.98,0,0,0,.635-1.84C214.938,449.76,214.933,449.735,214.931,449.7Zm3.7.972-3.733-2.045a2.369,2.369,0,0,0,1.311-3.425l.136.179Zm4.8-.343a1.261,1.261,0,0,1,1.261-1.259h83.582a1.261,1.261,0,0,1,1.261,1.259v.414a1.254,1.254,0,0,1-.373.893H223.8a1.255,1.255,0,0,1-.373-.893ZM193.82,355.335c3.46,0,6.275,3.753,6.275,8.367s-2.815,8.367-6.275,8.367-6.273-3.754-6.273-8.367S190.362,355.335,193.82,355.335Zm5.065-19.439a16.516,16.516,0,0,1,16.089-3.9,15.036,15.036,0,0,1,7.084,4.043c-3.346-1.9-11.214-5.2-18.773.152-7.165,5.07-6.58,15.558-6.4,17.5a3.005,3.005,0,0,1-2.08.344,13.9,13.9,0,0,0-2.18-.385C192.62,351.476,192.951,341.4,198.885,335.9Zm25.255,7.669a35.583,35.583,0,0,1,3.15,4.021c.2.968,1.987,10.213.617,17.942-1.459,8.216-6.126,11.615-10.009,12.057-3.209.361-6.637-1.105-8.782-2.6a15.585,15.585,0,0,1-4.7-4.9.462.462,0,1,0-.786.487,16.662,16.662,0,0,0,4.952,5.17,15.449,15.449,0,0,0,8.311,2.82,9.71,9.71,0,0,0,1.048-.058,24.715,24.715,0,0,0,.129,4.106,10.476,10.476,0,0,0,2.685,5.344c-.321,1.114-2.261,6.007-11.325,5.28-9.151-.735-10.516-5.855-10.711-7.043a14.012,14.012,0,0,0,1.9-7.088c.046-1.514-.01-4.389-.086-7.113a11.646,11.646,0,0,0,3.2-8.291,12.436,12.436,0,0,0-1.616-6.238c1.675.329,4.471-.083,8.682-3.494C216.619,349.257,222.669,344.673,224.14,343.565ZM195.672,373.2a5.424,5.424,0,0,1-1.529-.226c3.82-.219,6.878-4.287,6.878-9.27,0-4.049-2.021-7.492-4.826-8.762a4.417,4.417,0,0,0,1.166-.45c3.121,1.012,5.447,4.752,5.447,9.212C202.808,368.937,199.607,373.2,195.672,373.2Zm34.161-4.785a12.28,12.28,0,0,0,1.829-6.566,12.68,12.68,0,0,0-1.016-5.023q-.009-.582-.025-1.156a9.5,9.5,0,0,1,2.031,6.18,9.114,9.114,0,0,1-2.849,7.02C229.814,368.715,229.822,368.565,229.834,368.412Zm.779-8.309a12.584,12.584,0,0,1,.125,1.743,12.09,12.09,0,0,1-.646,3.918C230.292,363.991,230.52,362.1,230.613,360.1Zm26.613,24.692a14.894,14.894,0,0,0-.955-4.74c-.185-.573-.369-1.138-.517-1.711-.43-1.666-.806-3.368-.958-4.075.37-.128,1.115-.161,1.99.99a32.864,32.864,0,0,1,3.085,6.085c0,.012.018.016.023.028a.451.451,0,0,0,.163.195l0,0s0,0,.006.005,1.365.851,3.019,4a13.686,13.686,0,0,1,1.03,4.146.461.461,0,0,0,.46.423h.041a.463.463,0,0,0,.421-.5,14.352,14.352,0,0,0-1.131-4.5,12.9,12.9,0,0,0-3.094-4.175l.918-4.838c.005-.093.484-9.329.722-11.22.116-.929.57-1.386.841-1.4.228-.037.455.306.583.815.365,1.457.465,8.362.469,11.974a8.4,8.4,0,0,0-1.743.541.462.462,0,0,0,.4.835,9.864,9.864,0,0,1,9.872,1.572.463.463,0,1,0,.557-.739c-.038-.03-.077-.051-.116-.079a.391.391,0,0,0,.061-.057s4.119-5.853,5.325-7.54c.409-.572.706-.655.769-.626.132.07.3.618-.051,1.56-.707,1.884-4.251,8.916-4.287,8.987a.512.512,0,0,0-.046.256c0,.038.057.97-1.069,5.023a19.694,19.694,0,0,1-3.681,7.051.465.465,0,0,0-.1.17l-.742,2.412h-10.38l.441-4.237a.456.456,0,0,0-.056-.273C259.477,391.12,257.226,387.057,257.226,384.795Zm10.734-22.244c.208-.867.812-1.26,1.269-1.187.415.065.633.487.585,1.132-.109,1.491-2.165,13.3-2.185,13.42a.446.446,0,0,0,.024.227,10.665,10.665,0,0,0-2.309,0C265.757,373.935,267.649,363.853,267.96,362.551Zm5.222.287c.28-.179.421-.08.471-.044.348.246.709,1.272.281,3.095-.64,2.716-2.107,11.167-2.168,11.526,0,.015.005.03,0,.046a11.363,11.363,0,0,0-2.674-1.05.458.458,0,0,0,.077-.172C270.469,370.083,272.323,363.389,273.181,362.837Zm80.354,88.8H310.252a2.12,2.12,0,0,0,.206-.893v-.414a2.182,2.182,0,0,0-1.249-1.965,4.4,4.4,0,0,0,2.032-2.91l8.649-44.537a4.41,4.41,0,0,0-4.329-5.247H301.954a.462.462,0,1,0,0,.925H315.56a3.483,3.483,0,0,1,3.42,4.146l-8.649,44.537a3.49,3.49,0,0,1-3.421,2.82H241.784a3.482,3.482,0,0,1-3.42-4.146l4.949-25.48a.463.463,0,1,0-.909-.177l-2.492,12.832c-.619-23.458-9.9-36.368-9.993-36.5a.463.463,0,0,0-.747.548c.1.138,10.127,14.1,9.849,39.442a.457.457,0,0,0,.148.34l-1.714,8.821a4.385,4.385,0,0,0,1.694,4.371h-14.46a2.188,2.188,0,0,0-2.186,2.184v.414a2.093,2.093,0,0,0,.206.893h-2.685c-.006-.032,0-.064-.009-.094l-2.844-6.581a.531.531,0,0,0-.056-.1l-.24-.313a2.448,2.448,0,0,0,.507-.941c.4-1.346-.671-2.325-2.4-3.279a3.426,3.426,0,0,0,1.73-1.749.583.583,0,0,0-.3-.767c-1.436-.574-5.311-2.509-7.436-3.584l-8.767-11.459a.534.534,0,0,0-.067-.07,2.957,2.957,0,0,0-3.478-.046,2.708,2.708,0,0,0-1.138,3.429.493.493,0,0,0,.057.1l6.515,8.6a64.756,64.756,0,0,0-10.866,4.12c-.667,0-4.409-.007-9.229-.071.23-1.851,1.6-12.573,3.463-21.454a.463.463,0,0,0-.905-.19c-1.847,8.787-3.205,19.362-3.465,21.446-.469.04-1.382.1-2.623.143l-1.156-.022a66.059,66.059,0,0,1-14.346-1.5l-.183-.044q-.417-.1-.824-.215l-.129-.036c-.9-.249-1.762-.528-2.607-.837a37.973,37.973,0,0,1-7.054-3.467,21.912,21.912,0,0,1-5.112-4.769c1.36-2.337,11.727-19.734,25.264-30.835a53.06,53.06,0,0,1,25.633-11.7l-.171.485-.111.362.124.117a7.791,7.791,0,0,0,1.631,3.494c1.384,1.732,4.227,3.892,9.92,4.349.647.052,1.259.077,1.84.077,9.309,0,10.516-6.273,10.528-6.34l.042-.246-.181-.171a9.39,9.39,0,0,1-1.042-1.281c2.737.2,11.26,1.973,25.164,15.078l-1.441,7.416a.464.464,0,0,0,.367.542.47.47,0,0,0,.09.008.463.463,0,0,0,.452-.374l1.837-9.453a3.488,3.488,0,0,1,3.42-2.819h37.4a.462.462,0,1,0,0-.925H270.462l.63-2.046a20.411,20.411,0,0,0,3.813-7.34,24.158,24.158,0,0,0,1.1-5.217c.465-.923,3.589-7.148,4.273-8.972.468-1.246.315-2.332-.381-2.7-.221-.12-1.022-.4-1.958.9-1.015,1.42-4.093,5.791-5.044,7.143l-.175-.14c.262-1.494,1.541-8.782,2.11-11.2.449-1.906.2-3.462-.647-4.062a1.292,1.292,0,0,0-1.506.022c-1.029.66-2.354,5.281-3.3,9.105.592-3.494,1.288-7.713,1.355-8.6a1.765,1.765,0,0,0-1.367-2.114,2.195,2.195,0,0,0-2.311,1.887c-.214.9-1.128,5.685-1.836,9.433a57.7,57.7,0,0,0-.451-7.665c-.369-1.47-1.275-1.535-1.537-1.512-.847.05-1.547.96-1.7,2.211-.24,1.924-.706,10.9-.719,11.223l-.675,3.542a26.4,26.4,0,0,0-2.615-4.869,3.2,3.2,0,0,0-2.069-1.4,2.059,2.059,0,0,0-1.468.355.461.461,0,0,0-.169.46c0,.022.477,2.27,1.041,4.457.153.59.341,1.174.532,1.764a14.138,14.138,0,0,1,.911,4.456c0,2.287,1.915,5.941,2.319,6.686l-.436,4.19h-7.75a4.417,4.417,0,0,0-4.329,3.567l-.189.974a89.049,89.049,0,0,0-10.83-8.773c1.94-6.543,1.52-10.248-2.65-14.069-2.163-1.984-2.711-4.423-2.678-7.265a9.954,9.954,0,0,0,3.821-8.259,10.112,10.112,0,0,0-3.011-7.622c-.307-6.469-1.559-12.12-5.643-15.572-.3-.252-.579-.475-.857-.692l-.18-.62c-.693-2.379-4.417-5.058-8.665-6.232a17.822,17.822,0,0,0-11.685.653,14.5,14.5,0,0,0-5.695,2.546c-9.254,6.77-8.505,16.836-9.255,22.127-.051.354-.093.728-.133,1.114a10.849,10.849,0,0,0-1.833,6.155,11.7,11.7,0,0,0,.287,2.536c-1.344,3.6-4.074,7.174-10.021,9.75-6.328,2.74-11.3,10.247-6.721,18.174a17.248,17.248,0,0,0,1.535,2.211c-14.578,11.975-25.485,31.132-25.595,31.324l-.147.263.179.241a21.588,21.588,0,0,0,2.889,3.153,26.017,26.017,0,0,0-3.352,10.069c-.737,7.121,1.942,9.346,3.6,10.038.16.067.311.119.466.177h-19.6a.462.462,0,0,0-.463.462,8.65,8.65,0,0,0,8.643,8.636H345.355A8.65,8.65,0,0,0,354,452.1.462.462,0,0,0,353.536,451.636Z" transform="translate(-129.686 -286.955)" fill="#1f3b64" fill-rule="evenodd"/>
      <path id="Path_7976" data-name="Path 7976" d="M587.316,513.031a.462.462,0,1,0,0-.925h-3.121a.462.462,0,1,0,0,.925Z" transform="translate(-420.666 -403.39)" fill="#1f3b64" fill-rule="evenodd"/>
      <path id="Path_7977" data-name="Path 7977" d="M542.886,581.623c-1.411,2.152-4.047,2.932-5.87,1.736s-2.164-3.919-.753-6.07a4.858,4.858,0,0,1,3.948-2.3,3.463,3.463,0,0,1,1.921.561,3.652,3.652,0,0,1,1.588,2.642A5.072,5.072,0,0,1,542.886,581.623Zm-.245-6.845c-2.251-1.475-5.462-.576-7.152,2s-1.233,5.877,1.019,7.351a4.392,4.392,0,0,0,2.425.71,5.781,5.781,0,0,0,4.727-2.712,5.992,5.992,0,0,0,.978-4.056A4.566,4.566,0,0,0,542.641,574.778Z" transform="translate(-389.094 -443.099)" fill="#1f3b64" fill-rule="evenodd"/>
      <path id="Path_7978" data-name="Path 7978" d="M368.422,409.819a1.932,1.932,0,0,0-.14-2.2,1,1,0,0,0-1.643.327,1.932,1.932,0,0,0,.14,2.2A1,1,0,0,0,368.422,409.819Z" transform="translate(-281.364 -336.233)" fill="#1f3b64" fill-rule="evenodd"/>
      <path id="Path_7979" data-name="Path 7979" d="M392.77,405.576a2.034,2.034,0,0,0,.225,2.186c.483.488,1.163.3,1.521-.414a2.029,2.029,0,0,0-.225-2.186C393.808,404.672,393.127,404.858,392.77,405.576Z" transform="translate(-298.149 -334.679)" fill="#1f3b64" fill-rule="evenodd"/>
      <path id="Path_7980" data-name="Path 7980" d="M382.869,418.622a.487.487,0,0,0,.078-.006l1.729-.295a1.087,1.087,0,0,0,.762-1.7l-.857-1.572a10.766,10.766,0,0,1-.885-3.7.464.464,0,0,0-.463-.453h-.009a.463.463,0,0,0-.454.47,11.608,11.608,0,0,0,.982,4.1l.906,1.657a.211.211,0,0,1,.033.2c-.009.019-.032.075-.163.1l-1.735.3a.462.462,0,0,0,.077.918Z" transform="translate(-291.644 -338.528)" fill="#1f3b64" fill-rule="evenodd"/>
      <path id="Path_7981" data-name="Path 7981" d="M361.638,433.727a.463.463,0,0,0-.832.4,6.575,6.575,0,0,0,5.778,3.368,8.454,8.454,0,0,0,1.667-.172.463.463,0,0,0-.182-.907A5.65,5.65,0,0,1,361.638,433.727Z" transform="translate(-277.772 -352.994)" fill="#1f3b64" fill-rule="evenodd"/>
      <path id="Path_7982" data-name="Path 7982" d="M359.091,393.95a.462.462,0,0,0,.384-.2,3.569,3.569,0,0,1,4.463-1.048.463.463,0,1,0,.349-.857,4.561,4.561,0,0,0-5.578,1.388.462.462,0,0,0,.383.721Z" transform="translate(-276.406 -326.049)" fill="#1f3b64" fill-rule="evenodd"/>
      <path id="Path_7983" data-name="Path 7983" d="M391.481,392.594a2.175,2.175,0,0,1,2.634.1.467.467,0,0,0,.29.1.462.462,0,0,0,.289-.823,3.1,3.1,0,0,0-3.766-.122.463.463,0,0,0,.553.742Z" transform="translate(-296.987 -325.951)" fill="#1f3b64" fill-rule="evenodd"/>
      <path id="Path_7984" data-name="Path 7984" d="M586.559,262.451a7.4,7.4,0,0,1-7.389,7.383H521.095l-.138.143a77.243,77.243,0,0,1-18.567,13.884c-.073-1.382-.257-4.453-.542-6.509a20.51,20.51,0,0,0-2.162-7.269l-.13-.248H488.613a7.4,7.4,0,0,1-7.389-7.383V249.6c1.347,4.855,2.853,8.206,4.5,9.98a6.336,6.336,0,0,0,2.988,1.857,5.268,5.268,0,0,0,5.306.883,21.231,21.231,0,0,0,3.529-1.96,24.516,24.516,0,0,1,2.4-1.4c.31.266.637.507.961.754.036.027.072.056.108.083.42.316.853.609,1.295.889.08.052.16.107.242.157.393.241.8.463,1.2.676.145.076.286.157.432.229.352.174.711.328,1.072.481.21.09.417.184.63.267.312.12.631.221.949.325.265.088.527.181.8.257.3.083.6.147.894.216s.582.145.88.2c.333.062.67.1,1.007.144.266.036.528.083.8.108.611.056,1.225.088,1.842.088.562,0,1.118-.03,1.67-.075l.207-.017c.548-.051,1.089-.127,1.623-.222l.136-.025a20.244,20.244,0,0,0,10.54-5.54l.084-.083q.56-.559,1.078-1.16l.17-.2c.324-.387.639-.784.936-1.195.058-.08.112-.163.169-.244q.387-.553.741-1.13c.056-.091.113-.18.168-.272.237-.4.457-.816.669-1.237.065-.128.131-.256.193-.386.2-.425.391-.86.567-1.3.054-.133.106-.268.156-.4.172-.462.333-.929.473-1.406.031-.1.056-.2.085-.306.147-.522.28-1.051.387-1.588l0-.009.043-.22-.005-.006a21.531,21.531,0,0,0,.373-3.981,21.013,21.013,0,0,0-13.081-19.569,17.666,17.666,0,0,0,.81-6H579.17a7.4,7.4,0,0,1,7.389,7.384ZM479.006,235.678a.458.458,0,0,0-.078-.162,13.26,13.26,0,0,1-1.454-2.714c-.6-1.557-.712-1.906-.716-1.92a.471.471,0,0,0-.093-.169,16.582,16.582,0,0,1-2.284-3.168,15.519,15.519,0,0,1,2.729,2.337.459.459,0,0,0,.251.13l-.038.038a.463.463,0,0,0,.685.623,5.867,5.867,0,0,1,3.591-1.669.462.462,0,0,0,.426-.5.455.455,0,0,0-.244-.356c.043-2.294.127-5.741.2-6.171a.292.292,0,0,1,.178-.21c.033.016.169.18.211.689.129,1.624.241,6.042.242,6.086a.461.461,0,0,0,.2.371.316.316,0,0,0,.061.034c.012.019.033.059.054.1a4.647,4.647,0,0,0-1.669,2.941.462.462,0,0,0,.376.535.5.5,0,0,0,.08.006.461.461,0,0,0,.454-.382,3.546,3.546,0,0,1,1.555-2.533.45.45,0,0,0,.15-.132s.008-.005.01-.009c.26-.367.835-1.185,1.549-2.243.309-.458,1.248-1.851,1.8-1.953a.185.185,0,0,1,.159.036c.2.269-.529,1.75-.768,2.236-.141.289-.272.557-.366.78a15.265,15.265,0,0,0-.622,2.883,18.788,18.788,0,0,1-.488,2.45,5.026,5.026,0,0,1-1.064,1.682.462.462,0,0,0-.085.5c.365.834,2.25,5.143,3.458,8.106a12.32,12.32,0,0,0,.873,1.772.335.335,0,0,0,.012.043,36.229,36.229,0,0,1,1.985,5.912.463.463,0,0,0,.895-.239c-.487-1.813-.926-3.172-1.272-4.143a1.142,1.142,0,0,0,.235.046c.37.21,2.082,1.362,2.941,5.131,1.026,4.492.111,7.163-.143,7.778a5.752,5.752,0,0,1-6.575-1.3c-2.194-2.36-4.151-7.782-5.819-16.114C479.745,238.642,479.013,235.707,479.006,235.678Zm-2.949-12.212a22.047,22.047,0,0,1,2.721,5.483c-.19.109-.362.215-.517.323a.476.476,0,0,0-.029-.112A27.92,27.92,0,0,1,476.057,223.466Zm3.452-2.088a.387.387,0,0,1,.217.211c.115.353.729,4.169,1.108,6.6a6.449,6.449,0,0,0-.855.222c-.137-1.251-.582-5.355-.627-6.232C479.324,221.595,479.477,221.4,479.51,221.378Zm9.1-4.119h10.048c.733,1.176,1.748,2.516,3.1,2.539.021,0,.039,0,.059,0l-.007.011-.009.115c-.014.164-.217,2.654-.188,5.52a21.144,21.144,0,0,0-9.016,17.387c0,.316.022.628.036.942-1.384.821-2.583,1.544-3.177,1.969a9.2,9.2,0,0,1-1.145-2.137c-1.114-2.732-2.8-6.6-3.349-7.857a5.721,5.721,0,0,0,1.059-1.784,18.692,18.692,0,0,0,.527-2.6,15.592,15.592,0,0,1,.559-2.668c.09-.21.214-.462.347-.734.639-1.3,1.362-2.778.465-3.4a1.116,1.116,0,0,0-.859-.186c-.771.145-1.514,1.042-2.4,2.347-.433.643-.815,1.2-1.106,1.613a.3.3,0,0,0-.031-.035c-.025-.942-.124-4.455-.24-5.906-.1-1.216-.662-1.478-.988-1.527A7.367,7.367,0,0,1,488.613,217.26Zm27.16,14.216a.465.465,0,0,0-.637.15,10.211,10.211,0,0,1-2.6,2.772,6.608,6.608,0,0,1-4.9,1.277c-.644-.075-3.9-.677-4.709-5.2a40.709,40.709,0,0,1-.352-7.66.451.451,0,0,0,.122.273.459.459,0,0,0,.331.139.465.465,0,0,0,.324-.132,1.22,1.22,0,0,1,1.578-.141.463.463,0,0,0,.541-.752,2.138,2.138,0,0,0-2.765.232.448.448,0,0,0-.125.254c.044-1.279.111-2.249.135-2.573a4.178,4.178,0,0,1,.4-.484c1.334-.352,2.164-1.166,3.092-1.351,1.207-.24,3.6.952,3.6.952s1-.279.331-1.268,2.543,1.074,3.256,1.881a13.382,13.382,0,0,1,2.976,6.506c0,.026.036-.028.084-.12l.63-.51a3.073,3.073,0,0,1,1.6-.621,2.294,2.294,0,0,1,1.756,1.11,2.1,2.1,0,0,1-.009,2.223c-1.049,1.908-3.6,1.438-3.705,1.418a.463.463,0,0,0-.18.908,5.547,5.547,0,0,0,.95.079l.242,10.071a.463.463,0,0,0,.463.451h.011a.463.463,0,0,0,.452-.474l-.059-2.476c1.973.409,5.676,1.715,10.723,5.88a24.363,24.363,0,0,1,2.827,2.783,20.092,20.092,0,0,1-6.815,11.352c-.476-1.435-1.057-3.238-1.56-4.8s-.929-2.89-1.084-3.327a.463.463,0,0,0-.872.31c.154.433.575,1.743,1.075,3.3.537,1.67,1.165,3.625,1.657,5.1,0,0,.008.007.01.013a19.023,19.023,0,0,1-23.859-.646c.012-.022.035-.034.042-.059,2.353-7.56,3.219-11.874,3.227-11.917a.462.462,0,0,0-.363-.543.456.456,0,0,0-.544.363c-.009.042-.866,4.306-3.2,11.8a13.323,13.323,0,0,0-2.82,1.562,21.733,21.733,0,0,1-3.309,1.86,5.227,5.227,0,0,1-2.624.2,7.622,7.622,0,0,0,2.416-.622.46.46,0,0,0,.2-.2c.064-.122,1.536-3.051.282-8.545-1.081-4.733-3.456-5.773-3.556-5.815a.315.315,0,0,0-.2-.034.468.468,0,0,1-.116-.039c.8-.544,2.423-1.5,4.134-2.512,1.637-.967,3.331-1.966,4.457-2.7a16.856,16.856,0,0,1,7.6-2.835,2.857,2.857,0,0,0,.239-.817c.005-.045.009-.1.014-.141a17.413,17.413,0,0,0-8.355,3.017c-1.111.719-2.8,1.713-4.426,2.675l-.285.169c0-.137-.01-.273-.01-.41a20.236,20.236,0,0,1,8.115-16.272,29.473,29.473,0,0,0,.378,4.082c.715,4,3.317,5.7,5.515,5.956a9.054,9.054,0,0,0,1.06.064,7.431,7.431,0,0,0,4.487-1.507,11.056,11.056,0,0,0,2.849-3.039A.463.463,0,0,0,515.773,231.476Zm4.362-7.311.011-.029A20.091,20.091,0,0,1,532.6,242.829a20.387,20.387,0,0,1-.252,3.073,24.44,24.44,0,0,0-2.425-2.322c-5.378-4.439-9.282-5.751-11.336-6.132l-.16-6.676a3.758,3.758,0,0,0,2.823-1.89,3.027,3.027,0,0,0-.015-3.152,3.483,3.483,0,0,0-1.223-1.182A2.615,2.615,0,0,0,520.136,224.164Zm59.035-7.83H521.155a8.23,8.23,0,0,0-.951-2.889c-2.587-4.542-5.983-4.19-7.876-3.9a13.491,13.491,0,0,0-3.716,1.25,4.967,4.967,0,0,0-4.248-.753c-2.645.8-3.079,3.383-4.472,4.361-1.252.879-2.127,1-1.75,1.929h-9.529a8.321,8.321,0,0,0-7.865,5.641,5.225,5.225,0,0,0-.178-.765,1.167,1.167,0,0,0-1.293-.727c-.216.057-.918.353-.847,1.74.031.628.251,2.768.432,4.456-.771-1.787-1.869-3.972-2.728-4.244a.77.77,0,0,0-.674.09c-.276.186-.973.659,1.341,5.758-.912-.849-2.087-1.816-2.729-1.776a.7.7,0,0,0-.519.23c-.2.222-.794.892,2.352,4.513.064.189.243.689.708,1.886a14.072,14.072,0,0,0,1.516,2.851c.125.509.793,3.256,1.549,7.034.2,1.01.409,1.976.62,2.9v16.527a8.321,8.321,0,0,0,8.315,8.308h10.38a19.906,19.906,0,0,1,1.938,6.719c.369,2.668.567,7.1.568,7.144l.032.706.635-.311a78.167,78.167,0,0,0,19.324-14.258h57.68a8.321,8.321,0,0,0,8.315-8.308V224.644A8.321,8.321,0,0,0,579.17,216.335Z" transform="translate(-349.943 -209.395)" fill="#1f3b64" fill-rule="evenodd"/>
      <path id="Path_7985" data-name="Path 7985" d="M700.784,264.538H670.167a.462.462,0,1,0,0,.925h30.617a.462.462,0,0,0,0-.925Z" transform="translate(-475.761 -244.734)" fill="#1f3b64" fill-rule="evenodd"/>
      <path id="Path_7986" data-name="Path 7986" d="M700.784,290.863H670.167a.462.462,0,1,0,0,.925h30.617a.462.462,0,0,0,0-.925Z" transform="translate(-475.761 -261.605)" fill="#1f3b64" fill-rule="evenodd"/>
      <path id="Path_7987" data-name="Path 7987" d="M690.141,318.285H670.168a.462.462,0,1,0,0,.925h19.973a.462.462,0,1,0,0-.925Z" transform="translate(-475.762 -279.178)" fill="#1f3b64" fill-rule="evenodd"/>
      <path id="Path_7988" data-name="Path 7988" d="M573.739,255.742a.662.662,0,1,0-.639.832A.755.755,0,0,0,573.739,255.742Z" transform="translate(-413.441 -238.564)" fill="#1f3b64" fill-rule="evenodd"/>
      <path id="Path_7989" data-name="Path 7989" d="M557.541,254.157c-.318-.008-.587.358-.6.817s.238.838.557.846.588-.357.6-.817S557.86,254.165,557.541,254.157Z" transform="translate(-403.497 -238.081)" fill="#1f3b64" fill-rule="evenodd"/>
      <path id="Path_7990" data-name="Path 7990" d="M563.142,259.772l-1.182.055.187-.706a12.715,12.715,0,0,0,.351-2.939.5.5,0,0,0-.467-.459.462.462,0,0,0-.459.467,11.983,11.983,0,0,1-.32,2.7L560.9,260.2a.463.463,0,0,0,.447.581h.022l1.814-.083a.463.463,0,0,0-.044-.924Z" transform="translate(-406.026 -239.085)" fill="#1f3b64" fill-rule="evenodd"/>
      <path id="Path_7991" data-name="Path 7991" d="M573.234,266.358a.462.462,0,0,0-.527.386,2.628,2.628,0,0,1-2.475,2.072.463.463,0,0,0,.049.923.409.409,0,0,0,.051,0,3.56,3.56,0,0,0,3.29-2.856A.461.461,0,0,0,573.234,266.358Z" transform="translate(-411.75 -245.897)" fill="#1f3b64" fill-rule="evenodd"/>
      <path id="Path_7992" data-name="Path 7992" d="M572.021,244.668a.463.463,0,1,0,.42.825,1.575,1.575,0,0,1,2,.278.463.463,0,0,0,.719-.582A2.511,2.511,0,0,0,572.021,244.668Z" transform="translate(-412.998 -231.791)" fill="#1f3b64" fill-rule="evenodd"/>
      <path id="Path_7993" data-name="Path 7993" d="M595.3,259.278a1.707,1.707,0,0,0,2.245-2.215.462.462,0,1,0-.856.348.784.784,0,0,1-.431,1.018.772.772,0,0,1-.6,0,.463.463,0,1,0-.36.853Z" transform="translate(-427.898 -239.758)" fill="#1f3b64" fill-rule="evenodd"/>
      <path id="Path_7994" data-name="Path 7994" d="M572.541,296.489c-8.275,1.859-9.211-1.822-9.248-1.984a.463.463,0,0,0-.906.19,3.751,3.751,0,0,0,1.7,2.179,7.876,7.876,0,0,0,4.323,1.061,20,20,0,0,0,4.33-.544.462.462,0,1,0-.2-.9Z" transform="translate(-406.981 -263.705)" fill="#1f3b64" fill-rule="evenodd"/>
    </g>
    <g id="mask4_0_971" data-name="mask4 0 971" transform="translate(132.339 165.132)">
      <path id="Path_7995" data-name="Path 7995" d="M310.584,495.193c.041.015.033.042.017.064a.317.317,0,0,0-.06-.037l-.014.008A.267.267,0,0,1,310.584,495.193Zm-.238,1.031a.635.635,0,0,0-.079-.085c.024-.039.063-.066.08-.046C310.317,496.1,310.344,496.169,310.346,496.224Zm-2.494-2.5c.069.125.177-.027.277-.051.126.118-.069.13-.115.226.092.068.266.053.3.123-.022.02-.022.039-.06.042.171.02.191.266.4.273a.116.116,0,0,1-.025.038.8.8,0,0,1,.181-.15c.038.048.152.029.075.113-.019-.032-.057-.009-.1,0l.076.024c-.1.14-.1-.039-.193.029.116.074.305.113.324.219-.113.111-.172-.153-.209.036l-.038-.158c-.135.239-.039-.085-.192.157.081.191.189.139.275.324.1-.019.092-.091.189-.111.3.114-.164.418.13.445.115-.027.278-.141.292.04l-.165.078c.111.16.26-.086.3.147-.074.02-.14-.075-.137-.039-.02.194.133,0,.2.079l-.1.121c.164.128.4.206.582.343-.041.025-.1.033-.1.1a2.078,2.078,0,0,1,.58.679l.169-.038c.018.017,0,.077-.041.08.051.108.059-.064.132-.072.053.031.013.111-.043.118.222.028.561.148.638.377l-.056.012c.1.131.306-.131.35.051l-.036,0c.243.234.613.332.718.648.136-.134.246.235.4.011.1.207.028.223.221.431.057.045.175-.1.265-.084l-.063.128.174-.077-.021.182.089.007a.116.116,0,0,1-.01-.125c.142,0,.233.238.206.306a3.136,3.136,0,0,0,.33.017c-.03.05-.085.048-.139.065.212-.069-.035.148.159.084-.005-.036.045-.073.06-.1.033.107.19.174.32.189l-.061.081c.2.111.462.142.7.242-.069-.079.012-.229.086-.216l-.025.153c.076-.069-.052-.084.079-.152.081.052,0,.185-.069.21l.125,0c-.009.045-.042.056-.069.108.075-.066.137.213.258.079l-.009.044c.243.078.37.064.57.119.043-.123.111-.071.2-.153a1.536,1.536,0,0,0,.44.278c.14-.024.066-.095.141-.153-.023.117.154.161.041.215a1.243,1.243,0,0,0,.568.02c-.018-.054-.046-.081-.018-.116.053-.009.1.073.078.126l-.015.009c.339-.107.622.492.916.3l-.016.009.274-.071c.111.046-.085.072-.014.163.306-.13.422.118.668.017.117.371.617.064.819.319l0-.084c.071-.071.066.057.108.082,0-.064-.055-.083-.012-.121a7.17,7.17,0,0,1,1.568.383c.194.036.146-.417.374-.2l-.081.148c.4-.155.8.064,1.191-.064-.024.034-.026.08-.064.077.077.121.3.023.3-.072.06.011.011.082.047.129.08.066.208-.142.249-.032.007.018-.023.036-.039.045.055-.054.249.013.2-.114.143.061.275-.058.39.018.075-.144.248.069.269-.134-.008.209.256.168.345.07-.029.064.08.065.047.154.1,0,.2-.043.177-.15.2.256.375-.223.5.094a5.372,5.372,0,0,1,.854-.3c.009.209-.3.044-.274.262.258-.106.391-.3.656-.266.071.024-.028.093-.048.131.254-.1.51-.039.728-.186,0,.019-.021.044-.042.064.045-.014.111.014.093-.079l-.042.033c-.09-.126.142-.314.139-.386-.038.281.237.032.165.392a.134.134,0,0,0,.042-.135c.047.012.067.046.033.125.156-.076.082-.168.231-.188.006.045-.02.067-.027.123.06-.1.12-.2.251-.181,0,.028.018.062-.019.067.214-.045.321-.289.567-.262-.028.212.092.046.14.212l.115-.079-.068-.071c.11-.022.179-.167.286-.134l-.065.088.2-.079-.13-.037c.089-.112-.061-.211.093-.2-.025.024.109-.023.19.063h0c.041-.066.081-.135.171-.112.035.048.031.189.054.222.017-.153.246-.095.27-.269a.268.268,0,0,0,.023.145l.013-.126c.06.02.072.036.083.108.155-.026-.106-.2.1-.161-.012.013,0,.028-.023.055.191-.009.32-.178.5-.174.1.15-.13.085-.031.208.227-.107.426-.345.661-.39h-.048c-.052-.243.206.048.279-.1-.021.028.011.142.009.113.167-.024.291-.181.491-.343l-.005.069c.111.017.249-.063.357-.075,0-.069.06-.087-.008-.154.438.187.466-.439.852-.293-.031.016-.048.085-.024.074l.193-.158c-.067-.086-.059-.044-.142-.1a.206.206,0,0,1,.087-.173c-.061.116.08.152.15.181-.023-.025-.026-.066-.045-.093.2.1-.084-.2.125-.171l.019.053c.042-.057.057-.151.125-.171.085.093-.031.084.014.175.083-.054.051-.3.189-.235-.018.05-.07.08-.089.13.156.079.148.041.222.025h-.008l.178-.026-.057-.013c-.058-.334.182-.184.207-.452-.026.256.04.113.105.237.056.01.135.011.14.054,0-.138.161,0,.162-.2.029.035.073-.043.122.061.066-.086-.065-.051-.089-.1.045-.209.414-.06.472-.369.1-.189.042-.326.131-.5.092.018.065.161.065.161a.22.22,0,0,0,.2-.169c.012.042.048.055.1.076.05-.058-.068-.158.05-.171a.664.664,0,0,1,.061.186c.041-.091.054-.206.092-.3.071.041.041.127.049.187.055-.1.15-.238.087-.349l-.079.013c.023-.03.088.064.083.1,0,.133-.121.056-.155.026l.028-.065c-.224-.149-.162.2-.274.277l-.083-.181,0,.208c-.054-.02-.137-.091-.107-.153-.129-.014-.018.1-.145.074-.017-.008-.02-.017-.019-.029l-.032.1c-.012-.043-.1-.1-.037-.11-.19.012-.115.269-.25.191l0-.017c-.138.184.068.125.033.359l-.295-.215.065.128a.059.059,0,0,1-.089-.023c-.012.129.048.041.06.145-.161-.04-.219.219-.364.047.026.111.134.011.077.138-.162-.184-.091.109-.235.072-.042-.122.072-.119-.071-.158.064.211-.186.068-.234.148.087.149-.121.154-.215.271-.021-.053-.277.052-.419.063l-.011-.027c.06.161-.074.2-.143.28a.218.218,0,0,1-.022-.2l-.08.046a.147.147,0,0,1-.051.139l-.038-.123c-.106.059-.155.241-.334.233.042.111.259.241.139.387-.033-.055-.086-.151-.057-.194-.01.014-.024.07-.062.059l.013-.126c-.085-.012.005.1-.052.114-.038-.084-.067-.041-.09-.11.01-.014.062.012.067-.03a.251.251,0,0,1-.212-.053c.026.045.051.111.013.143-.108.06-.084-.082-.167-.094,0,.071-.1.044-.043.171-.033.015-.065-.041-.092-.069-.033.082-.268.126-.145.234l.019,0-.008.009h0c-.143.2-.433.089-.6.219l-.016-.043c-.1.1-.245.131-.3.256-.035.012-.11-.053-.113-.109-.079.061-.073.113-.227.083.065-.1-.054-.058.074-.085-.129,0-.178-.063-.265.1.007-.125-.132-.113-.177-.062l.107.054a.408.408,0,0,1-.173.051l-.016-.157c-.288-.107-.34.444-.607.194-.036.122.151.038.126.174-.116.014-.29-.178-.325-.17-.173-.047-.087.251-.263.233a.192.192,0,0,1-.022.265c-.119.007-.191-.192-.13-.251a.03.03,0,0,1,.046.022c.032-.028.073-.062.015-.109l0,.056c-.068-.042-.221,0-.2-.1-.073.07-.016.1.053.11-.162-.044-.226.05-.384.032.029.024.064.082.041.087-.231-.016-.075.124-.218.183-.1-.065-.007-.2-.145-.1-.1-.042-.045-.14-.018-.19-.117.125-.267-.03-.347-.037l.064-.055a.188.188,0,0,1-.109.042l.06.1c-.045-.012-.081-.007-.088-.053-.031.078.064.176-.006.286-.065-.047-.163.085-.206-.056.185.021-.042-.142.1-.189a.108.108,0,0,1-.106.014.036.036,0,0,1,.012-.042c-.188-.1-.051.176-.228.2.01-.085-.063-.148-.089-.127.07-.009.053.131,0,.2-.122-.046-.116.066-.177.068l.071.019c-.011.085-.069.083-.146.121-.014-.063.067-.055.035-.078-.07.157-.216-.118-.326,0-.064-.05-.023-.153-.077-.186-.126.116-.161-.1-.3,0,.052.107.057.08-.035.195l.231-.1-.136.171c.072,0,.145-.081.19-.065-.062.1-.059.067-.014.156-.116-.157-.187.111-.313.008l-.023-.273c-.18-.108-.291.163-.519.112l.075.042c-.021.111-.136.026-.205.075,0-.092-.046-.122-.081-.176.009.067-.162.006-.172.19l-.106-.112c-.181-.038-.193.283-.369.249.048-.1-.032-.164.081-.236-.057,0-.11-.018-.109.046-.035-.057-.157.124-.213.036-.023.041-.029.136-.1.129a.085.085,0,0,1,0-.045c0,.045-.1.061-.042.163-.184-.285-.5.021-.66-.224a2.382,2.382,0,0,1-.4.067c.008-.027,0-.045.024-.036-.157-.085-.105.263-.284.168-.088-.148.1-.08.043-.135-.016-.3-.219.039-.334-.15l.03-.015c-.088-.109-.231.1-.381.065a.09.09,0,0,0,0-.045.749.749,0,0,1-.462.214c.055-.114.071-.057.052-.179-.066.012.006.193-.128.217-.038-.067-.129-.13-.131-.259l.124,0c-.051-.169-.159-.006-.222-.039l.014-.071c-.19.01-.208.191-.41.163l.016.056c-.128.172-.084-.107-.207.018l-.015-.184a1.337,1.337,0,0,1-.41.164c.09-.126.25-.166.353-.243-.073,0-.246-.019-.293.067.031-.013.073-.052.1-.02a.38.38,0,0,1-.374.16c.068-.348-.364-.143-.432-.431-.271.094-.492-.127-.789-.149.06.288-.088,0-.116.278-.071.008-.1,0-.1-.019l-.18-.2c-.036-.088.075-.052.08-.116-.147-.043-.043-.127-.128-.216,0,.1-.078.133-.153.076l.094.154c-.233.1-.134-.273-.367-.172l.082-.073c-.116.028-.388-.088-.539.111-.011-.036-.02-.117.031-.127-.243-.088-.619.111-.784-.069l.036-.063c-.052.009-.114.108-.157.027.011-.027.037-.063.016-.071-.031.016-.158.094-.207.032l.072-.059c-.216-.164-.419.066-.637.047.058-.2-.112-.319-.2-.379l.013-.026c-.27-.111-.527.012-.816.005-.081-.27-.5-.308-.7-.525.023.05-.068.144-.12.144-.043-.063-.219.061-.136-.106l.02.012c.029-.186-.109-.191-.2-.235l-.116.216c-.1-.41-.681-.2-.67-.549-.085.024-.155-.014-.24.01l.065-.113a1.176,1.176,0,0,0-.417-.244l.086-.06c-.1-.062-.328.251-.427.192l.073-.186c-.182-.118-.267-.381-.542-.352.018-.021.056-.064.089-.052-.082-.061-.248-.323-.374-.085.1-.14-.173-.137-.307-.157l.092-.091c-.176.069-.206.1-.342.05-.015-.034.042-.1.055-.046-.042-.122-.142.041-.2-.1l.09-.033c-.081-.079-.1-.038-.212,0-.088-.006-.146-.161-.082-.26-.057.045-.168.077-.2.009a.1.1,0,0,1,.078-.046c-.087-.184-.3-.083-.312-.265a.128.128,0,0,0,.036-.072.974.974,0,0,1,.17.2c.079-.089.009-.186.186-.242-.126,0-.376.027-.42-.1a.159.159,0,0,1,.018-.04h.017a.065.065,0,0,0-.065-.038.229.229,0,0,0-.044-.093c.06-.079-.058-.133-.1-.178-.091.094-.131.024-.156.151,0-.014.019,0,.052.021a.066.066,0,0,0,.028.009l-.011.005.112.1c-.08.013-.155.017-.15-.08-.083.036-.168.072-.211.086.07-.185.03-.362.1-.457-.17-.09-.308-.293-.571-.226-.058-.021.015-.091.032-.13.038.007.059.037.1.027-.115-.04-.217-.22-.367-.134-.023-.15.166-.036.036-.165l.056-.012c.024-.447-.7-.22-.621-.752,0,.035-.006.053-.027.073-.1-.462-.6-.742-.565-1.256-.013-.133-.11-.1-.217-.142l.118-.08-.2-.061c-.182-.136.194-.421-.086-.568l-.079.059c-.01-.087-.139-.241-.031-.259-.019,0-.1,0-.063-.044l.069-.024-.175-.168c.012-.168.281-.051.246-.271-.047-.075-.254-.182-.3-.149a.123.123,0,0,1-.1.108l-.052-.072c-.213.02-.448-.03-.549.236l.161.124-.091.073-.034-.128c-.079.094.015.124.086.158a.171.171,0,0,0-.094.09l.237.09c-.076.041-.178-.02-.2.091.109.041.163-.116.252-.023-.074.1-.156.1-.05.155a.1.1,0,0,1-.122,0c.087.052.089.181.21.181-.09.11.109.228-.084.291a.426.426,0,0,1,.231.126c-.273-.027.083.242-.17.311.235,0,.216.276.4.369-.02,0-.06,0-.056-.019.024.09-.024.144-.034.216.168-.069.267.041.4.057-.106.181-.218.036-.351.145.128-.072.217.11.307.017-.057.129-.01.09-.12.2.205-.1.074.051.231.045-.034.162-.167.134-.038.217C307.984,493.791,307.853,493.725,307.853,493.725Z" transform="translate(-306.936 -443.271)" fill="#fff" fill-rule="evenodd"/>
      <path id="Path_7996" data-name="Path 7996" d="M343.451,361.9c-.017.033-.041.017-.058,0a.322.322,0,0,0,.039-.044l-.005-.015A.41.41,0,0,1,343.451,361.9Zm-.85-.523a.365.365,0,0,0,.078-.045c.03.034.048.077.03.087C342.7,361.384,342.647,361.389,342.6,361.374Zm2.088-1.744c-.094.051.04.171.069.268-.085.106-.113-.08-.195-.134-.046.079-.02.246-.074.27-.018-.022-.033-.025-.039-.063,0,.16-.212.131-.208.329a.17.17,0,0,1-.033-.03,1.051,1.051,0,0,1,.132.194c-.039.027-.02.139-.092.051.026-.012.005-.052,0-.089l-.017.067c-.12-.115.03-.083-.031-.185-.056.095-.084.268-.172.267-.094-.126.121-.136-.035-.2l.129-.008c-.2-.168.069-.022-.136-.207-.154.039-.1.157-.258.2.015.092.076.1.092.2-.1.246-.351-.251-.376.012.021.111.111.289-.039.259l-.06-.172c-.134.064.062.263-.13.243-.014-.074.067-.111.037-.118-.159-.066-.007.124-.072.164l-.1-.126c-.119.1-.206.291-.334.411-.018-.045-.019-.1-.08-.121a.947.947,0,0,1-.627.277l.007.158c-.016.009-.063-.032-.061-.066-.1,0,.045.074.041.14-.033.034-.094-.03-.092-.081-.057.176-.2.439-.409.4l0-.051c-.129.022.045.306-.117.263l0-.031c-.247.095-.409.361-.685.308.082.182-.258.078-.114.31-.2-.025-.191-.089-.413-.042-.053.023.032.187-.007.249l-.084-.114.012.176-.14-.108-.03.068a.119.119,0,0,1,.1.054c-.043.113-.255.066-.3.009l-.119.24c-.03-.049-.01-.089-.006-.138-.016.194-.108-.106-.122.07.032.017.045.074.059.1-.1-.034-.2.045-.26.132l-.044-.089a3.751,3.751,0,0,0-.425.382c.083-.007.174.139.138.187l-.11-.106c.028.1.082.008.092.146-.069.032-.144-.106-.141-.171l-.038.1c-.031-.033-.029-.064-.06-.113.029.1-.214-.024-.157.138l-.031-.032c-.157.121-.2.218-.317.323.078.1.011.121.038.233-.119.04-.285.044-.387.143-.037.114.046.1.06.194-.08-.088-.183.011-.18-.1a1.1,1.1,0,0,0-.26.37c.05.023.083.022.1.062-.017.04-.1.019-.131-.029v-.015c-.073.29-.654.091-.64.41v-.016l-.068.229c-.082.046-.015-.1-.115-.114-.034.292-.276.2-.325.42-.333-.173-.354.342-.637.285l.062.056c.017.091-.074,0-.112.008.045.046.087.024.093.076-.239.33-.7.432-1.057.631-.126.077.2.389-.067.355l-.052-.155c-.122.331-.493.353-.636.652-.007-.039-.033-.076-.01-.093-.115-.054-.187.129-.136.2-.043.019-.055-.061-.1-.082-.088-.018-.044.207-.134.135-.015-.011-.006-.04,0-.054,0,.068-.16.1-.056.181-.123.014-.139.171-.251.159.032.151-.2.04-.1.22-.107-.18-.253-.043-.26.077-.014-.066-.086-.024-.11-.113a.124.124,0,0,0-.038.2c-.252-.139-.145.326-.379.092a2.225,2.225,0,0,1-.454.54c-.092-.187.2-.122.082-.314-.131.17-.153.376-.353.422-.058,0-.016-.093-.017-.133-.138.166-.35.156-.459.338a.1.1,0,0,1,.009-.069c-.028.022-.085.009-.041.093l.019-.039c.109.1,0,.324.021.393-.06-.273-.186.018-.244-.338a.154.154,0,0,0,.01.136c-.038,0-.063-.031-.062-.112-.091.1-.012.171-.117.213-.018-.042,0-.067-.014-.121-.017.1-.036.207-.14.207-.006-.028-.03-.057,0-.066-.146.073-.173.325-.374.312-.021-.206-.08-.038-.15-.2l-.072.084.065.064c-.08.029-.108.176-.2.149l.035-.091c-.045.029-.091.063-.138.088l.106.03c-.052.115.082.207-.043.2.017-.024-.084.023-.159-.061h0c-.023.064-.048.132-.123.109-.033-.047-.045-.186-.066-.218,0,.15-.179.1-.186.258a.345.345,0,0,0-.028-.143v.123c-.049-.024-.059-.04-.073-.111-.12.013.1.2-.065.15.008-.013,0-.028.015-.052-.149-.009-.243.155-.385.129-.079-.159.1-.067.022-.2-.171.071-.331.28-.519.277l.037.012c.021.246-.156-.092-.224.04a.221.221,0,0,0,0-.113c-.128-.014-.236.115-.415.206l.015-.065c-.079-.048-.194-.012-.275-.033-.017.065-.062.059-.027.148-.268-.328-.454.24-.684-.064.026,0,.06-.056.039-.056l-.182.061c.016.107.025.064.064.147-.023.064-.075.114-.122.114.084-.072,0-.172-.035-.231,0,.033-.007.069,0,.1-.094-.189-.02.216-.151.088l.008-.056c-.05.031-.1.1-.152.081-.017-.125.055-.053.063-.155-.073,0-.16.223-.221.094.034-.032.08-.029.113-.061-.065-.15-.075-.115-.128-.142l.006,0-.119-.075.028.041c-.121.314-.193.044-.342.244.147-.189.033-.113.06-.252-.028-.039-.068-.093-.05-.129-.072.1-.082-.1-.186.046,0-.045-.06-.014-.029-.124-.079.023,0,.08-.01.135-.143.128-.236-.218-.438-.059-.161.049-.225.19-.382.228-.026-.08.081-.149.081-.149a.142.142,0,0,0-.191-.06c.025-.033.021-.069.017-.124-.055-.007-.087.144-.135.058a.958.958,0,0,1,.11-.155c-.074.019-.163.078-.242.095.011-.079.08-.1.12-.14-.085.013-.2,0-.274.1l.029.061c-.029-.005.027-.1.054-.119.1-.066.07.076.058.121l-.055.008c-.048.27.2.025.287.072l-.1.169.147-.119c.005.055-.012.163-.068.175.043.113.081-.044.111.075a.028.028,0,0,1-.012.031l.085-.037c-.024.036-.024.134-.06.1.1.14.24-.089.252.065l-.014.009c.19-.019.05-.133.215-.263l.015.361.046-.136a.057.057,0,0,1,.034.079c.086-.084,0-.062.057-.146.064.141.248-.019.233.207.048-.1-.071-.1.033-.155-.008.245.114-.023.178.1-.041.12-.11.041-.043.166.075-.2.155.06.229.026.02-.167.157-.058.276-.1-.011.052.212.117.32.171l0,.029c.026-.171.136-.14.217-.176a.236.236,0,0,1-.063.188l.078,0a.145.145,0,0,1,.09-.1l-.018.128c.105-.009.2-.153.338-.07,0-.119-.116-.328.014-.409.008.064.019.173-.015.2.011-.009.038-.054.063-.027l-.049.108c.062.046.026-.088.074-.083,0,.091.038.061.036.135-.012.009-.043-.032-.06,0a.222.222,0,0,1,.148.126c-.008-.051-.008-.123.03-.138.1-.018.043.106.107.146.019-.066.091-.007.079-.143.03,0,.041.061.056.1.048-.066.245-.044.169-.181l-.015-.009.008-.006c.153-.151.365.043.522-.056l.008.045c.091-.071.217-.075.269-.185.029-.006.085.068.084.124.07-.05.067-.1.193-.05-.06.094.042.064-.066.073.107.019.148.085.226-.058a.087.087,0,0,0,.149.081l-.09-.064a.34.34,0,0,1,.146-.037l.013.157c.252.121.275-.416.515-.159.023-.119-.13-.04-.119-.175.1-.008.258.175.288.167.153.043.049-.25.2-.234-.034-.046-.1-.181-.016-.259.094-.014.183.175.143.239a.025.025,0,0,1-.041-.017c-.022.029-.054.062,0,.108l-.006-.056c.063.038.183-.018.185.079.05-.076,0-.1-.061-.1.14.029.179-.069.315-.066-.03-.022-.069-.074-.05-.081.2-.006.038-.128.145-.2.1.051.05.2.141.083.093.024.07.129.058.181.068-.14.228-.016.3-.023l-.039.064a.134.134,0,0,1,.081-.06l-.076-.088c.041,0,.07-.007.087.035.005-.08-.1-.157-.07-.275.066.033.109-.108.184.018-.159.012.075.128-.033.2a.082.082,0,0,1,.085-.031.035.035,0,0,1,0,.041c.185.058-.007-.179.127-.242.017.083.1.126.111.1-.055.026-.083-.111-.061-.193.111.015.072-.09.118-.1l-.063,0c-.018-.083.028-.094.076-.147.033.056-.034.066,0,.081,0-.163.212.06.261-.074.067.029.073.136.127.152.055-.147.163.043.232-.09-.083-.082-.075-.056-.05-.189l-.141.159.039-.2c-.054.025-.08.119-.121.118.013-.108.02-.08-.047-.149.148.111.1-.158.233-.1l.126.243c.185.041.163-.232.35-.271l-.073-.011c-.032-.108.089-.072.118-.141.041.082.089.091.139.127-.036-.058.119-.066.041-.232l.131.061c.153-.036.012-.312.148-.359.015.107.1.129.059.239.042-.024.087-.032.055-.087.054.034.048-.173.131-.123,0-.044-.049-.129,0-.15a.1.1,0,0,1,.023.039c-.023-.039.038-.1-.055-.157.278.164.336-.226.57-.1a1.737,1.737,0,0,1,.223-.243c.011.027.026.038.006.041.153-.006-.085-.263.087-.27.145.077-.016.111.052.129.19.233.121-.138.3-.053l-.009.028c.121.038.084-.2.2-.256a.111.111,0,0,0,.027.037.587.587,0,0,1,.146-.41c.041.115-.006.082.084.163.033-.045-.129-.143-.064-.232.068.032.162.028.247.122l-.074.068c.143.1.1-.087.156-.1l.039.061c.1-.117-.007-.261.128-.357l-.048-.032c-.042-.2.121.031.107-.131l.135.125a1.454,1.454,0,0,1,.107-.366,1,1,0,0,1-.021.389c.047-.037.146-.139.112-.228-.006.029,0,.082-.037.076a.316.316,0,0,1,.084-.345c.212.284.292-.129.536.026.075-.233.357-.225.52-.4-.245-.152.047-.052-.15-.255.031-.05.049-.061.065-.05l.237.017c.084.036,0,.081.047.126.106-.064.116.057.226.061-.079-.066-.062-.137.014-.153l-.157-.036c.03-.225.265.084.3-.141l.016.1c.032-.1.244-.21.163-.441.033.015.1.061.082.1.181-.108.2-.482.418-.479l.031.064c.017-.04-.03-.143.052-.121.015.024.031.063.047.055,0-.032,0-.16.069-.162l.015.089c.214-.059.122-.346.225-.493a.323.323,0,0,0,.376.088l.015.024c.2-.126.212-.381.337-.581.243.092.418-.215.669-.245-.048-.009-.091-.13-.071-.17.067,0,.03-.2.135-.044l-.017.009c.14.123.2.021.265-.025l-.135-.2c.385.158.376-.448.66-.257.007-.08.06-.117.066-.2l.074.108a.8.8,0,0,0,.332-.215l.025.1c.086-.051-.114-.383-.043-.444l.135.144c.14-.106.383-.066.427-.309.013.025.041.075.023.1.072-.043.338-.071.163-.276.1.144.158-.088.194-.206l.06.116c-.025-.182-.048-.221.019-.323.031,0,.077.073.029.066.111.006-.011-.142.117-.143l.012.09c.082-.041.051-.074.04-.183.02-.074.163-.067.238.023-.028-.066-.039-.173.024-.174a.1.1,0,0,1,.028.083c.175-.01.108-.25.265-.2a.159.159,0,0,0,.056.055.631.631,0,0,1-.186.1c.065.1.158.064.182.244.017-.118.024-.356.134-.361a.2.2,0,0,1,.033.028v.016c.024,0,.035-.022.039-.049a.161.161,0,0,0,.086-.012c.062.078.123-.014.167-.036-.073-.108-.008-.124-.115-.183.011,0,0,.018-.025.04,0,.007-.01.013-.01.022l0-.011-.1.072c0-.077,0-.145.086-.113-.021-.085-.043-.172-.054-.213.153.118.314.132.388.218.087-.142.27-.227.222-.486.02-.048.078.035.112.059-.009.034-.036.046-.028.082.04-.1.2-.151.131-.307.131.011.03.166.14.066l.01.055c.385.086.179-.619.634-.477a.1.1,0,0,1-.063-.033c.39-.051.581-.5,1.014-.462.113-.005.07-.107.087-.209l.085.113.018-.193c.079-.177.39.18.456-.106l-.065-.072c.07-.016.168-.149.207-.048,0-.018-.023-.1.022-.065l.035.064.094-.188c.14-.01.111.268.285.2.051-.056.084-.278.042-.311a.118.118,0,0,1-.117-.076l.042-.062c-.08-.2-.122-.426-.34-.488l-.047.169-.079-.077.084-.05c-.092-.064-.087.029-.094.1a.19.19,0,0,0-.093-.081l-.008.235c-.051-.069-.03-.173-.119-.181,0,.109.13.147.08.242-.092-.063-.115-.142-.133-.038a.119.119,0,0,1-.025-.116c-.021.085-.121.095-.1.21-.106-.08-.155.116-.244-.066a.346.346,0,0,1-.056.221c-.031-.261-.178.08-.279-.163.042.227-.18.206-.229.375,0-.019-.007-.057.008-.052-.07.018-.12-.03-.179-.044.08.163.005.252.008.38-.16-.111-.057-.212-.163-.345.075.126-.059.2.026.293-.11-.062-.075-.018-.179-.132.1.2-.035.063-.013.212-.138-.05-.126-.172-.182-.06C344.648,359.747,344.689,359.63,344.689,359.63Z" transform="translate(-317.858 -358.751)" fill="#fff" fill-rule="evenodd"/>
    </g>
  </g>
</svg>
