<svg xmlns="http://www.w3.org/2000/svg" width="250" height="250.197" viewBox="0 0 250 250.197">
  <g id="Group_4535" data-name="Group 4535" transform="translate(-88 -113.365)">
    <rect id="Rectangle_1724" data-name="Rectangle 1724" width="250" height="250" transform="translate(88 113.365)" fill="#fff" opacity="0"/>
    <path id="Path_7823" data-name="Path 7823" d="M333.7,242.178c.062.354.123.711.18,1.074.08.841.148,1.706.205,2.572s.1,1.739.139,2.594c-.028.858-.055,1.7-.082,2.514-.044.809-.085,1.586-.124,2.316-.034.552-.115,1.063-.19,1.549a81.607,81.607,0,0,0-3.944-26.971c-6.943-21.648-15.469-41.47-25.949-58q2.62,3.656,5.088,7.435c.987.051-4.555-9.555-.725-4.412,1.678,2.577,1.189,2.56,1.358,3.188.846,1.279,1.6,2.609,2.4,3.914s1.6,2.619,2.333,3.962l-.3,3.13c2.581,7.178,5.518,12.438,8.6,18.334a111.671,111.671,0,0,1,9.2,21.8,7.469,7.469,0,0,0,.767,1.025,11.376,11.376,0,0,0,0,2.74c.166,1.28.335,2.986.722,5.224.1.558.214,1.151.331,1.782q.139.953.294,2.022c.2,1.427.552,3,.725,4.784C334.29,242.609,334.088,243.87,333.7,242.178Zm-34.022-78.719q-2.609-3.706-5.369-7.145l.6.592c.589.6,1.144,1.258,1.72,1.935a27.783,27.783,0,0,1,3.306,4.7C299.983,163.7,299.864,163.626,299.673,163.459Zm-63.134-41.684c.28-.5.45-.989,2.761-1.068a38.369,38.369,0,0,1,3.763.869,37.049,37.049,0,0,1,3.989,1.168c2.425.891,4.144,1.645,3.492,1.8.471.221.951.439,1.431.656A77.739,77.739,0,0,0,236.539,121.775ZM184.432,336.9c-2.654-.314-4.934-.471-6.263-.51-1.783-.679-2.355-1.093-2.332-1.369q4.387,1.067,8.945,1.914C184.668,336.925,184.544,336.919,184.432,336.9Zm-40.5-188.514c-1.563,1.081-3.029,2.109-4.4,3.117-12.38,8.108-21.74,16.969-28.768,26.819.515-.772,1.016-1.558,1.58-2.3l2.006-2.7c1.42-1.739,2.817-3.523,4.38-5.17,1.5-1.708,3.145-3.291,4.774-4.9.832-.787,1.7-1.543,2.548-2.316l1.288-1.15,1.335-1.1A128.6,128.6,0,0,1,152,143.485C149.053,145.091,146.385,146.795,143.929,148.39Zm195.016,99.231c-.109-1.359-.236-2.565-.377-3.663a21.847,21.847,0,0,0-.565-2.994c-.222-.915-.45-1.765-.686-2.594-.938-3.037-2.054-5.79-3.736-10.357a10.7,10.7,0,0,0-.095-2.434c-.338-2.753-1.13-6.7-1.317-8.678l.158,1.983A29.484,29.484,0,0,1,328.857,211c-1.43-4.813,1.637,2.274.825-1.115a81.825,81.825,0,0,0-6.543-15.675c-2.105-3.842-4.262-7.324-7.495-13.351-1.294-2.784-2.522-5.436-3.949-7.868-.7-1.224-1.383-2.421-2.094-3.58q-1.11-1.715-2.225-3.353l-1.117-1.625c-.382-.531-.785-1.046-1.177-1.563l-2.373-3.047c-.792-1-1.662-1.946-2.492-2.911-.854-.948-1.655-1.93-2.56-2.84a160.654,160.654,0,0,0-26.024-22.017,103.107,103.107,0,0,1,11.221,9.85l1.439,1.422,1.4,1.523c.938,1.037,1.94,2.06,2.907,3.169l2.951,3.45c1.016,1.179,1.973,2.467,3.02,3.746-2.519-2.647-5.174-5.15-7.9-7.541a93.609,93.609,0,0,0-20.494-16.109c.3.156.591.316.885.465l2.866,1.488c1.814.971,3.364,1.975,4.668,2.775-.794-.768-1.741-1.627-2.777-2.536a19.511,19.511,0,0,0-1.649-1.334l-1.766-1.324-1.8-1.33-1.845-1.194-1.768-1.155c-.568-.381-1.116-.745-1.657-1.044-4.254-2.506-6.525-4.182-1.47-3.251-.733-.346-1.426-.684-2.095-.978l-1.949-.737c-1.238-.458-2.355-.856-3.384-1.2-2.1-.555-3.829-.943-5.439-1.261-1.628-.238-3.146-.369-4.8-.545l-1.27-.13-1.359-.056-3.048-.161c-.553-.087-1.157-.213-1.8-.265l-2.012-.143c-1.383-.078-2.822-.2-4.152-.239-2.66-.013-4.9-.093-5.439-.466-2.038.3-3.509.592-4.776.787-.633.1-1.214.19-1.786.266l-1.719.29c-1.186.179-2.508.326-4.313.484-1.8.189-4.046.538-7.136.924-2.056.542-4.06,1.17-5.834,1.732l-1.282.419-1.152.46c-.729.3-1.375.573-1.915.817-2.157.98-2.6,1.464.177.87a119.039,119.039,0,0,1,22.786-5.008c2.81.121,3.547.445,3.147.781a4.321,4.321,0,0,1-1.336.558c-.654.188-1.476.39-2.346.667-1.746.514-3.718,1.038-5.045,1.46-.2.076-.386.148-.556.217a125.681,125.681,0,0,0-19.553,5.105,296.008,296.008,0,0,0-27.676,11c2.6-1.47,5.241-2.9,7.889-4.309-4.962,2.122-9.917,4.277-14.735,6.73,1.05-1.168,3.3-3.054,3.824-3.95s-.772-1-6.766,1.693c-4.54,2.813-8.93,5.665-13.115,8.76-1.057.753-2.105,1.515-3.123,2.321l-3.075,2.37c-2,1.645-4.023,3.25-5.96,4.979A144.577,144.577,0,0,0,105.936,180.8a93.081,93.081,0,0,0-9.9,20.464,124.863,124.863,0,0,0-5.325,22.373c-.28,1.907-.512,3.824-.745,5.743-.18,1.923-.414,3.848-.542,5.781s-.308,3.856-.335,5.854L89,243.994c.011.993.061,1.989.091,2.984a75.737,75.737,0,0,0,4.564,23.555c-.421-2.7.283-1.053.765.032.243.545.431.953.4.622a10.778,10.778,0,0,0-.23-1.126c-.075-.3-.166-.673-.275-1.117-.087-.451-.189-.977-.307-1.589.241.56.453,1.112.7,1.651s.5,1.066.755,1.6c.115.24.224.484.333.73a79.5,79.5,0,0,0,5.034,11.46c-.371-.434-.7-.823-.941-1.132a8.607,8.607,0,0,0-.772-.839c-.384-.346-.516-.281-.467.087a10.151,10.151,0,0,0,.621,1.891c.379.835.895,1.842,1.443,2.921l.848,1.654L102.5,289c.619,1.062,1.177,2.1,1.647,2.96.983,1.689,1.428,2.824.571,2.556l1.63,2.17c.534.659,1.027,1.282,1.483,1.877.91,1.193,1.676,2.273,2.425,3.215.729.96,1.363,1.854,1.953,2.72s1.2,1.641,1.785,2.464,1.185,1.654,1.868,2.509c.7.835,1.467,1.717,2.355,2.679a35.61,35.61,0,0,0,3.173,3.05c.619.545,1.284,1.115,2,1.716.735.575,1.538,1.159,2.4,1.783,4.456,2.428,2.668.485-.686-2.483-.853-.725-1.727-1.627-2.672-2.487-.928-.881-1.916-1.74-2.785-2.664l-2.487-2.534c-.755-.763-1.345-1.5-1.817-2.043l4.322,4.132c-.585-.664-1.153-1.329-1.7-1.986l-.793-.978-.709-1a41.448,41.448,0,0,1-2.28-3.624,10.843,10.843,0,0,1-1.09-2.944,104.893,104.893,0,0,0,23.27,18.965c-.362.987-.391,1.993,3.093,4.011a16.7,16.7,0,0,0,4.122,2.763c.986.566,2.143,1.046,3.33,1.6,1.2.52,2.428,1.125,3.71,1.6l3.756,1.475c1.205.5,2.395.878,3.442,1.3,1.054.409,1.989.8,2.75,1.173a8.161,8.161,0,0,1,1.719.969c8.549,2.394,16.124,4.591,22.77,6.044a72.26,72.26,0,0,0,9.209,1.4,37.913,37.913,0,0,0,4,.107,23.736,23.736,0,0,0,3.567-.467l3.194.813,3.217.706,3.236.707,3.252.592c1.317.094,2.581.165,3.8.217s2.39.087,3.526.038c2.27-.063,4.382-.184,6.394-.338,2.012-.178,3.922-.495,5.793-.759l2.784-.42c.923-.148,1.84-.354,2.764-.523,1.632-.629-.421-.715-1.767-.916s-1.987-.516,2.36-1.586l2.74-.47c1.007-.158,2.083-.316,3.148-.528a39.858,39.858,0,0,1,5.849-.707c.93.368-3.144,1.4-4.052,1.708l3.092-.573,1.507-.256,1.47-.309c1.946-.4,3.831-.75,5.671-1.061,3.635-.814,7.125-1.354,10.44-2.167,3.359-.666,6.541-1.555,9.748-2.4,1.591-.453,3.147-1,4.73-1.522.787-.27,1.585-.522,2.37-.821l2.335-.974c7.9-4.324,17.065-10.277,24.1-17.368l2.576-2.634c.858-.852,1.58-1.809,2.346-2.686.742-.9,1.5-1.751,2.164-2.641l1.875-2.634a44.9,44.9,0,0,0,3.022-4.922,27.193,27.193,0,0,0,1.944-4.23L326.1,294.64c-.484.737-.994,1.457-1.489,2.186l-1.5,2.175c-.5.721-1.077,1.39-1.613,2.086.565-.779,1.081-1.446,1.472-2.075s.706-1.184.973-1.664a14.952,14.952,0,0,0,1.021-2.128c.354-.978.128-1.228-.047-1.514s-.3-.609.158-1.758a24.444,24.444,0,0,1,1.192-2.442c.6-1.081,1.249-2.556,2.232-4.418q.285-.519.544-.991l.44-.923.776-1.572c.472-.932.857-1.64,1.173-2.168.558-1.084.888-1.433,1.112-1.424.448.016.464,1.483,1.058,1.244.291-.86.591-1.8.9-2.785l.46-1.519c.12-.527.241-1.065.365-1.61l.734-3.342c.212-1.137.356-2.3.538-3.434.41-2.272.526-4.529.777-6.552.144-1.011.167-1.975.251-2.861s.165-1.7.273-2.413c-.066,4.133.259,2.558.584.4.076-.539.172-1.115.225-1.643s.084-1.012.113-1.366c.068-.71.118-.9.147.08C338.989,250.5,339.038,248.98,338.945,247.621Z" transform="translate(-1 19.441)" fill="#e7e7e7" fill-rule="evenodd" opacity="0.52"/>
    <path id="Path_7999" data-name="Path 7999" d="M348.122,402.123H348.1l-5.873-.235a.5.5,0,1,1,.039-.991l5.872.235a.5.5,0,0,1-.019.991Z" transform="translate(-161.759 -170.785)" fill="#1f3b64" fill-rule="evenodd" opacity="0.5"/>
    <path id="Path_8000" data-name="Path 8000" d="M331.25,352.188a.5.5,0,0,1-.391-.8l3.289-4.226a.5.5,0,0,1,.783.609L331.641,352A.5.5,0,0,1,331.25,352.188Z" transform="translate(-154.747 -136.408)" fill="#1f3b64" fill-rule="evenodd" opacity="0.5"/>
    <path id="Path_8001" data-name="Path 8001" d="M339.863,378.077a.5.5,0,0,1-.2-.949L346,374.31a.5.5,0,0,1,.4.906l-6.342,2.818A.5.5,0,0,1,339.863,378.077Z" transform="translate(-160.238 -153.81)" fill="#1f3b64" fill-rule="evenodd" opacity="0.5"/>
    <path id="Path_8002" data-name="Path 8002" d="M587.707,385.107A1.292,1.292,0,1,0,589,386.4,1.294,1.294,0,0,0,587.707,385.107Zm0,3.576a2.284,2.284,0,1,1,2.284-2.284A2.286,2.286,0,0,1,587.707,388.683Z" transform="translate(-317.09 -160.088)" fill="#1f3b64" fill-rule="evenodd" opacity="0.5"/>
    <path id="Path_8003" data-name="Path 8003" d="M229.813,232.6a1.293,1.293,0,1,0,1.293,1.292A1.293,1.293,0,0,0,229.813,232.6Zm0,3.576a2.284,2.284,0,1,1,2.284-2.284A2.286,2.286,0,0,1,229.813,236.178Z" transform="translate(-88.945 -62.871)" fill="#fff" fill-rule="evenodd"/>
    <path id="Path_8004" data-name="Path 8004" d="M602.463,264.881a1.292,1.292,0,1,0,1.293,1.292A1.295,1.295,0,0,0,602.463,264.881Zm0,3.576a2.284,2.284,0,1,1,2.284-2.284A2.286,2.286,0,0,1,602.463,268.456Z" transform="translate(-326.495 -83.447)" fill="#fff" fill-rule="evenodd"/>
    <path id="Path_8005" data-name="Path 8005" d="M358.857,182.35a2.461,2.461,0,1,0,2.461,2.461A2.464,2.464,0,0,0,358.857,182.35Zm0,5.914a3.453,3.453,0,1,1,3.453-3.453A3.457,3.457,0,0,1,358.857,188.264Z" transform="translate(-170.461 -30.837)" fill="#1f3b64" fill-rule="evenodd" opacity="0.5"/>
    <path id="Path_8006" data-name="Path 8006" d="M550.052,198.1a2.461,2.461,0,1,0,2.462,2.461A2.464,2.464,0,0,0,550.052,198.1Zm0,5.913a3.452,3.452,0,1,1,3.453-3.452A3.456,3.456,0,0,1,550.052,204.01Z" transform="translate(-292.341 -40.876)" fill="#fff" fill-rule="evenodd"/>
    <path id="Path_8007" data-name="Path 8007" d="M197.984,376.865a1.609,1.609,0,1,0,1.61,1.609A1.612,1.612,0,0,0,197.984,376.865Zm0,4.208a2.6,2.6,0,1,1,2.6-2.6A2.6,2.6,0,0,1,197.984,381.073Z" transform="translate(-68.453 -154.833)" fill="#1f3b64" fill-rule="evenodd" opacity="0.5"/>
    <path id="Path_8008" data-name="Path 8008" d="M609.717,453.256a2.461,2.461,0,1,0,2.462,2.461A2.464,2.464,0,0,0,609.717,453.256Zm0,5.914a3.453,3.453,0,1,1,3.453-3.453A3.456,3.456,0,0,1,609.717,459.169Z" transform="translate(-330.375 -203.53)" fill="#fff" fill-rule="evenodd"/>
    <path id="Path_8009" data-name="Path 8009" d="M659.81,426.575a5.975,5.975,0,0,1-4.011-1.5,4.9,4.9,0,0,1-1.54-3.782,4.821,4.821,0,0,0-1.632-3.829c-2.646-2.274-6.824,1.12-6.866,1.155a.5.5,0,1,1-.631-.765c.2-.162,4.862-3.96,8.144-1.143a5.766,5.766,0,0,1,1.973,4.5,4,4,0,0,0,1.2,3.114c2.931,2.537,6.4.529,6.545.442a.5.5,0,0,1,.508.852A8.021,8.021,0,0,1,659.81,426.575Z" transform="translate(-355.035 -180.203)" fill="#43d477" fill-rule="evenodd" opacity="0.5"/>
    <path id="Path_8010" data-name="Path 8010" d="M256.643,276.707a5.806,5.806,0,0,1-3.894-1.459,4.757,4.757,0,0,1-1.5-3.673,4.65,4.65,0,0,0-1.574-3.7c-2.546-2.192-6.586,1.085-6.628,1.118a.5.5,0,1,1-.63-.764c.191-.159,4.723-3.839,7.9-1.107a5.6,5.6,0,0,1,1.917,4.367,3.856,3.856,0,0,0,1.157,3c2.826,2.447,6.177.51,6.319.426a.5.5,0,0,1,.508.852A7.794,7.794,0,0,1,256.643,276.707Z" transform="translate(-98.323 -84.87)" fill="#43d477" fill-rule="evenodd" opacity="0.5"/>
    <path id="Path_8011" data-name="Path 8011" d="M480.824,191.207a.5.5,0,0,1-.484-.4c-.054-.26-1.279-6.383,2.892-8.027a6,6,0,0,1,5.088.37,4.185,4.185,0,0,0,3.466.408c3.776-1.469,3.611-5.651,3.6-5.828a.5.5,0,0,1,.469-.52.5.5,0,0,1,.521.468c0,.05.22,5.072-4.23,6.8a5.078,5.078,0,0,1-4.217-.421,5.04,5.04,0,0,0-4.333-.359c-3.394,1.337-2.3,6.846-2.286,6.9a.494.494,0,0,1-.384.585A.422.422,0,0,1,480.824,191.207Z" transform="translate(-249.97 -28.195)" fill="#43d477" fill-rule="evenodd" opacity="0.5"/>
    <path id="Path_8012" data-name="Path 8012" d="M147.994,456.517a.494.494,0,0,1-.484-.394c-.036-.171-.836-4.18,1.937-5.273a3.979,3.979,0,0,1,3.348.236,2.469,2.469,0,0,0,2.05.254,3.635,3.635,0,0,0,2.155-3.5.5.5,0,0,1,.47-.52.5.5,0,0,1,.52.468,4.6,4.6,0,0,1-2.786,4.473,3.4,3.4,0,0,1-2.8-.267,3,3,0,0,0-2.594-.224c-2,.786-1.338,4.114-1.331,4.148a.5.5,0,0,1-.385.586A.481.481,0,0,1,147.994,456.517Z" transform="translate(-37.85 -200.381)" fill="#43d477" fill-rule="evenodd" opacity="0.5"/>
    <path id="Path_8013" data-name="Path 8013" d="M652.814,530.452a.5.5,0,0,1-.484-.395c-.036-.17-.837-4.18,1.936-5.272a3.978,3.978,0,0,1,3.35.235,2.47,2.47,0,0,0,2.049.255,3.638,3.638,0,0,0,2.156-3.5.5.5,0,0,1,.99-.051,4.6,4.6,0,0,1-2.786,4.473,3.408,3.408,0,0,1-2.8-.267,3,3,0,0,0-2.6-.225c-2,.786-1.337,4.116-1.33,4.149a.5.5,0,0,1-.384.585A.48.48,0,0,1,652.814,530.452Z" transform="translate(-359.655 -247.511)" fill="#43d477" fill-rule="evenodd" opacity="0.5"/>
    <path id="Path_8014" data-name="Path 8014" d="M189.749,349.719s-23.34,34.74-28.058,49.132-2.483,24.566.993,29.53,9.684,9.181,23.837,9.43,23.589-3.226,23.589-3.226L189.5,401.829s5.214-17.618,9.187-27.792,5.463-14.144,5.463-14.144,7.717-1.634,10.241-4.974,3.615-4.568,3.615-4.568a1.957,1.957,0,0,0-2.524-1.431c-2.183.409-4.161,2.25-5.458,2.591S206,349.738,206,349.738s-.2-4.839,3.207-6.136,5.116-.613,6.275,1.364,1.638,2.932,2.66,3.341,1.4-.079,1.4-.079-.4-2.381-.881-5.449-2.475-3.856-4.731-5c-1.827-.926-6.546.624-6.546.624s4.326-10.1,5.453-12.589c1.355-3,.167-4.536-1.548-3.481-1.258.773-4.742,6.769-6.1,9.09s-3.29,5.318-3.29,5.318,1.284-7.375,2.156-12.146c.7-3.839.172-4.491-.8-4.589s-2.038,1.36-3.587,5.034c-1.081,2.567-3.29,11.411-3.29,11.411a40.09,40.09,0,0,1-1.064-8.22c.023-3.918-.074-5.479-1.29-5.368-1.03.093-2,1.985-2.871,8.173A106.046,106.046,0,0,0,189.749,349.719Z" transform="translate(-45.26 -119.216)" fill="#fff" fill-rule="evenodd"/>
    <path id="Path_8015" data-name="Path 8015" d="M566.516,637s.937,10.752.937,19.167v11.22l-23.894,5.142L537,639.805Z" transform="translate(-286.222 -321.292)" fill="#fff" fill-rule="evenodd"/>
    <g id="mask1_0_1213" data-name="mask1 0 1213" transform="translate(144.193 240.663)">
      <path id="Path_8017" data-name="Path 8017" d="M243,472.162s19.739-21.216,32.944-30.426C292.6,430.119,306.369,430,315.534,430s16.862.733,27.492,6.235,19.8,15.038,25.294,22.373,28.757,38.134,28.757,38.134-5.3,9.178-18.493,15.413-21.261,6.968-21.261,6.968l2.566,20.539s-15.4,9.536-49.122,8.435-48.755-8.435-48.755-8.435l3.666-28.241S245.2,489.768,243,472.162Z" transform="translate(-243 -430)" fill="#43d477" fill-rule="evenodd"/>
    </g>
    <path id="Path_8018" data-name="Path 8018" d="M400.223,398.376l2.379-1.056.793-19.529L426.652,377l1.85,19.133,3.171,2.639s-2.907,7.257-16.517,7.257C403.376,406.029,402.074,401.41,400.223,398.376Z" transform="translate(-199.031 -155.552)" fill="#fff" fill-rule="evenodd"/>
    <path id="Path_8019" data-name="Path 8019" d="M368.709,253.3l-35.018-14.918a1.1,1.1,0,0,1-.057-2.02l34.107-18.977a4.1,4.1,0,0,1,3.277-.093l36.008,16.9a1.1,1.1,0,0,1,.057,2.021l-35.1,17A4.1,4.1,0,0,1,368.709,253.3Z" transform="translate(-156.179 -53.557)" fill="#fff" fill-rule="evenodd"/>
    <path id="Path_8020" data-name="Path 8020" d="M421.149,312.693a4.636,4.636,0,0,0-1.765.663c-.115-3.981-.448-8.095-.448-8.095s-8.74-5.626-18.279-4.866-13.8,6.268-13.8,6.268l-.581,5.4s.04,1.113.225,2.87a4.258,4.258,0,0,0-1.6-.48c-2.554-.13-4.105,2.335-3.965,5.786a6.164,6.164,0,0,0,6,5.916,4.372,4.372,0,0,0,1.787-.375c2.182,6.736,6.292,13.081,14.015,13.23,10.843.208,14.569-7.8,15.809-13.854a6.008,6.008,0,0,0,1.682.084,7.327,7.327,0,0,0,5.855-6.973C425.988,314.912,424.392,312.354,421.149,312.693Z" transform="translate(-186.734 -106.674)" fill="#fff" fill-rule="evenodd"/>
    <path id="Path_8021" data-name="Path 8021" d="M424.035,276.582c-.09-3.148-8.568-5.462-18.937-5.167s-18.7,3.087-18.612,6.235l-.41-14.362c-.089-3.149,8.073-7.511,18.442-7.806s19.018,3.589,19.108,6.738Z" transform="translate(-190.012 -78.078)" fill="#fff" fill-rule="evenodd"/>
    <path id="Path_8022" data-name="Path 8022" d="M557.306,320.965s-9.816-4.9-6.178-9.175c4.94-5.807,10.614,4.587,10.614,4.587S557.781,317.96,557.306,320.965Z" transform="translate(-294.712 -112.859)" fill="#fff" fill-rule="evenodd"/>
    <path id="Path_8023" data-name="Path 8023" d="M581.263,342.116s-5.021-.968-8.031-4.289-3.644-5.695-3.644-5.695-.134-1.616,2.06-3.48a5.106,5.106,0,0,1,2.376-1.107,29.913,29.913,0,0,0,7.4,3.685,31.962,31.962,0,0,0,5.982,1.377Z" transform="translate(-306.995 -124.026)" fill="#fff" fill-rule="evenodd"/>
    <path id="Path_8024" data-name="Path 8024" d="M605.695,346.965c-1.7,2.626-3.648,4.382-4.362,3.923s.082-2.96,1.777-5.587,3.648-4.382,4.362-3.923S607.39,344.338,605.695,346.965Z" transform="translate(-327.065 -132.797)" fill="#fff" fill-rule="evenodd"/>
    <g id="mask2_0_1213" data-name="mask2 0 1213" transform="translate(113.125 162.675)">
      <path id="Path_8025" data-name="Path 8025" d="M385.24,236.131a.494.494,0,0,0,.24-.062l4.338-2.416a.5.5,0,0,0-.482-.866L385,235.2a.5.5,0,0,0,.241.928Z" transform="translate(-302.289 -226.256)" fill="#1f3b64" fill-rule="evenodd"/>
      <path id="Path_8026" data-name="Path 8026" d="M332.01,257.5l15.633,6.668a.488.488,0,0,0,.194.04.5.5,0,0,0,.195-.951l-15.642-6.672a.6.6,0,0,1-.382-.546.622.622,0,0,1,.381-.585l13.957-7.859a.5.5,0,1,0-.486-.863l-13.925,7.843a1.6,1.6,0,0,0,.075,2.926Z" transform="translate(-268.04 -235.145)" fill="#1f3b64" fill-rule="evenodd"/>
      <path id="Path_8027" data-name="Path 8027" d="M465.124,249.629c.107,0,.215.006.325.017,2.776.285,5.362,4.08,6.252,5.525a5.56,5.56,0,0,0-1.932,1.051,6.066,6.066,0,0,0-2.122,3.091c-1.541-.862-5.529-3.314-6.05-5.865a2.51,2.51,0,0,1,.637-2.228A3.8,3.8,0,0,1,465.124,249.629Zm18.842,11.131a13.7,13.7,0,0,0-2.149,2.366c-3.278-.483-6.4-3.338-6.427-3.367a.495.495,0,0,0-.673.725,15.751,15.751,0,0,0,6.474,3.537c-.043.065-.088.132-.129.195a20.642,20.642,0,0,0-1.033,1.8c-5.445-1.318-8.857-6.463-8.891-6.514a.5.5,0,1,0-.831.539c.146.226,3.578,5.405,9.293,6.886a6.732,6.732,0,0,0-.654,2.453,15.211,15.211,0,0,1-6.907-3.928,16.348,16.348,0,0,1-3.515-5.4c0-.078-.037-1.433,1.885-3.07a4.7,4.7,0,0,1,1.941-.96,30.573,30.573,0,0,0,7.35,3.633A33.711,33.711,0,0,0,483.966,260.761Zm-.321,5.12c-1.7,2.637-3.286,3.866-3.662,3.791-.239-.311.208-2.275,1.91-4.918,1.658-2.571,3.221-3.793,3.631-3.793a.157.157,0,0,1,.033,0C485.8,261.275,485.349,263.239,483.645,265.881ZM411.4,219.461l5.826-3.247a3.6,3.6,0,0,1,2.855-.092L456.1,233.046a.609.609,0,0,1,.028,1.117l-5.045,2.446a28.049,28.049,0,0,1-1.421-3.73.5.5,0,0,0-.958.256,28.053,28.053,0,0,0,1.476,3.912l-8.012,3.886a.5.5,0,0,0,.216.941.484.484,0,0,0,.215-.05l8-3.879a37.272,37.272,0,0,0,6.137,9.018,30.656,30.656,0,0,0,4.444,4.04,3.389,3.389,0,0,0-.558,2.646c.679,3.328,5.942,6.23,7,6.783a17.292,17.292,0,0,0,3.683,5.686c3.009,3.325,7.832,4.353,8.265,4.44a1,1,0,0,0,.4.091c1.392,0,3.422-2.54,4.512-4.229,1.228-1.905,2.94-5.341,1.66-6.249l-.02-.019s-.007-.007-.011-.009a1,1,0,0,0-.671-.137,32.668,32.668,0,0,1-5.42-1.295,29.915,29.915,0,0,1-7.171-3.559c-.463-.819-3.585-6.109-7.292-6.491a4.476,4.476,0,0,0-3.747,1.565,29.579,29.579,0,0,1-4.337-3.938,36.33,36.33,0,0,1-5.96-8.783l5.049-2.448a1.6,1.6,0,0,0-.057-2.919l-36.024-16.925a4.612,4.612,0,0,0-3.7.12l-5.856,3.261a.5.5,0,0,0,.482.866Z" transform="translate(-318.81 -214.882)" fill="#1f3b64" fill-rule="evenodd"/>
      <path id="Path_8028" data-name="Path 8028" d="M414.211,286.8l-.555,8.141c-1.285,6.25-4.979,13.682-15.3,13.446-6.252-.121-10.807-4.452-13.54-12.873l-1.575-8.139a.5.5,0,0,0-.973.188l.9,4.668a2.2,2.2,0,0,1-1.6.249,1.977,1.977,0,0,1-1.664-2.266,1.689,1.689,0,0,1,.778-1.179.5.5,0,0,0-.539-.832,2.694,2.694,0,0,0-1.218,1.857,2.966,2.966,0,0,0,2.449,3.392,3.461,3.461,0,0,0,.687.069,3.168,3.168,0,0,0,1.3-.273l.4,2.07a3.577,3.577,0,0,1-1.213.2,5.692,5.692,0,0,1-5.5-5.447,5.989,5.989,0,0,1,1.329-4.484,2.712,2.712,0,0,1,2.113-.794,3.8,3.8,0,0,1,1.406.429l.806.4-.094-.892c-.176-1.674-.22-2.77-.225-2.77l.141-1.3a42.259,42.259,0,0,0,4.762-.7c6.82-1.335,14.473-6.361,14.473-6.361s1.921-.386,4.9,1.6c2.7,1.8,3.469,2.844,5.66,3.925.88.434,1.831.55,2,1.2.024.095.049.178.073.265.042.852.078,1.742.1,2.624l.024.836.723-.422a4.163,4.163,0,0,1,1.565-.6,3.494,3.494,0,0,1,2.784.775,5.894,5.894,0,0,1,1.6,4.329,6.817,6.817,0,0,1-5.439,6.477,5.046,5.046,0,0,1-1.075-.017l.173-2.538a2.547,2.547,0,0,0,.748.123,3.4,3.4,0,0,0,3.005-1.949,2.9,2.9,0,0,0-1.333-3.872.5.5,0,0,0-.4.908,1.917,1.917,0,0,1,.823,2.568A2.246,2.246,0,0,1,415,291.069a.468.468,0,0,0-.083-.017l.286-4.185a.5.5,0,0,0-.989-.067Zm1.7,8.786a7.855,7.855,0,0,0,6.267-7.483,6.839,6.839,0,0,0-1.942-5.047,4.45,4.45,0,0,0-3.539-1.014,3.491,3.491,0,0,0-.611.124,25.871,25.871,0,0,0,.554-4.583c.062-.784.162-1.579.16-2.361a.49.49,0,0,0,.053-.224h0l-.411-14.376c-.051-1.8-2.244-3.668-6.014-5.113a36.187,36.187,0,0,0-13.6-2.113.5.5,0,0,0-.481.51.49.49,0,0,0,.51.481,35.551,35.551,0,0,1,13.212,2.048c3.232,1.237,5.343,2.893,5.38,4.216l.351,12.34c-2.793-2.564-10.716-3.856-18.392-3.644a48.108,48.108,0,0,0-13.368,2.075,12.116,12.116,0,0,0-4.788,2.59L378.9,261.69c-.026-.935.939-2.112,2.649-3.23a.5.5,0,1,0-.542-.829c-2.064,1.349-3.136,2.762-3.1,4.087l.365,12.782a4.051,4.051,0,0,1-.853,1.128,4.8,4.8,0,0,1-3.018.816,4.51,4.51,0,0,0,1.853,3.109,7.217,7.217,0,0,0,3.228,1.069c.139.5.308,1.073.5,1.635a3.439,3.439,0,0,0,1.05,1.613,3.277,3.277,0,0,0-.494-.065,3.735,3.735,0,0,0-2.861,1.08,6.863,6.863,0,0,0-1.622,5.228,6.7,6.7,0,0,0,6.483,6.4,4.249,4.249,0,0,0,1.483-.231c2.861,8.447,7.8,12.973,14.31,13.1.141,0,.28,0,.418,0,10.948,0,14.582-8.415,15.783-13.807A5.854,5.854,0,0,0,415.91,295.586Z" transform="translate(-295.698 -239.423)" fill="#1f3b64" fill-rule="evenodd"/>
      <path id="Path_8029" data-name="Path 8029" d="M457.679,339.917c-.583.031-1.019.737-.973,1.576s.554,1.494,1.137,1.462,1.018-.736.973-1.576S458.26,339.886,457.679,339.917Z" transform="translate(-348.159 -294.587)" fill="#1f3b64" fill-rule="evenodd"/>
      <path id="Path_8030" data-name="Path 8030" d="M442.736,352.606a23.117,23.117,0,0,1-.625-5.5.5.5,0,0,0-.477-.513h-.018a.5.5,0,0,0-.5.477,23.737,23.737,0,0,0,.652,5.764c.165.695.342,1.364.468,1.824l-1.929.054a.5.5,0,0,0,.015.99h.015l2.562-.073a.5.5,0,0,0,.461-.634S443.03,353.843,442.736,352.606Z" transform="translate(-337.404 -298.844)" fill="#1f3b64" fill-rule="evenodd"/>
      <path id="Path_8031" data-name="Path 8031" d="M429.146,375.583a5.1,5.1,0,0,1-5.379-3.331.5.5,0,0,0-.619-.328.492.492,0,0,0-.329.616,6.16,6.16,0,0,0,6.018,4.04c.115,0,.232,0,.35-.007a.5.5,0,0,0,.475-.515A.481.481,0,0,0,429.146,375.583Z" transform="translate(-326.546 -314.977)" fill="#1f3b64" fill-rule="evenodd"/>
      <path id="Path_8032" data-name="Path 8032" d="M420.893,330.317a.5.5,0,0,0,.424-.9,4.24,4.24,0,0,0-5.281,1.011.5.5,0,0,0,.788.6A3.244,3.244,0,0,1,420.893,330.317Z" transform="translate(-322.172 -287.579)" fill="#1f3b64" fill-rule="evenodd"/>
      <path id="Path_8033" data-name="Path 8033" d="M453.461,323.362a.5.5,0,1,0,.612.779,2.545,2.545,0,0,1,3.34.174.5.5,0,0,0,.339.134.5.5,0,0,0,.339-.857A3.524,3.524,0,0,0,453.461,323.362Z" transform="translate(-345.972 -283.548)" fill="#1f3b64" fill-rule="evenodd"/>
      <path id="Path_8034" data-name="Path 8034" d="M423.71,343.61a.5.5,0,1,0,.449-.883,2.952,2.952,0,0,0-3.62.364.5.5,0,0,0,.745.653A1.968,1.968,0,0,1,423.71,343.61Z" transform="translate(-325.03 -296.103)" fill="#1f3b64" fill-rule="evenodd"/>
      <path id="Path_8035" data-name="Path 8035" d="M265.109,367.907a31.436,31.436,0,0,1-5.042.384c-10.319,0-12.333-3.584-13.951-6.464q-.134-.241-.268-.474L248,360.4l.534-13.184a.5.5,0,0,0-.475-.514.506.506,0,0,0-.516.475l-.493,12.169c-7.438,1.2-16.248,4.061-26.137,10.954-11.035,7.691-26.78,23.909-31.573,28.941,1.482-4.9,5.428-17.7,8.558-25.719,3.38-8.66,4.975-12.861,5.361-13.882,1.418-.328,7.889-1.969,10.25-5.095,2.472-3.274,3.573-4.519,3.584-4.532l.16-.181-.044-.239a2.5,2.5,0,0,0-.981-1.481,2.735,2.735,0,0,0-2.117-.344,11.452,11.452,0,0,0-3.708,1.675,8.353,8.353,0,0,1-1.775.92c-.694.179-2.33-.75-3.4-1.538.014-.927.252-4.419,2.882-5.418,3.388-1.288,4.712-.47,5.661,1.15l.3.516c.974,1.673,1.512,2.6,2.6,3.029,1.329.53,1.912-.157,1.974-.237l.133-.171-.036-.214s-.4-2.375-.879-5.435c-.482-3.1-2.447-4.088-4.526-5.128l-.462-.232c-1.461-.741-4.329-.133-5.888.29,1.11-2.588,4.12-9.595,5.025-11.6.84-1.859.844-3.407.009-4.141a1.86,1.86,0,0,0-2.266.037c-1.182.728-3.79,5.025-6.186,9.134l-.067.118c-.6,1.032-1.325,2.207-1.938,3.187.449-2.57,1.168-6.644,1.722-9.669.467-2.551.442-3.878-.087-4.581a1.533,1.533,0,0,0-1.145-.584c-1.27-.123-2.418,1.366-4.087,5.329-.764,1.813-2.054,6.6-2.777,9.389a34.345,34.345,0,0,1-.618-6.006c.019-3.335-.048-4.865-.778-5.535a1.323,1.323,0,0,0-1.051-.325c-1.513.139-2.473,2.627-3.311,8.588a107.839,107.839,0,0,0-1.424,18.59c-1.6,2.391-23.452,35.239-27.98,49.06-5.886,17.965-.68,27.453,1.056,29.932,4.452,6.358,12.14,9.418,24.193,9.629q.729.014,1.453.013a80.759,80.759,0,0,0,12.587-.974.5.5,0,0,0-.155-.98,79.284,79.284,0,0,1-13.868.951c-15.385-.27-20.723-5.384-23.4-9.207-1.669-2.384-6.668-11.527-.925-29.055,4.634-14.145,27.718-48.605,27.951-48.951l.091-.134-.006-.163c-.259-6.065.59-12.767,1.408-18.572.931-6.627,1.917-7.693,2.421-7.74.2-.017.26.039.29.067.483.444.469,2.859.456,4.8a40.067,40.067,0,0,0,1.077,8.33l.476,1.948.486-1.945c.021-.088,2.208-8.826,3.261-11.325,1.684-4,2.628-4.771,3.074-4.727.275.027.379.1.453.195.32.426.287,1.706-.1,3.806-.871,4.767-2.152,12.136-2.152,12.136l-.418,2.4,1.321-2.05c.019-.029,1.954-3.029,3.3-5.331l.069-.118c1.167-2,4.719-8.094,5.849-8.789.221-.136.769-.422,1.094-.137.376.331.456,1.407-.26,2.988-1.114,2.468-5.405,12.482-5.448,12.584l-.431,1.007,1.042-.341c1.256-.413,4.81-1.334,6.155-.652l.466.234c2.005,1,3.588,1.795,3.992,4.395.37,2.377.7,4.341.824,5.1a1.312,1.312,0,0,1-.669-.12c-.769-.307-1.189-1.029-2.11-2.608l-.3-.52c-1.387-2.367-3.508-2.852-6.869-1.573-3.7,1.4-3.529,6.4-3.52,6.612l.01.23.182.141c.488.379,2.993,2.244,4.448,1.858a8.582,8.582,0,0,0,2.039-1.031,10.707,10.707,0,0,1,3.374-1.548c1.284-.239,1.73.436,1.878.822-.4.473-1.494,1.789-3.454,4.385-2.379,3.149-9.855,4.765-9.931,4.781l-.266.057-.094.253c-.016.04-1.533,4.081-5.451,14.122-3.771,9.661-8.716,26.217-9.153,27.685l-.079.084.015.124-2.168,6.97a.5.5,0,0,0,.326.621.484.484,0,0,0,.147.022.5.5,0,0,0,.473-.348l1.582-5.087c3.249,16.292,20.435,35.243,22.3,37.253l-3.635,27.982a.5.5,0,0,0,.428.556.478.478,0,0,0,.065,0,.5.5,0,0,0,.49-.431l3.665-28.215v-.009l.029-.223h0c.246-1.948,2.039-16.172,3.348-26.805a.494.494,0,0,0-.43-.553.482.482,0,0,0-.553.43c-1.189,9.656-2.778,22.276-3.245,25.975-3.6-3.982-19.737-22.594-21.792-37.928,1.9-2.027,20.31-21.525,32.694-30.157A62.116,62.116,0,0,1,244.656,360.8l-.233.1.294.481c.18.3.355.608.534.929,1.653,2.941,3.916,6.969,14.816,6.969a32.534,32.534,0,0,0,5.2-.4.5.5,0,0,0-.161-.978Z" transform="translate(-157.303 -281.172)" fill="#1f3b64" fill-rule="evenodd"/>
      <path id="Path_8036" data-name="Path 8036" d="M544.11,475.556c-.233-.307-23.313-30.851-28.745-38.094-3.438-4.583-12.8-15.95-25.455-22.493a53.8,53.8,0,0,0-13.185-4.956l-1.419-1.181-1.039-10.761a.5.5,0,0,0-.986.095l1.078,11.167,3.028,2.521a10.143,10.143,0,0,1-2.835,3.106.5.5,0,1,0,.595.793,10.045,10.045,0,0,0,3.316-3.845l.135-.334-.135-.112a54.958,54.958,0,0,1,10.992,4.388c12.471,6.45,21.719,17.679,25.116,22.208,5.159,6.878,26.228,34.762,28.544,37.825-1.006,1.565-6.485,9.439-18.1,14.922-11.186,5.282-18.716,6.593-20.609,6.857-.435-3.655-3.244-27.388-4.845-45a.509.509,0,0,0-.538-.448.5.5,0,0,0-.449.538c1.6,17.6,4.407,41.323,4.847,45.013h0l2.628,21.026a.5.5,0,0,0,.984-.124l-2.5-20.024c1.976-.264,9.492-1.555,20.913-6.948.132-.062.251-.129.382-.192.217,3.624.422,8.056.422,11.962v11.249a.5.5,0,0,0,.991,0V503.47c0-4.084-.222-8.733-.449-12.448,12.192-6.2,17.306-14.83,17.358-14.919l.165-.284Z" transform="translate(-358.726 -331.374)" fill="#1f3b64" fill-rule="evenodd"/>
      <path id="Path_8037" data-name="Path 8037" d="M316.625,545.315h0a.5.5,0,0,0-.5.492c0,.1-.055.737-.52,4.627a.494.494,0,0,0,.433.55.412.412,0,0,0,.059,0,.5.5,0,0,0,.491-.436c.528-4.407.528-4.651.528-4.744A.493.493,0,0,0,316.625,545.315Z" transform="translate(-258.212 -425.521)" fill="#393f49" fill-rule="evenodd"/>
    </g>
    <g id="mask3_0_1213" data-name="mask3 0 1213" transform="translate(148.361 245.359)">
      <path id="Path_8038" data-name="Path 8038" d="M390.21,448.4c.064,0,.043.058.013.107a.349.349,0,0,0-.091-.034l-.026.022A.888.888,0,0,1,390.21,448.4Zm-.6,1.972a.612.612,0,0,0-.124-.1c.047-.084.119-.154.146-.129C389.572,450.177,389.61,450.271,389.606,450.369Zm-.306-.211,0,0-.085-.04C389.231,450.128,389.256,450.139,389.3,450.158Zm-3.764-2.667c.119.162.347-.139.543-.231.225.119-.15.245-.25.421.169.059.5-.061.56.032-.043.043-.046.074-.121.1.322-.063.3.352.686.249a.372.372,0,0,1-.052.076,2.642,2.642,0,0,1,.361-.349c.063.057.281-.041.122.141-.029-.042-.1.019-.178.051l.138-.005c-.2.287-.171-.008-.364.16.206.055.554.008.573.169-.227.25-.3-.149-.4.183l-.048-.237c-.286.471-.061-.119-.382.368.123.271.342.112.463.382.179-.084.186-.207.364-.293.5.041-.388.824.131.712.213-.112.526-.4.523-.107l-.312.233c.179.206.485-.3.522.069-.136.08-.241-.044-.241.017-.063.344.241-.076.345.013l-.2.273c.255.146.639.174.922.313-.076.069-.185.121-.189.245.427.1.664.521.873.912l.282-.157c.026.023-.021.147-.082.172.063.179.107-.149.228-.2.08.031,0,.2-.09.247.353-.051.919-.082,1,.328l-.09.049c.132.21.5-.4.542-.069l-.057.027a2.778,2.778,0,0,0,.6.371.718.718,0,0,1,.455.489c.235-.355.348.354.609-.17.126.37.016.436.289.765.083.065.272-.28.406-.289l-.107.287.267-.235-.043.371.138-.039a.254.254,0,0,1-.009-.239c.216-.077.344.332.3.482l.489-.118c-.046.115-.128.133-.207.191.315-.227-.06.319.229.11-.006-.075.069-.169.092-.227a.393.393,0,0,0,.46.259l-.092.191a4.119,4.119,0,0,0,1.014.186c-.1-.121.018-.469.126-.482l-.037.322c.112-.181-.076-.14.116-.35.118.062,0,.375-.1.461l.183-.075a1.639,1.639,0,0,1-.1.255c.11-.182.2.372.372.052l-.012.1a7.456,7.456,0,0,0,.816.042c.058-.273.157-.19.281-.393.188.128.38.394.634.418.2-.117.088-.228.192-.383-.026.252.228.257.071.423a1.687,1.687,0,0,0,.8-.17c-.029-.108-.069-.158-.034-.241.072-.034.141.123.118.243l-.021.023c.46-.331.913.845,1.3.355l-.021.024.372-.237c.158.051-.109.185,0,.348.4-.415.6.074.926-.2.218.754.861-.034,1.183.45l-.018-.177c.086-.171.1.1.166.145-.01-.137-.092-.16-.039-.255.717-.178,1.478.248,2.224.365.272.034.1-.919.463-.516l-.077.332c.515-.427,1.106-.026,1.606-.421-.024.079-.017.177-.069.182.133.223.415-.036.4-.229.084.012.036.172.1.265.127.127.249-.335.334-.106.014.037-.023.08-.041.1.061-.124.342-.01.242-.276.213.107.363-.165.54-.021.063-.316.357.107.332-.326.046.446.4.318.489.095-.022.139.13.125.108.318.142-.019.259-.134.2-.355.347.482.451-.522.714.128a5.5,5.5,0,0,1,1.089-.72c.078.44-.406.12-.3.579.326-.249.45-.661.825-.622.1.037-.009.2-.024.279.315-.261.7-.136.951-.452a.2.2,0,0,1-.037.135c.058-.03.161.027.1-.169l-.047.069c-.169-.26.09-.659.059-.813.046.59.343.062.37.815a.337.337,0,0,0,.011-.282c.071.023.111.094.091.259.193-.165.054-.352.256-.4a1.371,1.371,0,0,1,.008.258c.049-.211.1-.422.287-.386.007.059.049.129,0,.14.285-.1.334-.646.7-.57.043.438.15.1.284.443l.133-.162-.125-.147c.149-.044.189-.343.354-.271l-.057.181.25-.161-.2-.079c.082-.229-.174-.435.052-.4-.026.049.144-.045.3.133h0c.03-.135.058-.276.2-.227.071.1.126.39.172.456-.041-.312.3-.222.266-.564a.848.848,0,0,0,.1.3l-.037-.257c.1.046.121.078.169.226.216-.044-.244-.407.067-.32-.01.026.013.057-.01.109.278-.005.389-.342.654-.322.22.31-.151.165.053.419.292-.2.459-.684.782-.769l-.073-.008c-.2-.489.334.116.368-.182a.514.514,0,0,0,.072.226c.241-.033.35-.333.566-.636l.031.138c.181.047.336-.121.491-.145-.034-.138.047-.164-.1-.3.789.4.486-.784,1.162-.49-.037.029-.022.165.008.142l.2-.306c-.157-.168-.119-.084-.279-.185-.046-.136-.036-.276.028-.325-.026.211.221.294.351.356-.051-.049-.08-.124-.127-.178.386.218-.258-.384.1-.308l.065.1c.032-.1,0-.275.094-.305.2.182,0,.153.135.327.1-.1-.1-.543.151-.424.006.1-.055.149-.055.239.3.162.262.083.37.057h-.012l.266-.049-.1-.024c-.328-.633.177-.327.039-.811.128.46.141.206.334.437.1.021.232.029.272.107-.086-.249.274.016.134-.353.072.064.089-.079.244.11.047-.159-.144-.094-.221-.188-.088-.388.656-.1.539-.643.036-.335-.184-.582-.157-.869.174.032.232.273.232.273.2-.017.248-.109.233-.281a.394.394,0,0,0,.235.126c.042-.1-.243-.266-.048-.293a1.926,1.926,0,0,1,.254.313c0-.156-.075-.36-.074-.512.16.067.167.206.231.307a.562.562,0,0,0-.116-.583l-.127.026c.016-.051.207.1.227.16.111.224-.177.1-.26.049v-.107c-.522-.242-.129.338-.266.472l-.289-.3.169.352c-.109-.034-.306-.154-.305-.26-.234-.026.048.176-.2.119a.077.077,0,0,1-.054-.048l.02.168c-.053-.072-.239-.167-.146-.186-.317.009.019.463-.271.322l-.007-.03c-.085.317.216.223.326.626l-.658-.394.2.227c-.029.015-.088.043-.169-.048.072.225.11.077.206.259-.3-.084-.2.39-.559.072.124.2.224.023.225.253-.391-.337-.071.192-.338.11-.153-.223.038-.2-.225-.288.249.385-.261.1-.284.236.236.273-.082.276-.146.494-.063-.093-.408.069-.627.071l-.033-.051c.2.307.009.364-.051.505a.626.626,0,0,1-.162-.381l-.1.075a.291.291,0,0,1,.013.266l-.136-.238c-.119.11-.074.464-.361.424.132.217.546.489.445.756-.085-.109-.223-.3-.2-.378-.006.026,0,.132-.062.105l-.052-.241c-.139-.031.065.188-.014.212-.108-.163-.126-.084-.2-.22.007-.026.1.03.085-.049a.447.447,0,0,1-.356-.128c.067.09.144.22.1.277-.132.1-.176-.168-.31-.2.039.136-.123.074.03.323-.042.025-.121-.086-.178-.143,0,.155-.314.245-.075.461l.029.006c0,.007,0,.01-.006.018h0c-.1.4-.6.136-.785.38l-.046-.087c-.1.177-.3.234-.309.478-.044.024-.184-.1-.217-.219-.081.123-.04.24-.282.166.043-.206-.106-.118.066-.166-.189-.007-.289-.137-.338.177-.051-.252-.246-.238-.286-.139l.18.117a.352.352,0,0,1-.227.091l-.095-.318c-.461-.239-.289.869-.779.35,0,.249.227.078.256.36-.162.02-.481-.353-.526-.339-.264-.1-.014.513-.27.469.067.1.2.386.079.546-.166.011-.349-.4-.289-.523.033-.021.062.008.074.046a.153.153,0,0,0-.024-.225l.021.117c-.113-.088-.311-.007-.327-.206-.073.144.016.2.119.228-.245-.1-.3.1-.526.054.051.051.123.172.092.182-.33-.041-.056.255-.235.371-.166-.133-.091-.422-.24-.212-.155-.075-.117-.29-.1-.4-.107.282-.373-.04-.487-.054l.067-.116a.178.178,0,0,1-.133.091l.12.212c-.067-.025-.115-.014-.14-.108-.015.163.153.365.1.6-.107-.1-.194.183-.3-.111.264.041-.109-.3.074-.395-.028.046-.075.056-.142.031a.093.093,0,0,1,0-.085c-.3-.212-.007.366-.242.421-.016-.178-.139-.309-.167-.262.094-.021.12.272.068.424-.184-.093-.137.142-.219.147l.105.039c.013.178-.069.175-.161.256-.042-.13.073-.116.021-.165-.043.33-.339-.243-.451,0-.1-.1-.082-.32-.166-.381-.129.27-.246-.182-.4.035.105.221.1.162.016.413.094-.076.191-.144.282-.226l-.129.378c.1-.012.172-.185.237-.163-.054.213-.058.154.032.333-.208-.31-.219.255-.425.051l-.117-.574c-.28-.213-.345.369-.672.28l.115.082c0,.236-.178.066-.257.177a.81.81,0,0,0-.163-.365c.031.142-.219.026-.178.417l-.177-.23c-.256-.059-.183.6-.428.579.037-.223-.09-.34.041-.519-.077.012-.152-.01-.132.124-.062-.11-.175.3-.275.119-.021.089,0,.294-.093.287a.278.278,0,0,1-.013-.1c.013.1-.12.146-.012.352-.326-.577-.677.123-.953-.373a2.253,2.253,0,0,1-.518.2c0-.06-.009-.1.023-.081-.234-.156-.075.574-.341.4-.156-.3.113-.185.024-.3-.1-.637-.287.122-.484-.234l.035-.042c-.142-.2-.284.272-.5.235a.31.31,0,0,0-.007-.1.994.994,0,0,1-.573.558c.046-.255.083-.138.028-.392-.087.041.053.409-.122.489a1.224,1.224,0,0,1-.236-.521l.167-.022c-.107-.349-.216.022-.307-.034l0-.155c-.253.063-.238.453-.517.439l.034.116c-.136.392-.136-.21-.276.084l-.061-.388a2.406,2.406,0,0,1-.517.479,2.189,2.189,0,0,1,.423-.633c-.1,0-.334.046-.38.241.039-.04.086-.138.127-.08-.113.312-.269.478-.469.473.021-.758-.517-.2-.659-.795-.346.273-.68-.134-1.078-.1.124.592-.117.014-.114.621-.095.036-.131.026-.138-.014l-.269-.367c-.059-.177.1-.132.092-.268-.2-.051-.074-.259-.2-.422.017.217-.086.309-.2.224l.148.283c-.3.313-.217-.5-.519-.208l.1-.18c-.152.1-.526-.063-.713.406-.02-.073-.038-.241.029-.278-.334-.111-.828.43-1.065.1l.045-.143c-.07.035-.148.263-.211.107.013-.059.046-.143.017-.155-.041.047-.208.238-.282.144l.1-.157c-.308-.227-.579.353-.879.385a.7.7,0,0,0-.277-.72l.015-.061c-.368-.132-.719.221-1.121.313-.116-.5-.709-.346-.974-.728a.426.426,0,0,1-.177.346c-.056-.11-.313.219-.184-.16l.027.016c.052-.395-.141-.346-.267-.4l-.183.492c-.093-.836-1,0-.936-.738-.125.089-.221.045-.349.133l.11-.259a.99.99,0,0,0-.573-.29l.136-.16c-.14-.08-.521.657-.673.609l.135-.4c-.277-.1-.361-.558-.778-.367.032-.051.1-.154.144-.147-.113-.076-.309-.5-.55.025.181-.328-.238-.175-.462-.112l.163-.225c-.3.239-.351.319-.567.31-.019-.052.084-.207.1-.117-.052-.194-.243.167-.309-.061l.149-.11c-.111-.1-.152-.018-.334.105-.14.036-.2-.225-.074-.443-.1.113-.287.232-.319.121a.271.271,0,0,1,.135-.127c-.094-.3-.5.042-.479-.276a.413.413,0,0,0,.077-.148c.158.119.28.223.256.232.149-.207.049-.332.359-.545-.213.085-.645.291-.7.107a.541.541,0,0,1,.038-.081l.03-.013c-.014-.04-.053-.042-.1-.029a.242.242,0,0,0-.047-.143c.119-.176-.063-.206-.115-.265-.175.218-.225.115-.3.356,0-.024.032-.015.079.01.014,0,.028.008.044,0l-.02.015c.045.028.1.069.162.116-.137.069-.264.116-.232-.061-.146.111-.3.222-.374.27.163-.372.144-.668.281-.866-.281-.045-.5-.282-.97-.026-.1,0,.049-.166.089-.244.065-.007.092.033.16-.006-.19,0-.319-.26-.606-.031,0-.243.311-.161.1-.3l.1-.054c.111-.717-1.241.051-.99-.858a.206.206,0,0,1-.062.129c-.121-.654-1-.842-.873-1.627.01-.2-.2-.1-.408-.1l.244-.178-.39.012c-.359-.109.459-.716-.109-.786l-.165.12c-.017-.117-.264-.281-.039-.356-.038,0-.207.047-.127-.035l.144-.063-.354-.16c.028-.238.588-.193.523-.474a.959.959,0,0,0-.616-.081c0,.041-.064.13-.212.182l-.108-.08c-.449.105-.949.1-1.151.539l.339.12-.189.141-.074-.173c-.165.169.034.175.179.2a.441.441,0,0,0-.2.17l.49.034c-.158.091-.369.044-.409.214.227.014.342-.237.526-.14-.157.172-.324.213-.115.252a.276.276,0,0,1-.248.046c.169.046.174.231.418.179-.191.2.211.287-.186.469a.72.72,0,0,1,.445.09c-.55.089.146.325-.37.552.478-.112.416.313.755.378-.04.009-.116.026-.106,0,.033.132-.064.234-.094.353.339-.192.523-.075.783-.119-.228.335-.434.172-.709.41.26-.179.415.057.6-.135-.125.229-.036.149-.267.383.412-.258.131.048.431-.042-.1.283-.348.306-.11.371C385.783,447.525,385.536,447.491,385.536,447.491Z" transform="translate(-337.02 -442.954)" fill="#fff" fill-rule="evenodd"/>
      <path id="Path_8039" data-name="Path 8039" d="M418.044,528.4l4.268,7.928,8.869,1.6-6.231,6.5,1.213,8.919-8.119-3.908-8.119,3.908,1.213-8.919-6.232-6.5,8.869-1.6Z" transform="translate(-350.378 -497.424)" fill="#fff" fill-rule="evenodd"/>
      <path id="Path_8041" data-name="Path 8041" d="M567.6,624.532c.029-.049.057,0,.079.053a.246.246,0,0,0-.061.051l.005.034A1.147,1.147,0,0,1,567.6,624.532Zm1.094,1.685a.328.328,0,0,0-.115.025c-.037-.09-.055-.187-.028-.191C568.556,626.117,568.632,626.151,568.694,626.217Zm-3.168,1.742c.138-.026-.021-.365-.041-.576.136-.141.137.243.236.411.079-.119.076-.464.153-.47a.345.345,0,0,1,.041.152c.036-.309.313-.092.346-.478a.5.5,0,0,1,.038.084,3.746,3.746,0,0,1-.144-.481c.058-.021.052-.252.136-.026-.038,0-.018.1-.016.173l.036-.117c.144.319-.055.137.009.384.095-.14.164-.45.283-.381.107.322-.191.165.012.423l-.179-.088c.246.486-.1-.013.149.51.219.046.172-.22.388-.178-.005-.194-.086-.263-.093-.457.181-.4.437.757.518.268-.009-.231-.1-.646.1-.469l.056.379c.194-.016-.045-.556.218-.364.007.154-.11.162-.069.2.207.253.029-.232.124-.26l.113.318c.182-.108.33-.4.528-.524a.485.485,0,0,0,.091.295c.223-.247.591-.144.915-.037l.012-.31c.024,0,.083.112.075.174.136.072-.051-.177-.037-.3.052-.037.128.135.119.23.105-.293.346-.668.634-.432l-.009.094c.186.065-.024-.619.2-.41l-.009.057c.357.008.617-.368,1-.039-.1-.411.377.064.2-.493.278.208.262.325.585.417.077,0-.025-.378.037-.465l.109.286,0-.341.189.32.05-.1c-.038,0-.114-.1-.14-.188.072-.175.371.083.43.228l.2-.355a.481.481,0,0,1-.005.264c.042-.352.144.289.182-.033a.859.859,0,0,1-.074-.233.239.239,0,0,0,.387-.037l.055.205c.235-.035.414-.273.656-.364-.123-.057-.24-.4-.184-.463l.151.288c-.03-.2-.119-.085-.119-.347.1,0,.2.315.187.433l.066-.146a2.191,2.191,0,0,1,.077.26c-.032-.2.312.225.244-.123l.044.086c.242-.091.306-.241.492-.341-.105-.258-.005-.235-.037-.467.175.02.419.152.579.055.063-.18-.06-.232-.072-.408.109.229.27.132.255.338a1.023,1.023,0,0,0,.414-.463c-.071-.083-.12-.111-.14-.2.029-.059.149.051.193.165v.029c.129-.473.976.38.985-.206v.03l.116-.365c.127-.013.018.2.164.307.071-.507.426-.141.512-.5.49.594.549-.328.979-.007l-.092-.151c-.021-.182.114.057.174.073-.067-.12-.133-.112-.141-.215.381-.423,1.1-.249,1.655-.38.2-.054-.329-.859.089-.609l.092.323c.167-.538.731-.383.915-.863.016.077.062.163.029.181.189.168.276-.138.181-.308.065-.01.1.146.181.215.143.082.034-.365.19-.18a.123.123,0,0,1,.013.1c-.009-.127.237-.1.055-.31.2.043.186-.242.367-.164-.089-.305.291,0,.092-.391.217.393.4.178.377-.052.043.133.141.079.205.26.089-.061.13-.183,0-.371.444.358.113-.574.563-.044a3.493,3.493,0,0,1,.5-.9c.228.385-.244.2.014.593.134-.3.063-.7.348-.75.091.016.07.185.09.262.131-.3.471-.232.535-.576a.236.236,0,0,1,.024.13c.031-.039.127-.006.012-.174l-.009.071c-.223-.206-.181-.621-.259-.757.252.533.274-.009.573.679a.428.428,0,0,0-.1-.262c.059.008.116.066.162.221.079-.187-.09-.335.039-.416a1.641,1.641,0,0,1,.1.237c-.041-.2-.083-.407.07-.41.026.054.082.109.049.13.168-.149.028-.636.332-.617.18.394.148.07.366.369l.047-.165-.145-.119c.1-.059.03-.338.18-.293l.016.173.138-.178-.179-.048c-.013-.222-.276-.379-.093-.378,0,.048.1-.06.27.086h0c-.021-.128-.044-.262.078-.234.086.084.221.345.277.4-.131-.285.173-.22.041-.529a1.1,1.1,0,0,0,.166.263l-.106-.231c.09.036.119.063.2.194.159-.05-.313-.354-.04-.295,0,.025.027.052.024.1.221-.018.2-.343.416-.346.259.271-.067.166.163.385.163-.207.154-.675.4-.75l-.061-.006c-.286-.443.3.1.25-.173a.657.657,0,0,0,.114.206c.183-.032.2-.309.3-.593l.057.127c.151.038.248-.1.371-.115-.058-.126,0-.145-.144-.279.73.412.243-.7.869-.368-.026.022.007.143.029.126l.12-.246c-.157-.169-.112-.09-.264-.2-.059-.125-.07-.249-.021-.286.007.185.23.287.348.359-.05-.05-.086-.121-.133-.174.356.24-.267-.37.039-.267l.068.1c.012-.091-.042-.254.034-.272.189.189.024.141.158.314.067-.075-.166-.517.069-.369.015.085-.032.124-.018.209.27.179.231.11.316.1h.208l-.086-.037c-.341-.617.115-.262-.044-.72.147.435.137.209.318.448.086.037.2.067.235.144-.094-.238.224.061.084-.285.066.072.071-.047.213.152.031-.126-.126-.114-.2-.213-.091-.356.545.065.429-.43.031-.27-.153-.541-.119-.782a.482.482,0,0,1,.191.3c.169.044.209-.024.208-.168a.524.524,0,0,0,.2.181c.041-.067-.191-.3-.023-.254a2.805,2.805,0,0,1,.2.342c.009-.125-.041-.318-.028-.443.129.111.125.229.172.332a.528.528,0,0,0-.046-.509l-.114-.029c.021-.034.166.16.177.214.07.215-.158.013-.226-.057l.01-.089c-.425-.384-.141.237-.264.3l-.228-.347.121.346c-.092-.062-.258-.225-.248-.313-.206-.094.032.165-.178.044a.094.094,0,0,1-.044-.057l.01.152c-.043-.077-.2-.211-.119-.2-.28-.076,0,.406-.251.207l-.006-.028c-.083.252.18.245.278.626l-.571-.5.179.247c-.026.007-.076.019-.147-.079.066.215.1.091.183.274-.263-.139-.156.3-.484-.054.116.2.2.067.207.268-.358-.378-.051.158-.281.041-.146-.227.018-.18-.212-.3.24.389-.216.053-.228.175.225.282-.049.238-.085.425-.069-.1-.334.024-.519.009l-.035-.05c.208.3.053.332.018.453a.741.741,0,0,1-.188-.361l-.075.059a.29.29,0,0,1,.045.241l-.149-.229c-.092.088-.007.407-.249.362.148.206.54.478.5.717-.09-.1-.238-.286-.237-.358,0,.023.028.122-.033.094l-.087-.224c-.123-.036.087.175.026.195-.119-.155-.121-.084-.21-.212,0-.024.091.033.063-.042a.446.446,0,0,1-.323-.131c.073.085.161.208.137.258-.092.088-.178-.16-.3-.2.058.127-.092.063.085.3-.031.021-.119-.083-.179-.137.026.142-.222.214.025.417l.026.007c0,.007,0,.009,0,.017h0c0,.362-.459.138-.554.367l-.058-.079c-.036.167-.188.224-.137.449-.03.023-.177-.091-.233-.194-.034.118.021.213-.187.169-.022-.2-.116-.1.007-.162-.151.008-.266-.1-.217.2-.11-.231-.261-.2-.266-.1l.177.093a.211.211,0,0,1-.154.107l-.167-.287c-.435-.169.012.822-.536.387.076.227.21.054.314.309-.125.03-.5-.287-.53-.268-.24-.059.149.481-.063.474.085.084.28.331.237.494-.124.031-.4-.324-.392-.444.018-.024.05,0,.071.032a.178.178,0,0,0-.091-.2l.055.106c-.118-.066-.245.035-.323-.145-.011.143.078.181.167.193-.222-.055-.2.129-.4.123.058.04.154.141.133.154-.272.008.041.242-.06.372-.174-.1-.212-.373-.258-.159-.148-.047-.191-.248-.214-.349.008.268-.3.025-.393.036l.01-.121a.125.125,0,0,1-.068.112l.166.172c-.059-.009-.091.011-.144-.071.047.154.244.306.286.533-.115-.066-.079.209-.267-.041.212-.015-.189-.25-.087-.38,0,.048-.036.067-.095.057a.108.108,0,0,1-.03-.079c-.3-.134.126.341-.03.438-.077-.161-.217-.257-.221-.208.063-.038.189.227.206.377-.172-.049-.051.158-.111.179l.094.015c.075.161.013.174-.024.268-.081-.111.01-.121-.046-.156.092.314-.347-.158-.344.084-.115-.07-.183-.275-.271-.317,0,.266-.26-.124-.287.112.162.178.139.125.171.375l.122-.269.048.374c.065-.036.056-.207.116-.2.038.2.013.149.149.3-.278-.247-.064.28-.294.139l-.308-.5c-.289-.13-.109.418-.383.413l.116.048c.1.215-.1.1-.119.221a1.026,1.026,0,0,0-.264-.3c.079.122-.151.076.034.421l-.221-.167c-.213.006.107.588-.082.624-.063-.211-.2-.287-.179-.48-.051.029-.116.026-.047.143-.092-.087-.006.313-.148.182.022.087.119.268.054.289a.378.378,0,0,1-.049-.084c.049.084-.024.168.137.324-.468-.431-.419.308-.821-.065a1.357,1.357,0,0,1-.286.319c-.022-.054-.048-.085-.017-.078-.233-.08.188.536-.076.45-.239-.23,0-.2-.107-.273-.339-.548-.155.185-.448-.084l.008-.047c-.19-.146-.085.325-.245.359a.4.4,0,0,0-.046-.085.873.873,0,0,1-.151.684c-.078-.243,0-.15-.15-.361-.041.064.213.352.129.48a1.452,1.452,0,0,1-.387-.394l.1-.074c-.224-.28-.138.089-.225.067l-.066-.14c-.146.137.034.481-.163.557l.074.094c.079.4-.185-.146-.152.162l-.212-.33a1.9,1.9,0,0,1-.146.587,2.3,2.3,0,0,1,.014-.7.288.288,0,0,0-.156.332c.009-.046,0-.149.054-.108.06.313.02.5-.118.562-.321-.687-.437,0-.8-.478-.11.367-.52.122-.773.3.356.483-.072.054.209.591-.047.066-.076.07-.1.037l-.352-.231c-.122-.137,0-.151-.062-.271-.16.027-.169-.2-.331-.3.112.186.086.3-.029.268l.232.2c-.057.388-.386-.377-.446.008l-.019-.2c-.052.153-.372.176-.271.659-.047-.055-.141-.2-.114-.255-.274.041-.332.713-.647.524l-.041-.143c-.029.059.033.289-.085.179-.021-.057-.041-.144-.066-.142,0,.057-.016.291-.112.238l-.015-.175c-.316-.073-.2.534-.367.717a.676.676,0,0,0-.538-.471l-.021-.059c-.3.076-.333.539-.533.8-.343-.373-.627.035-.987-.108a.531.531,0,0,1,.087.378c-.094-.058-.059.349-.2-.027h.024c-.19-.347-.277-.2-.38-.171l.173.495c-.53-.609-.579.532-.964-.061-.017.145-.1.171-.113.316l-.093-.265a.627.627,0,0,0-.491.132l-.024-.2c-.127.026.119.817.01.872l-.173-.383c-.211.082-.546-.19-.631.244-.017-.06-.05-.176-.021-.205-.1.026-.476-.131-.257.4-.121-.354-.233.036-.3.229l-.068-.268c.012.366.038.459-.069.6-.044-.024-.1-.2-.032-.148-.153-.1,0,.275-.181.178l-.005-.184c-.118.015-.08.1-.079.318-.037.128-.234,0-.326-.232.031.15.03.364-.057.316a.337.337,0,0,1-.027-.182c-.242-.122-.184.395-.392.177a.5.5,0,0,0-.07-.151c.15-.041.274-.065.269-.041-.075-.244-.207-.248-.216-.615-.038.213-.081.665-.232.587a.611.611,0,0,1-.041-.079l0-.031c-.034-.016-.051.015-.062.062-.049-.029-.081-.052-.118-.045-.075-.2-.17-.071-.233-.063.083.266-.008.246.13.445-.014-.016,0-.034.039-.057a.067.067,0,0,0,.017-.034l0,.024a1.321,1.321,0,0,1,.145-.061c-.008.149-.024.278-.134.148.016.181.034.368.042.456-.193-.35-.409-.506-.5-.731-.141.2-.4.221-.379.758-.034.08-.1-.127-.141-.2.016-.059.055-.061.05-.139-.068.159-.3.138-.225.5-.175-.122-.013-.346-.179-.237l0-.115c-.5-.47-.35,1.052-.936.427a.238.238,0,0,1,.078.113c-.53-.2-.873.53-1.439.116-.15-.075-.115.156-.157.347l-.089-.286-.064.366c-.143.285-.472-.657-.62-.14l.067.192c-.093-.02-.253.17-.28-.061,0,.038.009.212-.044.114l-.03-.154-.167.3c-.184-.084-.078-.617-.318-.607a1.019,1.019,0,0,0-.129.587c.036,0,.1.083.129.238l-.071.093c.05.459.031.94.311,1.224.043-.1.074-.2.11-.3l.084.213-.124.035c.1.2.121,0,.151-.131a.574.574,0,0,0,.1.233l.073-.459c.049.175-.005.364.111.446.034-.213-.135-.388-.046-.54.107.2.119.367.168.175a.371.371,0,0,1,.006.25c.049-.154.183-.1.177-.345.121.24.234-.114.309.316,0-.107.063-.362.126-.392-.019.536.258-.018.339.536-.006-.481.284-.277.389-.567,0,.038,0,.116-.022.1.1.017.154.151.232.224a1.775,1.775,0,0,1,.069-.749c.192.342.034.459.149.8-.075-.306.121-.348.025-.6a1.081,1.081,0,0,1,.214.4c-.1-.476.06-.1.06-.4.175.2.136.435.235.258A.378.378,0,0,1,565.526,627.959Z" transform="translate(-450.64 -550.679)" fill="#fff" fill-rule="evenodd"/>
      <path id="Path_8042" data-name="Path 8042" d="M258.4,548.14c.05.024,0,.054-.049.079a.213.213,0,0,0-.055-.054l-.034.007A1.22,1.22,0,0,1,258.4,548.14Zm-1.647,1.139a.31.31,0,0,0-.026-.107c.088-.04.185-.064.188-.038C256.851,549.141,256.819,549.216,256.755,549.279Zm-1.847-2.826c.032.125.36-.052.569-.09.146.115-.236.151-.4.258.121.062.464.029.473.1a.394.394,0,0,1-.149.052c.307.007.107.282.492.28a.468.468,0,0,1-.082.044,4.1,4.1,0,0,1,.472-.175c.024.053.253.029.033.124,0-.035-.1-.008-.173,0l.117.024c-.31.16-.139-.041-.381.04.144.076.457.117.393.233-.313.124-.174-.165-.421.044l.078-.174c-.471.269.009-.092-.5.18-.035.206.227.142.192.348.191-.02.259-.1.45-.121.4.14-.738.466-.25.5.229-.026.638-.145.47.057l-.376.079c.023.181.551-.081.369.179-.152.018-.165-.092-.2-.052-.246.212.233.011.263.1l-.314.129c.113.162.409.281.538.458a.533.533,0,0,0-.291.1c.249.194.152.547.049.857l.307-.007c.005.022-.109.084-.17.081-.071.132.175-.058.3-.052.038.047-.133.128-.226.123.291.083.674.288.445.571l-.094,0c-.061.177.616-.054.409.165l-.057-.006c-.011.339.362.567.04.947.408-.108-.062.358.49.166-.2.272-.32.261-.41.569,0,.074.375-.04.463.016l-.284.115.342-.013-.317.191.1.043c.005-.035.1-.113.186-.141.174.061-.085.355-.229.417l.35.172a.505.505,0,0,1-.261.005c.348.026-.287.148.031.171a.876.876,0,0,1,.231-.079.219.219,0,0,0,.033.366l-.2.06c.03.22.272.381.363.605.056-.119.4-.244.46-.192l-.286.153c.2-.037.083-.116.345-.126,0,.1-.314.2-.431.194l.146.057a2.136,2.136,0,0,1-.259.082c.2-.037-.222.3.124.226l-.085.044c.094.224.238.281.333.456.257-.11.233-.015.463-.053-.021.167-.153.4-.059.554.177.054.23-.066.4-.084-.227.114-.132.263-.336.257a.931.931,0,0,0,.455.376c.083-.071.11-.119.2-.141.057.026-.05.144-.163.191h-.029c.473.1-.361.945.221.925h-.029l.356.1c.011.122-.2.026-.3.172.495.047.144.405.5.47-.58.505.332.511.024.946l.147-.1c.179-.033-.053.111-.067.169.117-.073.107-.133.209-.149.43.326.28,1.015.394,1.537.051.185.842-.364.6.049l-.317.107c.529.126.376.668.85.815-.076.02-.161.069-.178.037-.166.188.135.253.3.155.009.061-.145.1-.212.182-.082.139.36.013.177.17a.133.133,0,0,1-.1.017c.124-.015.1.218.307.036-.041.185.241.162.158.34.3-.1-.005.277.379.073-.39.223-.185.393.04.359-.13.045-.08.137-.258.205.057.082.174.117.363-.018-.364.435.559.089.025.535a3.234,3.234,0,0,1,.874.439c-.386.228-.193-.225-.586.032.289.117.692.037.732.306-.018.087-.184.071-.261.094.289.116.222.434.55.493a.261.261,0,0,1-.128.025c.035.029,0,.121.168.008l-.07-.007c.213-.217.615-.182.752-.259-.533.248-.006.263-.691.558a.449.449,0,0,0,.261-.1c-.011.058-.071.112-.225.158.179.074.331-.09.4.033a2.037,2.037,0,0,1-.236.1c.2-.043.4-.086.4.062-.054.026-.111.079-.129.049.137.158.618.021.587.311-.4.176-.076.141-.381.352l.16.043.124-.139c.053.093.331.025.28.169l-.171.016.168.129.056-.171c.219-.014.386-.265.378-.091-.047,0,.054.092-.1.258h0c.128-.021.261-.043.227.073-.087.082-.352.212-.41.266.288-.127.208.162.521.036a1.205,1.205,0,0,0-.269.157l.234-.1c-.039.085-.068.113-.2.192.045.149.365-.3.294-.041-.024,0-.051.026-.1.024.011.206.323.2.311.4-.283.246-.155-.069-.386.152.188.158.642.157.7.394l.011-.058c.454-.268-.12.285.151.241a.73.73,0,0,0-.21.107c.018.176.287.191.557.292l-.128.052c-.048.144.079.239.084.356.128-.052.142.007.284-.133-.458.689.672.243.3.832-.02-.026-.141,0-.127.026l.235.118c.178-.146.1-.1.215-.247.128-.054.251-.061.284-.015-.184,0-.3.212-.378.323.053-.046.125-.079.181-.123-.264.333.389-.249.259.043l-.1.062c.085.014.248-.031.258.044-.2.175-.139.017-.319.14.067.068.517-.14.35.082-.083.01-.117-.035-.2-.025-.2.255-.13.218-.131.3l0-.01-.023.211.045-.082c.63-.307.241.121.7-.017-.437.127-.216.125-.467.29-.044.082-.084.186-.163.221.24-.082-.081.213.267.091-.075.061.04.07-.166.2.118.035.122-.117.225-.182.354-.074-.117.521.377.426.261.039.543-.128.775-.087a.512.512,0,0,1-.311.172c-.059.159.005.2.146.205a.559.559,0,0,0-.2.18c.062.041.31-.173.252-.013a2.881,2.881,0,0,1-.353.177c.123.014.316-.029.438-.013a.728.728,0,0,1-.342.154.539.539,0,0,0,.505-.028l.038-.107c.032.021-.171.153-.227.162-.217.06,0-.152.076-.214l.087.012c.415-.392-.222-.142-.269-.261l.361-.207-.349.1c.069-.085.244-.238.329-.226.111-.192-.165.026-.027-.172a.1.1,0,0,1,.059-.04l-.149,0c.079-.038.224-.185.208-.107.1-.265-.4-.016-.179-.249l.028,0c-.239-.09-.256.163-.638.243l.538-.529-.257.162c0-.023-.012-.072.091-.137-.216.056-.1.089-.284.166.161-.248-.277-.162.1-.465-.208.1-.084.187-.28.189.4-.331-.149-.054-.013-.273.234-.132.173.025.311-.194-.4.217-.03-.211-.149-.226-.3.206-.225-.058-.4-.1.1-.063.011-.325.044-.5l.052-.032c-.312.191-.333.043-.451.008a.8.8,0,0,1,.371-.171l-.053-.073a.3.3,0,0,1-.241.038l.236-.138c-.08-.089-.4-.014-.34-.245-.214.138-.51.505-.743.468a1.124,1.124,0,0,1,.369-.219c-.023,0-.122.024-.09-.033l.227-.078c.044-.115-.179.081-.194.021.161-.111.091-.114.223-.2.024,0-.038.086.038.06a.436.436,0,0,1,.152-.307c-.088.068-.217.15-.264.127-.081-.09.17-.168.214-.281-.129.053-.057-.09-.3.075-.019-.029.09-.112.148-.169-.141.022-.194-.218-.411.016l-.008.024H268.1c-.355,0-.1-.443-.319-.539l.081-.054c-.16-.037-.206-.185-.429-.138-.02-.03.1-.171.207-.223-.113-.035-.209.018-.149-.184.193-.018.107-.111.156.009,0-.146.12-.256-.174-.215.233-.1.213-.25.119-.256l-.1.17a.191.191,0,0,1-.093-.151l.291-.157c.2-.425-.815.01-.356-.516-.228.073-.062.2-.32.3-.024-.119.307-.477.289-.507.069-.229-.482.144-.466-.06-.087.081-.339.27-.5.229-.026-.118.337-.386.456-.378.024.017,0,.049-.036.069a.187.187,0,0,0,.207-.087l-.107.052c.07-.112-.025-.235.157-.31a.17.17,0,0,0-.2.16c.064-.213-.12-.191-.1-.378-.042.055-.146.149-.158.128,0-.262-.24.041-.364-.055.106-.169.377-.207.17-.251.054-.143.253-.185.353-.207-.264.008-.01-.293-.016-.381l.118.009a.116.116,0,0,1-.107-.066l-.176.161c.012-.057-.006-.088.076-.14-.153.047-.312.239-.536.28.07-.112-.2-.075.053-.259.005.205.255-.185.377-.087-.047,0-.064-.034-.052-.092a.118.118,0,0,1,.079-.029c.145-.291-.34.124-.427-.026.161-.075.26-.213.214-.216.034.061-.231.185-.379.2.055-.168-.152-.049-.169-.106l-.019.09c-.161.075-.171.016-.26-.021.112-.079.118.01.154-.045-.309.091.165-.335-.075-.327.072-.111.278-.18.321-.265-.266.006.127-.252-.108-.272-.179.16-.127.135-.375.172l.264.11-.371.055c.035.062.2.047.193.1-.2.042-.147.017-.3.15.25-.271-.277-.054-.132-.276l.5-.307c.133-.28-.412-.094-.4-.357l-.05.113c-.214.1-.1-.1-.216-.107a1.073,1.073,0,0,0,.3-.262c-.121.079-.072-.142-.417.045l.169-.217c0-.205-.58.119-.611-.061.208-.067.287-.2.476-.187-.027-.049-.023-.111-.139-.042.088-.091-.306,0-.175-.137-.086.024-.265.124-.283.061a.4.4,0,0,1,.082-.05c-.082.05-.164-.017-.321.143.433-.465-.29-.394.082-.793a1.21,1.21,0,0,1-.32-.256c.054-.024.084-.049.077-.021.079-.226-.531.2-.446-.051.228-.238.2-.006.27-.115.542-.349-.183-.138.082-.431l.046.005c.143-.189-.321-.066-.356-.217a.45.45,0,0,0,.084-.049.864.864,0,0,1-.677-.108c.24-.088.148-.011.356-.163-.063-.037-.346.223-.473.149a1.565,1.565,0,0,1,.387-.392l.074.1c.275-.23-.089-.128-.068-.213l.139-.07c-.134-.134-.473.058-.547-.128l-.091.076c-.389.1.144-.186-.159-.137l.324-.222a2.058,2.058,0,0,1-.58-.1,2.213,2.213,0,0,1,.687-.029.267.267,0,0,0-.33-.13c.048.006.148-.01.109.044-.31.077-.5.052-.562-.073.673-.352-.015-.413.448-.791-.369-.079-.124-.482-.3-.708-.473.367-.054-.064-.581.236-.066-.041-.069-.068-.038-.092l.226-.346c.135-.124.148-.008.266-.075-.027-.149.2-.173.3-.33-.184.117-.3.1-.265-.011l-.194.23c-.384-.03.371-.386,0-.422l.2-.029c-.146-.042-.165-.344-.648-.22.054-.048.193-.143.253-.121-.043-.254-.716-.272-.526-.579l.142-.046c-.059-.024-.286.045-.176-.072.057-.023.142-.046.141-.069-.057,0-.288,0-.236-.1l.174-.023c.075-.3-.526-.171-.7-.318a.692.692,0,0,0,.471-.529l.057-.022c-.067-.28-.523-.3-.788-.475.371-.339-.041-.59.1-.936a.556.556,0,0,1-.374.1c.058-.091-.346-.043.029-.187v.024c.345-.193.2-.271.173-.368l-.492.182c.609-.528-.52-.531.062-.917-.144-.01-.172-.084-.315-.095l.262-.1a.565.565,0,0,0-.136-.46l.2-.032c-.026-.119-.811.149-.868.049l.38-.182c-.084-.2.183-.526-.245-.591.058-.017.174-.054.2-.029-.024-.1.132-.462-.4-.227.351-.132-.043-.219-.238-.27l.266-.079c-.365.031-.457.061-.6-.034.022-.043.2-.1.146-.037.1-.151-.276.011-.181-.163l.182-.014c-.017-.112-.1-.071-.318-.059-.127-.028,0-.222.226-.322-.149.037-.361.049-.316-.037a.357.357,0,0,1,.18-.035c.115-.237-.4-.152-.182-.362a.527.527,0,0,0,.149-.075c.044.14.069.257.046.253.24-.086.242-.212.606-.241-.213-.025-.661-.039-.588-.187l.079-.044h.031c.015-.033-.016-.048-.063-.054.026-.049.048-.081.04-.116.2-.082.063-.165.054-.224-.262.1-.244.008-.439.151.016-.015.035,0,.059.034a.064.064,0,0,0,.036.014l-.024,0a1.431,1.431,0,0,1,.066.133c-.15,0-.278-.005-.153-.117l-.452.069c.341-.2.489-.421.709-.519-.207-.12-.236-.368-.769-.308-.08-.027.123-.1.2-.149.059.012.063.048.14.038-.161-.054-.146-.272-.5-.179.116-.176.342-.037.229-.188l.113-.013c.446-.515-1.069-.248-.475-.853a.251.251,0,0,1-.108.084c.179-.523-.578-.777-.206-1.352.064-.15-.164-.094-.356-.114l.278-.114-.368-.023c-.3-.1.609-.518.084-.6l-.185.087c.013-.09-.19-.22.037-.273-.038,0-.209.034-.118-.028l.149-.047-.316-.121c.065-.185.6-.151.569-.381a1,1,0,0,0-.6-.048c0,.035-.07.112-.22.157l-.1-.053a2.326,2.326,0,0,0-1.175.463l.31.054-.2.105-.046-.108c-.184.122.007.111.143.12a.631.631,0,0,0-.221.126l.462.005c-.169.067-.361.044-.431.159.215,0,.372-.173.531-.111-.183.122-.353.153-.158.176a.4.4,0,0,1-.247.036c.157.026.111.157.356.121-.228.14.132.2-.289.322.107-.01.364.016.4.071-.535.042.04.234-.506.37.475-.057.293.233.586.3-.038,0-.115.011-.1-.009-.013.093-.141.159-.209.238a1.863,1.863,0,0,1,.749-.01c-.326.212-.454.077-.788.217.3-.1.354.078.593-.035a1.115,1.115,0,0,1-.38.236c.467-.134.1.045.4.017-.192.183-.424.168-.244.242A.4.4,0,0,1,254.907,546.452Z" transform="translate(-254.496 -506.837)" fill="#fff" fill-rule="evenodd"/>
    </g>
  </g>
</svg>
