<svg xmlns="http://www.w3.org/2000/svg" xmlns:xlink="http://www.w3.org/1999/xlink" width="375" height="812" viewBox="0 0 375 812">
  <defs>
    <clipPath id="clip-path">
      <rect id="Rectangle_1686" data-name="Rectangle 1686" width="296" height="166" transform="translate(0 646)" fill="#fff"/>
    </clipPath>
    <linearGradient id="linear-gradient" x1="0.159" y1="-0.185" x2="0.761" y2="0.436" gradientUnits="objectBoundingBox">
      <stop offset="0" stop-color="#a2a2a2" stop-opacity="0.314"/>
      <stop offset="1" stop-color="#f7f8fb" stop-opacity="0"/>
    </linearGradient>
    <clipPath id="clip-path-2">
      <rect id="Rectangle_1685" data-name="Rectangle 1685" width="132" height="338" transform="translate(243)" fill="#fff"/>
    </clipPath>
    <clipPath id="clip-Onboarding_1">
      <rect width="375" height="812"/>
    </clipPath>
  </defs>
  <g id="Onboarding_1" data-name="Onboarding #1" clip-path="url(#clip-Onboarding_1)">
    <rect width="375" height="812" fill="#fafafa"/>
    <g id="Mask_Group_74" data-name="Mask Group 74" clip-path="url(#clip-path)">
      <path id="Path_377" data-name="Path 377" d="M110.629,111.622c153.358-153.358,208.27-144.23,352.5,0s146.708,205.792,0,352.5-210.968,141.533-352.5,0S-42.73,264.98,110.629,111.622Z" transform="translate(-231.616 645.945)" fill="url(#linear-gradient)"/>
    </g>
    <g id="Mask_Group_73" data-name="Mask Group 73" clip-path="url(#clip-path-2)">
      <g id="Path_378" data-name="Path 378" transform="translate(243.384 -166.055)" fill="none" opacity="0.5">
        <path d="M110.629,111.622c153.358-153.358,208.27-144.23,352.5,0s146.708,205.792,0,352.5-210.968,141.533-352.5,0S-42.73,264.98,110.629,111.622Z" stroke="none"/>
        <path d="M 287.9593811035156 79.99984741210938 C 266.3463745117188 79.99984741210938 225.7160339355469 109.6715393066406 167.1970520019531 168.1903686523438 C 108.7008666992188 226.6867065429688 79.36721801757812 267.6697082519531 80.01119995117188 290.0008544921875 C 80.91287231445312 321.2697143554688 143.5985412597656 383.9555053710938 167.1970520019531 407.5540161132812 C 203.5435485839844 443.9005126953125 255.4385375976562 492.2215270996094 286.3408813476562 492.2215270996094 C 321.8927001953125 492.2215270996094 385.619384765625 428.4950256347656 406.560546875 407.5540161132812 C 520.6497192382812 293.4648742675781 520.6497192382812 282.279541015625 406.560546875 168.1903686523438 C 382.4405517578125 144.0705261230469 318.369873046875 79.99984741210938 287.9593811035156 79.99984741210938 M 287.9594421386719 -6.103515625e-05 C 339.7105712890625 -6.103515625e-05 389.90478515625 38.3975830078125 463.1290283203125 111.6218566894531 C 607.3591918945312 255.8520202636719 609.8372192382812 317.4143676757812 463.1290283203125 464.1225280761719 C 316.4208984375 610.8305053710938 252.1611938476562 605.6552124023438 110.6285400390625 464.1225280761719 C -30.90411376953125 322.5896911621094 -42.72979736328125 264.9801940917969 110.6285400390625 111.6218566894531 C 186.1283264160156 36.1220703125 237.7761535644531 -6.103515625e-05 287.9594421386719 -6.103515625e-05 Z" stroke="none" fill="#f6f6f6"/>
      </g>
    </g>
  </g>
</svg>
