<svg xmlns="http://www.w3.org/2000/svg" width="152" height="150" viewBox="0 0 152 150">
  <g id="Group_4521" data-name="Group 4521" transform="translate(-112 -242)">
    <g id="no_meeting">
      <rect id="Rectangle_1723" data-name="Rectangle 1723" width="150" height="150" transform="translate(113 242)" fill="none"/>
      <path id="Path_7110" data-name="Path 7110" d="M600.658,1923.816a51.414,51.414,0,1,0-51.237-51.413A51.323,51.323,0,0,0,600.658,1923.816Z" transform="translate(-411.371 -1534.293)" fill="#eaeef9"/>
      <path id="Path_7111" data-name="Path 7111" d="M569.506,1825.456a2.584,2.584,0,1,0-3.248-1.66A2.583,2.583,0,0,0,569.506,1825.456Z" transform="translate(-409.828 -1534.347)" fill="#eaeef9"/>
      <path id="Path_7112" data-name="Path 7112" d="M630.433,1913.433H537.34l17.01-78.524h93.2Z" transform="translate(-412.484 -1533.009)" fill="#fff"/>
      <path id="Path_7113" data-name="Path 7113" d="M630.433,1913.433H537.34l17.01-78.524h93.2Z" transform="translate(-412.484 -1533.009)" fill="#d5dae8"/>
      <path id="Path_7114" data-name="Path 7114" d="M575.547,1913.433H556.268a6.225,6.225,0,0,1-6.186-6.521l3.092-72h4.64Z" transform="translate(-411.311 -1533.009)" fill="#fff"/>
      <path id="Path_7115" data-name="Path 7115" d="M666.522,1913.433H573.429l-15.773-60.315-.1-.415-4.64-17.793h93.2l4.021,15.412.618,2.381.1.415Z" transform="translate(-411.049 -1533.009)" fill="#fff"/>
      <path id="Path_7116" data-name="Path 7116" d="M650.748,1852.7h-93.2l-4.64-17.793h93.2l4.021,15.412Z" transform="translate(-411.049 -1533.009)" fill="#eff3fb"/>
      <path id="Path_7117" data-name="Path 7117" d="M575.656,1847.119a3.31,3.31,0,1,0-3.3-3.31A3.3,3.3,0,0,0,575.656,1847.119Z" transform="translate(-409.254 -1532.493)" fill="#adb6c8" opacity="0.3"/>
      <path id="Path_7118" data-name="Path 7118" d="M625.491,1847.119a3.31,3.31,0,1,0-3.3-3.31A3.3,3.3,0,0,0,625.491,1847.119Z" transform="translate(-404.656 -1532.493)" fill="#adb6c8" opacity="0.3"/>
      <path id="Path_7119" data-name="Path 7119" d="M575.214,1846.508a1.136,1.136,0,0,1,0-2.272c2.268,0,4.639-3.211,4.639-8.072v-.415c-.1-4.751-2.474-7.646-4.639-7.646-2.062,0-4.33,2.785-4.639,7.133H568.2c.309-5.374,3.3-9.415,6.906-9.415,3.815,0,6.8,4.446,7.011,10.136v.317C582.224,1841.964,579.131,1846.508,575.214,1846.508Z" transform="translate(-409.637 -1533.848)" fill="#adb6c8"/>
      <path id="Path_7120" data-name="Path 7120" d="M624.765,1846.508a1.136,1.136,0,0,1,0-2.272c2.269,0,4.64-3.211,4.64-8.072v-.415c-.1-4.751-2.474-7.646-4.64-7.646-2.061,0-4.33,2.785-4.639,7.133h-2.371c.31-5.374,3.3-9.415,6.907-9.415,3.814,0,6.8,4.446,7.01,10.136v.317C631.776,1841.964,628.683,1846.508,624.765,1846.508Z" transform="translate(-405.064 -1533.848)" fill="#adb6c8"/>
      <path id="Path_7121" data-name="Path 7121" d="M526.486,1906.7h150" transform="translate(-413.486 -1526.385)" fill="none" stroke="#d5dae8" stroke-linecap="round" stroke-linejoin="round" stroke-miterlimit="10" stroke-width="2"/>
      <path id="Path_7122" data-name="Path 7122" d="M625.771,1872.684a1.033,1.033,0,0,1-1.031-1.038.974.974,0,0,1,1.031-1.027h3.195a1.032,1.032,0,0,1,0,2.064Z" transform="translate(-404.42 -1529.714)" fill="#d5dae8" opacity="0.3"/>
      <path id="Path_7123" data-name="Path 7123" d="M587.192,1903.231a1.257,1.257,0,0,1-1.031-.721l-1.649-6.106h-8.144a1.038,1.038,0,0,1,0-2.075h7.526l-2.578-9.1H573.48a1.033,1.033,0,0,1-1.031-1.038.968.968,0,0,1,1.031-1.027H580.7l-2.578-9.11H570.7a1.032,1.032,0,0,1-1.03-1.038.974.974,0,0,1,1.03-1.027H577.6l-2.577-9.109h-7.114a1.031,1.031,0,0,1-1.031-1.027.977.977,0,0,1,1.031-1.037h6.495l-1.031-3.725a1.074,1.074,0,0,1,.722-1.245h.309a1.248,1.248,0,0,1,1.031.732l1.237,4.238h8.247a1.032,1.032,0,0,1,0,2.064h-7.628l2.578,9.109h12.989l-4.123-14.9a1.073,1.073,0,0,1,.721-1.245h.309a1.246,1.246,0,0,1,1.031.732l1.238,4.238h4.432a.977.977,0,0,1,1.031,1.037,1.034,1.034,0,0,1-1.031,1.027h-3.814l2.578,9.109H604a1.03,1.03,0,0,1,1.03,1.027.977.977,0,0,1-1.03,1.038h-8.145l2.578,9.11h13.093l-5.671-20.283h-2.783a1.032,1.032,0,0,1,0-2.064h2.165l-1.031-3.725a1.183,1.183,0,0,1,.1-.83,1.031,1.031,0,0,1,.618-.513h.309a1.235,1.235,0,0,1,1.031.721l1.238,4.238h2.165a1.038,1.038,0,0,1,0,2.075h-1.547l2.577,9.1h13.093l-2.577-9.1h-6.7a1.038,1.038,0,0,1,0-2.075h5.773L619.253,1857a1.062,1.062,0,0,1,.722-1.245h.309a1.235,1.235,0,0,1,1.031.721l1.238,4.238h13.092l-1.03-3.714a1.061,1.061,0,0,1,.721-1.245h.309a1.234,1.234,0,0,1,1.031.721l1.238,4.238h8.041a1.038,1.038,0,0,1,0,2.075h-7.732l2.578,9.1h7.731a1.04,1.04,0,0,1,1.031,1.038.977.977,0,0,1-1.031,1.038h-7.113l2.578,9.1h7.422a1.033,1.033,0,0,1,1.031,1.038.977.977,0,0,1-1.031,1.038h-6.8l2.577,9.1H654.2a1.032,1.032,0,0,1,0,2.064h-6.5l1.547,5.483a1.067,1.067,0,0,1-.722,1.245h-.309a1.237,1.237,0,0,1-1.031-.721l-1.649-6.007H632.45L634,1901.68a1.183,1.183,0,0,1-.1.83,1.069,1.069,0,0,1-.618.513h-.31a1.234,1.234,0,0,1-1.03-.721l-1.65-5.9H617.192l1.546,5.374a1.066,1.066,0,0,1-.721,1.245h-.309a1.235,1.235,0,0,1-1.031-.721l-1.649-5.9H601.934l1.547,5.374a1.068,1.068,0,0,1-.722,1.245h-.309a1.235,1.235,0,0,1-1.031-.721l-1.649-5.9H586.676l1.547,5.483a1.184,1.184,0,0,1-.1.83,1.109,1.109,0,0,1-.618.513Zm29.381-8.9h28.351l-2.578-9.1H629.254l.927,3.31a1.189,1.189,0,0,1-.1.83,1.033,1.033,0,0,1-.619.513h-.309a1.236,1.236,0,0,1-1.031-.721l-1.03-3.834h-3.918a1.031,1.031,0,0,1-1.031-1.027.978.978,0,0,1,1.031-1.038h3.3l-2.577-9.1H610.9l2.578,9.1h3.2a1.034,1.034,0,0,1,1.031,1.038.969.969,0,0,1-1.031,1.027H614Zm-15.257,0h13.092l-2.577-9.1H598.738Zm-15.258,0H599.15l-2.577-9.1h-3.814a1.032,1.032,0,0,1,0-2.064h3.3l-2.578-9.11H580.388l2.577,9.11h3.4a1.032,1.032,0,0,1,0,2.064h-2.784Zm42.68-11.163H641.83l-5.67-20.283h-13.2Z" transform="translate(-409.758 -1531.086)" fill="#d5dae8" opacity="0.3"/>
      <path id="Path_7124" data-name="Path 7124" d="M597.316,1871.927a9.784,9.784,0,0,1-9.254-6.674,1.627,1.627,0,1,1,3.085-1.038,6.645,6.645,0,0,0,6.169,4.456,6.428,6.428,0,0,0,6.169-4.456,1.627,1.627,0,1,1,3.085,1.038A9.563,9.563,0,0,1,597.316,1871.927Z" transform="translate(-407.814 -1530.409)" fill="#adb6c8"/>
      <path id="Path_7125" data-name="Path 7125" d="M621,1871.927a9.784,9.784,0,0,1-9.254-6.674,1.627,1.627,0,1,1,3.085-1.038,6.645,6.645,0,0,0,6.169,4.456,6.428,6.428,0,0,0,6.169-4.456,1.627,1.627,0,1,1,3.085,1.038A9.562,9.562,0,0,1,621,1871.927Z" transform="translate(-405.629 -1530.409)" fill="#adb6c8"/>
      <path id="Path_7126" data-name="Path 7126" d="M613.348,1891.045a3.938,3.938,0,1,0-3.941-3.932A3.935,3.935,0,0,0,613.348,1891.045Z" transform="translate(-405.836 -1528.556)" fill="#43d477"/>
      <path id="Path_7127" data-name="Path 7127" d="M538.032,1825.749v-5.079h19.628v5.079L544.267,1841.9h13.625v5.079H537.34V1841.9l13.393-16.155Z" transform="translate(-412.484 -1534.323)" fill="#43d477"/>
      <path id="Path_7128" data-name="Path 7128" d="M561.213,1854.933V1851.7h12.7v3.233l-8.544,10.388h8.774v3.233H560.751v-3.233l8.545-10.388Z" transform="translate(-410.324 -1531.459)" fill="#43d477"/>
    </g>
  </g>
</svg>
