<svg id="More_Square" data-name="More Square" xmlns="http://www.w3.org/2000/svg" width="9.167" height="9.167" viewBox="0 0 9.167 9.167">
  <path id="More_Square-2" data-name="More Square" d="M6.572,9.167H2.6A2.514,2.514,0,0,1,0,6.458V2.713A2.516,2.516,0,0,1,2.6,0H6.572A2.514,2.514,0,0,1,9.167,2.713V6.458A2.512,2.512,0,0,1,6.572,9.167Zm.064-5.133a.55.55,0,1,0,.545.549A.55.55,0,0,0,6.637,4.034Zm-2.053,0a.55.55,0,1,0,.55.549A.55.55,0,0,0,4.583,4.034Zm-2.053,0a.55.55,0,1,0,.55.549A.55.55,0,0,0,2.53,4.034Z" transform="translate(0 0)" fill="#a9aeb2"/>
</svg>
