<svg id="Iconly_Bold_More_Circle" data-name="Iconly/Bold/More Circle" xmlns="http://www.w3.org/2000/svg" width="24" height="24" viewBox="0 0 24 24">
  <g id="More_Circle" data-name="More Circle" transform="translate(2 2)">
    <path id="More_Circle-2" data-name="More Circle" d="M10,20A10,10,0,0,1,2.926,2.93,10,10,0,1,1,10,20ZM14.48,8.8A1.2,1.2,0,1,0,15.67,10,1.2,1.2,0,0,0,14.48,8.8ZM10,8.8A1.2,1.2,0,1,0,11.19,10,1.2,1.2,0,0,0,10,8.8Zm-4.48,0A1.2,1.2,0,1,0,6.71,10,1.2,1.2,0,0,0,5.52,8.8Z" transform="translate(0 0)" fill="#a9aeb2"/>
  </g>
</svg>
