<svg xmlns="http://www.w3.org/2000/svg" width="150" height="150" viewBox="0 0 150 150">
  <g id="Group_4504" data-name="Group 4504" transform="translate(-113 -339)">
    <rect id="Rectangle_1723" data-name="Rectangle 1723" width="150" height="150" transform="translate(113 339)" fill="none"/>
    <g id="Group_4517" data-name="Group 4517" transform="translate(-803.7 -1249.863)">
      <path id="Path_7184" data-name="Path 7184" d="M925.657,1619a3.323,3.323,0,0,0,2.143-4.144,3.417,3.417,0,0,0-4.287-2.151,3.322,3.322,0,0,0-2.143,4.144A3.417,3.417,0,0,0,925.657,1619Z" transform="translate(0.265 2.952)" fill="#eaeef9"/>
      <path id="Path_7185" data-name="Path 7185" d="M931.924,1609.164a2.256,2.256,0,1,0-2.859-1.427A2.18,2.18,0,0,0,931.924,1609.164Z" transform="translate(1.287 1.922)" fill="#eaeef9"/>
      <path id="Path_7186" data-name="Path 7186" d="M1039.439,1632.621a4.9,4.9,0,0,0,.294-7.155,5.16,5.16,0,0,0-7.155-.283,4.887,4.887,0,0,0-.283,7.144A5.136,5.136,0,0,0,1039.439,1632.621Z" transform="translate(14.76 4.449)" fill="#eaeef9"/>
      <path id="Path_7187" data-name="Path 7187" d="M1045.677,1640.874a2.124,2.124,0,1,0-3-.147A1.957,1.957,0,0,0,1045.677,1640.874Z" transform="translate(16.243 6.204)" fill="#eaeef9"/>
      <path id="Path_7188" data-name="Path 7188" d="M930.731,1715.753a2.121,2.121,0,1,0-3-.136A2.076,2.076,0,0,0,930.731,1715.753Z" transform="translate(1.051 16.101)" fill="#eaeef9"/>
      <path id="Path_7189" data-name="Path 7189" d="M985.8,1737.009a66.385,66.385,0,1,0-66.6-66.458A66.523,66.523,0,0,0,985.8,1737.009Z" transform="translate(0 1.854)" fill="#eaeef9"/>
      <path id="Path_7190" data-name="Path 7190" d="M1027.985,1633.788v5.129h-5.4l-76.777-.26a16.5,16.5,0,0,1-4.345-.657c-.131,0-.264-.136-.4-.136a12.211,12.211,0,0,1-4.742-2.763,6.174,6.174,0,0,1-1.843-4.076c0-2.774,2.238-4.88,5.4-6.193a10.821,10.821,0,0,1,3.687-.928c.526,0,1.054-.125,1.581-.125h72.827a9.926,9.926,0,0,1,2.106.26,7.256,7.256,0,0,1,1.585.532A9.841,9.841,0,0,1,1027.985,1633.788Z" transform="translate(2.019 4.436)" fill="#fff"/>
      <path id="Path_7191" data-name="Path 7191" d="M1027.374,1637.98h-5l-76.777-.26a16.506,16.506,0,0,1-4.345-.656c-.133,0-.264-.136-.4-.136a12.211,12.211,0,0,1-4.741-2.763,9.807,9.807,0,0,1,3.556-2.241,11.078,11.078,0,0,1,3.688-.917,6.212,6.212,0,0,1,1.581-.136h72.827a9.908,9.908,0,0,1,2.106.272,7.212,7.212,0,0,1,1.585.521A10.38,10.38,0,0,1,1027.374,1637.98Z" transform="translate(2.234 5.373)" fill="#020305" opacity="0.1"/>
      <g id="Group_4445" data-name="Group 4445" transform="translate(936.371 1635.722)">
        <path id="Path_7192" data-name="Path 7192" d="M1037.352,1646.079v64.658a7.983,7.983,0,0,1-8.038,8.038H951.75a23.646,23.646,0,0,1-14.618-5.536,6.427,6.427,0,0,1-2.37-4.868v-7.246c0-7.37,0-17.254-.133-27.262v-4.472c0-5.264,0-10.54-.131-15.545v-4.472c0-9.884-.131-17.254-.131-18.964,0,2.9,2.765,5.525,6.452,6.578.132,0,.264.136.4.136a15.723,15.723,0,0,0,4.346.657l76.779.4h6.85A7.825,7.825,0,0,1,1037.352,1646.079Z" transform="translate(-934.367 -1630.41)" fill="#fff"/>
      </g>
      <path id="Path_7193" data-name="Path 7193" d="M1012.737,1663.68a9.568,9.568,0,0,0-6.85,2.763,9.873,9.873,0,0,0-2.887,6.85v.521a9.79,9.79,0,0,0,9.737,9.216h15.545V1663.68Z" transform="translate(11.075 9.71)" fill="#fff" opacity="0.1"/>
      <g id="Group_4446" data-name="Group 4446" transform="translate(1013.282 1669.699)">
        <path id="Path_7194" data-name="Path 7194" d="M1028.374,1660.42v2.366h-16.337a9.483,9.483,0,0,0-6.838,2.774,10.026,10.026,0,0,0-2.9,6.442v.532a9.724,9.724,0,0,0,9.737,9.748h15.805a2.1,2.1,0,0,0,1.721-.657,1.062,1.062,0,0,0,.26-.532v-19.485C1029.823,1660.941,1029.167,1660.545,1028.374,1660.42Z" transform="translate(-1002.3 -1660.42)" fill="#f8f8f8"/>
      </g>
      <path id="Path_7195" data-name="Path 7195" d="M1010.887,1677.593a5.8,5.8,0,1,0-5.8-5.8A5.852,5.852,0,0,0,1010.887,1677.593Z" transform="translate(11.351 10.016)" fill="#dadfec"/>
      <path id="Path_7196" data-name="Path 7196" d="M966.031,1676.7a4.014,4.014,0,1,0-4.017-4.019A4.068,4.068,0,0,0,966.031,1676.7Z" transform="translate(5.658 10.369)" fill="#43d477"/>
      <path id="Path_7197" data-name="Path 7197" d="M993.234,1676.7a4.014,4.014,0,1,0-4.017-4.019A3.967,3.967,0,0,0,993.234,1676.7Z" transform="translate(9.253 10.369)" fill="#43d477"/>
      <path id="Path_7198" data-name="Path 7198" d="M966.456,1660.47l-8.838,4.778,1.193,2.208,8.837-4.766Z" transform="translate(5.077 9.285)" fill="#989fb0"/>
      <path id="Path_7199" data-name="Path 7199" d="M992.421,1660.42l-1.192,2.208,8.838,4.766,1.194-2.208Z" transform="translate(9.519 9.279)" fill="#989fb0"/>
      <path id="Path_7200" data-name="Path 7200" d="M979.711,1684.861c2.588,0,4.686-1.574,4.686-3.51s-2.1-3.521-4.686-3.521-4.687,1.574-4.687,3.521S977.122,1684.861,979.711,1684.861Z" transform="translate(7.377 11.58)" fill="#43d477"/>
      <path id="Path_7201" data-name="Path 7201" d="M1048.183,1595.087a81,81,0,0,0-39.9,1.37c-2.638.8-5.5,1.834-7.565,3.668a11.188,11.188,0,0,0,5.154,19.5,7.328,7.328,0,0,0,7.461-2.411,6.774,6.774,0,0,0-.691-7.8,9.143,9.143,0,0,0-7.563-3.091,19.154,19.154,0,0,0-7.916,2.411,35.293,35.293,0,0,0-16.739,20.4,34.488,34.488,0,0,0-1.465,13.065" transform="translate(7.884 0.398)" fill="none" stroke="#c9d4e2" stroke-miterlimit="10" stroke-width="2" stroke-dasharray="4 4"/>
      <path id="Path_7202" data-name="Path 7202" d="M1046.7,1592.5c-.113,1.721-.227,3.329-1.495,3.668s-1.834-.8-2.638-2.4c-.793-1.494-.34-3.1,1.042-3.442C1044.864,1589.971,1046.924,1590.436,1046.7,1592.5Z" transform="translate(16.253 0)" fill="#dae2eb"/>
      <path id="Path_7203" data-name="Path 7203" d="M1045.473,1599.98c.351-2.061.691-3.2-.453-3.781-1.257-.566-2.061.464-3.442,1.834a2.4,2.4,0,0,0,.691,3.668A2.176,2.176,0,0,0,1045.473,1599.98Z" transform="translate(16.096 0.77)" fill="#dae2eb"/>
      <path id="Path_7204" data-name="Path 7204" d="M1047,1596.44a1.7,1.7,0,0,1-1.483,1.494h-1.155c-1.6-.226-2.865-1.268-2.751-2.3s1.608-1.6,3.442-1.37a2.141,2.141,0,0,1,.917.227,1.751,1.751,0,0,1,1.03,1.947Z" transform="translate(16.177 0.529)" fill="#989fb0"/>
      <path id="Path_7205" data-name="Path 7205" d="M934.888,1611.957c0-1.947,0-3.895,1.376-4.472,1.491-.566,2.294.8,3.44,2.751,1.033,1.721.574,3.555-.917,4.133C937.525,1614.946,934.888,1614.595,934.888,1611.957Z" transform="translate(2.073 2.265)" fill="#dae2eb"/>
      <path id="Path_7206" data-name="Path 7206" d="M935.621,1603.22c-.23,2.4-.574,3.781.917,4.348s2.293-.679,3.784-2.514a2.814,2.814,0,0,0-1.147-4.245A2.711,2.711,0,0,0,935.621,1603.22Z" transform="translate(2.142 1.379)" fill="#dae2eb"/>
      <path id="Path_7207" data-name="Path 7207" d="M934.483,1607.181a1.737,1.737,0,0,1,1.49-1.721,2.372,2.372,0,0,1,1.261,0c1.835.113,3.441,1.143,3.325,2.287s-1.605,1.947-3.554,1.721a3.388,3.388,0,0,1-1.032-.226A1.919,1.919,0,0,1,934.483,1607.181Z" transform="translate(2.019 2.004)" fill="#989fb0"/>
      <path id="Path_7208" data-name="Path 7208" d="M941.369,1607.27c12.039,0,34.282,7,34.626,32.674" transform="translate(2.929 2.254)" fill="none" stroke="#c9d4e2" stroke-miterlimit="10" stroke-width="2" stroke-dasharray="4 4"/>
    </g>
  </g>
</svg>
