<svg xmlns="http://www.w3.org/2000/svg" width="150.513" height="150" viewBox="0 0 150.513 150">
  <g id="Group_4504" data-name="Group 4504" transform="translate(-113 -339)">
    <rect id="Rectangle_1723" data-name="Rectangle 1723" width="150" height="150" transform="translate(113 339)" fill="none"/>
    <g id="Group_4509" data-name="Group 4509" transform="translate(-406.65 -156.399)">
      <path id="Path_7745" data-name="Path 7745" d="M596.064,643.872a53.7,53.7,0,1,0-53.9-53.8A53.881,53.881,0,0,0,596.064,643.872Z" fill="#eaeef9"/>
      <path id="Path_7746" data-name="Path 7746" d="M586.563,571.372l-1.4-3.9a2.373,2.373,0,0,0-2.3-1.6h-24.6a3.63,3.63,0,0,0-3.7,3.7v46h84v-38.9a3.63,3.63,0,0,0-3.7-3.7h-46A2.466,2.466,0,0,1,586.563,571.372Z" fill="#fff"/>
      <g id="Group_4489" data-name="Group 4489">
        <path id="Path_7747" data-name="Path 7747" d="M556.964,539.572l16.8,29.2a2.085,2.085,0,0,1-.8,2.8l-28.6,16a2.085,2.085,0,0,1-2.8-.8l-21.1-37.8a1.927,1.927,0,0,1,.8-2.8l20.8-11.6Z" fill="#fff"/>
      </g>
      <path id="Path_7748" data-name="Path 7748" d="M541.864,542.672l-13.8,7.7a.593.593,0,0,1-.9-.3.631.631,0,0,1,.2-.9l13.8-7.6a.652.652,0,0,1,.7,1.1Z" fill="#d5ddea"/>
      <path id="Path_7749" data-name="Path 7749" d="M535.164,550.772l-5.3,2.9a.524.524,0,0,1-.8-.2.631.631,0,0,1,.2-.9l5.2-2.9a.631.631,0,0,1,.9.2C535.664,550.072,535.564,550.572,535.164,550.772Z" fill="#d5ddea"/>
      <path id="Path_7750" data-name="Path 7750" d="M542.063,534.572l4.6,8.1a2.561,2.561,0,0,0,3.3.9l7.3-4" fill="#d5ddea"/>
      <path id="Path_7751" data-name="Path 7751" d="M558.664,557.372a21.216,21.216,0,0,0-3.6-5.4,4.157,4.157,0,0,0-3-1.3,7.755,7.755,0,0,0-3.5,1,40.851,40.851,0,0,0-5.9,3,18.04,18.04,0,0,0-5,3.7c-1.7,2.3-.8,4.6.4,7a21.214,21.214,0,0,0,3.6,5.4,4.254,4.254,0,0,0,4.4,1.1c2.1-.5,6-2.7,7.8-3.8,1.6-1,3.5-1.9,4.7-3.4C560.864,562.372,560.064,559.972,558.664,557.372Zm-14,2.5c-.3-.6-.1-1.1.7-1,2.1.1,4.1.1,6.1.2.8,0,1,.4.7,1.1-1,1.7-2,3.5-3,5.3-.4.6-.9.6-1.2.1C547.664,565.272,544.964,560.372,544.664,559.872Z" fill="#d5ddea"/>
      <path id="Path_7752" data-name="Path 7752" d="M620.564,590.572l-.9-.6a.375.375,0,0,1,0-.6.593.593,0,0,1,.7-.1l.9.6c.2.1.2.4.1.6A.8.8,0,0,1,620.564,590.572Z" fill="#e3eaf2"/>
      <path id="Path_7753" data-name="Path 7753" d="M618.164,588.672l-5.1-4c-.2-.1-.2-.4-.1-.6s.4-.2.7-.1l5.1,4c.2.1.2.4.1.6A.494.494,0,0,1,618.164,588.672Z" fill="#e3eaf2"/>
      <g id="Group_4490" data-name="Group 4490">
        <path id="Path_7754" data-name="Path 7754" d="M670.063,562.972l-19.1,24.7a1.819,1.819,0,0,1-2.7.3l-23.8-18.7a1.819,1.819,0,0,1-.3-2.7l24.8-31.5a1.819,1.819,0,0,1,2.7-.3l17.3,13.6Z" fill="#fff"/>
      </g>
      <path id="Path_7755" data-name="Path 7755" d="M661.964,551.072l-11.5-9a.64.64,0,0,1,.8-1l11.5,9a.722.722,0,0,1,.1.9A.642.642,0,0,1,661.964,551.072Z" fill="#d5ddea"/>
      <path id="Path_7756" data-name="Path 7756" d="M652.764,548.272l-4.3-3.5a.722.722,0,0,1-.1-.9c.2-.3.5-.3.9-.1l4.3,3.5a.722.722,0,0,1,.1.9A.647.647,0,0,1,652.764,548.272Z" fill="#d5ddea"/>
      <path id="Path_7757" data-name="Path 7757" d="M668.963,548.372l-5.3,6.7a2.211,2.211,0,0,0,.4,3.1l6.1,4.8" fill="#d5ddea"/>
      <path id="Path_7758" data-name="Path 7758" d="M662.663,564.472l-6-4.6-6.2-4.9-5.7-4.5a1.473,1.473,0,0,0-2.1.3l-8.2,10.4a1.55,1.55,0,0,0,.2,2.1l18,14.2a1.473,1.473,0,0,0,2.1-.3l8.2-10.4A1.688,1.688,0,0,0,662.663,564.472Zm-19-.1,1.8-2.4,5.5,4.3-1.8,2.4Zm5,5-1.7,2.2-5.5-4.3,1.7-2.2Zm4.7-6.1-1.8,2.4-5.5-4.3,1.8-2.4Zm-5-5,2-2.4,5.5,4.3-1.8,2.4Zm10,12.7-6.1-4.8,1.8-2.4,6.1,4.8Zm-13-10.2-5.9-4.6,1.8-2.4,5.9,4.6Zm-6.5-3.9,5.9,4.6-1.8,2.4-5.9-4.6Zm12.9,10,6.1,4.8-1.8,2.4-6.1-4.8Zm10.5-.8-1.5,1.9-6.1-4.8,1.8-2.4,5.6,4.4A.58.58,0,0,1,662.263,566.072Zm-18.1-15.1,5.4,4.3-1.8,2.4-5.9-4.6,1.5-1.9A.653.653,0,0,1,644.163,550.972Zm-9,10.6,1.3-1.6,5.9,4.6-1.7,2.2-5.5-4.3A.75.75,0,0,1,635.163,561.572Zm18.1,14.9-5.6-4.4,1.7-2.2,6.1,4.8-1.4,1.7A.441.441,0,0,1,653.263,576.472Z" fill="#d5ddea"/>
      <path id="Path_7759" data-name="Path 7759" d="M613.464,586.772l-5.7-.6a.441.441,0,0,1-.4-.6c0-.3.3-.5.7-.4l5.7.6a.441.441,0,0,1,.4.6C614.064,586.672,613.764,586.972,613.464,586.772Z" fill="#fff"/>
      <path id="Path_7760" data-name="Path 7760" d="M640.264,592.172l-6.2,27.7c-.4,1.6-2.3,2.9-4.7,2.9h-67.3c-2.3,0-4.3-1.2-4.7-2.9l-5.1-22.7c-.4-1.7,1.5-3.3,3.9-3.3h38a2.834,2.834,0,0,0,2.5-1.3l1.1-2.4a2.747,2.747,0,0,1,2.5-1.3h36.2C638.764,588.872,640.564,590.472,640.264,592.172Z" fill="#fff"/>
      <g id="Group_4491" data-name="Group 4491">
        <path id="Path_7761" data-name="Path 7761" d="M645.164,588.472l-6.9,42.5a5.269,5.269,0,0,1-5.2,4.4h-75a5.18,5.18,0,0,1-5.2-4.4l-5.7-34.9a4.425,4.425,0,0,1,4.3-5.1h42.3a3,3,0,0,0,2.8-2.1l1.2-3.7a3,3,0,0,1,2.8-2.1h40.3A4.855,4.855,0,0,1,645.164,588.472Z" fill="#fff"/>
      </g>
      <g id="Group_4492" data-name="Group 4492">
        <path id="Path_7762" data-name="Path 7762" d="M622.364,532.872l-3.2,34.7a2.088,2.088,0,0,1-2.4,1.9l-33.8-3.5a2.23,2.23,0,0,1-2-2.4l4.6-44.5a2.088,2.088,0,0,1,2.4-1.9l24.5,2.5Z" fill="#fff"/>
      </g>
      <path id="Path_7763" data-name="Path 7763" d="M612.564,519.772l-1,9.5a2.544,2.544,0,0,0,2.3,2.7l8.6.9" fill="#d5ddea"/>
      <path id="Path_7764" data-name="Path 7764" d="M615.764,558.172l-27.7-3.1a1.155,1.155,0,0,1-1.1-1.3l2.1-17.7a1.287,1.287,0,0,1,1.3-1.1l27.7,3a1.155,1.155,0,0,1,1.1,1.3l-2.1,17.7A1.381,1.381,0,0,1,615.764,558.172Z" fill="#ecf0f8"/>
      <path id="Path_7765" data-name="Path 7765" d="M603.263,553.872l-12.8-1.5,7.2-6.5Z" fill="#d5ddea"/>
      <path id="Path_7766" data-name="Path 7766" d="M613.864,555.072l-18.5-2.2,10.5-9.3Z" fill="#fff"/>
      <path id="Path_7767" data-name="Path 7767" d="M596.663,543.072a2.5,2.5,0,1,0-2.5-2.5A2.476,2.476,0,0,0,596.663,543.072Z" fill="#d5ddea"/>
      <path id="Path_7768" data-name="Path 7768" d="M607.364,525.572l-16.8-1.9c-.2,0-.4-.2-.3-.4v-.2c0-.2.2-.4.4-.3l16.8,1.9c.2,0,.4.2.3.4v.2C607.864,525.472,607.664,525.672,607.364,525.572Z" fill="#d5ddea"/>
      <path id="Path_7769" data-name="Path 7769" d="M607.263,528.772l-17-1.9c-.2,0-.4-.2-.3-.4v-.2c0-.2.2-.4.4-.3l17,1.9c.2,0,.4.2.3.4v.2C607.763,528.572,607.463,528.772,607.263,528.772Z" fill="#d5ddea"/>
      <path id="Path_7770" data-name="Path 7770" d="M607.864,561.472l-21.1-2.4a.441.441,0,0,1-.4-.6c0-.3.3-.5.7-.4l21,2.4a.441.441,0,0,1,.4.6C608.364,561.372,608.164,561.572,607.864,561.472Z" fill="#d5ddea"/>
      <path id="Path_7771" data-name="Path 7771" d="M604.763,531.772l-14.8-1.7a.441.441,0,0,1-.4-.6c0-.3.3-.5.7-.4l14.8,1.7a.441.441,0,0,1,.4.6A.72.72,0,0,1,604.763,531.772Z" fill="#d5ddea"/>
      <path id="Path_7772" data-name="Path 7772" d="M615.664,565.572l-29.4-3.5a.441.441,0,0,1-.4-.6c0-.3.3-.5.7-.4l29.4,3.4a.441.441,0,0,1,.4.6A.752.752,0,0,1,615.664,565.572Z" fill="#d5ddea"/>
      <path id="Path_7773" data-name="Path 7773" d="M585.164,512.572a.841.841,0,0,1-1.1-.4l-1.8-4.5a.828.828,0,0,1,1.5-.7l1.8,4.5C585.864,512.072,585.664,512.472,585.164,512.572Z" fill="#43d477"/>
      <path id="Path_7774" data-name="Path 7774" d="M581.863,516.972a.724.724,0,0,1-.8.2l-4.7-.9a.9.9,0,0,1-.7-1,.764.764,0,0,1,1-.6l4.7.9a.9.9,0,0,1,.7,1C581.963,516.672,581.963,516.872,581.863,516.972Z" fill="#43d477"/>
      <path id="Path_7775" data-name="Path 7775" d="M591.364,512.072c-.1,0-.2-.1-.4-.1a.91.91,0,0,1-.1-1.2l2.9-3.8a.851.851,0,0,1,1.3,1.1l-2.9,3.8A3.092,3.092,0,0,1,591.364,512.072Z" fill="#43d477"/>
      <path id="Path_7776" data-name="Path 7776" d="M616.264,628.672a26.744,26.744,0,0,1-1.7,5,19.623,19.623,0,0,1-8.6,8.5,19.282,19.282,0,0,1-12.8,1.7,19.6,19.6,0,0,1,7.9-38.4,20.8,20.8,0,0,1,9.9,5.3A19.534,19.534,0,0,1,616.264,628.672Z" transform="translate(0.1 0.37)" fill="#fff"/>
      <g id="Iconly_Bold_Play" data-name="Iconly/Bold/Play" transform="translate(580.65 608.4)">
        <g id="Play" transform="translate(2.058 2.057)">
          <path id="Play-2" data-name="Play" d="M15,30A15,15,0,1,1,30,15.009,15.012,15.012,0,0,1,15,30ZM13.292,9.045a2.008,2.008,0,0,0-.913.217,1.878,1.878,0,0,0-.811.9,9.471,9.471,0,0,0-.261,1.057,23.086,23.086,0,0,0-.246,3.777,26.576,26.576,0,0,0,.217,3.661,1.646,1.646,0,0,1,.036.164,5.866,5.866,0,0,0,.311,1.152,1.815,1.815,0,0,0,1.608.984h.058a4.782,4.782,0,0,0,1.346-.405,22.09,22.09,0,0,0,5.777-3.937l.088-.086a5.909,5.909,0,0,0,.405-.463,1.742,1.742,0,0,0,.347-1.054,1.826,1.826,0,0,0-.377-1.131l-.095-.1c-.1-.105-.242-.265-.382-.4a22.166,22.166,0,0,0-5.908-3.995A5.034,5.034,0,0,0,13.292,9.045Z" transform="translate(-0.059 -0.057)" fill="#43d477"/>
        </g>
      </g>
    </g>
  </g>
</svg>
