<svg xmlns="http://www.w3.org/2000/svg" width="150" height="150" viewBox="0 0 150 150">
  <g id="Group_4504" data-name="Group 4504" transform="translate(-113 -339)">
    <rect id="Rectangle_1723" data-name="Rectangle 1723" width="150" height="150" transform="translate(113 339)" fill="none"/>
    <g id="Group_4518" data-name="Group 4518" transform="translate(-46.834 -1266.06)">
      <path id="Path_7264" data-name="Path 7264" d="M236.712,1746.7a70.818,70.818,0,1,0-70.678-70.818A70.71,70.71,0,0,0,236.712,1746.7Z" transform="translate(2.443 0)" fill="#eaeef9"/>
      <path id="Path_7265" data-name="Path 7265" d="M274.85,1638.191a5.716,5.716,0,1,0-5.716-5.715A5.711,5.711,0,0,0,274.85,1638.191Z" transform="translate(-0.839 116.706)" fill="#eaeef9"/>
      <path id="Path_7266" data-name="Path 7266" d="M280.337,1621.067a3.9,3.9,0,1,0-3.9-3.9A3.9,3.9,0,0,0,280.337,1621.067Z" transform="translate(14.022 -4.576)" fill="#eaeef9"/>
      <path id="Path_7267" data-name="Path 7267" d="M163.737,1640.067a3.9,3.9,0,1,0-3.9-3.9A3.9,3.9,0,0,0,163.737,1640.067Z" transform="translate(0 10.718)" fill="#eaeef9"/>
      <path id="Path_7268" data-name="Path 7268" d="M169.883,1702.858a7.249,7.249,0,1,0-7.249-7.249A7.251,7.251,0,0,0,169.883,1702.858Z" transform="translate(11.28 37.007)" fill="#eaeef9"/>
      <path id="Path_7269" data-name="Path 7269" d="M278.949,1628.073V1686.2a6.486,6.486,0,0,1-6.413,6.413h-96.19a6.4,6.4,0,0,1-6.413-6.413v-58.132a6.487,6.487,0,0,1,6.413-6.413h96.19A6.487,6.487,0,0,1,278.949,1628.073Z" transform="translate(3.98 6.541)" fill="#d5ddea"/>
      <path id="Path_7270" data-name="Path 7270" d="M272.723,1640.16v38.755a6.486,6.486,0,0,1-6.413,6.413H185.734v-38.755a6.4,6.4,0,0,1,6.413-6.413Z" transform="translate(10.206 13.831)" fill="#989fb0" opacity="0.3"/>
      <g id="Group_4451" data-name="Group 4451" transform="translate(200.959 1657.476)">
        <path id="Path_7271" data-name="Path 7271" d="M288.451,1713.617H199.092a9.7,9.7,0,0,1-9.758-9.758v-51.441a9.7,9.7,0,0,1,9.758-9.758h89.359a9.7,9.7,0,0,1,9.758,9.758v51.441A9.7,9.7,0,0,1,288.451,1713.617Z" transform="translate(-189.334 -1642.66)" fill="#fff"/>
      </g>
      <path id="Path_7272" data-name="Path 7272" d="M213.784,1683.321H199.564a2.231,2.231,0,0,1,0-4.461h14.219a2.231,2.231,0,0,1,0,4.461Z" transform="translate(14.777 29.081)" fill="#d5ddea"/>
      <path id="Path_7273" data-name="Path 7273" d="M230.284,1683.321H216.064a2.231,2.231,0,0,1,0-4.461h14.219a2.231,2.231,0,0,1,0,4.461Z" transform="translate(21.279 29.081)" fill="#d5ddea"/>
      <path id="Path_7274" data-name="Path 7274" d="M246.784,1683.321H232.565a2.231,2.231,0,0,1,0-4.461h14.219a2.231,2.231,0,0,1,0,4.461Z" transform="translate(27.781 29.081)" fill="#d5ddea"/>
      <path id="Path_7275" data-name="Path 7275" d="M263.284,1683.321H249.064a2.231,2.231,0,0,1,0-4.461h14.219a2.231,2.231,0,1,1,0,4.461Z" transform="translate(34.283 29.081)" fill="#d5ddea"/>
      <path id="Path_7276" data-name="Path 7276" d="M257.3,1667.588a8.364,8.364,0,1,0-8.364-8.364A8.358,8.358,0,0,0,257.3,1667.588Z" transform="translate(35.11 18.048)" fill="#fe7950"/>
      <path id="Path_7277" data-name="Path 7277" d="M249.4,1667.588a8.364,8.364,0,1,0-8.364-8.364A8.358,8.358,0,0,0,249.4,1667.588Z" transform="translate(31.997 18.048)" fill="#ffc529"/>
      <path id="Path_7278" data-name="Path 7278" d="M278.909,1630.16H170.034v13.662H278.909Z" transform="translate(4.019 9.891)" fill="#989fb0"/>
      <path id="Path_7279" data-name="Path 7279" d="M215.038,1668.779H199.425a2.144,2.144,0,0,1-2.091-2.091v-10.037a2.144,2.144,0,0,1,2.091-2.091H214.9a2.144,2.144,0,0,1,2.091,2.091v10.037A1.94,1.94,0,0,1,215.038,1668.779Z" transform="translate(14.777 19.506)" fill="#d5ddea"/>
    </g>
  </g>
</svg>
