<svg xmlns="http://www.w3.org/2000/svg" width="52" height="52" viewBox="0 0 52 52">
  <g id="Group_4701" data-name="Group 4701" transform="translate(-251 -530)">
    <circle id="Ellipse_29" data-name="Ellipse 29" cx="26" cy="26" r="26" transform="translate(251 530)" fill="#1f3b64" opacity="0.1"/>
    <g id="bank" transform="translate(264.45 543.45)">
      <path id="Path_894" data-name="Path 894" d="M24.485,447H.787a1,1,0,0,0-.787.885v1.573a.738.738,0,0,0,.738.737h23.7a.738.738,0,0,0,.738-.737v-1.573A1.03,1.03,0,0,0,24.485,447Z" transform="translate(0 -425.021)" fill="#1f3b64"/>
      <path id="Path_895" data-name="Path 895" d="M24.719,4.974,12.87.057a.738.738,0,0,0-.565,0L.455,4.974A.737.737,0,0,0,0,5.655V7.13a.738.738,0,0,0,.738.738h23.7a.738.738,0,0,0,.738-.738V5.655a.737.737,0,0,0-.455-.681Zm-7.707.681H8.162a.738.738,0,1,1,0-1.475h8.85a.738.738,0,0,1,0,1.475Z" transform="translate(0 0)" fill="#1f3b64"/>
      <path id="Path_896" data-name="Path 896" d="M28.5,375.738v1.475h5.654v-1.475a.738.738,0,0,0-.738-.738H29.238A.738.738,0,0,0,28.5,375.738Z" transform="translate(-27.099 -356.561)" fill="#1f3b64"/>
      <path id="Path_897" data-name="Path 897" d="M48.5,190h3.688v7.621H48.5Z" transform="translate(-46.115 -180.657)" fill="#1f3b64"/>
      <path id="Path_898" data-name="Path 898" d="M388.5,190h3.688v7.621H388.5Z" transform="translate(-369.398 -180.657)" fill="#1f3b64"/>
      <path id="Path_899" data-name="Path 899" d="M368.5,375.738v1.475h5.654v-1.475a.738.738,0,0,0-.738-.738h-4.179A.738.738,0,0,0,368.5,375.738Z" transform="translate(-350.382 -356.561)" fill="#1f3b64"/>
      <path id="Path_900" data-name="Path 900" d="M213.213,216.883a.738.738,0,0,1-.738-.738.738.738,0,0,0-1.475,0,2.216,2.216,0,0,0,1.475,2.086v.373a.738.738,0,1,0,1.475,0v-.373a2.212,2.212,0,0,0-.738-4.3.738.738,0,1,1,.738-.738.738.738,0,1,0,1.475,0,2.216,2.216,0,0,0-1.475-2.086v-.373a.738.738,0,0,0-1.475,0v.373a2.212,2.212,0,0,0,.738,4.3.738.738,0,1,1,0,1.475Z" transform="translate(-200.626 -199.674)" fill="#1f3b64"/>
    </g>
  </g>
</svg>
