<svg id="Swap" xmlns="http://www.w3.org/2000/svg" width="13.334" height="12" viewBox="0 0 13.334 12">
  <path id="Swap-2" data-name="Swap" d="M9.636,11.814a2.963,2.963,0,0,1-.289-.263A11.777,11.777,0,0,1,7.273,8.464a2.707,2.707,0,0,1-.214-.719V7.714a.974.974,0,0,1,.519-.859,4.343,4.343,0,0,1,.694-.187A13.933,13.933,0,0,1,10.2,6.553a11.951,11.951,0,0,1,1.99.131,4.966,4.966,0,0,1,.557.139,1,1,0,0,1,.473.433,1.089,1.089,0,0,1,.114.488,2.583,2.583,0,0,1-.176.642,11.849,11.849,0,0,1-2.1,3.157c-.107.108-.236.224-.267.255a.953.953,0,0,1-.594.2A.909.909,0,0,1,9.636,11.814ZM2.343,10.278l.172-3.052a.623.623,0,1,1,1.245,0l.171,3.052a.794.794,0,1,1-1.588,0Zm-1.2-4.963a4.932,4.932,0,0,1-.556-.139.994.994,0,0,1-.473-.433A1.08,1.08,0,0,1,0,4.256a2.628,2.628,0,0,1,.175-.642A11.841,11.841,0,0,1,2.279.457C2.386.349,2.515.232,2.546.2a.956.956,0,0,1,.6-.2A.912.912,0,0,1,3.7.185a3.058,3.058,0,0,1,.29.263A11.834,11.834,0,0,1,6.061,3.536a2.739,2.739,0,0,1,.214.719v.031a.976.976,0,0,1-.519.858,4.3,4.3,0,0,1-.694.187,13.936,13.936,0,0,1-1.929.115A11.951,11.951,0,0,1,1.143,5.315Zm8.431-.541L9.4,1.722a.794.794,0,1,1,1.588,0l-.171,3.053a.623.623,0,1,1-1.245,0Z" transform="translate(0 0)" fill="#43d477"/>
</svg>
