<svg id="Password" xmlns="http://www.w3.org/2000/svg" width="13.333" height="13.333" viewBox="0 0 13.333 13.333">
  <path id="Password-2" data-name="Password" d="M3.778,13.333A3.657,3.657,0,0,1,0,9.389V3.944A3.658,3.658,0,0,1,3.778,0H9.557a3.657,3.657,0,0,1,3.776,3.944V9.389a3.657,3.657,0,0,1-3.777,3.944ZM8.621,7.166h.886V7.9a.5.5,0,0,0,1,0V6.667a.5.5,0,0,0-.5-.5h-3.8a1.735,1.735,0,1,0,0,1H7.621V7.9a.5.5,0,0,0,1,0V7.167h0Zm-4.8-.5a.735.735,0,1,1,.734.734A.736.736,0,0,1,3.826,6.667Z" fill="#a9aeb2"/>
</svg>
