<svg id="Plus" xmlns="http://www.w3.org/2000/svg" width="9.167" height="9.167" viewBox="0 0 9.167 9.167">
  <path id="Plus-2" data-name="Plus" d="M6.724,9.167H2.443A2.452,2.452,0,0,1,.635,8.528,2.455,2.455,0,0,1,0,6.724V2.443A2.456,2.456,0,0,1,.635.635,2.456,2.456,0,0,1,2.443,0H6.719A2.462,2.462,0,0,1,8.527.635a2.45,2.45,0,0,1,.639,1.808V6.724A2.224,2.224,0,0,1,6.724,9.167ZM2.9,4.2a.375.375,0,0,0-.38.38.384.384,0,0,0,.38.385H4.2v1.3a.38.38,0,1,0,.761,0v-1.3h1.3a.383.383,0,0,0,0-.765h-1.3V2.906a.38.38,0,1,0-.761,0V4.2Z" transform="translate(0 0)" fill="#a9aeb2"/>
</svg>
