<svg xmlns="http://www.w3.org/2000/svg" width="150" height="150" viewBox="0 0 150 150">
  <g id="Group_4504" data-name="Group 4504" transform="translate(-113 -339)">
    <rect id="Rectangle_1723" data-name="Rectangle 1723" width="150" height="150" transform="translate(113 339)" fill="none"/>
    <path id="Path_7632" data-name="Path 7632" d="M851.559,752.687a3.276,3.276,0,1,0-3.276-3.276A3.276,3.276,0,0,0,851.559,752.687Z" transform="translate(-618.834 -398.624)" fill="#43d477" opacity="0.5"/>
    <g id="Group_4505" data-name="Group 4505" transform="translate(-241.665 -1903.17)">
      <path id="Path_6932" data-name="Path 6932" d="M425.946,2385.056a69.393,69.393,0,1,0-69.257-69.393A69.287,69.287,0,0,0,425.946,2385.056Z" transform="translate(0.045 1.5)" fill="#eaeef9"/>
      <path id="Path_6933" data-name="Path 6933" d="M456.291,2266.771a5.6,5.6,0,1,0-5.6-5.6A5.605,5.605,0,0,0,456.291,2266.771Z" transform="translate(34.449 4.905)" fill="#eaeef9"/>
      <path id="Path_6935" data-name="Path 6935" d="M360.415,2265.719a3.825,3.825,0,1,0-3.825-3.825A3.822,3.822,0,0,0,360.415,2265.719Z" transform="translate(3.484 5.82)" fill="#eaeef9"/>
      <path id="Path_6936" data-name="Path 6936" d="M349.511,2328.006a7.1,7.1,0,1,0-7.1-7.1A7.1,7.1,0,0,0,349.511,2328.006Z" transform="translate(31.279 64.164)" fill="#eaeef9" opacity="0.5"/>
      <g id="Group_4424" data-name="Group 4424" transform="translate(455.828 2285.404)">
        <path id="Path_6937" data-name="Path 6937" d="M473.1,2336.492H452.092a2.249,2.249,0,0,1-2.13-1.489c-2.059-6.106-6.6-7.6-17.6-11.925a.819.819,0,0,1-.071-1.489c3.2-1.571,2.627-2.91,2.627-12.28a2.2,2.2,0,0,1-.355-.505,8.285,8.285,0,0,1-1.348-3.62l-.71-.355c-2.13.5-1.987-1.776-2.556-6.175-.212-1.844.071-2.2.852-2.486l.71-.915c-4.188-9.371-2.059-15.258,2.059-17.389a14.725,14.725,0,0,1-1.421-4.043s8.731,1.489,11.712.846c3.833-.778,9.654.137,11.854,5.177,3.62,1.42,5.039,3.77,5.394,6.174.5,3.975-1.7,8.306-2.13,10.013.071.068.071.136.142.218.568.273.781.779.568,2.336-.5,4.194-.426,6.816-2.556,6.175l-1.917,3.333a6.582,6.582,0,0,0-.142.793c-.071.628-.071,1.844-.071,8.8a4.058,4.058,0,0,0,.639,2.268,3.942,3.942,0,0,0,1.988,1.708h.071c4.968,2.062,8.518,3.4,11.144,4.467,5.821,2.349,6.815,2.978,7.312,6.884A3.106,3.106,0,0,1,473.1,2336.492Z" transform="translate(-429.232 -2273.82)" fill="#fff"/>
      </g>
      <path id="Path_6938" data-name="Path 6938" d="M458.864,2295.985a5.8,5.8,0,0,0-.709-3.266,3.75,3.75,0,0,1-.213-.5c-1.634-3.333-5.4-4.754-8.945-4.891-9.085-.5-9.938,1.27-12.776-1.352.851,1.352.993,3.4-.426,6.038-.922,1.844-2.767,2.623-4.4,3.2-4.117-9.37-2.059-15.272,2.059-17.4a14.564,14.564,0,0,1-1.419-4.043s8.732,1.489,11.712.86c3.833-.792,9.654.137,11.854,5.177,3.62,1.421,5.039,3.756,5.394,6.175C461.561,2289.948,459.29,2294.278,458.864,2295.985Z" transform="translate(26.565 11.562)" fill="#f5f6f7"/>
      <path id="Path_6939" data-name="Path 6939" d="M460.326,2322.478c2.2-3.415,1.348-6.6-2.2-10.368,5.821,2.349,6.814,2.978,7.311,6.884a2.99,2.99,0,0,1-2.981,3.415h-2.13Z" transform="translate(37.171 25.599)" fill="#9aa2b2" opacity="0.08"/>
      <path id="Path_6940" data-name="Path 6940" d="M454.109,2310.776v1.64H433.027v-2.131c.5-1.134.355-1.066.355-10.217a2.205,2.205,0,0,1-.355-.506v-.492a8.156,8.156,0,0,0,1.7,2.063l6.6,4.6a4.18,4.18,0,0,0,5.325.082l6.174-5.546c.213-.2.426-.355.639-.56-.071.628-.071,1.844-.071,8.8A5.3,5.3,0,0,0,454.109,2310.776Z" transform="translate(27.984 20.826)" fill="#fff"/>
      <g id="Group_4425" data-name="Group 4425" transform="translate(356.568 2289.093)">
        <path id="Path_6941" data-name="Path 6941" d="M391.094,2319.672c-3.407-.068-3.762-.71-3.762-.71v-5.683c3.62-2.978,6.671-6.461,7.524-11a4.431,4.431,0,0,0,3.478-4.822c-.071-1-.709-1.926-.78-2.991v-1.489a4.71,4.71,0,0,0-.071-1c0-.355-.071-.71-.071-1.052a14.728,14.728,0,0,0-1.774-5.546,16.742,16.742,0,0,0-14.765-8.866,16.366,16.366,0,0,0-3.762.424,15.391,15.391,0,0,0-6.176,2.909c-.354.287-.709.56-1.064.847a.988.988,0,0,1-.284.219,16.12,16.12,0,0,0-4.4,6.817,18.1,18.1,0,0,0-.709,8.018v.423c.071.492.213.423-.142.847a3.292,3.292,0,0,0-.284.505,3.533,3.533,0,0,0-.284,3.115c.852,2.418,2.556,2.063,4.117,3.415a.545.545,0,0,1-.284.137h-.071l-1.774.574c-10.647,3.333-11.854,14.616-.923,16.679a4.2,4.2,0,0,0-1.986.847,16.984,16.984,0,0,0-6.247,10.86,2.051,2.051,0,0,0,2.059,2.349h16.893a1,1,0,0,0,.852-.642c1.561-5.682,5.11-7.663,12.492-10.641l4.259-1.708c.709-.287,1.49-.573,2.343-.929a.85.85,0,0,0-.142-1.625,14.9,14.9,0,0,0-2.556-.355A16.821,16.821,0,0,1,391.094,2319.672Zm-21.65-7.24c0-.71.5-1.489,1.561-2.336a12.364,12.364,0,0,0,1.632,1.762c.5.437.994.861,1.563,1.284a10.661,10.661,0,0,1,1.064.779c.071.068.142.15.213.15.071.069.213.137.284.2v3.484c-.071-.068-.142-.15-.213-.15-.355-.273-.639-.56-.923-.778a14.355,14.355,0,0,0-1.49-.915,4.209,4.209,0,0,1-.5-.356C371.005,2314.495,369.515,2313.5,369.444,2312.432Z" transform="translate(-356.568 -2276.52)" fill="#fff"/>
      </g>
      <path id="Path_6942" data-name="Path 6942" d="M387.073,2309.841a19.942,19.942,0,0,1-1.206,3.333l-18.314-2.91,1.064-4.535a1.82,1.82,0,0,0,.5.273,11.055,11.055,0,0,1,1.49,1,4.677,4.677,0,0,1,.923.779c.071.082.142.15.142.15v-3.483a.977.977,0,0,1-.284-.2c2.981,1.489,6.673,2.268,12-.861-.071,0-.071.069-.142.069v5.682S383.666,2309.773,387.073,2309.841Z" transform="translate(4.021 22.403)" fill="#fff"/>
      <path id="Path_6943" data-name="Path 6943" d="M395.375,2291.965a22.983,22.983,0,0,1-9.582,1.215,24.009,24.009,0,0,1-13.913-5.9c-1.277,3.7-4.472,6.461-8.092,8.1a13.219,13.219,0,0,1-1.49.56v-.137a18.115,18.115,0,0,1,.709-8.019,16.2,16.2,0,0,1,4.4-6.816,1.309,1.309,0,0,1,.284-.219c.355-.273.71-.56,1.064-.847a18.343,18.343,0,0,1,6.176-2.91,16.763,16.763,0,0,1,18.527,8.442,16.29,16.29,0,0,1,1.774,5.478A2.662,2.662,0,0,1,395.375,2291.965Z" transform="translate(2.037 12.591)" fill="#f5f6f7" opacity="0.5"/>
      <path id="Path_6944" data-name="Path 6944" d="M367.293,2301.25a13.349,13.349,0,0,0,1.35,1.489A6.57,6.57,0,0,1,367.293,2301.25Z" transform="translate(3.926 21.624)" fill="#3973f4"/>
      <path id="Path_6945" data-name="Path 6945" d="M377.729,2320.849c-1.35,1.694-3.9,1.776-6.034,1.694,2.272-2.2.993-9.357-6.956-8.51h-.071c-10.932-2.062-9.725-13.346.851-16.679l1.774-.573a.57.57,0,0,1,.284.287,20.626,20.626,0,0,0,3.194,5.532c-4.329,3.62,1.7,4.754,4.614,7.527C377.942,2311.615,380.072,2317.871,377.729,2320.849Z" transform="translate(0.162 19.988)" fill="#fafafb"/>
      <path id="Path_6946" data-name="Path 6946" d="M367.279,2301.3c-.071-.068-.142-.137-.142-.205A.982.982,0,0,0,367.279,2301.3Z" transform="translate(3.868 21.569)" fill="#3973f4"/>
      <g id="Group_4426" data-name="Group 4426" transform="translate(380.477 2263.89)">
        <path id="Path_6947" data-name="Path 6947" d="M466.1,2345.521a4.463,4.463,0,0,1-4.4,5.041H378.512a4.464,4.464,0,0,1-4.4-5.041c.781-5.464,1.987-6.6,10.08-9.863l1.987-.792c3.762-1.489,8.66-3.333,15.261-6.092a6.247,6.247,0,0,0,3.337-3.279,6.421,6.421,0,0,0,.567-2.623v-12.417a6.3,6.3,0,0,1-.567-.778,11.885,11.885,0,0,1-1.988-5.4l-1.066-.506c-3.194.793-2.91-2.622-3.762-9.152-.355-2.691.071-3.265,1.277-3.688l.995-1.353c-6.1-13.838-3.052-22.5,2.981-25.558-1.845-4.4-1.987-5.955-1.987-5.955s12.849,2.131,17.25,1.27c5.607-1.134,14.267.219,17.462,7.677,5.323,2.131,7.382,5.464,7.878,9.152.781,5.82-2.554,12.212-3.194,14.7.071.136.071.2.142.273.852.437,1.135,1.148.852,3.483-.781,6.175-.568,10.012-3.762,9.152l-2.84,4.972a11.251,11.251,0,0,0-.213,1.2c-.142.929-.071,2.773-.071,12.923a5.9,5.9,0,0,0,.994,3.333,6.574,6.574,0,0,0,2.91,2.486c.071,0,.071,0,.142.082,7.311,3.046,12.565,5.027,16.4,6.53C463.9,2338.705,465.252,2339.771,466.1,2345.521Z" transform="translate(-374.071 -2258.07)" fill="#fff"/>
      </g>
      <path id="Path_6948" data-name="Path 6948" d="M434.537,2290.868a9.419,9.419,0,0,0-.993-4.836,6.383,6.383,0,0,1-.284-.711c-2.485-4.958-7.95-6.953-13.2-7.24-13.416-.711-14.623,1.844-18.811-1.98,1.279,1.98,1.421,5.04-.567,8.865-1.421,2.7-4.117,3.907-6.46,4.685-6.1-13.838-3.052-22.5,2.981-25.544-1.988-4.48-2.128-6.037-2.128-6.037s12.847,2.131,17.249,1.27c5.607-1.134,14.267.219,17.462,7.677,5.323,2.131,7.382,5.464,7.879,9.152C438.512,2281.92,435.177,2288.313,434.537,2290.868Z" transform="translate(12.561 5.82)" fill="#f5f6f7"/>
      <path id="Path_6949" data-name="Path 6949" d="M436.812,2329.8c3.265-4.972,1.988-9.657-3.265-15.19,8.588,3.4,10.007,4.467,10.789,10.15a4.463,4.463,0,0,1-4.4,5.04Z" transform="translate(28.175 26.514)" fill="#9aa2b2" opacity="0.07"/>
      <path id="Path_6950" data-name="Path 6950" d="M427.549,2312.569v2.418H396.6v-3.128a6.426,6.426,0,0,0,.567-2.623v-12.418a6.209,6.209,0,0,1-.567-.778v-.71a10.406,10.406,0,0,0,2.554,3.046l9.725,6.816a6.2,6.2,0,0,0,7.879.136l9.085-8.155c.284-.287.639-.573.923-.86-.142.928-.071,2.773-.071,12.922A5.953,5.953,0,0,0,427.549,2312.569Z" transform="translate(14.652 19.457)" fill="#fff"/>
      <path id="Path_6951" data-name="Path 6951" d="M436.812,2342.249a29.581,29.581,0,0,1-1.873,5.505,21.612,21.612,0,0,1-9.472,9.357,21.223,21.223,0,0,1-14.1,1.872,21.589,21.589,0,0,1,8.7-42.292,22.909,22.909,0,0,1,10.9,5.833A21.522,21.522,0,0,1,436.812,2342.249Z" transform="translate(13.764 27.096)" fill="#fff"/>
      <path id="Path_6952" data-name="Path 6952" d="M419.147,2332.5H414.19v-4.958a1.872,1.872,0,0,0-3.744,0v4.958H405.49a1.853,1.853,0,0,0-1.873,1.872,1.789,1.789,0,0,0,1.873,1.871h4.956v4.959a1.872,1.872,0,0,0,3.744,0v-4.959h4.957a1.872,1.872,0,0,0,0-3.743Z" transform="translate(1788.635 422.731) rotate(45)" fill="#ff4949"/>
    </g>
  </g>
</svg>
