<svg id="Iconly_Bold_3_User" data-name="Iconly/Bold/3 User" xmlns="http://www.w3.org/2000/svg" xmlns:xlink="http://www.w3.org/1999/xlink" width="24.689" height="17.956" viewBox="0 0 24.689 17.956">
  <defs>
    <linearGradient id="linear-gradient" y1="-0.327" x2="1" y2="1" gradientUnits="objectBoundingBox">
      <stop offset="0" stop-color="#9effc1"/>
      <stop offset="1" stop-color="#fff"/>
    </linearGradient>
  </defs>
  <g id="_3_User" data-name="3 User">
    <path id="_3_Friends" data-name="3 Friends" d="M5.149,14.9c0-2.443,3.266-3.075,7.139-3.075,3.85,0,7.138.61,7.138,3.053s-3.266,3.074-7.138,3.074C8.437,17.956,5.149,17.345,5.149,14.9Zm16.27.452a5,5,0,0,0-2.98-4.918.05.05,0,0,1-.032-.053.042.042,0,0,1,.036-.029,17.383,17.383,0,0,1,3.64.319,3.1,3.1,0,0,1,2.392,1.462,2.163,2.163,0,0,1,0,1.875c-.517,1.12-2.182,1.481-2.829,1.574l-.03,0A.205.205,0,0,1,21.419,15.356Zm-18.376.23C2.4,15.494.731,15.134.215,14.013a2.147,2.147,0,0,1,0-1.874,3.093,3.093,0,0,1,2.391-1.465,17.556,17.556,0,0,1,3.64-.317.041.041,0,0,1,.035.028.052.052,0,0,1-.031.054,4.993,4.993,0,0,0-2.981,4.916.2.2,0,0,1-.2.233ZM7.564,4.75a4.724,4.724,0,1,1,9.448,0,4.724,4.724,0,1,1-9.448,0ZM18.587,8.8a3.81,3.81,0,0,1-.542-.053.178.178,0,0,1-.119-.275,6.555,6.555,0,0,0-.095-7.42.119.119,0,0,1-.018-.124.146.146,0,0,1,.093-.056A3.936,3.936,0,0,1,18.7.792a4.013,4.013,0,0,1,3.843,5.066A3.939,3.939,0,0,1,18.7,8.8ZM2.145,5.858A4.013,4.013,0,0,1,5.988.792a3.961,3.961,0,0,1,.8.082.151.151,0,0,1,.092.056.117.117,0,0,1-.018.123,6.554,6.554,0,0,0-.094,7.421.179.179,0,0,1-.12.275A3.682,3.682,0,0,1,6.1,8.8H5.993A3.941,3.941,0,0,1,2.145,5.858Z" fill="url(#linear-gradient)"/>
  </g>
</svg>
