<svg xmlns="http://www.w3.org/2000/svg" width="19.668" height="19.668" viewBox="0 0 19.668 19.668">
  <g id="questionmark" transform="translate(-3 -3)">
    <g id="question" transform="translate(3 3)">
      <path id="Path_9662" data-name="Path 9662" d="M12.834,3a9.834,9.834,0,1,0,9.834,9.834A9.845,9.845,0,0,0,12.834,3Zm0,15.129a.756.756,0,1,1,.756-.756A.756.756,0,0,1,12.834,18.129ZM13.59,13.5v.852a.756.756,0,1,1-1.513,0V12.834a.756.756,0,0,1,.756-.756,1.513,1.513,0,1,0-1.513-1.513.756.756,0,1,1-1.513,0A3.026,3.026,0,1,1,13.59,13.5Z" transform="translate(-3 -3)" fill="#fe7950"/>
    </g>
  </g>
</svg>
