<svg xmlns="http://www.w3.org/2000/svg" xmlns:xlink="http://www.w3.org/1999/xlink" width="226.847" height="168.348" viewBox="0 0 226.847 168.348">
  <defs>
    <linearGradient id="linear-gradient" x1="0.5" x2="0.5" y2="1" gradientUnits="objectBoundingBox">
      <stop offset="0" stop-color="#9effc1"/>
      <stop offset="1" stop-color="#43d477"/>
    </linearGradient>
    <linearGradient id="linear-gradient-2" x1="0.217" y1="0.173" x2="1" y2="1.075" gradientUnits="objectBoundingBox">
      <stop offset="0" stop-color="#1f3b64"/>
      <stop offset="1" stop-color="#e2e7ef"/>
    </linearGradient>
    <linearGradient id="linear-gradient-3" x1="0.5" y1="0.981" x2="0.5" y2="-0.111" gradientUnits="objectBoundingBox">
      <stop offset="0" stop-color="#fff" stop-opacity="0.6"/>
      <stop offset="1" stop-color="#fff"/>
    </linearGradient>
    <linearGradient id="linear-gradient-4" x1="0.5" y1="0" x2="0.5" y2="1" xlink:href="#linear-gradient-2"/>
    <linearGradient id="linear-gradient-7" x1="0.5" y1="-0.82" x2="0.5" y2="2.033" gradientUnits="objectBoundingBox">
      <stop offset="0" stop-color="#9effc1"/>
      <stop offset="1" stop-color="#053416"/>
    </linearGradient>
  </defs>
  <g id="Group_3992" data-name="Group 3992" transform="translate(-219.088 -101.737)">
    <g id="Group_3993" data-name="Group 3993" transform="translate(219.088 101.737)">
      <path id="Path_2062" data-name="Path 2062" d="M339.509,158.58c-3.679,8.328-34.736,10.072-43.237-5.232-3.136-5.647-3.594-14.321.7-18.633,7.307-7.329,27.072-.765,36.985,11.052C336.586,148.9,341.3,154.519,339.509,158.58Z" transform="translate(-254.586 -131.634)" fill="#e7e7e7" opacity="0.34"/>
      <path id="Path_2063" data-name="Path 2063" d="M219.088,350.989c5.527-20.224,16.166-47.064,37.633-53.763,18.546-5.787,18.993,8.5,41.584,11.828,59.59,8.776,87.5-74.307,120.077-61.289,20.738,8.289,33.328,35.752,24.9,66.544a89.292,89.292,0,0,1-20.43,36.558Z" transform="translate(-219.088 -186.126)" fill="#e7e7e7" opacity="0.34"/>
      <g id="Group_3992-2" data-name="Group 3992" transform="translate(10.027 165.236)">
        <line id="Line_64" data-name="Line 64" x2="165" transform="translate(13.481 0.247)" fill="none" stroke="#43d477" stroke-linecap="round" stroke-miterlimit="10" stroke-width="5.729"/>
        <line id="Line_65" data-name="Line 65" x2="17.926" transform="translate(187.469)" fill="none" stroke="#43d477" stroke-linecap="round" stroke-miterlimit="10" stroke-width="5.729"/>
        <line id="Line_66" data-name="Line 66" x2="6.993" fill="none" stroke="#43d477" stroke-linecap="round" stroke-miterlimit="10" stroke-width="5.729"/>
      </g>
    </g>
    <g id="Group_3998" data-name="Group 3998" transform="translate(238.049 111.573)">
      <g id="Group_3995" data-name="Group 3995" transform="translate(0 0)">
        <path id="Path_2067" data-name="Path 2067" d="M271.16,150.379A16.656,16.656,0,0,0,258.442,176.9l-2.235,6.765h15.256c9.235,0,17.108-7.555,17.031-16.79A16.646,16.646,0,0,0,271.16,150.379Z" transform="translate(-255.198 -150.365)" opacity="0.72" fill="url(#linear-gradient)"/>
      </g>
      <g id="Group_3996" data-name="Group 3996" transform="translate(10.027 5.683)">
        <path id="Path_2068" data-name="Path 2068" d="M291.628,161.2a16.655,16.655,0,0,1,12.718,26.517l2.235,6.765H291.326c-9.235,0-17.108-7.555-17.031-16.79A16.645,16.645,0,0,1,291.628,161.2Z" transform="translate(-274.294 -161.187)" fill="url(#linear-gradient-2)"/>
      </g>
      <g id="Group_3997" data-name="Group 3997" transform="translate(17.406 16.727)">
        <path id="Path_2069" data-name="Path 2069" d="M296.516,195.048a2.025,2.025,0,0,1-3.05.019l-4.308-4.873a3.385,3.385,0,0,1,.374-4.772h0l5.464,6.393,7.12-8.4a3.385,3.385,0,0,1,4.771-.394h0Z" transform="translate(-288.345 -182.22)" fill="#fff"/>
      </g>
    </g>
    <g id="Group_4007" data-name="Group 4007" transform="translate(272.466 156.488)">
      <path id="Path_2070" data-name="Path 2070" d="M444.62,235.9a.438.438,0,0,0-.056.022,11.746,11.746,0,0,0-3.409.671,12.217,12.217,0,0,0-8.1,10.446,1.474,1.474,0,0,0-.047.381v.7c0,1.468-.006,5.17-.006,10.1-.006,1.939-.009,4.065-.009,6.322,0,1.131-.006,2.289-.006,3.475v.393q0,1.194,0,2.417v3.649q0,1.986,0,3.99c-.006,3.871-.009,7.786-.009,11.508v.653c0,.427,0,.855,0,1.283v1.764c0,1.143-.006,2.26-.006,3.343v4.471c0,4.7,0,11.655,0,17.674v1.283c0,5.279,0,13.9-.006,14.986a11.385,11.385,0,0,1-.128,1.87,11.686,11.686,0,0,1-1.624,4.33c-.087.143-.181.284-.278.422a11.777,11.777,0,0,1-9.747,5.145H366.279V248.725A12.829,12.829,0,0,1,379.108,235.9Z" transform="translate(-342.367 -235.903)" fill="#86e6a8"/>
      <path id="Path_2071" data-name="Path 2071" d="M468.98,347.2h.963a11.8,11.8,0,0,0,11.651-9.9,11.4,11.4,0,0,0,.129-1.87c0-2.885,0-33.09.008-38.415,0-1.327,0-2.7,0-4.122,0-.958,0-1.934,0-2.919,0-3.723,0-7.636.009-11.51q0-2,0-3.989v-3.651c0-.813,0-1.618,0-2.414v-.394c0-1.186,0-2.346,0-3.476,0-2.255,0-4.383.008-6.322,0-4.931,0-8.633.009-10.1v-.694a1.459,1.459,0,0,1,.047-.381,12.214,12.214,0,0,1,8.1-10.448,11.841,11.841,0,0,1,3.411-.672l.056-.022H489.85c-.3.081-.595.175-.886.278a12.263,12.263,0,0,0-8.1,10.5,1.457,1.457,0,0,0-.047.381v.7c0,1.477-.009,5.2-.009,10.153,0,1.948-.008,4.083-.008,6.352,0,1.134,0,2.3,0,3.492v.394c0,.8,0,1.609,0,2.427v3.668q-.006,2,0,4.011c0,3.891-.009,7.824-.009,11.565,0,.989,0,1.969,0,2.932,0,1.426,0,2.808,0,4.144,0,5.35-.008,35.577-.008,38.475a11.566,11.566,0,0,1-.129,1.884A11.823,11.823,0,0,1,468.98,347.2Z" transform="translate(-391.14 -235.902)" fill="#fff" opacity="0.51"/>
      <path id="Path_2072" data-name="Path 2072" d="M320.741,415.246v4.3a12.824,12.824,0,0,0,12.823,12.823h65.286a13.64,13.64,0,0,1-6.638-2.555l-.009-.008a11.761,11.761,0,0,1-4.464-9.241v-5.316Z" transform="translate(-320.741 -321.073)" fill="#43d477"/>
      <path id="Path_2073" data-name="Path 2073" d="M493.265,284.6h36.694a11.834,11.834,0,0,1-2.336-.229,12.209,12.209,0,0,1-9.878-11.985V248.117A12.213,12.213,0,0,0,505.531,235.9h-.008c-.221,0-.436.008-.65.022a11.813,11.813,0,0,0-3.412.672,12.209,12.209,0,0,0-8.1,10.446c-.035.353-.049.715-.049,1.074,0,1.469-.006,5.169-.009,10.1,0,1.937,0,4.065-.006,6.322,0,1.128,0-1.992,0-.806,0,.838,0,1.689,0,2.548,0,2.571-.006,5.228-.008,7.9q0,1.188,0,2.38C493.274,280.679,493.265,284.108,493.265,284.6Z" transform="translate(-402.673 -235.902)" fill="#43d477"/>
      <path id="Path_2074" data-name="Path 2074" d="M539.886,295.954v4.909a12.209,12.209,0,0,0,9.879,11.985,11.8,11.8,0,0,0,2.336.229h.007a12.215,12.215,0,0,0,12.214-12.214v-4.909Z" transform="translate(-424.814 -264.421)" fill="#2fa258"/>
      <g id="Group_3999" data-name="Group 3999" transform="translate(48.888 17.328)" opacity="0.69">
        <path id="Rectangle_1635" data-name="Rectangle 1635" d="M4.276,0H33.417a0,0,0,0,1,0,0V0a4.276,4.276,0,0,1-4.276,4.276H0a0,0,0,0,1,0,0v0A4.276,4.276,0,0,1,4.276,0Z" transform="translate(0 59.281)" fill="#a1bff1"/>
        <path id="Rectangle_1636" data-name="Rectangle 1636" d="M4.276,0H33.417a0,0,0,0,1,0,0V0a4.276,4.276,0,0,1-4.276,4.276H0a0,0,0,0,1,0,0v0A4.276,4.276,0,0,1,4.276,0Z" transform="translate(0 38.713)" fill="#a1bff1"/>
        <path id="Rectangle_1637" data-name="Rectangle 1637" d="M4.276,0H33.417a0,0,0,0,1,0,0V0a4.276,4.276,0,0,1-4.276,4.276H0a0,0,0,0,1,0,0v0A4.276,4.276,0,0,1,4.276,0Z" transform="translate(0 19.76)" fill="#a1bff1"/>
        <path id="Rectangle_1638" data-name="Rectangle 1638" d="M4.276,0H33.417a0,0,0,0,1,0,0V0a4.276,4.276,0,0,1-4.276,4.276H0a0,0,0,0,1,0,0v0A4.276,4.276,0,0,1,4.276,0Z" fill="#a1bff1"/>
      </g>
      <g id="Group_4004" data-name="Group 4004" transform="translate(28.84 13.126)">
        <g id="Group_4000" data-name="Group 4000">
          <circle id="Ellipse_568" data-name="Ellipse 568" cx="6.393" cy="6.393" r="6.393" fill="#fff"/>
          <path id="Path_2075" data-name="Path 2075" d="M385.518,267.639h0a6.023,6.023,0,0,0,2.392,2.392h0a.41.41,0,0,1,0,.72h0a6.018,6.018,0,0,0-2.392,2.392h0a.41.41,0,0,1-.72,0h0a6.011,6.011,0,0,0-2.392-2.392h0a.41.41,0,0,1,0-.72h0a6.016,6.016,0,0,0,2.392-2.392h0A.411.411,0,0,1,385.518,267.639Z" transform="translate(-378.765 -263.999)" fill="#d2e3fd"/>
        </g>
        <g id="Group_4001" data-name="Group 4001" transform="translate(0 19.454)">
          <circle id="Ellipse_569" data-name="Ellipse 569" cx="6.393" cy="6.393" r="6.393" fill="#fff"/>
          <path id="Path_2076" data-name="Path 2076" d="M385.518,304.687h0a6.023,6.023,0,0,0,2.392,2.392h0a.41.41,0,0,1,0,.72h0a6.018,6.018,0,0,0-2.392,2.392h0a.41.41,0,0,1-.72,0h0a6.012,6.012,0,0,0-2.392-2.392h0a.41.41,0,0,1,0-.72h0a6.016,6.016,0,0,0,2.392-2.392h0A.411.411,0,0,1,385.518,304.687Z" transform="translate(-378.765 -301.047)" fill="#d2e3fd"/>
        </g>
        <g id="Group_4002" data-name="Group 4002" transform="translate(0 38.66)">
          <circle id="Ellipse_570" data-name="Ellipse 570" cx="6.393" cy="6.393" r="6.393" fill="#fff"/>
          <path id="Path_2077" data-name="Path 2077" d="M385.518,341.264h0a6.018,6.018,0,0,0,2.392,2.392h0a.41.41,0,0,1,0,.72h0a6.023,6.023,0,0,0-2.392,2.392h0a.411.411,0,0,1-.72,0h0a6.016,6.016,0,0,0-2.392-2.392h0a.41.41,0,0,1,0-.72h0a6.011,6.011,0,0,0,2.392-2.392h0A.41.41,0,0,1,385.518,341.264Z" transform="translate(-378.765 -337.623)" fill="#d2e3fd"/>
        </g>
        <g id="Group_4003" data-name="Group 4003" transform="translate(0 58.361)">
          <circle id="Ellipse_571" data-name="Ellipse 571" cx="6.393" cy="6.393" r="6.393" fill="#fff"/>
          <path id="Path_2078" data-name="Path 2078" d="M385.518,378.783h0a6.018,6.018,0,0,0,2.392,2.392h0a.411.411,0,0,1,0,.72h0a6.018,6.018,0,0,0-2.392,2.392h0a.411.411,0,0,1-.72,0h0a6.011,6.011,0,0,0-2.392-2.392h0a.411.411,0,0,1,0-.72h0a6.011,6.011,0,0,0,2.392-2.392h0A.41.41,0,0,1,385.518,378.783Z" transform="translate(-378.765 -375.142)" fill="#d2e3fd"/>
        </g>
      </g>
      <g id="Group_4006" data-name="Group 4006" transform="translate(68.666 59.21)">
        <g id="Group_4005" data-name="Group 4005">
          <path id="Path_2079" data-name="Path 2079" d="M472.031,350.024v.039c0,5.339,0,13.252,0,20.1v1.459c0,6,0,15.8-.007,17.039a12.931,12.931,0,0,1-.145,2.127,13.293,13.293,0,0,1-1.846,4.924c-.1.163-.206.323-.316.479a13.435,13.435,0,0,1-3.6,3.575,26.672,26.672,0,0,1,5.922-49.738Z" transform="translate(-451.509 -349.309)" opacity="0.25" fill="url(#linear-gradient-3)"/>
        </g>
      </g>
    </g>
    <g id="Group_4008" data-name="Group 4008" transform="translate(379.843 118.059)">
      <path id="Rectangle_1645" data-name="Rectangle 1645" d="M0,0H0A9.94,9.94,0,0,1,9.94,9.94v0a0,0,0,0,1,0,0h0A9.94,9.94,0,0,1,0,0V0A0,0,0,0,1,0,0Z" transform="translate(31.664 15.084) rotate(132.835)" fill="#1f3b64" opacity="0.5"/>
      <path id="Rectangle_1646" data-name="Rectangle 1646" d="M9.94,0h0a0,0,0,0,1,0,0V0A9.94,9.94,0,0,1,0,9.94H0a0,0,0,0,1,0,0v0A9.94,9.94,0,0,1,9.94,0Z" transform="translate(23.027 24.399) rotate(132.835)" fill="#1f3b64"/>
      <path id="Rectangle_1647" data-name="Rectangle 1647" d="M9.94,0h0a0,0,0,0,1,0,0V0A9.94,9.94,0,0,1,0,9.94H0a0,0,0,0,1,0,0v0A9.94,9.94,0,0,1,9.94,0Z" transform="translate(22.684 6.758) rotate(132.835)" fill="#1f3b64"/>
      <path id="Rectangle_1648" data-name="Rectangle 1648" d="M0,0H0A9.94,9.94,0,0,1,9.94,9.94v0a0,0,0,0,1,0,0h0A9.94,9.94,0,0,1,0,0V0A0,0,0,0,1,0,0Z" transform="translate(14.048 16.074) rotate(132.835)" fill="#1f3b64" opacity="0.5"/>
    </g>
    <g id="Group_4009" data-name="Group 4009" transform="translate(235.165 212.084)">
      <path id="Rectangle_1649" data-name="Rectangle 1649" d="M0,0H0A8.337,8.337,0,0,1,8.337,8.337v0a0,0,0,0,1,0,0h0A8.337,8.337,0,0,1,0,0V0A0,0,0,0,1,0,0Z" transform="matrix(-0.68, 0.733, -0.733, -0.68, 26.557, 12.651)" fill="#1f3b64" opacity="0.5"/>
      <path id="Rectangle_1650" data-name="Rectangle 1650" d="M8.337,0h0a0,0,0,0,1,0,0V0A8.337,8.337,0,0,1,0,8.337H0a0,0,0,0,1,0,0v0A8.337,8.337,0,0,1,8.337,0Z" transform="translate(19.313 20.464) rotate(132.835)" fill="#1f3b64"/>
      <path id="Rectangle_1651" data-name="Rectangle 1651" d="M8.337,0h0a0,0,0,0,1,0,0V0A8.337,8.337,0,0,1,0,8.337H0a0,0,0,0,1,0,0v0A8.337,8.337,0,0,1,8.337,0Z" transform="translate(19.025 5.668) rotate(132.835)" fill="#1f3b64"/>
      <path id="Rectangle_1652" data-name="Rectangle 1652" d="M0,0H0A8.337,8.337,0,0,1,8.337,8.337v0a0,0,0,0,1,0,0h0A8.337,8.337,0,0,1,0,0V0A0,0,0,0,1,0,0Z" transform="translate(11.782 13.481) rotate(132.835)" fill="#1f3b64" opacity="0.5"/>
    </g>
    <g id="Group_4010" data-name="Group 4010" transform="translate(270.741 123.861)">
      <path id="Path_2081" data-name="Path 2081" d="M625.276,370.267l.534.976a7.168,7.168,0,0,0,2.85,2.85l.976.534-.976.534a7.168,7.168,0,0,0-2.85,2.85l-.534.976-.534-.976a7.169,7.169,0,0,0-2.85-2.85l-.976-.534.976-.534a7.168,7.168,0,0,0,2.85-2.85Z" transform="translate(-461.571 -267.086)" fill="url(#linear-gradient-4)"/>
      <path id="Path_2082" data-name="Path 2082" d="M480.1,173.767l.534.976a7.165,7.165,0,0,0,2.85,2.85l.976.534-.976.534a7.168,7.168,0,0,0-2.85,2.85l-.534.977-.534-.977a7.167,7.167,0,0,0-2.85-2.85l-.976-.534.976-.534a7.164,7.164,0,0,0,2.85-2.85Z" transform="translate(-392.627 -173.767)" fill="url(#linear-gradient)"/>
      <path id="Path_2083" data-name="Path 2083" d="M321.817,289.643l.534.977a7.167,7.167,0,0,0,2.85,2.85l.976.534-.976.534a7.166,7.166,0,0,0-2.85,2.849l-.534.977-.534-.977a7.167,7.167,0,0,0-2.85-2.849l-.976-.534.976-.534a7.168,7.168,0,0,0,2.85-2.85Z" transform="translate(-317.457 -228.797)" fill="url(#linear-gradient)"/>
    </g>
    <g id="Group_3956" data-name="Group 3956" transform="translate(344.655 223.486)">
      <g id="Group_3955" data-name="Group 3955">
        <circle id="Ellipse_51" data-name="Ellipse 51" cx="22.01" cy="22.01" r="22.01" transform="translate(0 0.276)" fill="url(#linear-gradient-7)"/>
        <circle id="Ellipse_52" data-name="Ellipse 52" cx="3.842" cy="3.842" r="3.842" transform="translate(19.102 19.31)" fill="#327b4d" opacity="0.58"/>
        <rect id="Rectangle_1617" data-name="Rectangle 1617" width="1.077" height="14.358" transform="translate(24.329 22.529) rotate(-135)" fill="#327b4d" opacity="0.58"/>
        <path id="Path_2027" data-name="Path 2027" d="M336.885,1028.279a21.661,21.661,0,0,1-18.4,21.414,22.01,22.01,0,1,0-17.283-37.912,21.656,21.656,0,0,1,35.687,16.5Z" transform="translate(-294.292 -1005.504)" fill="#5fac7b"/>
        <rect id="Rectangle_1618" data-name="Rectangle 1618" width="2.02" height="14.833" transform="translate(11.893 36.393) rotate(-135)" fill="#327b4d" opacity="0.58"/>
        <rect id="Rectangle_1619" data-name="Rectangle 1619" width="1.986" height="9.501" transform="translate(12.362 16.031) rotate(-45)" fill="#327b4d" opacity="0.58"/>
        <circle id="Ellipse_53" data-name="Ellipse 53" cx="3.842" cy="3.842" r="3.842" transform="translate(18.172 18.409)" fill="#fff"/>
        <path id="Rectangle_1620" data-name="Rectangle 1620" d="M2.02,0h0a0,0,0,0,1,0,0V14.833a0,0,0,0,1,0,0H0a0,0,0,0,1,0,0V2.02A2.02,2.02,0,0,1,2.02,0Z" transform="translate(10.798 35.298) rotate(-135)" fill="#fff"/>
        <path id="Rectangle_1621" data-name="Rectangle 1621" d="M0,0H0A1.986,1.986,0,0,1,1.986,1.986V9.5a0,0,0,0,1,0,0H0a0,0,0,0,1,0,0V0A0,0,0,0,1,0,0Z" transform="translate(13.39 15.003) rotate(-45)" fill="#fff"/>
        <rect id="Rectangle_1622" data-name="Rectangle 1622" width="1.077" height="14.358" transform="translate(23.614 21.815) rotate(-135)" fill="#fff"/>
      </g>
    </g>
  </g>
</svg>
