<svg xmlns="http://www.w3.org/2000/svg" width="150" height="150" viewBox="0 0 150 150">
  <g id="Group_4504" data-name="Group 4504" transform="translate(-113 -339)">
    <rect id="Rectangle_1723" data-name="Rectangle 1723" width="150" height="150" transform="translate(113 339)" fill="none"/>
    <path id="Path_7483" data-name="Path 7483" d="M504.345,1245.091a72.027,72.027,0,0,1-21.428,51.372,71.088,71.088,0,0,1-50.52,20.719,72.091,72.091,0,1,1,71.949-72.091Z" transform="translate(-243.504 -828.181)" fill="#eaeef9"/>
    <path id="Path_7484" data-name="Path 7484" d="M459.167,1193.937a5.818,5.818,0,1,0-5.818-5.818A5.823,5.823,0,0,0,459.167,1193.937Z" transform="translate(-204.568 -824.284)" fill="#eaeef9"/>
    <path id="Path_7485" data-name="Path 7485" d="M464.622,1176.847a3.974,3.974,0,1,0-3.973-3.974A3.98,3.98,0,0,0,464.622,1176.847Z" transform="translate(-229.181 -829.9)" fill="#eaeef9"/>
    <path id="Path_7486" data-name="Path 7486" d="M363.223,1192.747a3.973,3.973,0,1,0-3.974-3.974A3.98,3.98,0,0,0,363.223,1192.747Z" transform="translate(-244.006 -823.236)" fill="#43d477" opacity="0.66"/>
    <path id="Path_7487" data-name="Path 7487" d="M347.128,1248.759a7.379,7.379,0,1,0-7.379-7.379A7.382,7.382,0,0,0,347.128,1248.759Z" transform="translate(-223.938 -772.957)" fill="#eaeef9"/>
    <path id="Path_7488" data-name="Path 7488" d="M476.589,1197.2v89.12a71.089,71.089,0,0,1-50.52,20.719,72.193,72.193,0,0,1-50.52-20.719V1197.2Z" transform="translate(-237.174 -818.039)" fill="#fff"/>
    <path id="Path_7489" data-name="Path 7489" d="M420.229,1235.088l-19.767-19.768-6.724,6.727,19.768,19.768Z" transform="translate(-229.551 -810.445)" fill="#ffc529" opacity="0.5"/>
    <path id="Path_7490" data-name="Path 7490" d="M432.545,1208.4l-29.5,29.5,6.724,6.713,29.5-29.5Z" transform="translate(-225.652 -813.345)" fill="#ffc529"/>
    <path id="Path_7491" data-name="Path 7491" d="M444.6,1242.5H392.948v6.528H444.6Z" transform="translate(-229.882 -799.053)" fill="#d5dae5"/>
    <path id="Path_7492" data-name="Path 7492" d="M444.6,1252.6H392.948v6.528H444.6Z" transform="translate(-229.882 -794.82)" fill="#d5dae5"/>
    <path id="Path_7493" data-name="Path 7493" d="M428.244,1262.8h-26.4v6.528h26.4Z" transform="translate(-226.152 -790.546)" fill="#d5dae5"/>
  </g>
</svg>
