<svg xmlns="http://www.w3.org/2000/svg" width="150" height="150" viewBox="0 0 150 150">
  <g id="Group_4504" data-name="Group 4504" transform="translate(-113 -339)">
    <rect id="Rectangle_1723" data-name="Rectangle 1723" width="150" height="150" transform="translate(113 339)" fill="none"/>
    <g id="Group_4519" data-name="Group 4519" transform="translate(-626.75 -619.281)">
      <path id="Path_7548" data-name="Path 7548" d="M814.191,1107.252a74.486,74.486,0,1,0-74.34-74.486A74.373,74.373,0,0,0,814.191,1107.252Z" transform="translate(0.047 0)" fill="#eaeef9"/>
      <path id="Path_7549" data-name="Path 7549" d="M839.863,979.6a6.012,6.012,0,1,0-6.012-6.012A6.012,6.012,0,0,0,839.863,979.6Z" transform="translate(43.876 4.336)" fill="#e7ebf6"/>
      <path id="Path_7550" data-name="Path 7550" d="M845.257,962.392a4.105,4.105,0,1,0-4.106-4.106A4.105,4.105,0,0,0,845.257,962.392Z" transform="translate(15.759 142.832)" fill="#e7ebf6"/>
      <path id="Path_7551" data-name="Path 7551" d="M743.857,978.292a4.106,4.106,0,1,0-4.106-4.106A4.105,4.105,0,0,0,743.857,978.292Z" transform="translate(0 5.502)" fill="#43d477"/>
      <path id="Path_7552" data-name="Path 7552" d="M727.876,1034.529a7.625,7.625,0,1,0-7.625-7.625A7.626,7.626,0,0,0,727.876,1034.529Z" transform="translate(24.632 69.629)" fill="#e7ebf6"/>
      <g id="Group_4470" data-name="Group 4470" transform="translate(754.022 975.273)">
        <path id="Path_7553" data-name="Path 7553" d="M859.894,1085.485l-99.172.719a10.434,10.434,0,0,1-10.469-10.279l-.768-94.885a10.408,10.408,0,0,1,10.262-10.459l99.173-.711a10.436,10.436,0,0,1,10.469,10.276l.768,94.885A10.409,10.409,0,0,1,859.894,1085.485Z" transform="translate(-749.484 -969.87)" fill="#fff"/>
      </g>
      <path id="Path_7554" data-name="Path 7554" d="M850.332,1066.814l-87.18.66a4.4,4.4,0,0,1-4.476-4.384l-.661-78.423a4.4,4.4,0,0,1,4.386-4.47l87.181-.66a4.412,4.412,0,0,1,4.475,4.391l.661,78.414A4.4,4.4,0,0,1,850.332,1066.814Z" transform="translate(8.515 9.91)" fill="#eaeef9"/>
      <path id="Path_7558" data-name="Path 7558" d="M819.686,1054.928a30.572,30.572,0,0,1-1.933,5.674,22.276,22.276,0,0,1-9.776,9.663,21.9,21.9,0,0,1-14.548,1.936,22.283,22.283,0,0,1,8.979-43.651,23.715,23.715,0,0,1,11.252,6.026A22.211,22.211,0,0,1,819.686,1054.928Z" transform="translate(16.753 32.53)" fill="#fff"/>
      <path id="Path_7559" data-name="Path 7559" d="M800.788,1044.2h-5.115v-5.117a1.933,1.933,0,1,0-3.865,0v5.117h-5.114a1.914,1.914,0,0,0-1.933,1.936,1.845,1.845,0,0,0,1.933,1.921h5.114v5.117a1.933,1.933,0,1,0,3.865,0v-5.117h5.115a1.928,1.928,0,1,0,0-3.856Z" transform="translate(20.987 36.774)" fill="#fff"/>
      <g id="Iconly_Bold_Play" data-name="Iconly/Bold/Play" transform="translate(796.75 1065.281)">
        <g id="Play" transform="translate(3 3)">
          <path id="Play-2" data-name="Play" d="M15,30A15,15,0,1,1,30,15.009,15.012,15.012,0,0,1,15,30ZM13.292,9.045a2.008,2.008,0,0,0-.913.217,1.878,1.878,0,0,0-.811.9,9.471,9.471,0,0,0-.261,1.057,23.086,23.086,0,0,0-.246,3.777,26.576,26.576,0,0,0,.217,3.661,1.646,1.646,0,0,1,.036.164,5.866,5.866,0,0,0,.311,1.152,1.815,1.815,0,0,0,1.608.984h.058a4.782,4.782,0,0,0,1.346-.405,22.09,22.09,0,0,0,5.777-3.937l.088-.086a5.91,5.91,0,0,0,.405-.463,1.742,1.742,0,0,0,.347-1.054,1.826,1.826,0,0,0-.377-1.131l-.095-.1c-.1-.105-.242-.265-.382-.4a22.166,22.166,0,0,0-5.908-3.995A5.034,5.034,0,0,0,13.292,9.045Z" fill="#43d477"/>
        </g>
      </g>
      <g id="Iconly_Bold_Buy" data-name="Iconly/Bold/Buy" transform="translate(787.75 1004.281)">
        <g id="Buy" transform="translate(4.25 4.25)">
          <path id="Buy-2" data-name="Buy" d="M31.813,38.764A3.18,3.18,0,1,1,35,42,3.223,3.223,0,0,1,31.813,38.764Zm-23.607,0A3.18,3.18,0,1,1,11.395,42,3.222,3.222,0,0,1,8.206,38.764Zm3.525-6.645a5.269,5.269,0,0,1-3.625-1.446,5.493,5.493,0,0,1-1.7-3.566L4.471,3.746,1.3,3.188A1.609,1.609,0,0,1,1.606,0a1.716,1.716,0,0,1,.242.019l5,.769a1.612,1.612,0,0,1,1.3,1.457l.4,4.8a1.3,1.3,0,0,0,1.28,1.2H38.171a3.546,3.546,0,0,1,2.96,1.436,4.726,4.726,0,0,1,.8,3.684L39.934,27.426a5.422,5.422,0,0,1-5.309,4.693ZM23.88,17.783a1.593,1.593,0,0,0,1.574,1.607h5.812a1.593,1.593,0,0,0,1.574-1.607,1.575,1.575,0,0,0-1.574-1.608H25.455A1.575,1.575,0,0,0,23.88,17.783Z" transform="translate(-0.25 -0.25)" fill="#dadfec"/>
        </g>
      </g>
    </g>
  </g>
</svg>
