<svg xmlns="http://www.w3.org/2000/svg" xmlns:xlink="http://www.w3.org/1999/xlink" width="150" height="150" viewBox="0 0 150 150">
  <defs>
    <linearGradient id="linear-gradient" x1="0.5" x2="0.5" y2="1" gradientUnits="objectBoundingBox">
      <stop offset="0" stop-color="#24ef9c"/>
      <stop offset="1" stop-color="#10d081"/>
    </linearGradient>
  </defs>
  <g id="Group_4504" data-name="Group 4504" transform="translate(-113 -339)">
    <rect id="Rectangle_1723" data-name="Rectangle 1723" width="150" height="150" transform="translate(113 339)" fill="none"/>
    <path id="Path_7632" data-name="Path 7632" d="M851.559,752.687a3.276,3.276,0,1,0-3.276-3.276A3.276,3.276,0,0,0,851.559,752.687Z" transform="translate(-618.834 -398.624)" fill="#e7ebf6"/>
    <g id="Group_4503" data-name="Group 4503" transform="translate(-14.814 -14.308)">
      <path id="Path_7630" data-name="Path 7630" d="M818.148,892.846a71.305,71.305,0,1,0-71.165-71.305A71.2,71.2,0,0,0,818.148,892.846Z" transform="translate(-619.029 -393.927)" fill="#eaeef9"/>
      <path id="Path_7631" data-name="Path 7631" d="M846.738,771.045a5.755,5.755,0,1,0-5.755-5.755A5.755,5.755,0,0,0,846.738,771.045Z" transform="translate(-581.086 -390.174)" fill="#e7ebf6"/>
      <path id="Path_7633" data-name="Path 7633" d="M750.813,769.9a3.93,3.93,0,1,0-3.93-3.93A3.93,3.93,0,0,0,750.813,769.9Z" transform="translate(-619.068 -389.165)" fill="#43d477" opacity="0.48"/>
      <path id="Path_7634" data-name="Path 7634" d="M734.682,825.833a7.3,7.3,0,1,0-7.3-7.3A7.3,7.3,0,0,0,734.682,825.833Z" transform="translate(-595.638 -331.165)" fill="#e7ebf6"/>
      <g id="Group_4477" data-name="Group 4477" transform="translate(129.47 369.361)">
        <path id="Path_7635" data-name="Path 7635" d="M838.346,779.888l21.476,77.2a4.9,4.9,0,0,1-3.509,6.036L780.656,883.2a4.9,4.9,0,0,1-6.036-3.509l-26.389-99.659a4.9,4.9,0,0,1,3.509-6.036l54.742-14.458Z" transform="translate(-748.063 -759.535)" fill="#fff"/>
      </g>
      <path id="Path_7636" data-name="Path 7636" d="M828.764,808.843l-40.846,10.808-4.492,1.123-13.615,3.65a1.144,1.144,0,0,0-.7,1.544,1.223,1.223,0,0,0,1.4.983l13.615-3.649,4.492-1.123,40.846-10.808a1.144,1.144,0,0,0,.7-1.544A1.222,1.222,0,0,0,828.764,808.843Z" transform="translate(-610.134 -370.282)" fill="#d5ddea"/>
      <path id="Path_7637" data-name="Path 7637" d="M826.783,802.041l-15.159,3.93-5.193,1.4-38.32,10.247a1.144,1.144,0,0,0-.7,1.544,1.223,1.223,0,0,0,1.4.983l38.46-10.247,5.193-1.4,15.159-3.93a1.144,1.144,0,0,0,.7-1.544C828.046,802.462,827.345,801.9,826.783,802.041Z" transform="translate(-610.82 -373.025)" fill="#d5ddea"/>
      <path id="Path_7638" data-name="Path 7638" d="M825.3,795.143l-3.93.983-3.93.982-51.233,13.615a1.144,1.144,0,0,0-.7,1.544,1.222,1.222,0,0,0,1.4.982l51.233-13.615,4.351-1.123,3.509-.982a1.144,1.144,0,0,0,.7-1.544A1.168,1.168,0,0,0,825.3,795.143Z" transform="translate(-611.586 -375.811)" fill="#d5ddea"/>
      <path id="Path_7639" data-name="Path 7639" d="M792.4,831.269l-2.807.7a1.222,1.222,0,0,1-1.4-.982,1.256,1.256,0,0,1,.7-1.544l2.807-.7a1.223,1.223,0,0,1,1.4.983C793.247,830.568,792.966,831.129,792.4,831.269Z" transform="translate(-602.408 -362.249)" fill="#ced7e2"/>
      <path id="Path_7640" data-name="Path 7640" d="M790.139,832.869,774,837.08a1.222,1.222,0,0,1-1.4-.983,1.256,1.256,0,0,1,.7-1.544l16.142-4.211a1.222,1.222,0,0,1,1.4.982A1.061,1.061,0,0,1,790.139,832.869Z" transform="translate(-608.705 -361.603)" fill="#d5ddea"/>
      <path id="Path_7641" data-name="Path 7641" d="M824.025,788.241l-12.773,3.369-3.088.842-43.654,11.51a1.143,1.143,0,0,0-.7,1.544,1.222,1.222,0,0,0,1.4.983l43.513-11.369,3.088-.842,12.633-3.369c.7-.14.983-.842.842-1.684A1.118,1.118,0,0,0,824.025,788.241Z" transform="translate(-612.273 -378.595)" fill="#d5ddea"/>
      <path id="Path_7642" data-name="Path 7642" d="M796.183,774.044l-36.214,9.545a1.6,1.6,0,1,1-.842-3.088l36.214-9.545a1.6,1.6,0,0,1,.842,3.088Z" transform="translate(-614.609 -385.593)" fill="#d5ddea"/>
      <path id="Path_7643" data-name="Path 7643" d="M775.565,784.444l-13.9,3.65a1.6,1.6,0,0,1-.842-3.088l13.756-3.649a1.6,1.6,0,0,1,1.965,1.123A1.635,1.635,0,0,1,775.565,784.444Z" transform="translate(-613.923 -381.396)" fill="#d5ddea"/>
      <path id="Path_7644" data-name="Path 7644" d="M789.683,759.535,795.3,780.87a5.788,5.788,0,0,0,7.018,3.93l19.23-4.913" transform="translate(-601.792 -390.174)" fill="#d5ddea"/>
      <g id="Group_4478" data-name="Group 4478" transform="translate(176.742 369.821)">
        <path id="Path_7645" data-name="Path 7645" d="M881.46,801.512l-12.914,79.166a4.854,4.854,0,0,1-5.755,3.93l-76.92-13.475a5.054,5.054,0,0,1-4.07-5.755l17.826-101.483a4.854,4.854,0,0,1,5.755-3.93l55.865,9.826Z" transform="translate(-781.74 -759.863)" fill="#fff"/>
      </g>
      <path id="Path_7646" data-name="Path 7646" d="M855.09,823.869l-41.548-7.3-4.492-.842-13.9-2.386a1.136,1.136,0,0,0-1.263,1.123,1.327,1.327,0,0,0,.842,1.544l13.9,2.386,4.492.842,41.548,7.3a1.135,1.135,0,0,0,1.263-1.123A1.211,1.211,0,0,0,855.09,823.869Z" transform="translate(-600.105 -368.463)" fill="#ced7e2"/>
      <path id="Path_7647" data-name="Path 7647" d="M856.25,816.969l-15.44-2.667-5.193-.983-39.162-6.878a1.135,1.135,0,0,0-1.263,1.123,1.327,1.327,0,0,0,.842,1.544l39.162,6.878,5.193.983,15.44,2.667a1.136,1.136,0,0,0,1.263-1.123A1.327,1.327,0,0,0,856.25,816.969Z" transform="translate(-599.58 -371.249)" fill="#ced7e2"/>
      <path id="Path_7648" data-name="Path 7648" d="M857.811,809.969l-4.071-.7-4.071-.7-52.216-9.124a1.135,1.135,0,0,0-1.263,1.123,1.327,1.327,0,0,0,.842,1.544l52.216,9.124,4.492.842,3.509.562a1.136,1.136,0,0,0,1.263-1.123A1.061,1.061,0,0,0,857.811,809.969Z" transform="translate(-599.177 -374.074)" fill="#d5ddea"/>
      <path id="Path_7649" data-name="Path 7649" d="M810.94,832.929l-2.807-.421a1.327,1.327,0,0,1-.842-1.544c.14-.7.7-1.263,1.263-1.123l2.807.421a1.327,1.327,0,0,1,.842,1.544A1.209,1.209,0,0,1,810.94,832.929Z" transform="translate(-594.696 -361.804)" fill="#ced7e2"/>
      <path id="Path_7650" data-name="Path 7650" d="M808.756,832.516l-16.423-2.807a1.327,1.327,0,0,1-.842-1.544c.14-.7.7-1.263,1.263-1.123l16.423,2.807a1.327,1.327,0,0,1,.842,1.544C809.879,832.235,809.317,832.656,808.756,832.516Z" transform="translate(-601.074 -362.934)" fill="#e3eaf2"/>
      <path id="Path_7651" data-name="Path 7651" d="M859.532,803.209l-13.054-2.246-3.228-.561-44.5-7.861a1.136,1.136,0,0,0-1.263,1.123,1.327,1.327,0,0,0,.842,1.544l44.5,7.86,3.228.561,12.914,2.246a1.256,1.256,0,0,0,1.4-1.123A1.327,1.327,0,0,0,859.532,803.209Z" transform="translate(-598.652 -376.859)" fill="#d5ddea"/>
      <path id="Path_7652" data-name="Path 7652" d="M839.569,780.186l-36.916-6.457a1.569,1.569,0,0,1,.561-3.088L840.13,777.1a1.586,1.586,0,0,1,1.263,1.825A1.707,1.707,0,0,1,839.569,780.186Z" transform="translate(-597.076 -385.7)" fill="#d5ddea"/>
      <path id="Path_7653" data-name="Path 7653" d="M815.73,782.456l-14.177-2.527a1.569,1.569,0,0,1,.562-3.088l14.036,2.526a1.586,1.586,0,0,1,1.263,1.825A1.524,1.524,0,0,1,815.73,782.456Z" transform="translate(-597.52 -383.197)" fill="#d5ddea"/>
      <path id="Path_7654" data-name="Path 7654" d="M839.4,766.935l-3.79,21.757a5.812,5.812,0,0,0,4.772,6.6l19.37,3.369" transform="translate(-583.29 -387.187)" fill="#d5ddea"/>
      <path id="Path_7655" data-name="Path 7655" d="M824.085,858.638a31.3,31.3,0,1,0-31.3-31.3A31.3,31.3,0,0,0,824.085,858.638Z" transform="translate(-600.541 -375.441)" fill="#fff"/>
      <path id="Path_7656" data-name="Path 7656" d="M815.082,828.313a7.991,7.991,0,0,1,3.369-8.141l2.105-1.544a4.206,4.206,0,0,0,1.825-3.509c0-1.965-1.4-3.93-4.351-3.93-3.088,0-4.492,2.527-4.492,4.913a4.325,4.325,0,0,0,.14,1.4l-5.615-.14a8.28,8.28,0,0,1-.281-1.965c0-4.772,3.509-9.264,10.106-9.264,6.738,0,10.387,4.351,10.387,8.7,0,3.509-1.825,5.9-4.351,7.72l-1.825,1.263a5.116,5.116,0,0,0-2.386,4.211v.281Zm2.386,2.807a3.509,3.509,0,1,1-3.509,3.509A3.665,3.665,0,0,1,817.468,831.12Z" transform="translate(-594.486 -371.364)" fill="#989fb0"/>
      <path id="Path_7657" data-name="Path 7657" d="M872.432,878.149a4.483,4.483,0,0,1-3.4-1.579l-20.29-20.29-.73.486a36.882,36.882,0,0,1-21.991,7.411,37.719,37.719,0,0,1-25.636-10.327,36.085,36.085,0,0,1-11.3-26.487A36.868,36.868,0,0,1,825.9,790.549a36.856,36.856,0,0,1,30.253,57.833l-.486.73,20.412,20.412a4.707,4.707,0,0,1,1.214,5.224A5.849,5.849,0,0,1,872.432,878.149ZM825.9,800.634a26.729,26.729,0,0,0-26.73,26.73c0,16.767,13.729,26.85,27.093,26.85a26.728,26.728,0,0,0,23.814-38.393A26.85,26.85,0,0,0,825.9,800.634Z" transform="translate(-602.034 -377.655)" fill="url(#linear-gradient)"/>
    </g>
  </g>
</svg>
