<svg id="Setting" xmlns="http://www.w3.org/2000/svg" width="14.247" height="15" viewBox="0 0 14.247 15">
  <path id="Setting-2" data-name="Setting" d="M7.647,15H6.6A1.55,1.55,0,0,1,5.01,13.462,1.428,1.428,0,0,0,3.6,12.1a1.185,1.185,0,0,0-.674.173,1.623,1.623,0,0,1-.813.225,1.591,1.591,0,0,1-1.364-.78l-.529-.9A1.5,1.5,0,0,1,.2,9.277a1.581,1.581,0,0,1,.613-.592,1.239,1.239,0,0,0,.483-.48,1.337,1.337,0,0,0,.142-1.024A1.378,1.378,0,0,0,.8,6.33,1.534,1.534,0,0,1,.234,4.207l.514-.885a1.592,1.592,0,0,1,2.161-.57,1.421,1.421,0,0,0,.673.168,1.469,1.469,0,0,0,1.251-.686,1.154,1.154,0,0,0,.177-.66A1.341,1.341,0,0,1,5.225.78,1.652,1.652,0,0,1,6.581,0H7.661A1.615,1.615,0,0,1,9.026.78a1.336,1.336,0,0,1,.207.794,1.158,1.158,0,0,0,.176.66,1.473,1.473,0,0,0,1.254.686,1.444,1.444,0,0,0,.678-.168,1.583,1.583,0,0,1,2.154.57l.513.885a1.52,1.52,0,0,1-.567,2.123,1.372,1.372,0,0,0-.64.853,1.328,1.328,0,0,0,.149,1.022,1.178,1.178,0,0,0,.475.48,1.73,1.73,0,0,1,.621.592,1.523,1.523,0,0,1-.015,1.538l-.537.9a1.574,1.574,0,0,1-2.169.555,1.216,1.216,0,0,0-.674-.173,1.425,1.425,0,0,0-1.418,1.365A1.546,1.546,0,0,1,7.647,15ZM7.133,5.385A2.152,2.152,0,0,0,4.956,7.507a2.072,2.072,0,0,0,.637,1.5,2.2,2.2,0,0,0,1.54.616A2.116,2.116,0,0,0,8.661,6,2.158,2.158,0,0,0,7.133,5.385Z" fill="#a9aeb2"/>
</svg>
