<svg xmlns="http://www.w3.org/2000/svg" width="19.048" height="16" viewBox="0 0 19.048 16">
  <g id="Group_5" data-name="Group 5" transform="translate(-267 -406)">
    <path id="Vector" d="M11.087.179A1.973,1.973,0,0,0,10.028.014a1.943,1.943,0,0,0-.983.411l-5.434,4.5H1.925a1.967,1.967,0,0,0-1.361.541A1.809,1.809,0,0,0,0,6.769V9.231a1.809,1.809,0,0,0,.564,1.305,1.967,1.967,0,0,0,1.361.541H3.612l5.448,4.51a1.938,1.938,0,0,0,.978.4,1.967,1.967,0,0,0,1.049-.167,1.905,1.905,0,0,0,.808-.689,1.8,1.8,0,0,0,.3-1V1.865a1.8,1.8,0,0,0-.3-1,1.905,1.905,0,0,0-.808-.689Z" transform="translate(267 406)" fill="#a9aeb2"/>
    <path id="Vector-2" data-name="Vector" d="M.61,0A.6.6,0,0,0,.179.186a.654.654,0,0,0,0,.9A.6.6,0,0,0,.61,1.27a4.182,4.182,0,0,1,3.017,1.3,4.576,4.576,0,0,1,0,6.285,4.182,4.182,0,0,1-3.017,1.3.6.6,0,0,0-.431.186.654.654,0,0,0,0,.9.6.6,0,0,0,.431.186A5.377,5.377,0,0,0,4.489,9.755a5.884,5.884,0,0,0,0-8.081A5.377,5.377,0,0,0,.61,0Z" transform="translate(279.952 408.286)" fill="#a9aeb2"/>
    <path id="Vector-3" data-name="Vector" d="M.533,4.48a.521.521,0,0,0-.377.164.58.58,0,0,0,0,.792A.521.521,0,0,0,.533,5.6a2.6,2.6,0,0,0,1.886-.82,2.9,2.9,0,0,0,0-3.96A2.6,2.6,0,0,0,.533,0,.521.521,0,0,0,.156.164a.58.58,0,0,0,0,.792.521.521,0,0,0,.377.164,1.562,1.562,0,0,1,1.131.492,1.74,1.74,0,0,1,0,2.376A1.562,1.562,0,0,1,.533,4.48Z" transform="translate(279.952 411.333)" fill="#a9aeb2"/>
  </g>
</svg>
