<svg xmlns="http://www.w3.org/2000/svg" width="16.925" height="16" viewBox="0 0 16.925 16">
  <g id="Group_4105" data-name="Group 4105" transform="translate(-279 -493)">
    <g id="Group_4104" data-name="Group 4104">
      <g id="Group_4103" data-name="Group 4103" transform="translate(0 54)">
        <g id="Group_5" data-name="Group 5" transform="translate(12 33)">
          <path id="Vector" d="M11.087.179A1.973,1.973,0,0,0,10.028.014a1.943,1.943,0,0,0-.983.411l-5.434,4.5H1.925a1.967,1.967,0,0,0-1.361.541A1.809,1.809,0,0,0,0,6.769V9.231a1.809,1.809,0,0,0,.564,1.305,1.967,1.967,0,0,0,1.361.541H3.612l5.448,4.51a1.938,1.938,0,0,0,.978.4,1.967,1.967,0,0,0,1.049-.167,1.905,1.905,0,0,0,.808-.689,1.8,1.8,0,0,0,.3-1V1.865a1.8,1.8,0,0,0-.3-1,1.905,1.905,0,0,0-.808-.689Z" transform="translate(267 406)" fill="#a9aeb2"/>
        </g>
      </g>
    </g>
    <g id="Rectangle_1689" data-name="Rectangle 1689" transform="translate(295.925 494.636) rotate(135)" fill="#fff" stroke="#a9aeb2" stroke-width="0.5">
      <rect width="20" height="2" rx="1" stroke="none"/>
      <rect x="0.25" y="0.25" width="19.5" height="1.5" rx="0.75" fill="none"/>
    </g>
  </g>
</svg>
