<svg id="Discount" xmlns="http://www.w3.org/2000/svg" width="30.001" height="29.993" viewBox="0 0 30.001 29.993">
  <path id="Discount-2" data-name="Discount" d="M15.01,29.993a4.535,4.535,0,0,1-3.2-1.3l-1.095-1.1a2.234,2.234,0,0,0-1.59-.657H7.582a4.522,4.522,0,0,1-4.517-4.517V20.875a2.307,2.307,0,0,0-.66-1.606L1.325,18.2a4.531,4.531,0,0,1-.015-6.388l1.095-1.1a2.253,2.253,0,0,0,.66-1.605V7.583A4.52,4.52,0,0,1,7.582,3.07H9.128a2.266,2.266,0,0,0,1.59-.662l1.08-1.08a4.526,4.526,0,0,1,6.392-.013l1.1,1.094a2.236,2.236,0,0,0,1.59.662h1.546a4.52,4.52,0,0,1,4.516,4.513V9.13a2.228,2.228,0,0,0,.661,1.588l1.08,1.08a4.545,4.545,0,0,1,.03,6.376l-.03.03-.015.015L27.6,19.283a2.233,2.233,0,0,0-.661,1.592v1.543a4.522,4.522,0,0,1-4.516,4.517H20.877a2.234,2.234,0,0,0-1.59.657l-1.081,1.08A4.479,4.479,0,0,1,15.01,29.993Zm3.857-12.45a1.312,1.312,0,1,0,1.305,1.305A1.315,1.315,0,0,0,18.867,17.543Zm-.008-7.716a1.3,1.3,0,0,0-.923.382l-7.713,7.71a1.32,1.32,0,0,0,0,1.859,1.243,1.243,0,0,0,.915.39,1.256,1.256,0,0,0,.93-.39l7.714-7.709a1.312,1.312,0,0,0-.923-2.242Zm-7.706.006a1.312,1.312,0,1,0,1.305,1.3A1.314,1.314,0,0,0,11.153,9.833Z" transform="translate(0)" fill="#43d477"/>
</svg>
