<svg width="213" height="213" viewBox="0 0 213 213" fill="none" xmlns="http://www.w3.org/2000/svg">
<g clip-path="url(#clip0_3944_23370)">
<path d="M106.5 197C156.482 197 197 156.482 197 106.5C197 56.5182 156.482 16 106.5 16C56.5182 16 16 56.5182 16 106.5C16 156.482 56.5182 197 106.5 197Z" fill="white"/>
<path d="M106.5 212.5C165.042 212.5 212.5 165.042 212.5 106.5C212.5 47.9578 165.042 0.5 106.5 0.5C47.9578 0.5 0.5 47.9578 0.5 106.5C0.5 165.042 47.9578 212.5 106.5 212.5Z" stroke="white" stroke-dasharray="5 5"/>
<path opacity="0.977" fill-rule="evenodd" clip-rule="evenodd" d="M105.628 67.6298C107.873 67.4279 110.021 67.7859 112.073 68.7039C120.702 73.6729 129.319 78.6605 137.924 83.6669C140.722 85.8914 142.29 88.7926 142.628 92.3706C142.678 102.099 142.678 111.827 142.628 121.556C142.273 125.466 140.483 128.515 137.258 130.704C129.122 135.377 120.999 140.068 112.887 144.778C109.833 146.424 106.636 146.757 103.295 145.778C102.752 145.597 102.221 145.388 101.702 145.148C93.1223 140.204 84.5543 135.241 75.9986 130.259C73.2007 128.035 71.6329 125.134 71.2949 121.556C71.2455 111.827 71.2455 102.099 71.2949 92.3706C71.6927 88.3005 73.6063 85.1771 77.0356 83.0002C85.3193 78.2535 93.5909 73.4881 101.85 68.7039C103.069 68.1696 104.329 67.8115 105.628 67.6298ZM106.221 72.0002C107.71 71.8906 109.117 72.1745 110.443 72.8521C118.554 77.5621 126.678 82.2535 134.813 86.9261C136.681 88.1784 137.805 89.9192 138.184 92.1483C138.233 102.025 138.233 111.901 138.184 121.778C137.805 124.007 136.681 125.748 134.813 127C126.678 131.673 118.554 136.364 110.443 141.074C108.123 142.21 105.802 142.21 103.48 141.074C95.3687 136.364 87.2452 131.673 79.1097 127C77.242 125.748 76.1185 124.007 75.7393 121.778C75.6899 111.901 75.6899 102.025 75.7393 92.1483C76.1523 89.7526 77.3992 87.9378 79.48 86.7039C87.4991 82.1162 95.4991 77.4989 103.48 72.8521C104.354 72.4082 105.268 72.1243 106.221 72.0002Z" fill="#1F3B64"/>
<path opacity="0.99" fill-rule="evenodd" clip-rule="evenodd" d="M106.148 79.4816C106.539 79.4394 106.909 79.5012 107.259 79.6668C109.148 81.4557 110.815 83.4187 112.259 85.5556C114.283 88.9189 114.863 92.5238 114 96.3705C114.012 96.4445 114.024 96.5186 114.037 96.5927C114.729 97.5824 115.223 98.6688 115.518 99.8519C115.966 101.479 116.213 103.133 116.259 104.815C114.518 104.654 112.79 104.407 111.074 104.074C110.613 104.859 110.107 105.612 109.555 106.333C109.373 106.449 109.176 106.523 108.963 106.556C107.333 106.605 105.703 106.605 104.074 106.556C103.861 106.523 103.663 106.449 103.481 106.333C102.917 105.621 102.411 104.868 101.963 104.074C101.565 104.196 101.158 104.282 100.74 104.333C99.4162 104.5 98.0952 104.66 96.7773 104.815C96.8638 102.58 97.2836 100.407 98.0366 98.2964C98.354 97.6365 98.6873 96.9945 99.0366 96.3705C98.0528 91.7634 99.0034 87.6153 101.888 83.926C103.078 82.4644 104.35 81.0693 105.703 79.7408C105.846 79.6328 105.995 79.5464 106.148 79.4816Z" fill="#1F3B64"/>
<path opacity="0.992" fill-rule="evenodd" clip-rule="evenodd" d="M105.036 107.704C106.147 107.704 107.258 107.704 108.369 107.704C108.266 109.162 108.278 110.619 108.406 112.074C108.859 115.873 110.995 117.824 114.814 117.926C119.752 117.553 124.567 116.578 129.258 115C131.888 114.069 134.308 112.772 136.518 111.112C136.604 114.469 136.616 117.827 136.555 121.186C136.349 122.994 135.521 124.438 134.073 125.519C125.938 130.192 117.814 134.883 109.703 139.593C108.301 140.251 106.844 140.4 105.332 140.037C104.944 139.933 104.574 139.785 104.221 139.593C96.1099 134.883 87.9864 130.192 79.8509 125.519C78.6066 124.594 77.8041 123.372 77.4435 121.852C77.3357 118.348 77.2987 114.842 77.3324 111.334C81.4676 113.828 85.9121 115.594 90.6657 116.63C93.1607 117.208 95.6792 117.652 98.2212 117.963C101.094 118.312 103.131 117.188 104.332 114.593C104.898 113.064 105.157 111.484 105.11 109.852C105.093 109.136 105.068 108.42 105.036 107.704Z" fill="#1F3B64"/>
</g>
<defs>
<clipPath id="clip0_3944_23370">
<rect width="213" height="213" fill="white"/>
</clipPath>
</defs>
</svg>
