<svg xmlns="http://www.w3.org/2000/svg" width="17" height="17" viewBox="0 0 17 17">
  <path id="Exclusion_1" data-name="Exclusion 1" d="M8,16a2.4,2.4,0,0,1-1.7-.7l-.585-.584a1.2,1.2,0,0,0-.851-.351H4.044a2.412,2.412,0,0,1-2.409-2.409v-.823a1.208,1.208,0,0,0-.352-.852L.708,9.707A2.412,2.412,0,0,1,.7,6.3l.585-.585a1.2,1.2,0,0,0,.351-.851V4.045a2.412,2.412,0,0,1,2.409-2.41h.822a1.2,1.2,0,0,0,.851-.353L6.293.708A2.411,2.411,0,0,1,9.7.7l.585.585a1.2,1.2,0,0,0,.851.351h.822a2.412,2.412,0,0,1,2.409,2.41v.821a1.209,1.209,0,0,0,.352.853l.574.574a2.407,2.407,0,0,1,.016,3.4L15.3,9.7l-.015.015-.568.568a1.2,1.2,0,0,0-.351.851v.821a2.412,2.412,0,0,1-2.409,2.409h-.822a1.2,1.2,0,0,0-.851.352l-.576.575A2.386,2.386,0,0,1,8,16ZM8,5.188H8a.591.591,0,0,0-.53.33L6.886,6.7l-1.3.189a.591.591,0,0,0-.33,1.01l.943.918-.222,1.3a.593.593,0,0,0,.583.693.6.6,0,0,0,.275-.069L8,10.128l1.164.612a.6.6,0,0,0,.278.07.594.594,0,0,0,.583-.693L9.8,8.818l.943-.918a.592.592,0,0,0-.327-1.009l-1.3-.19L8.531,5.52A.589.589,0,0,0,8,5.189Z" transform="translate(0.5 0.5)" fill="#a9aeb2" stroke="rgba(0,0,0,0)" stroke-miterlimit="10" stroke-width="1"/>
</svg>
