<svg xmlns="http://www.w3.org/2000/svg" width="163.295" height="150.001" viewBox="0 0 163.295 150.001">
  <g id="Group_4703" data-name="Group 4703" transform="translate(-103.706 -242)">
    <g id="Group_4504" data-name="Group 4504" transform="translate(0 -97)">
      <rect id="Rectangle_1723" data-name="Rectangle 1723" width="150" height="150" transform="translate(113 339)" fill="none"/>
      <g id="Group_4519" data-name="Group 4519" transform="translate(-626.75 -619.281)">
        <path id="Path_7548" data-name="Path 7548" d="M814.191,1107.252a74.486,74.486,0,1,0-74.34-74.486A74.373,74.373,0,0,0,814.191,1107.252Z" transform="translate(0.047 0)" fill="#eaeef9"/>
        <path id="Path_7549" data-name="Path 7549" d="M839.863,979.6a6.012,6.012,0,1,0-6.012-6.012A6.012,6.012,0,0,0,839.863,979.6Z" transform="translate(43.876 4.336)" fill="#e7ebf6"/>
        <path id="Path_7550" data-name="Path 7550" d="M845.257,962.392a4.105,4.105,0,1,0-4.106-4.106A4.105,4.105,0,0,0,845.257,962.392Z" transform="translate(34.376 141.768)" fill="#e7ebf6"/>
        <path id="Path_7551" data-name="Path 7551" d="M743.857,978.292a4.106,4.106,0,1,0-4.106-4.106A4.105,4.105,0,0,0,743.857,978.292Z" transform="translate(0 5.502)" fill="#43d477"/>
        <path id="Path_7552" data-name="Path 7552" d="M727.876,1034.529a7.625,7.625,0,1,0-7.625-7.625A7.626,7.626,0,0,0,727.876,1034.529Z" transform="translate(24.632 69.629)" fill="#e7ebf6"/>
        <path id="Path_7554" data-name="Path 7554" d="M850.332,1066.814l-87.18.66a4.4,4.4,0,0,1-4.476-4.384l-.661-78.423a4.4,4.4,0,0,1,4.386-4.47l87.181-.66a4.412,4.412,0,0,1,4.475,4.391l.661,78.414A4.4,4.4,0,0,1,850.332,1066.814Z" transform="translate(8.737 9.744)" fill="#eaeef9"/>
      </g>
    </g>
    <g id="_3" data-name="3" transform="translate(81.568 241.507)">
      <path id="Path_9664" data-name="Path 9664" d="M91.394,65.859,89.87,61.614a2.582,2.582,0,0,0-2.5-1.742H60.591A3.951,3.951,0,0,0,56.563,63.9v50.068h91.429V71.627a3.951,3.951,0,0,0-4.027-4.027H93.9A2.684,2.684,0,0,1,91.394,65.859Z" transform="translate(3.045 5.252)" fill="#a9aeb2" opacity="0.17"/>
      <g id="Group_4691" data-name="Group 4691" transform="translate(22.137 31.056)">
        <path id="Path_9665" data-name="Path 9665" d="M62.221,34.015,80.507,65.8a2.27,2.27,0,0,1-.871,3.048L48.506,86.26a2.27,2.27,0,0,1-3.048-.871L22.492,44.246a2.1,2.1,0,0,1,.871-3.048L46,28.572Z" transform="translate(-22.137 -28.572)" fill="#fff"/>
      </g>
      <path id="Path_9666" data-name="Path 9666" d="M45.173,36.779,30.152,45.16a.645.645,0,0,1-.98-.327.687.687,0,0,1,.218-.98l15.021-8.272a.71.71,0,1,1,.762,1.2Z" transform="translate(0.612 3.093)" fill="#d5ddea"/>
      <path id="Path_9667" data-name="Path 9667" d="M37.712,44.879l-5.769,3.156a.57.57,0,0,1-.871-.218.687.687,0,0,1,.218-.98l5.66-3.156a.687.687,0,0,1,.98.218C38.256,44.117,38.148,44.661,37.712,44.879Z" transform="translate(0.78 3.81)" fill="#d5ddea"/>
      <path id="Path_9668" data-name="Path 9668" d="M44.064,28.572l5.007,8.816a2.788,2.788,0,0,0,3.592.98l7.946-4.354" transform="translate(1.939 2.483)" fill="#d5ddea"/>
      <path id="Path_9669" data-name="Path 9669" d="M62.6,51.965a23.092,23.092,0,0,0-3.918-5.878,4.525,4.525,0,0,0-3.265-1.415,8.441,8.441,0,0,0-3.81,1.088,44.463,44.463,0,0,0-6.422,3.265,19.636,19.636,0,0,0-5.442,4.027c-1.85,2.5-.871,5.007.435,7.619A23.092,23.092,0,0,0,44.1,66.55a4.63,4.63,0,0,0,4.789,1.2c2.286-.544,6.531-2.939,8.49-4.136,1.742-1.088,3.81-2.068,5.116-3.7C65,57.407,64.128,54.795,62.6,51.965ZM47.366,54.686c-.327-.653-.109-1.2.762-1.088,2.286.109,4.463.109,6.64.218.871,0,1.088.435.762,1.2-1.088,1.85-2.177,3.81-3.265,5.769-.435.653-.98.653-1.306.109C50.631,60.564,47.692,55.23,47.366,54.686Z" transform="translate(1.467 3.907)" fill="#d5ddea"/>
      <path id="Path_9670" data-name="Path 9670" d="M122.657,84.693l-.98-.653a.408.408,0,0,1,0-.653.645.645,0,0,1,.762-.109l.98.653c.218.109.218.435.109.653A.873.873,0,0,1,122.657,84.693Z" transform="translate(8.79 7.316)" fill="#e3eaf2"/>
      <path id="Path_9671" data-name="Path 9671" d="M120.63,83.094l-5.551-4.354c-.218-.109-.218-.435-.109-.653s.435-.218.762-.109l5.551,4.354c.218.109.218.435.109.653A.538.538,0,0,1,120.63,83.094Z" transform="translate(8.204 6.847)" fill="#e3eaf2"/>
      <g id="Group_4692" data-name="Group 4692" transform="translate(134.864 30.773)">
        <path id="Path_9672" data-name="Path 9672" d="M176.163,59.507,155.374,86.392a1.979,1.979,0,0,1-2.939.327L126.53,66.364a1.979,1.979,0,0,1-.327-2.939L153.2,29.139a1.979,1.979,0,0,1,2.939-.327l18.83,14.8Z" transform="translate(-125.704 -28.313)" fill="#fff"/>
      </g>
      <path id="Path_9673" data-name="Path 9673" d="M165,45.966l-12.517-9.8a.7.7,0,0,1,.871-1.088l12.517,9.8a.786.786,0,0,1,.109.98A.7.7,0,0,1,165,45.966Z" transform="translate(11.508 3.049)" fill="#d5ddea"/>
      <path id="Path_9674" data-name="Path 9674" d="M155.163,42.683l-4.68-3.81a.786.786,0,0,1-.109-.98c.218-.327.544-.327.98-.109l4.68,3.81a.785.785,0,0,1,.109.98A.7.7,0,0,1,155.163,42.683Z" transform="translate(11.332 3.285)" fill="#d5ddea"/>
      <path id="Path_9675" data-name="Path 9675" d="M171.473,42.372,165.7,49.665a2.407,2.407,0,0,0,.435,3.374l6.64,5.225" transform="translate(12.653 3.704)" fill="#d5ddea"/>
      <path id="Path_9676" data-name="Path 9676" d="M167.186,59.738l-6.531-5.007L153.906,49.4l-6.2-4.9a1.6,1.6,0,0,0-2.286.327l-8.925,11.32a1.687,1.687,0,0,0,.218,2.286L156.3,73.888a1.6,1.6,0,0,0,2.286-.327l8.925-11.32A1.837,1.837,0,0,0,167.186,59.738Zm-20.68-.109,1.959-2.612,5.986,4.68-1.959,2.612Zm5.442,5.442-1.85,2.395-5.986-4.68,1.85-2.395Zm5.116-6.64L155.1,61.044l-5.986-4.68,1.959-2.612Zm-5.442-5.442,2.177-2.612,5.986,4.68-1.959,2.612Zm10.884,13.823-6.64-5.225,1.959-2.612,6.64,5.225Zm-14.15-11.1L141.934,50.7l1.959-2.612,6.422,5.007Zm-7.075-4.245,6.422,5.007-1.959,2.612-6.422-5.007ZM155.321,62.35l6.64,5.225L160,70.187l-6.64-5.225Zm11.429-.871-1.633,2.068-6.64-5.225,1.959-2.612,6.1,4.789A.631.631,0,0,1,166.75,61.48Zm-19.7-16.436,5.878,4.68-1.959,2.612-6.422-5.007,1.633-2.068A.711.711,0,0,1,147.049,45.044Zm-9.8,11.538,1.415-1.742,6.422,5.007-1.85,2.395-5.986-4.68A.816.816,0,0,1,137.253,56.582Zm19.7,16.218-6.1-4.789,1.85-2.395,6.64,5.225-1.524,1.85A.48.48,0,0,1,156.954,72.8Z" transform="translate(10.083 3.862)" fill="#d5ddea"/>
      <path id="Path_9677" data-name="Path 9677" d="M116.006,80.916l-6.2-.653a.48.48,0,0,1-.435-.653c0-.327.327-.544.762-.435l6.2.653a.48.48,0,0,1,.435.653C116.659,80.807,116.332,81.134,116.006,80.916Z" transform="translate(7.713 6.957)" fill="#fff"/>
      <path id="Path_9678" data-name="Path 9678" d="M150.052,86.464l-6.748,30.15c-.435,1.742-2.5,3.156-5.116,3.156H64.935c-2.5,0-4.68-1.306-5.116-3.156L54.268,91.906c-.435-1.85,1.633-3.592,4.245-3.592H99.874A3.085,3.085,0,0,0,102.6,86.9l1.2-2.612a2.991,2.991,0,0,1,2.722-1.415h39.4C148.419,82.872,150.379,84.614,150.052,86.464Z" transform="translate(2.837 7.286)" fill="#fff"/>
      <g id="Group_4693" data-name="Group 4693" transform="translate(51.498 83.845)">
        <path id="Path_9679" data-name="Path 9679" d="M155.836,82.95l-7.51,46.259a5.735,5.735,0,0,1-5.66,4.789H61.032a5.638,5.638,0,0,1-5.66-4.789l-6.2-37.986a4.816,4.816,0,0,1,4.68-5.551H99.89a3.269,3.269,0,0,0,3.048-2.286l1.306-4.027a3.27,3.27,0,0,1,3.048-2.286h43.864A5.284,5.284,0,0,1,155.836,82.95Z" transform="translate(-49.113 -77.072)" fill="#fafafa"/>
      </g>
      <g id="Group_4694" data-name="Group 4694" transform="translate(88.335 12.086)">
        <path id="Path_9680" data-name="Path 9680" d="M128.026,28.263l-3.483,37.769a2.273,2.273,0,0,1-2.612,2.068l-36.79-3.81a2.427,2.427,0,0,1-2.177-2.612l5.007-48.436a2.273,2.273,0,0,1,2.612-2.068L117.251,13.9Z" transform="translate(-82.956 -11.144)" fill="#fff"/>
      </g>
      <path id="Path_9681" data-name="Path 9681" d="M114.653,13.772l-1.088,10.34a2.769,2.769,0,0,0,2.5,2.939l9.361.98" transform="translate(8.086 1.174)" fill="#d5ddea"/>
      <path id="Path_9682" data-name="Path 9682" d="M120.312,54.225,90.162,50.851a1.257,1.257,0,0,1-1.2-1.415L91.25,30.17a1.4,1.4,0,0,1,1.415-1.2l30.151,3.265a1.257,1.257,0,0,1,1.2,1.415l-2.286,19.266A1.5,1.5,0,0,1,120.312,54.225Z" transform="translate(5.909 2.518)" fill="#ecf0f8"/>
      <path id="Path_9683" data-name="Path 9683" d="M106.4,48.58,92.464,46.947l7.837-7.075Z" transform="translate(6.22 3.483)" fill="#d5ddea"/>
      <path id="Path_9684" data-name="Path 9684" d="M117.5,50.089,97.364,47.695l11.429-10.123Z" transform="translate(6.654 3.279)" fill="#fff"/>
      <path id="Path_9685" data-name="Path 9685" d="M98.885,37.514a2.721,2.721,0,1,0-2.721-2.721A2.695,2.695,0,0,0,98.885,37.514Z" transform="translate(6.547 2.793)" fill="#d5ddea"/>
      <path id="Path_9686" data-name="Path 9686" d="M110.879,19.822,92.592,17.754c-.218,0-.435-.218-.327-.435V17.1c0-.218.218-.435.435-.327l18.286,2.068c.218,0,.435.218.327.435V19.5C111.423,19.713,111.205,19.931,110.879,19.822Z" transform="translate(6.2 1.437)" fill="#d5ddea"/>
      <path id="Path_9687" data-name="Path 9687" d="M110.8,23.022l-18.5-2.068c-.218,0-.435-.218-.327-.435V20.3c0-.218.218-.435.435-.327l18.5,2.068c.218,0,.435.218.327.435V22.7C111.34,22.8,111.013,23.022,110.8,23.022Z" transform="translate(6.174 1.72)" fill="#d5ddea"/>
      <path id="Path_9688" data-name="Path 9688" d="M111.768,55.775,88.8,53.163a.48.48,0,0,1-.435-.653c0-.327.327-.544.762-.435l22.858,2.612a.48.48,0,0,1,.435.653C112.312,55.666,112.094,55.884,111.768,55.775Z" transform="translate(5.855 4.56)" fill="#d5ddea"/>
      <path id="Path_9689" data-name="Path 9689" d="M108.11,26.013,92,24.163a.48.48,0,0,1-.435-.653c0-.327.327-.544.762-.435l16.108,1.85a.48.48,0,0,1,.435.653A.783.783,0,0,1,108.11,26.013Z" transform="translate(6.138 1.995)" fill="#d5ddea"/>
      <path id="Path_9690" data-name="Path 9690" d="M120.3,59.973l-32-3.81a.48.48,0,0,1-.435-.653c0-.327.327-.544.762-.435l32,3.7a.48.48,0,0,1,.435.653A.819.819,0,0,1,120.3,59.973Z" transform="translate(5.811 4.825)" fill="#d5ddea"/>
      <path id="Path_9691" data-name="Path 9691" d="M87.427,7.11a.915.915,0,0,1-1.2-.435l-1.959-4.9A.9.9,0,0,1,85.9,1.014l1.959,4.9C88.189,6.566,87.971,7,87.427,7.11Z" transform="translate(5.617 3)" fill="#d5ddea"/>
      <path id="Path_9692" data-name="Path 9692" d="M84.413,11.18a.789.789,0,0,1-.871.218l-5.116-.98a.976.976,0,0,1-.762-1.088.832.832,0,0,1,1.088-.653l5.116.98a.976.976,0,0,1,.762,1.088C84.522,10.854,84.522,11.071,84.413,11.18Z" transform="translate(5.039 3.719)" fill="#d5ddea"/>
      <path id="Path_9693" data-name="Path 9693" d="M93.424,6.548c-.109,0-.218-.109-.435-.109a.991.991,0,0,1-.109-1.306L96.036,1A.991.991,0,0,1,97.342.888a.991.991,0,0,1,.109,1.306L94.295,6.33A3.365,3.365,0,0,1,93.424,6.548Z" transform="translate(6.368 3.017)" fill="#d5ddea"/>
      <path id="Path_9694" data-name="Path 9694" d="M121.688,124.763a29.109,29.109,0,0,1-1.85,5.442,21.359,21.359,0,0,1-9.361,9.252,20.99,20.99,0,0,1-13.933,1.85,21.336,21.336,0,0,1,8.6-41.8,22.639,22.639,0,0,1,10.776,5.769A21.262,21.262,0,0,1,121.688,124.763Z" transform="translate(5.078 8.715)" fill="#fff"/>
      <path id="Path_9695" data-name="Path 9695" d="M15.348,6.748h-4.9V1.85a1.851,1.851,0,0,0-3.7,0v4.9H1.85A1.835,1.835,0,0,0,0,8.6a1.772,1.772,0,0,0,1.85,1.85h4.9v4.9a1.851,1.851,0,0,0,3.7,0v-4.9h4.9a1.85,1.85,0,1,0,0-3.7Z" transform="translate(105.977 116.964) rotate(45)" fill="#ff4949"/>
    </g>
  </g>
</svg>
