<svg xmlns="http://www.w3.org/2000/svg" width="91.726" height="84.258" viewBox="0 0 91.726 84.258">
  <g id="Group_4509" data-name="Group 4509" transform="translate(-520.138 -506.494)">
    <path id="Path_7745" data-name="Path 7745" d="M575.119,602.136a32.832,32.832,0,1,0-32.955-32.893A32.943,32.943,0,0,0,575.119,602.136Z" transform="translate(-8.559 -11.649)" fill="#eaeef9"/>
    <path id="Path_7746" data-name="Path 7746" d="M574.128,569.235l-.856-2.385a1.451,1.451,0,0,0-1.406-.978H556.825a2.219,2.219,0,0,0-2.262,2.262v28.124h51.358V572.475a2.219,2.219,0,0,0-2.262-2.262H575.534A1.508,1.508,0,0,1,574.128,569.235Z" transform="translate(-13.378 -23.074)" fill="#fff"/>
    <g id="Group_4489" data-name="Group 4489" transform="translate(520.138 523.661)">
      <path id="Path_7747" data-name="Path 7747" d="M542.653,537.629l10.271,17.853a1.275,1.275,0,0,1-.489,1.712l-17.486,9.782a1.275,1.275,0,0,1-1.712-.489l-12.9-23.111a1.179,1.179,0,0,1,.489-1.712l12.717-7.092Z" transform="translate(-520.138 -534.572)" fill="#fff"/>
    </g>
    <path id="Path_7748" data-name="Path 7748" d="M536.111,542.2l-8.437,4.708a.362.362,0,0,1-.55-.183.386.386,0,0,1,.122-.55l8.437-4.647a.4.4,0,0,1,.429.673Z" transform="translate(-2.69 -13.591)" fill="#d5ddea"/>
    <path id="Path_7749" data-name="Path 7749" d="M532.753,550.3l-3.24,1.773a.32.32,0,0,1-.489-.122.386.386,0,0,1,.122-.55l3.179-1.773a.386.386,0,0,1,.55.122C533.059,549.876,533,550.182,532.753,550.3Z" transform="translate(-3.428 -16.739)" fill="#d5ddea"/>
    <path id="Path_7750" data-name="Path 7750" d="M542.063,534.572l2.812,4.952a1.566,1.566,0,0,0,2.018.55l4.463-2.446" transform="translate(-8.52 -10.911)" fill="#d5ddea"/>
    <path id="Path_7751" data-name="Path 7751" d="M550.138,554.768a12.972,12.972,0,0,0-2.2-3.3,2.542,2.542,0,0,0-1.834-.795,4.741,4.741,0,0,0-2.14.611,24.982,24.982,0,0,0-3.607,1.834,11.031,11.031,0,0,0-3.057,2.262c-1.039,1.406-.489,2.812.245,4.28a12.97,12.97,0,0,0,2.2,3.3,2.6,2.6,0,0,0,2.69.673,22.949,22.949,0,0,0,4.769-2.323,10.8,10.8,0,0,0,2.874-2.079C551.484,557.825,550.994,556.358,550.138,554.768Zm-8.56,1.529c-.183-.367-.061-.673.428-.611,1.284.061,2.507.061,3.73.122.489,0,.611.245.428.672-.612,1.039-1.223,2.14-1.834,3.24-.245.367-.55.367-.734.061C543.413,559.6,541.762,556.6,541.579,556.3Z" transform="translate(-6.446 -17.168)" fill="#d5ddea"/>
    <path id="Path_7752" data-name="Path 7752" d="M620.156,590.041l-.55-.367a.229.229,0,0,1,0-.367.362.362,0,0,1,.428-.061l.55.367c.122.061.122.244.061.367A.49.49,0,0,1,620.156,590.041Z" transform="translate(-38.618 -32.142)" fill="#e3eaf2"/>
    <path id="Path_7753" data-name="Path 7753" d="M616.118,586.82,613,584.374c-.122-.061-.122-.245-.061-.367s.245-.122.428-.061l3.118,2.446c.122.061.122.245.061.367A.3.3,0,0,1,616.118,586.82Z" transform="translate(-36.047 -30.083)" fill="#e3eaf2"/>
    <g id="Group_4490" data-name="Group 4490" transform="translate(583.458 523.502)">
      <path id="Path_7754" data-name="Path 7754" d="M652.048,551.835l-11.678,15.1a1.112,1.112,0,0,1-1.651.183l-14.551-11.433a1.112,1.112,0,0,1-.183-1.651l15.163-19.259a1.112,1.112,0,0,1,1.651-.183l10.577,8.315Z" transform="translate(-623.704 -534.313)" fill="#fff"/>
    </g>
    <path id="Path_7755" data-name="Path 7755" d="M657.414,547.144l-7.031-5.5a.391.391,0,1,1,.489-.611l7.031,5.5a.441.441,0,0,1,.061.55A.393.393,0,0,1,657.414,547.144Z" transform="translate(-50.563 -13.395)" fill="#d5ddea"/>
    <path id="Path_7756" data-name="Path 7756" d="M651.012,546.469l-2.629-2.14a.441.441,0,0,1-.061-.55c.122-.183.306-.183.55-.061l2.629,2.14a.441.441,0,0,1,.061.55A.4.4,0,0,1,651.012,546.469Z" transform="translate(-49.786 -14.432)" fill="#d5ddea"/>
    <path id="Path_7757" data-name="Path 7757" d="M666.723,548.372l-3.24,4.1a1.352,1.352,0,0,0,.245,1.9l3.729,2.935" transform="translate(-55.594 -16.274)" fill="#d5ddea"/>
    <path id="Path_7758" data-name="Path 7758" d="M651.58,558.91l-3.668-2.812-3.791-3-3.485-2.751a.9.9,0,0,0-1.284.183l-5.013,6.359a.947.947,0,0,0,.122,1.284l11.005,8.682a.9.9,0,0,0,1.284-.183l5.013-6.359A1.032,1.032,0,0,0,651.58,558.91Zm-11.617-.061,1.1-1.467,3.363,2.629-1.1,1.467Zm3.057,3.057-1.039,1.345-3.363-2.629,1.039-1.345Zm2.874-3.73-1.1,1.467-3.363-2.629,1.1-1.467Zm-3.057-3.057,1.223-1.467,3.363,2.629-1.1,1.467Zm6.114,7.765-3.73-2.935,1.1-1.467,3.73,2.935ZM641,556.648l-3.607-2.812,1.1-1.467,3.607,2.812Zm-3.974-2.385,3.607,2.813-1.1,1.467-3.607-2.812Zm7.887,6.114,3.73,2.935-1.1,1.467-3.729-2.935Zm6.42-.489-.917,1.162-3.73-2.935,1.1-1.467,3.424,2.69A.355.355,0,0,1,651.336,559.888Zm-11.066-9.232,3.3,2.629-1.1,1.467-3.607-2.812.917-1.162A.4.4,0,0,1,640.269,550.656Zm-5.5,6.481.795-.978,3.607,2.812-1.039,1.345-3.363-2.629A.458.458,0,0,1,634.767,557.137Zm11.066,9.11-3.424-2.69,1.039-1.345,3.73,2.935-.856,1.039A.27.27,0,0,1,645.833,566.247Z" transform="translate(-44.302 -16.968)" fill="#d5ddea"/>
    <path id="Path_7759" data-name="Path 7759" d="M611.083,586.14l-3.485-.367a.269.269,0,0,1-.245-.367c0-.183.184-.306.428-.245l3.485.367a.269.269,0,0,1,.245.367C611.45,586.079,611.267,586.262,611.083,586.14Z" transform="translate(-33.886 -30.564)" fill="#fff"/>
    <path id="Path_7760" data-name="Path 7760" d="M606.047,590.89l-3.791,16.936a2.825,2.825,0,0,1-2.874,1.773H558.235a2.8,2.8,0,0,1-2.874-1.773l-3.118-13.879c-.244-1.039.917-2.018,2.385-2.018h23.233a1.733,1.733,0,0,0,1.529-.795l.672-1.467a1.679,1.679,0,0,1,1.529-.795h22.133C605.129,588.872,606.23,589.85,606.047,590.89Z" transform="translate(-12.463 -32.012)" fill="#fff"/>
    <g id="Group_4491" data-name="Group 4491" transform="translate(536.63 553.314)">
      <path id="Path_7761" data-name="Path 7761" d="M607.061,586.374l-4.219,25.985a3.222,3.222,0,0,1-3.179,2.69H553.808a3.167,3.167,0,0,1-3.179-2.69l-3.485-21.338a2.705,2.705,0,0,1,2.629-3.118h25.862a1.836,1.836,0,0,0,1.712-1.284l.734-2.262a1.836,1.836,0,0,1,1.712-1.284h24.639A2.968,2.968,0,0,1,607.061,586.374Z" transform="translate(-547.113 -583.072)" fill="#fff"/>
    </g>
    <g id="Group_4492" data-name="Group 4492" transform="translate(557.322 513.005)">
      <path id="Path_7762" data-name="Path 7762" d="M606.273,526.76l-1.956,21.216a1.277,1.277,0,0,1-1.467,1.162L582.184,547a1.363,1.363,0,0,1-1.223-1.467l2.812-27.207a1.277,1.277,0,0,1,1.467-1.162l14.979,1.529Z" transform="translate(-580.956 -517.144)" fill="#fff"/>
    </g>
    <path id="Path_7763" data-name="Path 7763" d="M612.173,519.772l-.611,5.808a1.555,1.555,0,0,0,1.406,1.651l5.258.55" transform="translate(-35.525 -5.16)" fill="#d5ddea"/>
    <path id="Path_7764" data-name="Path 7764" d="M604.567,549.152l-16.936-1.9a.706.706,0,0,1-.672-.795l1.284-10.822a.787.787,0,0,1,.795-.673l16.936,1.834a.706.706,0,0,1,.672.795l-1.284,10.822A.844.844,0,0,1,604.567,549.152Z" transform="translate(-25.964 -11.062)" fill="#ecf0f8"/>
    <path id="Path_7765" data-name="Path 7765" d="M598.289,550.763l-7.825-.917,4.4-3.974Z" transform="translate(-27.329 -15.302)" fill="#d5ddea"/>
    <path id="Path_7766" data-name="Path 7766" d="M606.675,550.6l-11.311-1.345,6.42-5.686Z" transform="translate(-29.233 -14.409)" fill="#fff"/>
    <path id="Path_7767" data-name="Path 7767" d="M595.692,541.129a1.528,1.528,0,1,0-1.529-1.528A1.514,1.514,0,0,0,595.692,541.129Z" transform="translate(-28.766 -12.271)" fill="#d5ddea"/>
    <path id="Path_7768" data-name="Path 7768" d="M600.709,524.474l-10.272-1.162c-.122,0-.245-.122-.183-.245v-.122c0-.122.122-.245.245-.183l10.272,1.162c.122,0,.244.122.183.245v.122C601.014,524.412,600.892,524.535,600.709,524.474Z" transform="translate(-27.241 -6.316)" fill="#d5ddea"/>
    <path id="Path_7769" data-name="Path 7769" d="M600.53,527.674l-10.394-1.162c-.122,0-.245-.122-.183-.245v-.122c0-.122.122-.245.245-.183l10.394,1.162c.122,0,.245.122.183.245v.122C600.836,527.551,600.652,527.674,600.53,527.674Z" transform="translate(-27.124 -7.559)" fill="#d5ddea"/>
    <path id="Path_7770" data-name="Path 7770" d="M599.5,560.141l-12.9-1.467a.269.269,0,0,1-.245-.367c0-.183.183-.306.428-.245l12.839,1.467a.269.269,0,0,1,.245.367C599.8,560.08,599.682,560.2,599.5,560.141Z" transform="translate(-25.725 -20.033)" fill="#d5ddea"/>
    <path id="Path_7771" data-name="Path 7771" d="M598.846,530.713l-9.049-1.039a.269.269,0,0,1-.245-.367c0-.183.183-.306.428-.245l9.049,1.039a.27.27,0,0,1,.245.367A.44.44,0,0,1,598.846,530.713Z" transform="translate(-26.968 -8.764)" fill="#d5ddea"/>
    <path id="Path_7772" data-name="Path 7772" d="M604.074,563.813l-17.975-2.14a.27.27,0,0,1-.245-.367c0-.183.183-.306.428-.245l17.975,2.079a.269.269,0,0,1,.245.367A.46.46,0,0,1,604.074,563.813Z" transform="translate(-25.531 -21.199)" fill="#d5ddea"/>
    <path id="Path_7773" data-name="Path 7773" d="M584.007,510.21a.514.514,0,0,1-.672-.245l-1.1-2.751a.506.506,0,1,1,.917-.428l1.1,2.751C584.435,509.9,584.312,510.149,584.007,510.21Z" transform="translate(-24.112)" fill="#d5ddea"/>
    <path id="Path_7774" data-name="Path 7774" d="M579.448,516.058a.443.443,0,0,1-.489.122l-2.874-.55a.548.548,0,0,1-.428-.611.467.467,0,0,1,.611-.367l2.874.55a.548.548,0,0,1,.428.611C579.509,515.874,579.509,516,579.448,516.058Z" transform="translate(-21.571 -3.157)" fill="#d5ddea"/>
    <path id="Path_7775" data-name="Path 7775" d="M591.1,509.981c-.061,0-.122-.061-.245-.061a.557.557,0,0,1-.061-.734l1.773-2.323a.521.521,0,0,1,.795.673l-1.773,2.323A1.889,1.889,0,0,1,591.1,509.981Z" transform="translate(-27.414 -0.077)" fill="#d5ddea"/>
    <path id="Path_7776" data-name="Path 7776" d="M601.22,619.484a16.352,16.352,0,0,1-1.039,3.057,12,12,0,0,1-5.258,5.2,11.789,11.789,0,0,1-7.826,1.039,11.985,11.985,0,0,1,4.83-23.478,12.716,12.716,0,0,1,6.053,3.24A11.943,11.943,0,0,1,601.22,619.484Z" transform="translate(-22.311 -38.291)" fill="#fafafa"/>
    <path id="Path_7777" data-name="Path 7777" d="M597.885,620.563h-2.751v-2.751a1.039,1.039,0,0,0-2.079,0v2.751H590.3a1.031,1.031,0,0,0-1.039,1.039,1,1,0,0,0,1.039,1.039h2.751v2.751a1.039,1.039,0,0,0,2.079,0v-2.751h2.751a1.039,1.039,0,1,0,0-2.079Z" transform="translate(-26.862 -42.854)" fill="#ffc529"/>
  </g>
</svg>
