<svg xmlns="http://www.w3.org/2000/svg" xmlns:xlink="http://www.w3.org/1999/xlink" width="220" height="220" viewBox="0 0 220 220">
  <defs>
    <linearGradient id="linear-gradient" x1="0.5" x2="0.5" y2="1" gradientUnits="objectBoundingBox">
      <stop offset="0" stop-color="#fff" stop-opacity="0.239"/>
      <stop offset="1" stop-color="#fff"/>
    </linearGradient>
  </defs>
  <g id="Group_4708" data-name="Group 4708" transform="translate(-78 -165)">
    <rect id="Rectangle_10" data-name="Rectangle 10" width="220" height="220" rx="110" transform="translate(78 165)" opacity="0.3" fill="url(#linear-gradient)"/>
    <rect id="Rectangle_11" data-name="Rectangle 11" width="180" height="180" rx="90" transform="translate(98 185)" fill="#fff"/>
    <g id="bill" transform="translate(122 208.999)">
      <path id="Path_2009" data-name="Path 2009" d="M132.318,66.16a66.261,66.261,0,1,1-24.79-51.631,65.864,65.864,0,0,1,24.79,51.631Zm0,0" fill="#43d477"/>
      <path id="Path_2010" data-name="Path 2010" d="M153.425,103.165A66.184,66.184,0,0,1,59,124.263a450.8,450.8,0,0,1-17.009-92.3Q41.009,19.443,40.73,6.85q8.121,3.528,16.291,6.791,7.9-3.88,15.859-7.5,1.086.438,2.17.87Q82.088,9.8,89.158,12.4q7.907-3.618,15.876-6.973,8.109,3,16.262,5.733,1.632-.689,3.265-1.369,6.295-2.617,12.629-5.072.147,6.663.543,13.307a354.159,354.159,0,0,0,15.692,85.135Zm0,0" transform="translate(-30.204 -3.501)" fill="#f1f4fe"/>
      <path id="Path_2011" data-name="Path 2011" d="M193.8,374.164a66.184,66.184,0,0,1-94.43,21.1q-2.232-7.57-4.194-15.211a66.159,66.159,0,0,0,97.391-9.886q.6,2,1.232,4Zm0,0" transform="translate(-70.582 -274.5)" fill="#c5cae2"/>
      <g id="Group_2629" data-name="Group 2629" transform="translate(24.104 23.416)">
        <path id="Path_2012" data-name="Path 2012" d="M97.313,107.153a4.051,4.051,0,0,1-.5-8.071l67.565-8.446a4.051,4.051,0,1,1,1,8.039l-67.565,8.446A4.121,4.121,0,0,1,97.313,107.153Zm0,0" transform="translate(-93.268 -90.606)" fill="#274b7b"/>
        <path id="Path_2013" data-name="Path 2013" d="M112.291,181.387a4.051,4.051,0,0,1-.55-8.064l66.158-9.149a4.05,4.05,0,0,1,1.109,8.025l-66.158,9.149a4.04,4.04,0,0,1-.559.039Zm0,0" transform="translate(-104.374 -145.132)" fill="#274b7b"/>
        <path id="Path_2014" data-name="Path 2014" d="M251.439,326.529a4.051,4.051,0,0,1-.715-8.037l40.05-7.231a4.05,4.05,0,0,1,1.44,7.972l-40.051,7.231a4.114,4.114,0,0,1-.724.065Zm0,0" transform="translate(-207.561 -254.188)" fill="#274b7b"/>
        <path id="Path_2015" data-name="Path 2015" d="M171.126,371.12c-5.511,1.379-10.776-.167-11.608-3.077-.442-1.547.273-4.212,2-4.706,1.91-.546,4.225,1.695,7.76,1.323l-2.108-7.368c-4.641-.4-10.112-.946-11.778-6.769-1.653-5.776,1.829-9.775,6.456-11.837l-.364-1.273c-.182-.637.377-1.436,1.378-1.722.863-.247,1.9.1,2.08.733l.325,1.138c2.846-.716,8.377-1.51,9.274,1.628.351,1.228.248,3.964-1.754,4.537-1.5.429-2.781-.779-5.8-.161l1.9,6.642c4.582.362,10.015,1.122,11.772,7.262,1.613,5.64-1.05,10.093-6.125,12.48l.377,1.319c.183.636-.513,1.475-1.377,1.722-1,.286-1.9-.1-2.08-.734Zm-5.556-21.145-1.549-5.413c-1.93.994-2.5,2.288-2.183,3.38C162.216,349.26,163.632,349.741,165.569,349.975Zm4.955,7.686,1.743,6.1c1.443-.807,2.423-2.022,1.955-3.659C173.793,358.6,172.383,357.966,170.524,357.661Zm0,0" transform="translate(-139.028 -272.293)" fill="#274b7b"/>
      </g>
    </g>
  </g>
</svg>
