<svg xmlns="http://www.w3.org/2000/svg" xmlns:xlink="http://www.w3.org/1999/xlink" width="24" height="24" viewBox="0 0 24 24">
  <defs>
    <clipPath id="clip-path">
      <rect id="Rectangle_319" data-name="Rectangle 319" width="24" height="24" transform="translate(1216 1347)" fill="#fff" stroke="#707070" stroke-width="1"/>
    </clipPath>
  </defs>
  <g id="Mask_Group_68" data-name="Mask Group 68" transform="translate(-1216 -1347)" clip-path="url(#clip-path)">
    <g id="support" transform="translate(1216 1347)">
      <g id="Group_631" data-name="Group 631">
        <path id="Path_893" data-name="Path 893" d="M12,0A10.559,10.559,0,0,0,1.453,10.547v5.719a2.112,2.112,0,0,0,2.109,2.109h.824a2.109,2.109,0,0,0,4.1-.7V11.953a2.109,2.109,0,0,0-4.1-.7H3.563a2.1,2.1,0,0,0-.7.121v-.824a9.141,9.141,0,0,1,18.281,0v.824a2.1,2.1,0,0,0-.7-.121h-.824a2.109,2.109,0,0,0-4.1.7v5.719a2.109,2.109,0,0,0,2.722,2.018,2.113,2.113,0,0,1-2.018,1.5h-2.23a2.109,2.109,0,1,0,0,1.406h2.23a3.52,3.52,0,0,0,3.516-3.516v-.7h.7a2.112,2.112,0,0,0,2.109-2.109V10.547A10.559,10.559,0,0,0,12,0ZM5.672,11.953a.7.7,0,0,1,1.406,0v5.719a.7.7,0,0,1-1.406,0Zm-2.109.7h.7v4.313h-.7a.7.7,0,0,1-.7-.7V13.359A.7.7,0,0,1,3.563,12.656ZM12,22.594a.7.7,0,1,1,.7-.7A.7.7,0,0,1,12,22.594Zm6.328-4.922a.7.7,0,0,1-1.406,0V11.953a.7.7,0,0,1,1.406,0Zm2.813-1.406a.7.7,0,0,1-.7.7h-.7V12.656h.7a.7.7,0,0,1,.7.7Z" fill="#fff"/>
      </g>
    </g>
  </g>
</svg>
