<svg id="Ticket" xmlns="http://www.w3.org/2000/svg" width="13.333" height="10.667" viewBox="0 0 13.333 10.667">
  <path id="Ticket-2" data-name="Ticket" d="M10.813,10.667h-2.1a.388.388,0,0,1-.394-.382V8.932a.472.472,0,0,0-.484-.47.477.477,0,0,0-.484.47v1.353a.388.388,0,0,1-.392.382H2.521A2.489,2.489,0,0,1,0,8.218V6.611A.462.462,0,0,1,.493,6.17a.855.855,0,0,0,.855-.839.808.808,0,0,0-.864-.783.489.489,0,0,1-.342-.138A.46.46,0,0,1,0,4.078V2.455A2.5,2.5,0,0,1,2.527,0h4.43A.388.388,0,0,1,7.35.382v1.6a.483.483,0,0,0,.484.47.477.477,0,0,0,.484-.47V.382A.388.388,0,0,1,8.711,0h2.1a2.488,2.488,0,0,1,2.521,2.449V4.027a.463.463,0,0,1-.142.332.489.489,0,0,1-.342.137.837.837,0,1,0-.009,1.673.462.462,0,0,1,.493.441V8.218A2.488,2.488,0,0,1,10.813,10.667ZM7.834,3.8a.483.483,0,0,0-.484.469V6.777a.483.483,0,0,0,.484.47.477.477,0,0,0,.484-.47V4.271A.477.477,0,0,0,7.834,3.8Z" fill="#a9aeb2"/>
</svg>
