<svg id="Time_Square" data-name="Time Square" xmlns="http://www.w3.org/2000/svg" width="10" height="10" viewBox="0 0 10 10">
  <path id="Time_Square-2" data-name="Time Square" d="M7.17,10H2.835A2.743,2.743,0,0,1,0,7.044V2.96A2.745,2.745,0,0,1,2.835,0H7.17A2.743,2.743,0,0,1,10,2.96V7.044A2.741,2.741,0,0,1,7.17,10ZM4.825,2.46a.38.38,0,0,0-.375.375V5.36a.367.367,0,0,0,.185.32L6.6,6.85A.348.348,0,0,0,6.79,6.9a.373.373,0,0,0,.32-.185.36.36,0,0,0,.045-.276.381.381,0,0,0-.175-.239L5.2,5.145V2.835A.375.375,0,0,0,4.825,2.46Z" fill="#fff"/>
</svg>
