<svg xmlns="http://www.w3.org/2000/svg" width="19.703" height="19.703" viewBox="0 0 19.703 19.703">
  <g id="w3c_3_" data-name="w3c (3)" transform="translate(0 0)">
    <path id="Path_8052" data-name="Path 8052" d="M19.474,291.613a1.369,1.369,0,0,0-1.975-.33L14.607,293.5a2.6,2.6,0,0,1-2.583,2.325H7.773a.577.577,0,0,1,0-1.154h4.251a1.443,1.443,0,0,0,0-2.886H8.906l-.14-.091a4.078,4.078,0,0,0-2.223-.658,4.143,4.143,0,0,0-2.62.936L.211,295.018A.577.577,0,0,0,.2,295.9l3.925,3.463a.577.577,0,0,0,.657.074l2.038-1.106H12.4a4.425,4.425,0,0,0,3.1-1.263l3.8-3.717A1.369,1.369,0,0,0,19.474,291.613Z" transform="translate(0 -279.803)" fill="#5090fe"/>
    <path id="Path_8053" data-name="Path 8053" d="M132.577,72.309h4.233V70h-4.233a.577.577,0,0,0-.577.577v1.154A.577.577,0,0,0,132.577,72.309Z" transform="translate(-126.921 -67.306)" fill="#5090fe"/>
    <path id="Path_8054" data-name="Path 8054" d="M377,72.309h4.233a.577.577,0,0,0,.577-.577V70.577a.577.577,0,0,0-.577-.577H377Z" transform="translate(-362.493 -67.306)" fill="#5090fe"/>
    <path id="Path_8055" data-name="Path 8055" d="M367.436,1.539,366.926.35a.577.577,0,0,0-.789-.289l-.975.488a2.3,2.3,0,0,1,.423.991Z" transform="translate(-351.11 0)" fill="#5090fe"/>
    <path id="Path_8056" data-name="Path 8056" d="M212.031.549l-.975-.488a.577.577,0,0,0-.789.289l-.51,1.189h1.851a2.3,2.3,0,0,1,.423-.991Z" transform="translate(-201.685 0)" fill="#5090fe"/>
    <path id="Path_8057" data-name="Path 8057" d="M287.705,27.6l.449-.674.449.674a.385.385,0,0,0,.7-.213V21.154a1.154,1.154,0,1,0-2.309,0v6.233A.385.385,0,0,0,287.705,27.6Z" transform="translate(-275.956 -19.231)" fill="#5090fe" opacity="0.3"/>
    <path id="Path_8058" data-name="Path 8058" d="M168.729,163.54a1.528,1.528,0,0,0-1.531,0,1.543,1.543,0,0,1-1.543-1.54v-.635h0V160H162v3.934c.1-.006.206-.009.309-.009a5.229,5.229,0,0,1,2.7.748h2.783a2.6,2.6,0,0,1,2.384,1.567l2.388-1.832a2.5,2.5,0,0,1,1.366-.515V160h-3.656v2a1.537,1.537,0,0,1-1.543,1.54Z" transform="translate(-155.765 -153.843)" fill="#5090fe"/>
  </g>
</svg>
