<svg id="Upload" xmlns="http://www.w3.org/2000/svg" width="13.333" height="13.853" viewBox="0 0 13.333 13.853">
  <path id="Upload-2" data-name="Upload" d="M2.966,13.853A2.993,2.993,0,0,1,0,10.977l0-.142V7.525a2.99,2.99,0,0,1,2.821-3l.139,0H6.154V8.59a.513.513,0,0,0,1.022.071l0-.071V4.52h3.187A2.993,2.993,0,0,1,13.33,7.4l0,.142v3.3a2.991,2.991,0,0,1-2.821,3.008l-.139,0ZM6.154,4.52V1.76L5.093,2.827a.515.515,0,0,1-.727,0,.509.509,0,0,1-.056-.669L4.36,2.1,6.3.154A.509.509,0,0,1,6.667,0a.5.5,0,0,1,.3.1l.06.055L8.967,2.1a.514.514,0,0,1-.67.776l-.057-.05L7.18,1.76V4.52Z" transform="translate(0 0)" fill="#a9aeb2"/>
</svg>
