<svg xmlns="http://www.w3.org/2000/svg" width="20.833" height="15.512" viewBox="0 0 20.833 15.512">
  <g id="Video" transform="translate(0.751 0.751)">
    <path id="Stroke_1" data-name="Stroke 1" d="M14,10.538A3.375,3.375,0,0,1,10.695,14c-.14.006-6.979-.008-6.979-.008a3.405,3.405,0,0,1-3.7-3.043C0,10.81,0,3.472,0,3.472A3.378,3.378,0,0,1,3.3,0C3.444,0,10.274.01,10.274.01A3.421,3.421,0,0,1,13.99,3.074C14,3.206,14,10.538,14,10.538Z" fill="none" stroke="#1d2d3a" stroke-linecap="round" stroke-linejoin="round" stroke-miterlimit="10" stroke-width="1.5"/>
    <path id="Stroke_3" data-name="Stroke 3" d="M0,2.98,3.293.285a1.248,1.248,0,0,1,2.039.967L5.32,8.6a1.248,1.248,0,0,1-2.04.962L0,6.868" transform="translate(14 2)" fill="none" stroke="#1d2d3a" stroke-linecap="round" stroke-linejoin="round" stroke-miterlimit="10" stroke-width="1.5"/>
  </g>
</svg>
