<svg xmlns="http://www.w3.org/2000/svg" width="33.333" height="30" viewBox="0 0 33.333 30">
  <g id="Wallet" transform="translate(0)">
    <path id="Fill_1" data-name="Fill 1" d="M24.195,30H9.139a9.389,9.389,0,0,1-6.724-2.355A8.886,8.886,0,0,1,0,21.09V8.9A8.866,8.866,0,0,1,2.415,2.348,9.4,9.4,0,0,1,9.139,0H24.189a9.4,9.4,0,0,1,6.723,2.348A8.868,8.868,0,0,1,33.327,8.9v.062H26.269a5.9,5.9,0,0,0-5.95,5.8,5.7,5.7,0,0,0,1.739,4.111,5.992,5.992,0,0,0,4.211,1.707h7.063v.51a8.888,8.888,0,0,1-2.415,6.555A9.386,9.386,0,0,1,24.195,30ZM7.9,6.457A1.264,1.264,0,0,0,6.63,7.7a1.219,1.219,0,0,0,.37.88,1.282,1.282,0,0,0,.9.368h9.418a1.282,1.282,0,0,0,.9-.368,1.221,1.221,0,0,0,.37-.881,1.264,1.264,0,0,0-1.278-1.239Z" transform="translate(0)" fill="#fff"/>
    <path id="Fill_4" data-name="Fill 4" d="M.062,3.994A3.363,3.363,0,0,0,3.388,6.666H8.8A1.209,1.209,0,0,0,10,5.443V1.224A1.213,1.213,0,0,0,8.8,0H3.26A3.308,3.308,0,0,0,0,3.35a3.385,3.385,0,0,0,.062.644" transform="translate(23.333 11.5)" fill="#fff" opacity="0.4"/>
    <circle id="Oval" cx="1.667" cy="1.667" r="1.667" transform="translate(25 13.167)" fill="#fff"/>
  </g>
</svg>
